%TF.GenerationSoftware,KiCad,Pcbnew,9.0.4-9.0.4-0~ubuntu24.04.1*%
%TF.CreationDate,2025-09-27T21:59:24+02:00*%
%TF.ProjectId,ModuCard-vesc-to-mms-converter,4d6f6475-4361-4726-942d-766573632d74,rev?*%
%TF.SameCoordinates,Original*%
%TF.FileFunction,Copper,L1,Top*%
%TF.FilePolarity,Positive*%
%FSLAX46Y46*%
G04 Gerber Fmt 4.6, Leading zero omitted, Abs format (unit mm)*
G04 Created by KiCad (PCBNEW 9.0.4-9.0.4-0~ubuntu24.04.1) date 2025-09-27 21:59:24*
%MOMM*%
%LPD*%
G01*
G04 APERTURE LIST*
G04 Aperture macros list*
%AMRoundRect*
0 Rectangle with rounded corners*
0 $1 Rounding radius*
0 $2 $3 $4 $5 $6 $7 $8 $9 X,Y pos of 4 corners*
0 Add a 4 corners polygon primitive as box body*
4,1,4,$2,$3,$4,$5,$6,$7,$8,$9,$2,$3,0*
0 Add four circle primitives for the rounded corners*
1,1,$1+$1,$2,$3*
1,1,$1+$1,$4,$5*
1,1,$1+$1,$6,$7*
1,1,$1+$1,$8,$9*
0 Add four rect primitives between the rounded corners*
20,1,$1+$1,$2,$3,$4,$5,0*
20,1,$1+$1,$4,$5,$6,$7,0*
20,1,$1+$1,$6,$7,$8,$9,0*
20,1,$1+$1,$8,$9,$2,$3,0*%
G04 Aperture macros list end*
%TA.AperFunction,ComponentPad*%
%ADD10C,0.900000*%
%TD*%
%TA.AperFunction,ComponentPad*%
%ADD11C,8.000000*%
%TD*%
%TA.AperFunction,SMDPad,CuDef*%
%ADD12RoundRect,0.100000X-0.712500X-0.100000X0.712500X-0.100000X0.712500X0.100000X-0.712500X0.100000X0*%
%TD*%
%TA.AperFunction,ComponentPad*%
%ADD13RoundRect,0.250000X-0.600000X-0.725000X0.600000X-0.725000X0.600000X0.725000X-0.600000X0.725000X0*%
%TD*%
%TA.AperFunction,ComponentPad*%
%ADD14O,1.700000X1.950000*%
%TD*%
%TA.AperFunction,SMDPad,CuDef*%
%ADD15RoundRect,0.225000X-0.250000X0.225000X-0.250000X-0.225000X0.250000X-0.225000X0.250000X0.225000X0*%
%TD*%
%TA.AperFunction,ComponentPad*%
%ADD16R,1.600000X1.600000*%
%TD*%
%TA.AperFunction,ComponentPad*%
%ADD17O,1.600000X1.600000*%
%TD*%
%TA.AperFunction,SMDPad,CuDef*%
%ADD18RoundRect,0.135000X0.135000X0.185000X-0.135000X0.185000X-0.135000X-0.185000X0.135000X-0.185000X0*%
%TD*%
%TA.AperFunction,SMDPad,CuDef*%
%ADD19RoundRect,0.200000X-0.275000X0.200000X-0.275000X-0.200000X0.275000X-0.200000X0.275000X0.200000X0*%
%TD*%
%TA.AperFunction,SMDPad,CuDef*%
%ADD20RoundRect,0.200000X0.275000X-0.200000X0.275000X0.200000X-0.275000X0.200000X-0.275000X-0.200000X0*%
%TD*%
%TA.AperFunction,SMDPad,CuDef*%
%ADD21RoundRect,0.135000X-0.135000X-0.185000X0.135000X-0.185000X0.135000X0.185000X-0.135000X0.185000X0*%
%TD*%
%TA.AperFunction,ComponentPad*%
%ADD22R,0.900000X2.000000*%
%TD*%
%TA.AperFunction,ComponentPad*%
%ADD23RoundRect,1.025000X1.025000X1.025000X-1.025000X1.025000X-1.025000X-1.025000X1.025000X-1.025000X0*%
%TD*%
%TA.AperFunction,ComponentPad*%
%ADD24C,4.100000*%
%TD*%
%TA.AperFunction,SMDPad,CuDef*%
%ADD25R,1.200000X1.400000*%
%TD*%
%TA.AperFunction,SMDPad,CuDef*%
%ADD26RoundRect,0.140000X-0.170000X0.140000X-0.170000X-0.140000X0.170000X-0.140000X0.170000X0.140000X0*%
%TD*%
%TA.AperFunction,SMDPad,CuDef*%
%ADD27RoundRect,0.200000X-0.200000X-0.275000X0.200000X-0.275000X0.200000X0.275000X-0.200000X0.275000X0*%
%TD*%
%TA.AperFunction,ComponentPad*%
%ADD28R,1.500000X1.500000*%
%TD*%
%TA.AperFunction,ComponentPad*%
%ADD29C,1.500000*%
%TD*%
%TA.AperFunction,ComponentPad*%
%ADD30C,2.300000*%
%TD*%
%TA.AperFunction,ViaPad*%
%ADD31C,0.600000*%
%TD*%
%TA.AperFunction,ViaPad*%
%ADD32C,0.550000*%
%TD*%
%TA.AperFunction,ViaPad*%
%ADD33C,0.650000*%
%TD*%
%TA.AperFunction,Conductor*%
%ADD34C,0.200000*%
%TD*%
%TA.AperFunction,Conductor*%
%ADD35C,0.254000*%
%TD*%
%TA.AperFunction,Conductor*%
%ADD36C,0.240000*%
%TD*%
%TA.AperFunction,Conductor*%
%ADD37C,0.300000*%
%TD*%
%TA.AperFunction,Conductor*%
%ADD38C,0.160000*%
%TD*%
%TA.AperFunction,Conductor*%
%ADD39C,0.750000*%
%TD*%
%TA.AperFunction,Conductor*%
%ADD40C,0.508000*%
%TD*%
G04 APERTURE END LIST*
D10*
%TO.P,H10,1,1*%
%TO.N,GND*%
X98000000Y-105300000D03*
X97121320Y-107421320D03*
X97121320Y-103178680D03*
X95000000Y-108300000D03*
D11*
X95000000Y-105300000D03*
D10*
X95000000Y-102300000D03*
X92878680Y-107421320D03*
X92878680Y-103178680D03*
X92000000Y-105300000D03*
%TD*%
D12*
%TO.P,U1,1,DM4*%
%TO.N,unconnected-(U1-DM4-Pad1)*%
X93003750Y-122860000D03*
%TO.P,U1,2,DP4*%
%TO.N,unconnected-(U1-DP4-Pad2)*%
X93003750Y-123495000D03*
%TO.P,U1,3,DM3*%
%TO.N,unconnected-(U1-DM3-Pad3)*%
X93003750Y-124130000D03*
%TO.P,U1,4,DP3*%
%TO.N,unconnected-(U1-DP3-Pad4)*%
X93003750Y-124765000D03*
%TO.P,U1,5,DM2*%
%TO.N,Net-(U1-DM2)*%
X93003750Y-125400000D03*
%TO.P,U1,6,DP2*%
%TO.N,Net-(U1-DP2)*%
X93003750Y-126035000D03*
%TO.P,U1,7,DM1*%
%TO.N,Net-(U1-DM1)*%
X93003750Y-126670000D03*
%TO.P,U1,8,DP1*%
%TO.N,Net-(U1-DP1)*%
X93003750Y-127305000D03*
%TO.P,U1,9,RESET#/CDP*%
%TO.N,unconnected-(U1-RESET#{slash}CDP-Pad9)*%
X98278750Y-127305000D03*
%TO.P,U1,10,DMU*%
%TO.N,USB_UPSTREAM_D-*%
X98278750Y-126670000D03*
%TO.P,U1,11,DPU*%
%TO.N,USB_UPSTREAM_D+*%
X98278750Y-126035000D03*
%TO.P,U1,12,V5*%
%TO.N,+5V*%
X98278750Y-125400000D03*
%TO.P,U1,13,VDD33*%
%TO.N,Net-(U1-VDD33)*%
X98278750Y-124765000D03*
%TO.P,U1,14,GND*%
%TO.N,GND*%
X98278750Y-124130000D03*
%TO.P,U1,15,XO*%
%TO.N,Net-(U1-XO)*%
X98278750Y-123495000D03*
%TO.P,U1,16,XI*%
%TO.N,Net-(U1-XI)*%
X98278750Y-122860000D03*
%TD*%
D13*
%TO.P,J3,1,Pin_1*%
%TO.N,GND*%
X106660000Y-115245000D03*
D14*
%TO.P,J3,2,Pin_2*%
%TO.N,/CAN/CAN-*%
X109160000Y-115245000D03*
%TO.P,J3,3,Pin_3*%
%TO.N,/CAN/CAN+*%
X111660000Y-115245000D03*
%TO.P,J3,4,Pin_4*%
%TO.N,+5V*%
X114160000Y-115245000D03*
%TD*%
D15*
%TO.P,C5,1*%
%TO.N,GND*%
X97681250Y-120085000D03*
%TO.P,C5,2*%
%TO.N,Net-(U1-VDD33)*%
X97681250Y-121635000D03*
%TD*%
D16*
%TO.P,SW1,1*%
%TO.N,Net-(R2-Pad2)*%
X122110000Y-115580000D03*
D17*
%TO.P,SW1,2*%
%TO.N,Net-(R3-Pad2)*%
X119570000Y-115580000D03*
%TO.P,SW1,3*%
%TO.N,/CAN/CAN2-*%
X119570000Y-123200000D03*
%TO.P,SW1,4*%
%TO.N,/CAN/CAN1+*%
X122110000Y-123200000D03*
%TD*%
D18*
%TO.P,R11,1*%
%TO.N,Net-(U1-DM1)*%
X91161249Y-126882500D03*
%TO.P,R11,2*%
%TO.N,USB_DOWNSTREAM_D-*%
X90141251Y-126882500D03*
%TD*%
D19*
%TO.P,R8,1*%
%TO.N,/CAN/CAN-*%
X105300000Y-121475000D03*
%TO.P,R8,2*%
%TO.N,/CAN/CAN1-*%
X105300000Y-123125000D03*
%TD*%
D20*
%TO.P,R2,1*%
%TO.N,/CAN/CAN1-*%
X113600000Y-123125000D03*
%TO.P,R2,2*%
%TO.N,Net-(R2-Pad2)*%
X113600000Y-121475000D03*
%TD*%
D21*
%TO.P,R12,1*%
%TO.N,USB_DOWNSTREAM_D+*%
X90141250Y-127982500D03*
%TO.P,R12,2*%
%TO.N,Net-(U1-DP1)*%
X91161250Y-127982500D03*
%TD*%
D20*
%TO.P,R3,1*%
%TO.N,/CAN/CAN2+*%
X112000000Y-123125000D03*
%TO.P,R3,2*%
%TO.N,Net-(R3-Pad2)*%
X112000000Y-121475000D03*
%TD*%
D10*
%TO.P,H9,1,1*%
%TO.N,VCC*%
X122000000Y-105300000D03*
X122878680Y-103178680D03*
X122878680Y-107421320D03*
X125000000Y-102300000D03*
D11*
X125000000Y-105300000D03*
D10*
X125000000Y-108300000D03*
X127121320Y-103178680D03*
X127121320Y-107421320D03*
X128000000Y-105300000D03*
%TD*%
D21*
%TO.P,R17,1*%
%TO.N,+12V*%
X94000000Y-131250000D03*
%TO.P,R17,2*%
%TO.N,Net-(J2-Pad10)*%
X95019998Y-131250000D03*
%TD*%
D13*
%TO.P,J4,1,Pin_1*%
%TO.N,GND*%
X90740000Y-115240000D03*
D14*
%TO.P,J4,2,Pin_2*%
X93240000Y-115240000D03*
%TO.P,J4,3,Pin_3*%
%TO.N,/USB/USB_VESC_D+*%
X95740000Y-115240000D03*
%TO.P,J4,4,Pin_4*%
%TO.N,/USB/USB_VESC_D-*%
X98240000Y-115240000D03*
%TO.P,J4,5,Pin_5*%
%TO.N,+5V*%
X100740000Y-115240000D03*
%TD*%
D22*
%TO.P,J5,*%
%TO.N,*%
X138100000Y-137930001D03*
X124600000Y-137930001D03*
D23*
%TO.P,J5,1,Pin_1*%
%TO.N,GND*%
X134950000Y-131930001D03*
D24*
%TO.P,J5,2,Pin_2*%
%TO.N,VCC*%
X127750000Y-131930001D03*
%TD*%
D25*
%TO.P,Y1,1,1*%
%TO.N,Net-(U1-XO)*%
X102521250Y-124150001D03*
%TO.P,Y1,2,2*%
%TO.N,GND*%
X102521250Y-121950001D03*
%TO.P,Y1,3,3*%
%TO.N,Net-(U1-XI)*%
X100821250Y-121950001D03*
%TO.P,Y1,4,4*%
%TO.N,GND*%
X100821250Y-124150001D03*
%TD*%
D21*
%TO.P,R9,1*%
%TO.N,/USB/USB_VESC_D-*%
X90141250Y-124882500D03*
%TO.P,R9,2*%
%TO.N,Net-(U1-DM2)*%
X91161250Y-124882500D03*
%TD*%
D19*
%TO.P,R6,1*%
%TO.N,/CAN/CAN+*%
X106850001Y-121475000D03*
%TO.P,R6,2*%
%TO.N,/CAN/CAN1+*%
X106850001Y-123125000D03*
%TD*%
D15*
%TO.P,C6,1*%
%TO.N,GND*%
X99181250Y-120085000D03*
%TO.P,C6,2*%
%TO.N,Net-(U1-VDD33)*%
X99181250Y-121635000D03*
%TD*%
D21*
%TO.P,R1,1*%
%TO.N,+12V*%
X107090000Y-131100000D03*
%TO.P,R1,2*%
%TO.N,Net-(J1-Pad10)*%
X108110000Y-131100000D03*
%TD*%
D15*
%TO.P,C3,1*%
%TO.N,GND*%
X93081250Y-119985000D03*
%TO.P,C3,2*%
%TO.N,+5V*%
X93081250Y-121535000D03*
%TD*%
D26*
%TO.P,C4,1*%
%TO.N,GND*%
X94281250Y-120880000D03*
%TO.P,C4,2*%
%TO.N,+5V*%
X94281250Y-121840000D03*
%TD*%
%TO.P,C7,1*%
%TO.N,GND*%
X96481250Y-120880000D03*
%TO.P,C7,2*%
%TO.N,Net-(U1-VDD33)*%
X96481250Y-121840000D03*
%TD*%
D20*
%TO.P,R7,1*%
%TO.N,/CAN/CAN2-*%
X108870001Y-123095000D03*
%TO.P,R7,2*%
%TO.N,/CAN/CAN-*%
X108870001Y-121445000D03*
%TD*%
D18*
%TO.P,R4,1*%
%TO.N,+12V*%
X90909999Y-131180001D03*
%TO.P,R4,2*%
%TO.N,Net-(J2-Pad12)*%
X89890001Y-131180001D03*
%TD*%
D20*
%TO.P,R5,1*%
%TO.N,/CAN/CAN2+*%
X110410000Y-123095000D03*
%TO.P,R5,2*%
%TO.N,/CAN/CAN+*%
X110410000Y-121445000D03*
%TD*%
D21*
%TO.P,R10,1*%
%TO.N,/USB/USB_VESC_D+*%
X90131250Y-125882500D03*
%TO.P,R10,2*%
%TO.N,Net-(U1-DP2)*%
X91151250Y-125882500D03*
%TD*%
D27*
%TO.P,R13,1*%
%TO.N,USB_DOWNSTREAM_D+*%
X87050000Y-130300000D03*
%TO.P,R13,2*%
%TO.N,USB_UPSTREAM_D+*%
X88700000Y-130300000D03*
%TD*%
D18*
%TO.P,R18,1*%
%TO.N,+12V*%
X106209999Y-131100000D03*
%TO.P,R18,2*%
%TO.N,Net-(J1-Pad12)*%
X105190001Y-131100000D03*
%TD*%
D28*
%TO.P,J1,1*%
%TO.N,/CAN/CAN1-*%
X113744000Y-139980001D03*
D29*
%TO.P,J1,2*%
%TO.N,/CAN/CAN1+*%
X112728000Y-138200000D03*
%TO.P,J1,3*%
%TO.N,GND*%
X111712000Y-139980001D03*
%TO.P,J1,4*%
%TO.N,/CAN/CAN2-*%
X110696000Y-138200000D03*
%TO.P,J1,5*%
%TO.N,/CAN/CAN2+*%
X109680000Y-139980001D03*
%TO.P,J1,6*%
%TO.N,+12V*%
X108664000Y-138200000D03*
%TO.P,J1,7*%
%TO.N,USB_UPSTREAM_D-*%
X107648000Y-139980001D03*
%TO.P,J1,8*%
%TO.N,USB_UPSTREAM_D+*%
X106632001Y-138200001D03*
%TO.P,J1,9*%
%TO.N,GND*%
X117044000Y-133380001D03*
%TO.P,J1,10*%
%TO.N,Net-(J1-Pad10)*%
X114754000Y-133380001D03*
%TO.P,J1,11*%
%TO.N,GND*%
X105614000Y-133380001D03*
%TO.P,J1,12*%
%TO.N,Net-(J1-Pad12)*%
X103324000Y-133380001D03*
D30*
%TO.P,J1,SH*%
%TO.N,GND*%
X118314000Y-139090001D03*
X102054000Y-139090001D03*
%TD*%
D28*
%TO.P,J2,1*%
%TO.N,/CAN/CAN1-*%
X94096000Y-140000000D03*
D29*
%TO.P,J2,2*%
%TO.N,/CAN/CAN1+*%
X93080000Y-138219999D03*
%TO.P,J2,3*%
%TO.N,GND*%
X92064000Y-140000000D03*
%TO.P,J2,4*%
%TO.N,/CAN/CAN2-*%
X91048000Y-138219999D03*
%TO.P,J2,5*%
%TO.N,/CAN/CAN2+*%
X90032000Y-140000000D03*
%TO.P,J2,6*%
%TO.N,+12V*%
X89016000Y-138219999D03*
%TO.P,J2,7*%
%TO.N,USB_DOWNSTREAM_D-*%
X88000000Y-140000000D03*
%TO.P,J2,8*%
%TO.N,USB_DOWNSTREAM_D+*%
X86984001Y-138220000D03*
%TO.P,J2,9*%
%TO.N,GND*%
X97396000Y-133400000D03*
%TO.P,J2,10*%
%TO.N,Net-(J2-Pad10)*%
X95106000Y-133400000D03*
%TO.P,J2,11*%
%TO.N,GND*%
X85966000Y-133400000D03*
%TO.P,J2,12*%
%TO.N,Net-(J2-Pad12)*%
X83676000Y-133400000D03*
D30*
%TO.P,J2,SH*%
%TO.N,GND*%
X98666000Y-139110000D03*
X82406000Y-139110000D03*
%TD*%
D27*
%TO.P,R14,1*%
%TO.N,USB_DOWNSTREAM_D-*%
X87050000Y-128772500D03*
%TO.P,R14,2*%
%TO.N,USB_UPSTREAM_D-*%
X88700000Y-128772500D03*
%TD*%
D31*
%TO.N,+12V*%
X106041704Y-135111003D03*
%TO.N,GND*%
X94681250Y-129060000D03*
X102521250Y-121950001D03*
X95281250Y-122960000D03*
X92481250Y-130490001D03*
X92181250Y-128360000D03*
D32*
X99805000Y-136400000D03*
D31*
X94581250Y-126160000D03*
D32*
X111200000Y-143365000D03*
X101700000Y-133700000D03*
X99805000Y-133782001D03*
D31*
X96653750Y-123682500D03*
X100821250Y-124150001D03*
X94030928Y-130422901D03*
D32*
X101500000Y-136400000D03*
D31*
X95381250Y-124560000D03*
%TO.N,+12V*%
X94000000Y-132080001D03*
D33*
%TO.N,USB_UPSTREAM_D+*%
X91823750Y-129915999D03*
X93343090Y-129967369D03*
%TO.N,USB_UPSTREAM_D-*%
X91864446Y-129140063D03*
X93755750Y-129309004D03*
D32*
%TO.N,/CAN/CAN2-*%
X117400000Y-128125000D03*
X108892000Y-146615000D03*
%TO.N,/CAN/CAN2+*%
X108160000Y-147465000D03*
%TO.N,/CAN/CAN1-*%
X110024999Y-128276370D03*
X113430000Y-144542000D03*
X113650000Y-123130741D03*
%TO.N,/CAN/CAN1+*%
X118480000Y-130120001D03*
X112680000Y-145415000D03*
%TO.N,/CAN/CAN-*%
X105300000Y-121475000D03*
%TO.N,/CAN/CAN+*%
X106850001Y-121475000D03*
%TD*%
D34*
%TO.N,+12V*%
X90909999Y-131180001D02*
X93930001Y-131180001D01*
X93930001Y-131180001D02*
X94000000Y-131250000D01*
D35*
%TO.N,/USB/USB_VESC_D+*%
X90131250Y-125882500D02*
X89873250Y-125624500D01*
X89873250Y-125624500D02*
X89424500Y-125624500D01*
X89424500Y-125624500D02*
X88600000Y-124800000D01*
X88600000Y-124800000D02*
X88600000Y-119150000D01*
X88600000Y-119150000D02*
X90087000Y-117663000D01*
X90087000Y-117663000D02*
X96087000Y-117663000D01*
X96087000Y-117663000D02*
X96800000Y-116950000D01*
X96800000Y-116950000D02*
X96800000Y-116250000D01*
X96800000Y-116250000D02*
X95790000Y-115240000D01*
X95790000Y-115240000D02*
X95740000Y-115240000D01*
%TO.N,/USB/USB_VESC_D-*%
X90141250Y-124882500D02*
X89873250Y-125150500D01*
X89873250Y-125150500D02*
X89550500Y-125150500D01*
X89550500Y-125150500D02*
X89000000Y-124600000D01*
X89000000Y-124600000D02*
X89000000Y-119400000D01*
X97300000Y-116180000D02*
X98240000Y-115240000D01*
X89000000Y-119400000D02*
X90263000Y-118137000D01*
X90263000Y-118137000D02*
X96363000Y-118137000D01*
X96363000Y-118137000D02*
X97300000Y-117200000D01*
X97300000Y-117200000D02*
X97300000Y-116180000D01*
D36*
%TO.N,USB_DOWNSTREAM_D+*%
X90141250Y-127982500D02*
X89858750Y-127700000D01*
X89858750Y-127700000D02*
X88200000Y-127700000D01*
X88200000Y-127700000D02*
X87900000Y-128000000D01*
X87900000Y-128000000D02*
X87900000Y-129400000D01*
X87900000Y-129400000D02*
X87300000Y-130000000D01*
X87300000Y-130000000D02*
X87300000Y-130050000D01*
X87300000Y-130050000D02*
X87050000Y-130300000D01*
%TO.N,USB_DOWNSTREAM_D-*%
X90141251Y-126882500D02*
X89774751Y-127249000D01*
X88381252Y-127249000D02*
X88381250Y-127248998D01*
X89774751Y-127249000D02*
X88381252Y-127249000D01*
X88381250Y-127248998D02*
X87651002Y-127248998D01*
X87651002Y-127248998D02*
X87050000Y-127850000D01*
X87050000Y-127850000D02*
X87050000Y-128772500D01*
%TO.N,USB_DOWNSTREAM_D+*%
X87050000Y-130300000D02*
X86491626Y-129741626D01*
X86491626Y-129741626D02*
X83017882Y-129741626D01*
X83017882Y-129741626D02*
X81943500Y-130816008D01*
X81943500Y-130816008D02*
X81943500Y-133493994D01*
X81943500Y-133493994D02*
X81947000Y-133497494D01*
X81947000Y-133497494D02*
X81947000Y-135667490D01*
X81947000Y-135667490D02*
X85389510Y-139110000D01*
X85389510Y-139110000D02*
X86730000Y-139110000D01*
X86730000Y-139110000D02*
X86984001Y-138855999D01*
X86984001Y-138855999D02*
X86984001Y-138220000D01*
%TO.N,USB_DOWNSTREAM_D-*%
X81580000Y-135819510D02*
X85280490Y-139520000D01*
X81576500Y-133646010D02*
X81580000Y-133649510D01*
X82865868Y-129374624D02*
X81576500Y-130663992D01*
X87050000Y-128772500D02*
X86447876Y-129374624D01*
X81580000Y-133649510D02*
X81580000Y-135819510D01*
X81576500Y-130663992D02*
X81576500Y-133646010D01*
X86447876Y-129374624D02*
X82865868Y-129374624D01*
X85280490Y-139520000D02*
X87520000Y-139520000D01*
X87520000Y-139520000D02*
X88000000Y-140000000D01*
%TO.N,USB_UPSTREAM_D-*%
X91864446Y-129140063D02*
X91660510Y-129343999D01*
X91660510Y-129343999D02*
X89271499Y-129343999D01*
X89271499Y-129343999D02*
X88700000Y-128772500D01*
%TO.N,USB_UPSTREAM_D+*%
X91823750Y-129915999D02*
X91618752Y-129711001D01*
X91618752Y-129711001D02*
X89288999Y-129711001D01*
X89288999Y-129711001D02*
X88707500Y-130292500D01*
D34*
%TO.N,Net-(J2-Pad12)*%
X83676000Y-133400000D02*
X84654000Y-134378000D01*
X84654000Y-134378000D02*
X87922000Y-134378000D01*
X87922000Y-134378000D02*
X89890001Y-132409999D01*
X89890001Y-132409999D02*
X89890001Y-131180001D01*
D36*
%TO.N,USB_UPSTREAM_D+*%
X106291000Y-139151500D02*
X106632001Y-138810499D01*
X103333414Y-137134500D02*
X105350414Y-139151500D01*
%TO.N,USB_UPSTREAM_D-*%
X98412749Y-126536001D02*
X98976493Y-126536001D01*
%TO.N,USB_UPSTREAM_D+*%
X101334500Y-137134500D02*
X103333414Y-137134500D01*
X105350414Y-139151500D02*
X106291000Y-139151500D01*
X99393250Y-126433742D02*
X100800000Y-127840492D01*
X100800000Y-136600000D02*
X101334500Y-137134500D01*
X99178679Y-126168999D02*
X99393250Y-126383570D01*
X100800000Y-127840492D02*
X100800000Y-136600000D01*
X98412749Y-126168999D02*
X99178679Y-126168999D01*
%TO.N,USB_UPSTREAM_D-*%
X100400000Y-127959508D02*
X100400000Y-136800000D01*
%TO.N,USB_UPSTREAM_D+*%
X98278750Y-126035000D02*
X98412749Y-126168999D01*
X99393250Y-126383570D02*
X99393250Y-126433742D01*
%TO.N,USB_UPSTREAM_D-*%
X100400000Y-136800000D02*
X101102500Y-137502500D01*
%TO.N,USB_UPSTREAM_D+*%
X106632001Y-138810499D02*
X106632001Y-138202501D01*
%TO.N,USB_UPSTREAM_D-*%
X105197984Y-139519500D02*
X107184999Y-139519500D01*
X98278750Y-126670000D02*
X98412749Y-126536001D01*
X98976493Y-126536001D02*
X100400000Y-127959508D01*
X101102500Y-137502500D02*
X103180984Y-137502500D01*
X103180984Y-137502500D02*
X105197984Y-139519500D01*
X107184999Y-139519500D02*
X107648000Y-139982501D01*
D37*
%TO.N,+5V*%
X100740000Y-117860000D02*
X99315000Y-119285000D01*
X99315000Y-119285000D02*
X96156250Y-119285000D01*
X95181250Y-120260000D02*
X95181250Y-121160000D01*
X96156250Y-119285000D02*
X95181250Y-120260000D01*
X95181250Y-121160000D02*
X94501250Y-121840000D01*
X94501250Y-121840000D02*
X94281250Y-121840000D01*
D38*
%TO.N,+12V*%
X107090000Y-131100000D02*
X107090000Y-134062707D01*
X107090000Y-134062707D02*
X106041704Y-135111003D01*
%TO.N,Net-(J1-Pad10)*%
X108110000Y-131100000D02*
X108900000Y-131100000D01*
X108900000Y-131100000D02*
X111180001Y-133380001D01*
X111180001Y-133380001D02*
X114754000Y-133380001D01*
%TO.N,+12V*%
X106209999Y-131100000D02*
X107090000Y-131100000D01*
%TO.N,Net-(J1-Pad12)*%
X105190001Y-131100000D02*
X105190001Y-131514000D01*
X105190001Y-131514000D02*
X103324000Y-133380001D01*
D37*
%TO.N,GND*%
X97101250Y-124130000D02*
X98278750Y-124130000D01*
X96653750Y-123682500D02*
X97101250Y-124130000D01*
%TO.N,+5V*%
X94441250Y-124920000D02*
X94441250Y-122000000D01*
D39*
X100740000Y-115240000D02*
X100740000Y-114290001D01*
D37*
X100740000Y-115240000D02*
X100740000Y-117860000D01*
X94441250Y-124920000D02*
X94441250Y-122020000D01*
X93904404Y-121510000D02*
X93776904Y-121382500D01*
X93776904Y-121382500D02*
X92841250Y-121382500D01*
D39*
X100740000Y-114290001D02*
X102035001Y-112995000D01*
X114160000Y-114060000D02*
X114160000Y-115245000D01*
D37*
X93931250Y-121510000D02*
X93904404Y-121510000D01*
X94441250Y-122020000D02*
X93931250Y-121510000D01*
X94441250Y-124920000D02*
X94921250Y-125400000D01*
X94441250Y-122000000D02*
X94281250Y-121840000D01*
D39*
X102035001Y-112995000D02*
X113095000Y-112995000D01*
D37*
X98278750Y-125400000D02*
X94921250Y-125400000D01*
D39*
X113095000Y-112995000D02*
X114160000Y-114060000D01*
D37*
%TO.N,Net-(U1-VDD33)*%
X96481250Y-121840000D02*
X96003750Y-122317500D01*
X99181250Y-121635000D02*
X98976250Y-121840000D01*
X96003750Y-122317500D02*
X96003750Y-123951739D01*
X96817011Y-124765000D02*
X98278750Y-124765000D01*
X96003750Y-123951739D02*
X96817011Y-124765000D01*
X98976250Y-121840000D02*
X96481250Y-121840000D01*
D34*
%TO.N,+12V*%
X94000000Y-131250000D02*
X94000000Y-132080001D01*
D40*
%TO.N,Net-(J2-Pad10)*%
X95099999Y-131230000D02*
X95099999Y-133393999D01*
X95099999Y-133393999D02*
X95106000Y-133400000D01*
D34*
%TO.N,Net-(U1-DM2)*%
X93003750Y-125400000D02*
X91678750Y-125400000D01*
X91678750Y-125400000D02*
X91161250Y-124882500D01*
%TO.N,Net-(U1-DP2)*%
X91303750Y-126035000D02*
X91151250Y-125882500D01*
X93003750Y-126035000D02*
X91303750Y-126035000D01*
%TO.N,Net-(U1-DM1)*%
X91373749Y-126670000D02*
X93003750Y-126670000D01*
X91161249Y-126882500D02*
X91373749Y-126670000D01*
%TO.N,Net-(U1-DP1)*%
X91838750Y-127305000D02*
X91161250Y-127982500D01*
X93003750Y-127305000D02*
X91838750Y-127305000D01*
%TO.N,Net-(U1-XI)*%
X99203605Y-122749001D02*
X100122250Y-122749001D01*
X98278750Y-122860000D02*
X99092606Y-122860000D01*
X100122250Y-122749001D02*
X100788751Y-122082500D01*
X100788751Y-122082500D02*
X100788751Y-121982500D01*
X99092606Y-122860000D02*
X99203605Y-122749001D01*
%TO.N,Net-(U1-XO)*%
X99024706Y-123495000D02*
X99369705Y-123150001D01*
X99369705Y-123150001D02*
X102071250Y-123150001D01*
X102071250Y-123150001D02*
X102521250Y-123600001D01*
X98278750Y-123495000D02*
X99024706Y-123495000D01*
X102521250Y-123600001D02*
X102521250Y-124150001D01*
D36*
%TO.N,USB_UPSTREAM_D+*%
X97059999Y-126035000D02*
X98278750Y-126035000D01*
X98891250Y-126035000D02*
X98278750Y-126035000D01*
X93343090Y-129967369D02*
X93343090Y-129705275D01*
X93343090Y-129705275D02*
X93183750Y-129545935D01*
X96925999Y-126169000D02*
X97059999Y-126035000D01*
X99024250Y-126168000D02*
X98891250Y-126035000D01*
X95767250Y-126169000D02*
X96925999Y-126169000D01*
X93183750Y-128752500D02*
X95767250Y-126169000D01*
X93183750Y-129545935D02*
X93183750Y-128752500D01*
%TO.N,USB_UPSTREAM_D-*%
X97059999Y-126670000D02*
X98278750Y-126670000D01*
X96925999Y-126536000D02*
X97059999Y-126670000D01*
X99025250Y-126536000D02*
X98891250Y-126670000D01*
X95930250Y-126536000D02*
X96925999Y-126536000D01*
X98891250Y-126670000D02*
X98278750Y-126670000D01*
X93755750Y-129309004D02*
X93755750Y-128710500D01*
X93755750Y-128710500D02*
X95930250Y-126536000D01*
D37*
%TO.N,/CAN/CAN2-*%
X122265000Y-131219164D02*
X119045836Y-128000000D01*
D38*
X91048000Y-140780001D02*
X91048000Y-138219999D01*
D37*
X122265000Y-145355000D02*
X122265000Y-131219164D01*
X91713447Y-146740000D02*
X120880000Y-146740000D01*
X119045836Y-128000000D02*
X113775001Y-128000000D01*
X120880000Y-146740000D02*
X122265000Y-145355000D01*
X91048000Y-146074553D02*
X91713447Y-146740000D01*
X91048000Y-140780001D02*
X91048000Y-146074553D01*
X113775001Y-128000000D02*
X108870001Y-123095000D01*
%TO.N,/CAN/CAN2+*%
X121128942Y-147341000D02*
X91464505Y-147341000D01*
X112000000Y-123125000D02*
X110440000Y-123125000D01*
X114023943Y-127399000D02*
X119294778Y-127399000D01*
X122866000Y-145603942D02*
X121128942Y-147341000D01*
X119294778Y-127399000D02*
X122866000Y-130970222D01*
X91464505Y-147341000D02*
X90447000Y-146323495D01*
X110410000Y-123095000D02*
X110410000Y-123785057D01*
X122866000Y-130970222D02*
X122866000Y-145603942D01*
X110410000Y-123785057D02*
X114023943Y-127399000D01*
X110440000Y-123125000D02*
X110410000Y-123095000D01*
X90447000Y-146323495D02*
X90447000Y-140415000D01*
X90447000Y-140415000D02*
X90032000Y-140000000D01*
%TO.N,/CAN/CAN1-*%
X120170000Y-143495734D02*
X120170000Y-132918528D01*
X105800000Y-123625000D02*
X105300000Y-123125000D01*
X93660000Y-143515734D02*
X94834266Y-144690000D01*
X94096000Y-140000000D02*
X93660000Y-140436000D01*
X120170000Y-132918528D02*
X117431473Y-130180001D01*
X113650000Y-123130741D02*
X113644259Y-123125000D01*
X93660000Y-140436000D02*
X93660000Y-143515734D01*
X94834266Y-144690000D02*
X118975734Y-144690000D01*
X105800000Y-124448528D02*
X105800000Y-123625000D01*
X107201472Y-125850000D02*
X105800000Y-124448528D01*
X117431473Y-130180001D02*
X112105407Y-130180001D01*
X112105407Y-130180001D02*
X107775406Y-125850000D01*
X107775406Y-125850000D02*
X107201472Y-125850000D01*
X118975734Y-144690000D02*
X120170000Y-143495734D01*
X113644259Y-123125000D02*
X113600000Y-123125000D01*
D38*
%TO.N,/CAN/CAN1+*%
X93080000Y-141610000D02*
X93060000Y-141630000D01*
D37*
X112223935Y-129450001D02*
X108023934Y-125250000D01*
X106400000Y-124200000D02*
X106400000Y-123575001D01*
X117550001Y-129450001D02*
X112223935Y-129450001D01*
X93060000Y-143764266D02*
X94585734Y-145290000D01*
X94585734Y-145290000D02*
X119224266Y-145290000D01*
X108023934Y-125250000D02*
X107450000Y-125250000D01*
X120770000Y-143744266D02*
X120770000Y-132670000D01*
X119224266Y-145290000D02*
X120770000Y-143744266D01*
X120770000Y-132670000D02*
X117550001Y-129450001D01*
X106400000Y-123575001D02*
X106850001Y-123125000D01*
D38*
X93080000Y-138219999D02*
X93080000Y-141610000D01*
D37*
X93060000Y-141630000D02*
X93060000Y-143764266D01*
X107450000Y-125250000D02*
X106400000Y-124200000D01*
D36*
%TO.N,USB_DOWNSTREAM_D-*%
X89979634Y-127044117D02*
X90141251Y-126882500D01*
%TO.N,USB_DOWNSTREAM_D+*%
X89979750Y-127821000D02*
X90141250Y-127982500D01*
D37*
%TO.N,/CAN/CAN-*%
X108870001Y-120732499D02*
X109340000Y-120262500D01*
X109340000Y-120262500D02*
X109340000Y-117841472D01*
X109340000Y-117841472D02*
X110180000Y-117001472D01*
X109475000Y-115245000D02*
X109160000Y-115245000D01*
X108870001Y-121445000D02*
X108870001Y-120732499D01*
X110180000Y-117001472D02*
X110180000Y-115950000D01*
X110180000Y-115950000D02*
X109475000Y-115245000D01*
%TO.N,/CAN/CAN+*%
X110410000Y-121445000D02*
X110410000Y-120732499D01*
X110780000Y-115920000D02*
X111455000Y-115245000D01*
X109940000Y-118090000D02*
X110780000Y-117250000D01*
X110410000Y-120732499D02*
X109940000Y-120262499D01*
X109940000Y-120262499D02*
X109940000Y-118090000D01*
X110780000Y-117250000D02*
X110780000Y-115920000D01*
X111455000Y-115245000D02*
X111660000Y-115245000D01*
%TO.N,Net-(R2-Pad2)*%
X122110000Y-116790000D02*
X122110000Y-115580000D01*
X113600000Y-121475000D02*
X117425000Y-121475000D01*
X117425000Y-121475000D02*
X122110000Y-116790000D01*
%TO.N,Net-(R3-Pad2)*%
X116790000Y-119610000D02*
X119570000Y-116830000D01*
X113865000Y-119610000D02*
X116790000Y-119610000D01*
X119570000Y-116830000D02*
X119570000Y-115580000D01*
X112000000Y-121475000D02*
X113865000Y-119610000D01*
%TD*%
%TA.AperFunction,Conductor*%
%TO.N,GND*%
G36*
X89442539Y-54520185D02*
G01*
X89488294Y-54572989D01*
X89499500Y-54624500D01*
X89499500Y-99984426D01*
X89499418Y-99984734D01*
X89499500Y-100050226D01*
X89499500Y-100115896D01*
X89499517Y-100116023D01*
X89499565Y-100116387D01*
X89499581Y-100116512D01*
X89516570Y-100179601D01*
X89516590Y-100179754D01*
X89516609Y-100179749D01*
X89533606Y-100243182D01*
X89533848Y-100243766D01*
X89566740Y-100300572D01*
X89566739Y-100300572D01*
X89567070Y-100301145D01*
X89599500Y-100357314D01*
X89599724Y-100357538D01*
X89599884Y-100357814D01*
X89646335Y-100404149D01*
X89692686Y-100450500D01*
X89692961Y-100450659D01*
X89693187Y-100450884D01*
X89749902Y-100483533D01*
X89750014Y-100483650D01*
X89750037Y-100483611D01*
X89806814Y-100516392D01*
X89806821Y-100516394D01*
X89807395Y-100516632D01*
X89807397Y-100516633D01*
X89807398Y-100516633D01*
X89807400Y-100516634D01*
X89870710Y-100533513D01*
X89870860Y-100533553D01*
X89934108Y-100550500D01*
X89934113Y-100550500D01*
X89934128Y-100550502D01*
X89934365Y-100550533D01*
X89934472Y-100550547D01*
X89934552Y-100550558D01*
X89934729Y-100550580D01*
X89934734Y-100550582D01*
X90000334Y-100550500D01*
X90065892Y-100550500D01*
X90066199Y-100550417D01*
X130000117Y-100500500D01*
X130065892Y-100500500D01*
X130066200Y-100500417D01*
X130066517Y-100500417D01*
X130129649Y-100483416D01*
X130130209Y-100483266D01*
X130193181Y-100466394D01*
X130193537Y-100466246D01*
X130193763Y-100466152D01*
X130193765Y-100466150D01*
X130193769Y-100466150D01*
X130250572Y-100433259D01*
X130307314Y-100400500D01*
X130307538Y-100400275D01*
X130307814Y-100400116D01*
X130332281Y-100375586D01*
X130354151Y-100353663D01*
X130354152Y-100353664D01*
X130354159Y-100353653D01*
X130400500Y-100307314D01*
X130400643Y-100307064D01*
X130400841Y-100306867D01*
X130400877Y-100306819D01*
X130400884Y-100306813D01*
X130433611Y-100249962D01*
X130433612Y-100249961D01*
X130433622Y-100249966D01*
X130433684Y-100249834D01*
X130466392Y-100193186D01*
X130466474Y-100192878D01*
X130466633Y-100192603D01*
X130483513Y-100129288D01*
X130500500Y-100065892D01*
X130500500Y-100065875D01*
X130500523Y-100065706D01*
X130500544Y-100065549D01*
X130500579Y-100065276D01*
X130500582Y-100065266D01*
X130500500Y-99999773D01*
X130500500Y-94359041D01*
X130849500Y-94359041D01*
X130849500Y-94640958D01*
X130886295Y-94920439D01*
X130959259Y-95192743D01*
X131067135Y-95453179D01*
X131067140Y-95453190D01*
X131208083Y-95697309D01*
X131208088Y-95697317D01*
X131379700Y-95920965D01*
X131379704Y-95920970D01*
X131579029Y-96120295D01*
X131579033Y-96120298D01*
X131579035Y-96120300D01*
X131802683Y-96291912D01*
X131802690Y-96291916D01*
X132046809Y-96432859D01*
X132046814Y-96432861D01*
X132046817Y-96432863D01*
X132307261Y-96540742D01*
X132579558Y-96613704D01*
X132859049Y-96650500D01*
X132859056Y-96650500D01*
X133140944Y-96650500D01*
X133140951Y-96650500D01*
X133420442Y-96613704D01*
X133692739Y-96540742D01*
X133953183Y-96432863D01*
X134197317Y-96291912D01*
X134420965Y-96120300D01*
X134620300Y-95920965D01*
X134791912Y-95697317D01*
X134932863Y-95453183D01*
X135040742Y-95192739D01*
X135113704Y-94920442D01*
X135150500Y-94640951D01*
X135150500Y-94359049D01*
X135113704Y-94079558D01*
X135040742Y-93807261D01*
X134932863Y-93546817D01*
X134932861Y-93546814D01*
X134932859Y-93546809D01*
X134791916Y-93302690D01*
X134791912Y-93302683D01*
X134620300Y-93079035D01*
X134620298Y-93079033D01*
X134620295Y-93079029D01*
X134420970Y-92879704D01*
X134420965Y-92879700D01*
X134197317Y-92708088D01*
X134197311Y-92708084D01*
X134197309Y-92708083D01*
X133953190Y-92567140D01*
X133953179Y-92567135D01*
X133692743Y-92459259D01*
X133420439Y-92386295D01*
X133140958Y-92349500D01*
X133140951Y-92349500D01*
X132859049Y-92349500D01*
X132859041Y-92349500D01*
X132579560Y-92386295D01*
X132307256Y-92459259D01*
X132046820Y-92567135D01*
X132046809Y-92567140D01*
X131802690Y-92708083D01*
X131802682Y-92708089D01*
X131579029Y-92879704D01*
X131379704Y-93079029D01*
X131208089Y-93302682D01*
X131208083Y-93302690D01*
X131067140Y-93546809D01*
X131067135Y-93546820D01*
X130959259Y-93807256D01*
X130886295Y-94079560D01*
X130849500Y-94359041D01*
X130500500Y-94359041D01*
X130500500Y-85484041D01*
X130849500Y-85484041D01*
X130849500Y-85765958D01*
X130886295Y-86045439D01*
X130959259Y-86317743D01*
X131067135Y-86578179D01*
X131067140Y-86578190D01*
X131208083Y-86822309D01*
X131208088Y-86822317D01*
X131379700Y-87045965D01*
X131379704Y-87045970D01*
X131579029Y-87245295D01*
X131579033Y-87245298D01*
X131579035Y-87245300D01*
X131802683Y-87416912D01*
X131802690Y-87416916D01*
X132046809Y-87557859D01*
X132046814Y-87557861D01*
X132046817Y-87557863D01*
X132307261Y-87665742D01*
X132579558Y-87738704D01*
X132859049Y-87775500D01*
X132859056Y-87775500D01*
X133140944Y-87775500D01*
X133140951Y-87775500D01*
X133420442Y-87738704D01*
X133692739Y-87665742D01*
X133953183Y-87557863D01*
X134197317Y-87416912D01*
X134420965Y-87245300D01*
X134620300Y-87045965D01*
X134791912Y-86822317D01*
X134932863Y-86578183D01*
X135040742Y-86317739D01*
X135113704Y-86045442D01*
X135150500Y-85765951D01*
X135150500Y-85484049D01*
X135113704Y-85204558D01*
X135040742Y-84932261D01*
X134932863Y-84671817D01*
X134932861Y-84671814D01*
X134932859Y-84671809D01*
X134791916Y-84427690D01*
X134791912Y-84427683D01*
X134620300Y-84204035D01*
X134620298Y-84204033D01*
X134620295Y-84204029D01*
X134420970Y-84004704D01*
X134420965Y-84004700D01*
X134197317Y-83833088D01*
X134197311Y-83833084D01*
X134197309Y-83833083D01*
X133953190Y-83692140D01*
X133953179Y-83692135D01*
X133692743Y-83584259D01*
X133420439Y-83511295D01*
X133140958Y-83474500D01*
X133140951Y-83474500D01*
X132859049Y-83474500D01*
X132859041Y-83474500D01*
X132579560Y-83511295D01*
X132307256Y-83584259D01*
X132046820Y-83692135D01*
X132046809Y-83692140D01*
X131802690Y-83833083D01*
X131802682Y-83833089D01*
X131579029Y-84004704D01*
X131379704Y-84204029D01*
X131208089Y-84427682D01*
X131208083Y-84427690D01*
X131067140Y-84671809D01*
X131067135Y-84671820D01*
X130959259Y-84932256D01*
X130886295Y-85204560D01*
X130849500Y-85484041D01*
X130500500Y-85484041D01*
X130500500Y-76609041D01*
X130849500Y-76609041D01*
X130849500Y-76890958D01*
X130886295Y-77170439D01*
X130959259Y-77442743D01*
X131067135Y-77703179D01*
X131067140Y-77703190D01*
X131208083Y-77947309D01*
X131208088Y-77947317D01*
X131379700Y-78170965D01*
X131379704Y-78170970D01*
X131579029Y-78370295D01*
X131579033Y-78370298D01*
X131579035Y-78370300D01*
X131802683Y-78541912D01*
X131802690Y-78541916D01*
X132046809Y-78682859D01*
X132046814Y-78682861D01*
X132046817Y-78682863D01*
X132307261Y-78790742D01*
X132579558Y-78863704D01*
X132859049Y-78900500D01*
X132859056Y-78900500D01*
X133140944Y-78900500D01*
X133140951Y-78900500D01*
X133420442Y-78863704D01*
X133692739Y-78790742D01*
X133953183Y-78682863D01*
X134197317Y-78541912D01*
X134420965Y-78370300D01*
X134620300Y-78170965D01*
X134791912Y-77947317D01*
X134932863Y-77703183D01*
X135040742Y-77442739D01*
X135113704Y-77170442D01*
X135150500Y-76890951D01*
X135150500Y-76609049D01*
X135113704Y-76329558D01*
X135040742Y-76057261D01*
X134932863Y-75796817D01*
X134932861Y-75796814D01*
X134932859Y-75796809D01*
X134791916Y-75552690D01*
X134791912Y-75552683D01*
X134620300Y-75329035D01*
X134620298Y-75329033D01*
X134620295Y-75329029D01*
X134420970Y-75129704D01*
X134420965Y-75129700D01*
X134197317Y-74958088D01*
X134197311Y-74958084D01*
X134197309Y-74958083D01*
X133953190Y-74817140D01*
X133953179Y-74817135D01*
X133692743Y-74709259D01*
X133420439Y-74636295D01*
X133140958Y-74599500D01*
X133140951Y-74599500D01*
X132859049Y-74599500D01*
X132859041Y-74599500D01*
X132579560Y-74636295D01*
X132307256Y-74709259D01*
X132046820Y-74817135D01*
X132046809Y-74817140D01*
X131802690Y-74958083D01*
X131802682Y-74958089D01*
X131579029Y-75129704D01*
X131379704Y-75329029D01*
X131208089Y-75552682D01*
X131208083Y-75552690D01*
X131067140Y-75796809D01*
X131067135Y-75796820D01*
X130959259Y-76057256D01*
X130886295Y-76329560D01*
X130849500Y-76609041D01*
X130500500Y-76609041D01*
X130500500Y-67734041D01*
X130849500Y-67734041D01*
X130849500Y-68015958D01*
X130886295Y-68295439D01*
X130959259Y-68567743D01*
X131067135Y-68828179D01*
X131067140Y-68828190D01*
X131208083Y-69072309D01*
X131208088Y-69072317D01*
X131379700Y-69295965D01*
X131379704Y-69295970D01*
X131579029Y-69495295D01*
X131579033Y-69495298D01*
X131579035Y-69495300D01*
X131802683Y-69666912D01*
X131802690Y-69666916D01*
X132046809Y-69807859D01*
X132046814Y-69807861D01*
X132046817Y-69807863D01*
X132307261Y-69915742D01*
X132579558Y-69988704D01*
X132859049Y-70025500D01*
X132859056Y-70025500D01*
X133140944Y-70025500D01*
X133140951Y-70025500D01*
X133420442Y-69988704D01*
X133692739Y-69915742D01*
X133953183Y-69807863D01*
X134197317Y-69666912D01*
X134420965Y-69495300D01*
X134620300Y-69295965D01*
X134791912Y-69072317D01*
X134932863Y-68828183D01*
X135040742Y-68567739D01*
X135113704Y-68295442D01*
X135150500Y-68015951D01*
X135150500Y-67734049D01*
X135113704Y-67454558D01*
X135040742Y-67182261D01*
X134932863Y-66921817D01*
X134932861Y-66921814D01*
X134932859Y-66921809D01*
X134791916Y-66677690D01*
X134791912Y-66677683D01*
X134620300Y-66454035D01*
X134620298Y-66454033D01*
X134620295Y-66454029D01*
X134420970Y-66254704D01*
X134420965Y-66254700D01*
X134197317Y-66083088D01*
X134197311Y-66083084D01*
X134197309Y-66083083D01*
X133953190Y-65942140D01*
X133953179Y-65942135D01*
X133692743Y-65834259D01*
X133420439Y-65761295D01*
X133140958Y-65724500D01*
X133140951Y-65724500D01*
X132859049Y-65724500D01*
X132859041Y-65724500D01*
X132579560Y-65761295D01*
X132307256Y-65834259D01*
X132046820Y-65942135D01*
X132046809Y-65942140D01*
X131802690Y-66083083D01*
X131802682Y-66083089D01*
X131579029Y-66254704D01*
X131379704Y-66454029D01*
X131208089Y-66677682D01*
X131208083Y-66677690D01*
X131067140Y-66921809D01*
X131067135Y-66921820D01*
X130959259Y-67182256D01*
X130886295Y-67454560D01*
X130849500Y-67734041D01*
X130500500Y-67734041D01*
X130500500Y-58859041D01*
X130849500Y-58859041D01*
X130849500Y-59140958D01*
X130886295Y-59420439D01*
X130959259Y-59692743D01*
X131067135Y-59953179D01*
X131067140Y-59953190D01*
X131208083Y-60197309D01*
X131208088Y-60197317D01*
X131379700Y-60420965D01*
X131379704Y-60420970D01*
X131579029Y-60620295D01*
X131579033Y-60620298D01*
X131579035Y-60620300D01*
X131802683Y-60791912D01*
X131802690Y-60791916D01*
X132046809Y-60932859D01*
X132046814Y-60932861D01*
X132046817Y-60932863D01*
X132307261Y-61040742D01*
X132579558Y-61113704D01*
X132859049Y-61150500D01*
X132859056Y-61150500D01*
X133140944Y-61150500D01*
X133140951Y-61150500D01*
X133420442Y-61113704D01*
X133692739Y-61040742D01*
X133953183Y-60932863D01*
X134197317Y-60791912D01*
X134420965Y-60620300D01*
X134620300Y-60420965D01*
X134791912Y-60197317D01*
X134932863Y-59953183D01*
X135040742Y-59692739D01*
X135113704Y-59420442D01*
X135150500Y-59140951D01*
X135150500Y-58859049D01*
X135113704Y-58579558D01*
X135040742Y-58307261D01*
X134932863Y-58046817D01*
X134932861Y-58046814D01*
X134932859Y-58046809D01*
X134791916Y-57802690D01*
X134791912Y-57802683D01*
X134620300Y-57579035D01*
X134620298Y-57579033D01*
X134620295Y-57579029D01*
X134420970Y-57379704D01*
X134420965Y-57379700D01*
X134197317Y-57208088D01*
X134197311Y-57208084D01*
X134197309Y-57208083D01*
X133953190Y-57067140D01*
X133953179Y-57067135D01*
X133692743Y-56959259D01*
X133420439Y-56886295D01*
X133140958Y-56849500D01*
X133140951Y-56849500D01*
X132859049Y-56849500D01*
X132859041Y-56849500D01*
X132579560Y-56886295D01*
X132307256Y-56959259D01*
X132046820Y-57067135D01*
X132046809Y-57067140D01*
X131802690Y-57208083D01*
X131802682Y-57208089D01*
X131579029Y-57379704D01*
X131379704Y-57579029D01*
X131208089Y-57802682D01*
X131208083Y-57802690D01*
X131067140Y-58046809D01*
X131067135Y-58046820D01*
X130959259Y-58307256D01*
X130886295Y-58579560D01*
X130849500Y-58859041D01*
X130500500Y-58859041D01*
X130500500Y-54624500D01*
X130520185Y-54557461D01*
X130572989Y-54511706D01*
X130624499Y-54500500D01*
X138909443Y-54500500D01*
X138909447Y-54500502D01*
X138934108Y-54500502D01*
X138993040Y-54500502D01*
X139006922Y-54501282D01*
X139023411Y-54503139D01*
X139097267Y-54511460D01*
X139124332Y-54517638D01*
X139203538Y-54545353D01*
X139228548Y-54557397D01*
X139299605Y-54602045D01*
X139321312Y-54619357D01*
X139380644Y-54678689D01*
X139397954Y-54700395D01*
X139442601Y-54771451D01*
X139454646Y-54796463D01*
X139482360Y-54875664D01*
X139488539Y-54902736D01*
X139498720Y-54993098D01*
X139499500Y-55006981D01*
X139499500Y-147473038D01*
X139498720Y-147486923D01*
X139488540Y-147577265D01*
X139482362Y-147604334D01*
X139454648Y-147683537D01*
X139442600Y-147708555D01*
X139397957Y-147779604D01*
X139380644Y-147801313D01*
X139321313Y-147860644D01*
X139299604Y-147877957D01*
X139228552Y-147922602D01*
X139203537Y-147934648D01*
X139203535Y-147934649D01*
X139124337Y-147962362D01*
X139097265Y-147968541D01*
X139006911Y-147978721D01*
X138993028Y-147979501D01*
X122275434Y-147979501D01*
X122208395Y-147959816D01*
X122162640Y-147907012D01*
X122152696Y-147837854D01*
X122181721Y-147774298D01*
X122187753Y-147767820D01*
X122482535Y-147473038D01*
X123535651Y-146419921D01*
X123535655Y-146419919D01*
X123681977Y-146273597D01*
X123796941Y-146101540D01*
X123876130Y-145910362D01*
X123916500Y-145707407D01*
X123916500Y-139239077D01*
X123936185Y-139172038D01*
X123988989Y-139126283D01*
X124058147Y-139116339D01*
X124064693Y-139117460D01*
X124071768Y-139118867D01*
X124071769Y-139118868D01*
X124109047Y-139126283D01*
X124130251Y-139130501D01*
X124130252Y-139130501D01*
X125069750Y-139130501D01*
X125069751Y-139130500D01*
X125084568Y-139127553D01*
X125128229Y-139118869D01*
X125128229Y-139118868D01*
X125128231Y-139118868D01*
X125194552Y-139074553D01*
X125238867Y-139008232D01*
X125238867Y-139008230D01*
X125238868Y-139008230D01*
X125247968Y-138962479D01*
X125250500Y-138949749D01*
X125250500Y-136910253D01*
X125250500Y-136910250D01*
X125250499Y-136910248D01*
X137449500Y-136910248D01*
X137449500Y-138949753D01*
X137461131Y-139008230D01*
X137461132Y-139008231D01*
X137505447Y-139074553D01*
X137571769Y-139118868D01*
X137571770Y-139118869D01*
X137630247Y-139130500D01*
X137630250Y-139130501D01*
X137630252Y-139130501D01*
X138569750Y-139130501D01*
X138569751Y-139130500D01*
X138584568Y-139127553D01*
X138628229Y-139118869D01*
X138628229Y-139118868D01*
X138628231Y-139118868D01*
X138694552Y-139074553D01*
X138738867Y-139008232D01*
X138738867Y-139008230D01*
X138738868Y-139008230D01*
X138747968Y-138962479D01*
X138750500Y-138949749D01*
X138750500Y-136910253D01*
X138750500Y-136910250D01*
X138750499Y-136910248D01*
X138738868Y-136851771D01*
X138738867Y-136851770D01*
X138694552Y-136785448D01*
X138628230Y-136741133D01*
X138628229Y-136741132D01*
X138569752Y-136729501D01*
X138569748Y-136729501D01*
X137630252Y-136729501D01*
X137630247Y-136729501D01*
X137571770Y-136741132D01*
X137571769Y-136741133D01*
X137505447Y-136785448D01*
X137461132Y-136851770D01*
X137461131Y-136851771D01*
X137449500Y-136910248D01*
X125250499Y-136910248D01*
X125238868Y-136851771D01*
X125238867Y-136851770D01*
X125194552Y-136785448D01*
X125128230Y-136741133D01*
X125128229Y-136741132D01*
X125069752Y-136729501D01*
X125069748Y-136729501D01*
X124130252Y-136729501D01*
X124130247Y-136729501D01*
X124064691Y-136742541D01*
X123995099Y-136736314D01*
X123939922Y-136693451D01*
X123916678Y-136627561D01*
X123916500Y-136620924D01*
X123916500Y-131782487D01*
X125499500Y-131782487D01*
X125499500Y-132077514D01*
X125525262Y-132273187D01*
X125538007Y-132369994D01*
X125607012Y-132627525D01*
X125614361Y-132654952D01*
X125614364Y-132654962D01*
X125727254Y-132927501D01*
X125727258Y-132927511D01*
X125874761Y-133182994D01*
X126054352Y-133417041D01*
X126054358Y-133417048D01*
X126262952Y-133625642D01*
X126262959Y-133625648D01*
X126497006Y-133805239D01*
X126752489Y-133952742D01*
X126752490Y-133952742D01*
X126752493Y-133952744D01*
X126963296Y-134040061D01*
X127015294Y-134061600D01*
X127025048Y-134065640D01*
X127310007Y-134141994D01*
X127602494Y-134180501D01*
X127602501Y-134180501D01*
X127897499Y-134180501D01*
X127897506Y-134180501D01*
X128189993Y-134141994D01*
X128474952Y-134065640D01*
X128747507Y-133952744D01*
X129002994Y-133805239D01*
X129237042Y-133625647D01*
X129445646Y-133417043D01*
X129625238Y-133182995D01*
X129772743Y-132927508D01*
X129885639Y-132654953D01*
X129961993Y-132369994D01*
X130000500Y-132077507D01*
X130000500Y-131782495D01*
X129961993Y-131490008D01*
X129885639Y-131205049D01*
X129772743Y-130932494D01*
X129761116Y-130912356D01*
X129625238Y-130677007D01*
X129445647Y-130442960D01*
X129445641Y-130442953D01*
X129237047Y-130234359D01*
X129237040Y-130234353D01*
X129002993Y-130054762D01*
X128747510Y-129907259D01*
X128747500Y-129907255D01*
X128474961Y-129794365D01*
X128474954Y-129794363D01*
X128474952Y-129794362D01*
X128189993Y-129718008D01*
X128141113Y-129711572D01*
X127897513Y-129679501D01*
X127897506Y-129679501D01*
X127602494Y-129679501D01*
X127602486Y-129679501D01*
X127324085Y-129716154D01*
X127310007Y-129718008D01*
X127136387Y-129764529D01*
X127025048Y-129794362D01*
X127025038Y-129794365D01*
X126752499Y-129907255D01*
X126752489Y-129907259D01*
X126497006Y-130054762D01*
X126262959Y-130234353D01*
X126262952Y-130234359D01*
X126054358Y-130442953D01*
X126054352Y-130442960D01*
X125874761Y-130677007D01*
X125727258Y-130932490D01*
X125727254Y-130932500D01*
X125614364Y-131205039D01*
X125614361Y-131205049D01*
X125540555Y-131480501D01*
X125538008Y-131490005D01*
X125538006Y-131490016D01*
X125499500Y-131782487D01*
X123916500Y-131782487D01*
X123916500Y-131079822D01*
X123916501Y-131079801D01*
X123916501Y-130866754D01*
X123880615Y-130686350D01*
X123876130Y-130663803D01*
X123796942Y-130472624D01*
X123796940Y-130472622D01*
X123796940Y-130472620D01*
X123681977Y-130300567D01*
X123681974Y-130300563D01*
X120117825Y-126736416D01*
X120117822Y-126736412D01*
X120117822Y-126736413D01*
X120110755Y-126729346D01*
X120110755Y-126729345D01*
X119964433Y-126583023D01*
X119792376Y-126468059D01*
X119726427Y-126440742D01*
X119601198Y-126388870D01*
X119601190Y-126388868D01*
X119398247Y-126348500D01*
X119398243Y-126348500D01*
X114510436Y-126348500D01*
X114443397Y-126328815D01*
X114422755Y-126312181D01*
X112655022Y-124544448D01*
X112639642Y-124516282D01*
X112622928Y-124488861D01*
X112623000Y-124485805D01*
X112621537Y-124483125D01*
X112623826Y-124451104D01*
X112624591Y-124419011D01*
X112626302Y-124416481D01*
X112626521Y-124413433D01*
X112645758Y-124387735D01*
X112663753Y-124361148D01*
X112667264Y-124359007D01*
X112668393Y-124357500D01*
X112693888Y-124342780D01*
X112751187Y-124318242D01*
X112820563Y-124309948D01*
X112848812Y-124318242D01*
X112988388Y-124378013D01*
X112988396Y-124378014D01*
X112988397Y-124378015D01*
X113193749Y-124422687D01*
X113193750Y-124422687D01*
X113193755Y-124422688D01*
X113240962Y-124425500D01*
X113240973Y-124425500D01*
X113959027Y-124425500D01*
X113959038Y-124425500D01*
X114006245Y-124422688D01*
X114006871Y-124422552D01*
X114122432Y-124397413D01*
X114211612Y-124378013D01*
X114404813Y-124295279D01*
X114578865Y-124177477D01*
X114727477Y-124028865D01*
X114845279Y-123854813D01*
X114928013Y-123661612D01*
X114972688Y-123456245D01*
X114975500Y-123409038D01*
X114975500Y-123088549D01*
X117869500Y-123088549D01*
X117869500Y-123311450D01*
X117869501Y-123311466D01*
X117898594Y-123532452D01*
X117898595Y-123532457D01*
X117898596Y-123532463D01*
X117945433Y-123707261D01*
X117956290Y-123747780D01*
X117956293Y-123747790D01*
X118017477Y-123895500D01*
X118041595Y-123953726D01*
X118153052Y-124146774D01*
X118153057Y-124146780D01*
X118153058Y-124146782D01*
X118288751Y-124323622D01*
X118288757Y-124323629D01*
X118446370Y-124481242D01*
X118446377Y-124481248D01*
X118538580Y-124551997D01*
X118623226Y-124616948D01*
X118816274Y-124728405D01*
X119022219Y-124813710D01*
X119237537Y-124871404D01*
X119458543Y-124900500D01*
X119458550Y-124900500D01*
X119681450Y-124900500D01*
X119681457Y-124900500D01*
X119902463Y-124871404D01*
X120117781Y-124813710D01*
X120323726Y-124728405D01*
X120516774Y-124616948D01*
X120693624Y-124481247D01*
X120752320Y-124422550D01*
X120813641Y-124389067D01*
X120883333Y-124394051D01*
X120927679Y-124422550D01*
X120969474Y-124464345D01*
X120986378Y-124481249D01*
X121089146Y-124560105D01*
X121163226Y-124616948D01*
X121356274Y-124728405D01*
X121562219Y-124813710D01*
X121777537Y-124871404D01*
X121998543Y-124900500D01*
X121998550Y-124900500D01*
X122221450Y-124900500D01*
X122221457Y-124900500D01*
X122442463Y-124871404D01*
X122657781Y-124813710D01*
X122863726Y-124728405D01*
X123056774Y-124616948D01*
X123233624Y-124481247D01*
X123391247Y-124323624D01*
X123440803Y-124259041D01*
X134349500Y-124259041D01*
X134349500Y-124540958D01*
X134386295Y-124820439D01*
X134459259Y-125092743D01*
X134567135Y-125353179D01*
X134567140Y-125353190D01*
X134708083Y-125597309D01*
X134708088Y-125597317D01*
X134879700Y-125820965D01*
X134879704Y-125820970D01*
X135079029Y-126020295D01*
X135079033Y-126020298D01*
X135079035Y-126020300D01*
X135302683Y-126191912D01*
X135302690Y-126191916D01*
X135546809Y-126332859D01*
X135546814Y-126332861D01*
X135546817Y-126332863D01*
X135807261Y-126440742D01*
X136079558Y-126513704D01*
X136359049Y-126550500D01*
X136359056Y-126550500D01*
X136640944Y-126550500D01*
X136640951Y-126550500D01*
X136920442Y-126513704D01*
X137192739Y-126440742D01*
X137453183Y-126332863D01*
X137697317Y-126191912D01*
X137920965Y-126020300D01*
X138120300Y-125820965D01*
X138291912Y-125597317D01*
X138432863Y-125353183D01*
X138540742Y-125092739D01*
X138613704Y-124820442D01*
X138650500Y-124540951D01*
X138650500Y-124259049D01*
X138613704Y-123979558D01*
X138540742Y-123707261D01*
X138521829Y-123661602D01*
X138468339Y-123532465D01*
X138432863Y-123446817D01*
X138432861Y-123446814D01*
X138432859Y-123446809D01*
X138291916Y-123202690D01*
X138291912Y-123202683D01*
X138120300Y-122979035D01*
X138120298Y-122979033D01*
X138120295Y-122979029D01*
X137920970Y-122779704D01*
X137917462Y-122777012D01*
X137697317Y-122608088D01*
X137697311Y-122608084D01*
X137697309Y-122608083D01*
X137453190Y-122467140D01*
X137453179Y-122467135D01*
X137192743Y-122359259D01*
X136920439Y-122286295D01*
X136640958Y-122249500D01*
X136640951Y-122249500D01*
X136359049Y-122249500D01*
X136359041Y-122249500D01*
X136079560Y-122286295D01*
X135807256Y-122359259D01*
X135546820Y-122467135D01*
X135546809Y-122467140D01*
X135302690Y-122608083D01*
X135302682Y-122608089D01*
X135079029Y-122779704D01*
X134879704Y-122979029D01*
X134708089Y-123202682D01*
X134708083Y-123202690D01*
X134567140Y-123446809D01*
X134567135Y-123446820D01*
X134459259Y-123707256D01*
X134386295Y-123979560D01*
X134349500Y-124259041D01*
X123440803Y-124259041D01*
X123503389Y-124177478D01*
X123522740Y-124152257D01*
X123526948Y-124146774D01*
X123638405Y-123953726D01*
X123723710Y-123747781D01*
X123781404Y-123532463D01*
X123810500Y-123311457D01*
X123810500Y-123088543D01*
X123781404Y-122867537D01*
X123723710Y-122652219D01*
X123638405Y-122446274D01*
X123526948Y-122253226D01*
X123415918Y-122108528D01*
X123391248Y-122076377D01*
X123391242Y-122076370D01*
X123233629Y-121918757D01*
X123233622Y-121918751D01*
X123056782Y-121783058D01*
X123056780Y-121783057D01*
X123056774Y-121783052D01*
X122863726Y-121671595D01*
X122863722Y-121671593D01*
X122657790Y-121586293D01*
X122657783Y-121586291D01*
X122657781Y-121586290D01*
X122442463Y-121528596D01*
X122442457Y-121528595D01*
X122442452Y-121528594D01*
X122221466Y-121499501D01*
X122221463Y-121499500D01*
X122221457Y-121499500D01*
X121998543Y-121499500D01*
X121998537Y-121499500D01*
X121998533Y-121499501D01*
X121777547Y-121528594D01*
X121777540Y-121528595D01*
X121777537Y-121528596D01*
X121562219Y-121586290D01*
X121562209Y-121586293D01*
X121356277Y-121671593D01*
X121356273Y-121671595D01*
X121163226Y-121783052D01*
X121163217Y-121783058D01*
X120986377Y-121918751D01*
X120986370Y-121918757D01*
X120927681Y-121977447D01*
X120866358Y-122010932D01*
X120796666Y-122005948D01*
X120752319Y-121977447D01*
X120693629Y-121918757D01*
X120693622Y-121918751D01*
X120516782Y-121783058D01*
X120516780Y-121783057D01*
X120516774Y-121783052D01*
X120323726Y-121671595D01*
X120323722Y-121671593D01*
X120117790Y-121586293D01*
X120117783Y-121586291D01*
X120117781Y-121586290D01*
X119902463Y-121528596D01*
X119902457Y-121528595D01*
X119902452Y-121528594D01*
X119681466Y-121499501D01*
X119681463Y-121499500D01*
X119681457Y-121499500D01*
X119458543Y-121499500D01*
X119458537Y-121499500D01*
X119458533Y-121499501D01*
X119237547Y-121528594D01*
X119237540Y-121528595D01*
X119237537Y-121528596D01*
X119022219Y-121586290D01*
X119022209Y-121586293D01*
X118816277Y-121671593D01*
X118816273Y-121671595D01*
X118623226Y-121783052D01*
X118623217Y-121783058D01*
X118446377Y-121918751D01*
X118446370Y-121918757D01*
X118288757Y-122076370D01*
X118288751Y-122076377D01*
X118153058Y-122253217D01*
X118153052Y-122253226D01*
X118041595Y-122446273D01*
X118041593Y-122446277D01*
X117956293Y-122652209D01*
X117956290Y-122652219D01*
X117935923Y-122728232D01*
X117898597Y-122867534D01*
X117898594Y-122867547D01*
X117869501Y-123088533D01*
X117869500Y-123088549D01*
X114975500Y-123088549D01*
X114975500Y-122840962D01*
X114972688Y-122793755D01*
X114969631Y-122779704D01*
X114928015Y-122588397D01*
X114928012Y-122588386D01*
X114845281Y-122395191D01*
X114845280Y-122395189D01*
X114845279Y-122395187D01*
X114727477Y-122221135D01*
X114578865Y-122072523D01*
X114578863Y-122072522D01*
X114578858Y-122072517D01*
X114548825Y-122052191D01*
X114504339Y-121998313D01*
X114496044Y-121928938D01*
X114526572Y-121866091D01*
X114586233Y-121829725D01*
X114618327Y-121825500D01*
X117471142Y-121825500D01*
X117471144Y-121825500D01*
X117560288Y-121801614D01*
X117573725Y-121793856D01*
X117640212Y-121755470D01*
X122390470Y-117005212D01*
X122436614Y-116925288D01*
X122460500Y-116836143D01*
X122460500Y-116743856D01*
X122460500Y-116704500D01*
X122480185Y-116637461D01*
X122532989Y-116591706D01*
X122584500Y-116580500D01*
X122929750Y-116580500D01*
X122929751Y-116580499D01*
X122944568Y-116577552D01*
X122988229Y-116568868D01*
X122988229Y-116568867D01*
X122988231Y-116568867D01*
X123054552Y-116524552D01*
X123098867Y-116458231D01*
X123098867Y-116458229D01*
X123098868Y-116458229D01*
X123110499Y-116399752D01*
X123110500Y-116399750D01*
X123110500Y-114760249D01*
X123110499Y-114760247D01*
X123098868Y-114701770D01*
X123098867Y-114701769D01*
X123054552Y-114635447D01*
X122988230Y-114591132D01*
X122988229Y-114591131D01*
X122929752Y-114579500D01*
X122929748Y-114579500D01*
X121290252Y-114579500D01*
X121290247Y-114579500D01*
X121231770Y-114591131D01*
X121231769Y-114591132D01*
X121165447Y-114635447D01*
X121121132Y-114701769D01*
X121121131Y-114701770D01*
X121109500Y-114760247D01*
X121109500Y-116399752D01*
X121121131Y-116458229D01*
X121121132Y-116458230D01*
X121165447Y-116524552D01*
X121231769Y-116568867D01*
X121231770Y-116568868D01*
X121290247Y-116580499D01*
X121290250Y-116580500D01*
X121290252Y-116580500D01*
X121524456Y-116580500D01*
X121591495Y-116600185D01*
X121637250Y-116652989D01*
X121647194Y-116722147D01*
X121618169Y-116785703D01*
X121612137Y-116792181D01*
X117316137Y-121088181D01*
X117254814Y-121121666D01*
X117228456Y-121124500D01*
X114323795Y-121124500D01*
X114256756Y-121104815D01*
X114213311Y-121056796D01*
X114209594Y-121049501D01*
X114203050Y-121036658D01*
X114203047Y-121036655D01*
X114203045Y-121036652D01*
X114113347Y-120946954D01*
X114113344Y-120946952D01*
X114113342Y-120946950D01*
X114036517Y-120907805D01*
X114000301Y-120889352D01*
X113906524Y-120874500D01*
X113395542Y-120874500D01*
X113328503Y-120854815D01*
X113282748Y-120802011D01*
X113272804Y-120732853D01*
X113301829Y-120669297D01*
X113307847Y-120662833D01*
X113973862Y-119996819D01*
X114035185Y-119963334D01*
X114061543Y-119960500D01*
X116836142Y-119960500D01*
X116836144Y-119960500D01*
X116925288Y-119936614D01*
X116960088Y-119916522D01*
X117005212Y-119890470D01*
X119850470Y-117045212D01*
X119896614Y-116965288D01*
X119896615Y-116965285D01*
X119903943Y-116937937D01*
X119903943Y-116937936D01*
X119907332Y-116925287D01*
X119920500Y-116876144D01*
X119920500Y-116600605D01*
X119940185Y-116533566D01*
X119992989Y-116487811D01*
X119997009Y-116486060D01*
X120043914Y-116466632D01*
X120207782Y-116357139D01*
X120347139Y-116217782D01*
X120456632Y-116053914D01*
X120464609Y-116034657D01*
X120532049Y-115871839D01*
X120532051Y-115871835D01*
X120553516Y-115763926D01*
X120570500Y-115678543D01*
X120570500Y-115481456D01*
X120532052Y-115288170D01*
X120532051Y-115288169D01*
X120532051Y-115288165D01*
X120532049Y-115288160D01*
X120456635Y-115106092D01*
X120456628Y-115106079D01*
X120347139Y-114942218D01*
X120347136Y-114942214D01*
X120207785Y-114802863D01*
X120207781Y-114802860D01*
X120043920Y-114693371D01*
X120043907Y-114693364D01*
X119861839Y-114617950D01*
X119861829Y-114617947D01*
X119668543Y-114579500D01*
X119668541Y-114579500D01*
X119471459Y-114579500D01*
X119471457Y-114579500D01*
X119278170Y-114617947D01*
X119278160Y-114617950D01*
X119096092Y-114693364D01*
X119096079Y-114693371D01*
X118932218Y-114802860D01*
X118932214Y-114802863D01*
X118792863Y-114942214D01*
X118792860Y-114942218D01*
X118683371Y-115106079D01*
X118683364Y-115106092D01*
X118607950Y-115288160D01*
X118607947Y-115288170D01*
X118569500Y-115481456D01*
X118569500Y-115481459D01*
X118569500Y-115678541D01*
X118569500Y-115678543D01*
X118569499Y-115678543D01*
X118607947Y-115871829D01*
X118607950Y-115871839D01*
X118683364Y-116053907D01*
X118683371Y-116053920D01*
X118792860Y-116217781D01*
X118792863Y-116217785D01*
X118932217Y-116357139D01*
X119083513Y-116458231D01*
X119096086Y-116466632D01*
X119142953Y-116486044D01*
X119158517Y-116498586D01*
X119176703Y-116506892D01*
X119185167Y-116520062D01*
X119197355Y-116529884D01*
X119203668Y-116548850D01*
X119214477Y-116565670D01*
X119218439Y-116593229D01*
X119219421Y-116596178D01*
X119219500Y-116600605D01*
X119219500Y-116633456D01*
X119199815Y-116700495D01*
X119183181Y-116721137D01*
X116681137Y-119223181D01*
X116619814Y-119256666D01*
X116593456Y-119259500D01*
X113818856Y-119259500D01*
X113729712Y-119283386D01*
X113729711Y-119283386D01*
X113729709Y-119283387D01*
X113729706Y-119283388D01*
X113649794Y-119329526D01*
X113649785Y-119329533D01*
X112141136Y-120838181D01*
X112114208Y-120852884D01*
X112088390Y-120869477D01*
X112082189Y-120870368D01*
X112079813Y-120871666D01*
X112053455Y-120874500D01*
X111805292Y-120874500D01*
X111738253Y-120854815D01*
X111692498Y-120802011D01*
X111691304Y-120799313D01*
X111655281Y-120715191D01*
X111655280Y-120715189D01*
X111655279Y-120715187D01*
X111537477Y-120541135D01*
X111435951Y-120439609D01*
X111409071Y-120399381D01*
X111390475Y-120354486D01*
X111340941Y-120234901D01*
X111225977Y-120062844D01*
X111225975Y-120062841D01*
X111076559Y-119913425D01*
X111076528Y-119913396D01*
X111026819Y-119863687D01*
X110993334Y-119802364D01*
X110990500Y-119776006D01*
X110990500Y-118576492D01*
X111010185Y-118509453D01*
X111026815Y-118488815D01*
X111449651Y-118065979D01*
X111449655Y-118065977D01*
X111595977Y-117919655D01*
X111710941Y-117747598D01*
X111790130Y-117556420D01*
X111830500Y-117353465D01*
X111830500Y-117221902D01*
X111850185Y-117154863D01*
X111902989Y-117109108D01*
X111938312Y-117098964D01*
X112002238Y-117090548D01*
X112223887Y-117031158D01*
X112435888Y-116943344D01*
X112634612Y-116828611D01*
X112816661Y-116688919D01*
X112816665Y-116688914D01*
X112816670Y-116688911D01*
X112978911Y-116526670D01*
X112978914Y-116526665D01*
X112978919Y-116526661D01*
X113118611Y-116344612D01*
X113231939Y-116148320D01*
X113282506Y-116100105D01*
X113351113Y-116086882D01*
X113415978Y-116112850D01*
X113427007Y-116122640D01*
X113490342Y-116185975D01*
X113490345Y-116185977D01*
X113662402Y-116300941D01*
X113853580Y-116380130D01*
X114007061Y-116410659D01*
X114056530Y-116420499D01*
X114056534Y-116420500D01*
X114056535Y-116420500D01*
X114263466Y-116420500D01*
X114263467Y-116420499D01*
X114466420Y-116380130D01*
X114657598Y-116300941D01*
X114829655Y-116185977D01*
X114975977Y-116039655D01*
X115090941Y-115867598D01*
X115170130Y-115676420D01*
X115210500Y-115473465D01*
X115210500Y-115016535D01*
X115170130Y-114813580D01*
X115090941Y-114622402D01*
X114975977Y-114450345D01*
X114975975Y-114450342D01*
X114829658Y-114304025D01*
X114829654Y-114304022D01*
X114790609Y-114277933D01*
X114786873Y-114273463D01*
X114781496Y-114271223D01*
X114764722Y-114246958D01*
X114745804Y-114224321D01*
X114744217Y-114217295D01*
X114741766Y-114213749D01*
X114737666Y-114188285D01*
X114735570Y-114179003D01*
X114735500Y-114176923D01*
X114735500Y-113984234D01*
X114731759Y-113970274D01*
X114696281Y-113837865D01*
X114675044Y-113801081D01*
X114660392Y-113775703D01*
X114620517Y-113706638D01*
X114620512Y-113706632D01*
X113448367Y-112534487D01*
X113448365Y-112534485D01*
X113382750Y-112496602D01*
X113317136Y-112458719D01*
X113243950Y-112439109D01*
X113170766Y-112419500D01*
X102110768Y-112419500D01*
X101959235Y-112419500D01*
X101812864Y-112458719D01*
X101681636Y-112534485D01*
X101681633Y-112534487D01*
X100279487Y-113936633D01*
X100279485Y-113936636D01*
X100264069Y-113963338D01*
X100203719Y-114067866D01*
X100193804Y-114104870D01*
X100169439Y-114195802D01*
X100133074Y-114255462D01*
X100118554Y-114266810D01*
X100070349Y-114299019D01*
X100070341Y-114299025D01*
X99924024Y-114445342D01*
X99809058Y-114617403D01*
X99729870Y-114808579D01*
X99729868Y-114808587D01*
X99689500Y-115011530D01*
X99689500Y-115468469D01*
X99729868Y-115671412D01*
X99729870Y-115671420D01*
X99771931Y-115772965D01*
X99809059Y-115862598D01*
X99862557Y-115942664D01*
X99924024Y-116034657D01*
X100070342Y-116180975D01*
X100242405Y-116295943D01*
X100312952Y-116325164D01*
X100367356Y-116369005D01*
X100389421Y-116435299D01*
X100389500Y-116439725D01*
X100389500Y-117663456D01*
X100369815Y-117730495D01*
X100353181Y-117751137D01*
X99206137Y-118898181D01*
X99144814Y-118931666D01*
X99118456Y-118934500D01*
X96110106Y-118934500D01*
X96020962Y-118958386D01*
X96020959Y-118958387D01*
X95941041Y-119004527D01*
X95941036Y-119004531D01*
X94900781Y-120044786D01*
X94900777Y-120044791D01*
X94854637Y-120124709D01*
X94854636Y-120124712D01*
X94830750Y-120213856D01*
X94830750Y-120963455D01*
X94811065Y-121030494D01*
X94794431Y-121051136D01*
X94522386Y-121323181D01*
X94495458Y-121337884D01*
X94469640Y-121354477D01*
X94463439Y-121355368D01*
X94461063Y-121356666D01*
X94434705Y-121359500D01*
X94327794Y-121359500D01*
X94260755Y-121339815D01*
X94240113Y-121323181D01*
X94146464Y-121229532D01*
X94146458Y-121229527D01*
X94097080Y-121201019D01*
X94071399Y-121181313D01*
X93992117Y-121102031D01*
X93992112Y-121102027D01*
X93912194Y-121055887D01*
X93912193Y-121055886D01*
X93912192Y-121055886D01*
X93823048Y-121032000D01*
X93823047Y-121032000D01*
X93706360Y-121032000D01*
X93639321Y-121012315D01*
X93618678Y-120995680D01*
X93584474Y-120961475D01*
X93584471Y-120961473D01*
X93584470Y-120961472D01*
X93464376Y-120900281D01*
X93464374Y-120900280D01*
X93464371Y-120900279D01*
X93364743Y-120884500D01*
X93364738Y-120884500D01*
X92797762Y-120884500D01*
X92797757Y-120884500D01*
X92698128Y-120900279D01*
X92578028Y-120961473D01*
X92578024Y-120961476D01*
X92482726Y-121056774D01*
X92482723Y-121056778D01*
X92421529Y-121176878D01*
X92405750Y-121276506D01*
X92405750Y-121793493D01*
X92421529Y-121893121D01*
X92421530Y-121893124D01*
X92421531Y-121893126D01*
X92482722Y-122013220D01*
X92482723Y-122013221D01*
X92482726Y-122013225D01*
X92578024Y-122108523D01*
X92578028Y-122108526D01*
X92578030Y-122108528D01*
X92698124Y-122169719D01*
X92698126Y-122169719D01*
X92698128Y-122169720D01*
X92797757Y-122185500D01*
X92797762Y-122185500D01*
X93364743Y-122185500D01*
X93464371Y-122169720D01*
X93464371Y-122169719D01*
X93464376Y-122169719D01*
X93584470Y-122108528D01*
X93603156Y-122089841D01*
X93664477Y-122056357D01*
X93734168Y-122061340D01*
X93789405Y-122102288D01*
X93797548Y-122112956D01*
X93828026Y-122178316D01*
X93910023Y-122260313D01*
X93915051Y-122266900D01*
X93924717Y-122292094D01*
X93937649Y-122315777D01*
X93937044Y-122324224D01*
X93940079Y-122332133D01*
X93934589Y-122358552D01*
X93932665Y-122385469D01*
X93927588Y-122392249D01*
X93925866Y-122400542D01*
X93906963Y-122419801D01*
X93890793Y-122441402D01*
X93882858Y-122444361D01*
X93876925Y-122450407D01*
X93850610Y-122456389D01*
X93825329Y-122465819D01*
X93813990Y-122464714D01*
X93808794Y-122465896D01*
X93802424Y-122463587D01*
X93795571Y-122462920D01*
X93795505Y-122463490D01*
X93786241Y-122462415D01*
X93761115Y-122459500D01*
X92246393Y-122459500D01*
X92246367Y-122459502D01*
X92221262Y-122462413D01*
X92221258Y-122462415D01*
X92118485Y-122507793D01*
X92039044Y-122587234D01*
X91993665Y-122690006D01*
X91993665Y-122690008D01*
X91990750Y-122715131D01*
X91990750Y-123004856D01*
X91990752Y-123004882D01*
X91993663Y-123029987D01*
X91993664Y-123029991D01*
X92036681Y-123127413D01*
X92045753Y-123196691D01*
X92036681Y-123227585D01*
X91993666Y-123325003D01*
X91993665Y-123325008D01*
X91990750Y-123350131D01*
X91990750Y-123639856D01*
X91990752Y-123639882D01*
X91993663Y-123664987D01*
X91993664Y-123664991D01*
X92036681Y-123762413D01*
X92045753Y-123831691D01*
X92036681Y-123862585D01*
X91993666Y-123960003D01*
X91993665Y-123960008D01*
X91990750Y-123985131D01*
X91990750Y-124274856D01*
X91990752Y-124274882D01*
X91993663Y-124299987D01*
X91993664Y-124299991D01*
X92036681Y-124397413D01*
X92045753Y-124466691D01*
X92036681Y-124497585D01*
X91993666Y-124595003D01*
X91993665Y-124595008D01*
X91990750Y-124620131D01*
X91990750Y-124909856D01*
X91990752Y-124909882D01*
X91993663Y-124934987D01*
X91995829Y-124942945D01*
X91995325Y-124968172D01*
X91998917Y-124993147D01*
X91994641Y-125002509D01*
X91994436Y-125012801D01*
X91980373Y-125033750D01*
X91969892Y-125056703D01*
X91961232Y-125062268D01*
X91955496Y-125070814D01*
X91932341Y-125080835D01*
X91911114Y-125094477D01*
X91895699Y-125096693D01*
X91891375Y-125098565D01*
X91876179Y-125099500D01*
X91854583Y-125099500D01*
X91787544Y-125079815D01*
X91766902Y-125063181D01*
X91668069Y-124964348D01*
X91634584Y-124903025D01*
X91631750Y-124876667D01*
X91631750Y-124658183D01*
X91625318Y-124609328D01*
X91625318Y-124609327D01*
X91575315Y-124502096D01*
X91491654Y-124418435D01*
X91384423Y-124368432D01*
X91384421Y-124368431D01*
X91384422Y-124368431D01*
X91335567Y-124362000D01*
X91335566Y-124362000D01*
X90986934Y-124362000D01*
X90986933Y-124362000D01*
X90938078Y-124368431D01*
X90830845Y-124418435D01*
X90739514Y-124509767D01*
X90736690Y-124506943D01*
X90698208Y-124537683D01*
X90628708Y-124544852D01*
X90566364Y-124513308D01*
X90563151Y-124509601D01*
X90562986Y-124509767D01*
X90471654Y-124418435D01*
X90459557Y-124412794D01*
X90364423Y-124368432D01*
X90364421Y-124368431D01*
X90364422Y-124368431D01*
X90315567Y-124362000D01*
X90315566Y-124362000D01*
X89966934Y-124362000D01*
X89966933Y-124362000D01*
X89918078Y-124368431D01*
X89810845Y-124418435D01*
X89727184Y-124502096D01*
X89727184Y-124502097D01*
X89686924Y-124588432D01*
X89666961Y-124611103D01*
X89648853Y-124635293D01*
X89644102Y-124637064D01*
X89640751Y-124640871D01*
X89611694Y-124649152D01*
X89583389Y-124659710D01*
X89578434Y-124658632D01*
X89573558Y-124660022D01*
X89544640Y-124651280D01*
X89515116Y-124644858D01*
X89509510Y-124640661D01*
X89506677Y-124639805D01*
X89486862Y-124623707D01*
X89363819Y-124500664D01*
X89330334Y-124439341D01*
X89327500Y-124412983D01*
X89327500Y-119587017D01*
X89347185Y-119519978D01*
X89363819Y-119499336D01*
X90362336Y-118500819D01*
X90423659Y-118467334D01*
X90450017Y-118464500D01*
X96406114Y-118464500D01*
X96406116Y-118464500D01*
X96489410Y-118442181D01*
X96564090Y-118399065D01*
X97562065Y-117401090D01*
X97605181Y-117326410D01*
X97627500Y-117243116D01*
X97627500Y-117156884D01*
X97627500Y-116433926D01*
X97647185Y-116366887D01*
X97699989Y-116321132D01*
X97769147Y-116311188D01*
X97798950Y-116319364D01*
X97933580Y-116375130D01*
X98136530Y-116415499D01*
X98136534Y-116415500D01*
X98136535Y-116415500D01*
X98343466Y-116415500D01*
X98343467Y-116415499D01*
X98546420Y-116375130D01*
X98737598Y-116295941D01*
X98909655Y-116180977D01*
X99055977Y-116034655D01*
X99170941Y-115862598D01*
X99250130Y-115671420D01*
X99290500Y-115468465D01*
X99290500Y-115011535D01*
X99250130Y-114808580D01*
X99170941Y-114617402D01*
X99055977Y-114445345D01*
X99055975Y-114445342D01*
X98909657Y-114299024D01*
X98797855Y-114224321D01*
X98737598Y-114184059D01*
X98546420Y-114104870D01*
X98546412Y-114104868D01*
X98343469Y-114064500D01*
X98343465Y-114064500D01*
X98136535Y-114064500D01*
X98136530Y-114064500D01*
X97933587Y-114104868D01*
X97933579Y-114104870D01*
X97742403Y-114184058D01*
X97570342Y-114299024D01*
X97424024Y-114445342D01*
X97309058Y-114617403D01*
X97229870Y-114808579D01*
X97229868Y-114808587D01*
X97189500Y-115011530D01*
X97189500Y-115468469D01*
X97229868Y-115671412D01*
X97229870Y-115671420D01*
X97232008Y-115676581D01*
X97234145Y-115696458D01*
X97241131Y-115715188D01*
X97237803Y-115730484D01*
X97239477Y-115746050D01*
X97230528Y-115763926D01*
X97226279Y-115783461D01*
X97209592Y-115805751D01*
X97208202Y-115808529D01*
X97205128Y-115811715D01*
X97102680Y-115914163D01*
X97041357Y-115947648D01*
X96971665Y-115942664D01*
X96927318Y-115914163D01*
X96786120Y-115772965D01*
X96752635Y-115711642D01*
X96752184Y-115661093D01*
X96790500Y-115468465D01*
X96790500Y-115011535D01*
X96750130Y-114808580D01*
X96670941Y-114617402D01*
X96555977Y-114445345D01*
X96555975Y-114445342D01*
X96409657Y-114299024D01*
X96297855Y-114224321D01*
X96237598Y-114184059D01*
X96046420Y-114104870D01*
X96046412Y-114104868D01*
X95843469Y-114064500D01*
X95843465Y-114064500D01*
X95636535Y-114064500D01*
X95636530Y-114064500D01*
X95433587Y-114104868D01*
X95433579Y-114104870D01*
X95242403Y-114184058D01*
X95070342Y-114299024D01*
X94924024Y-114445342D01*
X94809058Y-114617403D01*
X94729870Y-114808579D01*
X94729868Y-114808587D01*
X94689500Y-115011530D01*
X94689500Y-115468469D01*
X94729868Y-115671412D01*
X94729870Y-115671420D01*
X94771931Y-115772965D01*
X94809059Y-115862598D01*
X94862557Y-115942664D01*
X94924024Y-116034657D01*
X95070342Y-116180975D01*
X95070345Y-116180977D01*
X95242402Y-116295941D01*
X95433580Y-116375130D01*
X95636530Y-116415499D01*
X95636534Y-116415500D01*
X95636535Y-116415500D01*
X95843466Y-116415500D01*
X95843467Y-116415499D01*
X96046420Y-116375130D01*
X96237598Y-116295941D01*
X96240012Y-116294327D01*
X96241469Y-116293871D01*
X96242973Y-116293068D01*
X96243125Y-116293352D01*
X96270314Y-116284837D01*
X96300063Y-116273742D01*
X96303414Y-116274471D01*
X96306688Y-116273446D01*
X96337313Y-116281845D01*
X96368336Y-116288594D01*
X96372045Y-116291371D01*
X96374069Y-116291926D01*
X96396590Y-116309745D01*
X96436181Y-116349336D01*
X96469666Y-116410659D01*
X96472500Y-116437017D01*
X96472500Y-116762983D01*
X96452815Y-116830022D01*
X96436181Y-116850664D01*
X95987664Y-117299181D01*
X95926341Y-117332666D01*
X95899983Y-117335500D01*
X90130116Y-117335500D01*
X90043884Y-117335500D01*
X89988354Y-117350379D01*
X89960589Y-117357819D01*
X89885911Y-117400934D01*
X89885908Y-117400936D01*
X88337936Y-118948908D01*
X88337934Y-118948911D01*
X88294819Y-119023589D01*
X88294819Y-119023590D01*
X88272500Y-119106884D01*
X88272500Y-124756884D01*
X88272500Y-124843116D01*
X88294819Y-124926410D01*
X88337935Y-125001090D01*
X89223410Y-125886565D01*
X89298090Y-125929681D01*
X89381384Y-125952000D01*
X89467616Y-125952000D01*
X89536750Y-125952000D01*
X89603789Y-125971685D01*
X89649544Y-126024489D01*
X89660750Y-126076000D01*
X89660750Y-126106816D01*
X89667181Y-126155671D01*
X89717185Y-126262904D01*
X89754100Y-126299819D01*
X89787585Y-126361142D01*
X89782601Y-126430834D01*
X89754102Y-126475180D01*
X89727185Y-126502097D01*
X89677182Y-126609328D01*
X89670751Y-126658183D01*
X89670751Y-126804500D01*
X89651066Y-126871539D01*
X89598262Y-126917294D01*
X89546751Y-126928500D01*
X88432100Y-126928500D01*
X88432072Y-126928498D01*
X88423445Y-126928498D01*
X87608807Y-126928498D01*
X87608805Y-126928498D01*
X87527292Y-126950339D01*
X87454210Y-126992534D01*
X87454207Y-126992536D01*
X86793538Y-127653205D01*
X86793536Y-127653208D01*
X86751341Y-127726290D01*
X86729500Y-127807803D01*
X86729500Y-128033419D01*
X86709815Y-128100458D01*
X86661796Y-128143903D01*
X86611659Y-128169449D01*
X86611652Y-128169454D01*
X86521954Y-128259152D01*
X86521951Y-128259157D01*
X86521950Y-128259158D01*
X86502751Y-128296837D01*
X86464352Y-128372198D01*
X86449500Y-128465975D01*
X86449500Y-128868381D01*
X86440856Y-128897817D01*
X86434333Y-128927807D01*
X86430577Y-128932824D01*
X86429815Y-128935420D01*
X86413182Y-128956062D01*
X86351440Y-129017805D01*
X86290117Y-129051290D01*
X86263758Y-129054124D01*
X82915675Y-129054124D01*
X82915659Y-129054123D01*
X82908063Y-129054123D01*
X82823674Y-129054123D01*
X82823672Y-129054123D01*
X82764002Y-129070110D01*
X82764003Y-129070111D01*
X82742162Y-129075963D01*
X82742161Y-129075963D01*
X82669079Y-129118158D01*
X82669073Y-129118162D01*
X81320038Y-130467197D01*
X81320036Y-130467200D01*
X81277841Y-130540282D01*
X81256000Y-130621795D01*
X81256000Y-133688203D01*
X81257061Y-133696261D01*
X81256698Y-133696308D01*
X81259500Y-133717591D01*
X81259500Y-135861705D01*
X81281341Y-135943219D01*
X81323536Y-136016302D01*
X81323538Y-136016304D01*
X81390273Y-136083039D01*
X81390279Y-136083044D01*
X85019685Y-139712450D01*
X85019695Y-139712461D01*
X85024026Y-139716792D01*
X85083698Y-139776464D01*
X85156781Y-139818659D01*
X85238295Y-139840500D01*
X86998500Y-139840500D01*
X87065539Y-139860185D01*
X87111294Y-139912989D01*
X87122500Y-139964500D01*
X87122500Y-140086430D01*
X87156219Y-140255949D01*
X87156222Y-140255958D01*
X87222369Y-140415652D01*
X87222370Y-140415655D01*
X87318400Y-140559373D01*
X87318403Y-140559377D01*
X87440622Y-140681596D01*
X87440626Y-140681599D01*
X87584344Y-140777629D01*
X87584346Y-140777629D01*
X87584348Y-140777631D01*
X87744043Y-140843778D01*
X87744045Y-140843778D01*
X87744050Y-140843780D01*
X87913569Y-140877499D01*
X87913572Y-140877500D01*
X87913574Y-140877500D01*
X88086428Y-140877500D01*
X88086429Y-140877499D01*
X88142936Y-140866259D01*
X88255949Y-140843780D01*
X88255952Y-140843778D01*
X88255957Y-140843778D01*
X88415652Y-140777631D01*
X88559374Y-140681599D01*
X88681599Y-140559374D01*
X88777631Y-140415652D01*
X88807813Y-140342785D01*
X88851650Y-140288384D01*
X88917944Y-140266318D01*
X88985643Y-140283596D01*
X89033255Y-140334732D01*
X89036933Y-140342786D01*
X89101057Y-140497594D01*
X89101062Y-140497604D01*
X89216022Y-140669653D01*
X89216023Y-140669654D01*
X89216024Y-140669655D01*
X89360182Y-140813813D01*
X89393666Y-140875134D01*
X89396500Y-140901493D01*
X89396500Y-146426964D01*
X89436868Y-146629907D01*
X89436870Y-146629915D01*
X89516058Y-146821091D01*
X89631024Y-146993152D01*
X89781664Y-147143792D01*
X89781686Y-147143812D01*
X90405694Y-147767820D01*
X90439179Y-147829143D01*
X90434195Y-147898835D01*
X90392323Y-147954768D01*
X90326859Y-147979185D01*
X90318013Y-147979501D01*
X81006962Y-147979501D01*
X80993078Y-147978721D01*
X80980553Y-147977309D01*
X80902735Y-147968541D01*
X80875666Y-147962363D01*
X80796460Y-147934648D01*
X80771443Y-147922600D01*
X80700399Y-147877961D01*
X80678688Y-147860648D01*
X80619352Y-147801311D01*
X80602043Y-147779607D01*
X80557394Y-147708550D01*
X80545350Y-147683538D01*
X80517636Y-147604333D01*
X80511458Y-147577263D01*
X80501280Y-147486929D01*
X80500500Y-147473046D01*
X80500500Y-142416803D01*
X82306500Y-142416803D01*
X82306500Y-142663196D01*
X82333284Y-142866636D01*
X82338659Y-142907459D01*
X82338660Y-142907461D01*
X82402425Y-143145440D01*
X82496708Y-143373058D01*
X82496712Y-143373068D01*
X82619899Y-143586434D01*
X82769883Y-143781898D01*
X82769889Y-143781905D01*
X82944094Y-143956110D01*
X82944101Y-143956116D01*
X83139565Y-144106100D01*
X83352931Y-144229287D01*
X83352932Y-144229287D01*
X83352935Y-144229289D01*
X83580558Y-144323574D01*
X83818541Y-144387341D01*
X84062811Y-144419500D01*
X84062818Y-144419500D01*
X84309182Y-144419500D01*
X84309189Y-144419500D01*
X84553459Y-144387341D01*
X84791442Y-144323574D01*
X85019065Y-144229289D01*
X85232435Y-144106100D01*
X85427900Y-143956115D01*
X85602115Y-143781900D01*
X85752100Y-143586435D01*
X85875289Y-143373065D01*
X85969574Y-143145442D01*
X86033341Y-142907459D01*
X86065500Y-142663189D01*
X86065500Y-142416811D01*
X86033341Y-142172541D01*
X85969574Y-141934558D01*
X85875289Y-141706935D01*
X85863740Y-141686932D01*
X85752100Y-141493565D01*
X85602116Y-141298101D01*
X85602110Y-141298094D01*
X85427905Y-141123889D01*
X85427898Y-141123883D01*
X85232434Y-140973899D01*
X85019068Y-140850712D01*
X85019058Y-140850708D01*
X84791440Y-140756425D01*
X84672450Y-140724542D01*
X84553459Y-140692659D01*
X84512636Y-140687284D01*
X84309196Y-140660500D01*
X84309189Y-140660500D01*
X84062811Y-140660500D01*
X84062803Y-140660500D01*
X83830299Y-140691110D01*
X83818541Y-140692659D01*
X83768246Y-140706135D01*
X83580559Y-140756425D01*
X83352941Y-140850708D01*
X83352931Y-140850712D01*
X83139565Y-140973899D01*
X82944101Y-141123883D01*
X82944094Y-141123889D01*
X82769889Y-141298094D01*
X82769883Y-141298101D01*
X82619899Y-141493565D01*
X82496712Y-141706931D01*
X82496708Y-141706941D01*
X82402425Y-141934559D01*
X82352135Y-142122246D01*
X82344019Y-142152539D01*
X82338660Y-142172538D01*
X82338658Y-142172549D01*
X82306500Y-142416803D01*
X80500500Y-142416803D01*
X80500500Y-124859041D01*
X81549500Y-124859041D01*
X81549500Y-125140958D01*
X81586295Y-125420439D01*
X81659259Y-125692743D01*
X81767135Y-125953179D01*
X81767140Y-125953190D01*
X81908083Y-126197309D01*
X81908088Y-126197317D01*
X82055071Y-126388868D01*
X82079704Y-126420970D01*
X82279029Y-126620295D01*
X82279033Y-126620298D01*
X82279035Y-126620300D01*
X82502683Y-126791912D01*
X82502690Y-126791916D01*
X82746809Y-126932859D01*
X82746814Y-126932861D01*
X82746817Y-126932863D01*
X83007261Y-127040742D01*
X83279558Y-127113704D01*
X83559049Y-127150500D01*
X83559056Y-127150500D01*
X83840944Y-127150500D01*
X83840951Y-127150500D01*
X84120442Y-127113704D01*
X84392739Y-127040742D01*
X84653183Y-126932863D01*
X84897317Y-126791912D01*
X85120965Y-126620300D01*
X85320300Y-126420965D01*
X85491912Y-126197317D01*
X85632863Y-125953183D01*
X85740742Y-125692739D01*
X85813704Y-125420442D01*
X85850500Y-125140951D01*
X85850500Y-124859049D01*
X85813704Y-124579558D01*
X85740742Y-124307261D01*
X85632863Y-124046817D01*
X85632861Y-124046814D01*
X85632859Y-124046809D01*
X85491916Y-123802690D01*
X85491912Y-123802683D01*
X85320300Y-123579035D01*
X85320298Y-123579033D01*
X85320295Y-123579029D01*
X85120970Y-123379704D01*
X85110630Y-123371770D01*
X84897317Y-123208088D01*
X84897311Y-123208084D01*
X84897309Y-123208083D01*
X84653190Y-123067140D01*
X84653179Y-123067135D01*
X84392743Y-122959259D01*
X84120439Y-122886295D01*
X83840958Y-122849500D01*
X83840951Y-122849500D01*
X83559049Y-122849500D01*
X83559041Y-122849500D01*
X83279560Y-122886295D01*
X83007256Y-122959259D01*
X82746820Y-123067135D01*
X82746809Y-123067140D01*
X82502690Y-123208083D01*
X82502684Y-123208087D01*
X82502683Y-123208088D01*
X82477274Y-123227585D01*
X82279029Y-123379704D01*
X82079704Y-123579029D01*
X81981312Y-123707256D01*
X81910617Y-123799388D01*
X81908089Y-123802682D01*
X81908083Y-123802690D01*
X81767140Y-124046809D01*
X81767135Y-124046820D01*
X81659259Y-124307256D01*
X81586295Y-124579560D01*
X81549500Y-124859041D01*
X80500500Y-124859041D01*
X80500500Y-105093646D01*
X120799500Y-105093646D01*
X120799500Y-105506353D01*
X120839952Y-105917084D01*
X120920464Y-106321848D01*
X120920467Y-106321859D01*
X121040274Y-106716814D01*
X121198214Y-107098113D01*
X121198216Y-107098118D01*
X121392759Y-107462081D01*
X121392770Y-107462099D01*
X121622052Y-107805244D01*
X121622062Y-107805258D01*
X121883885Y-108124291D01*
X122175708Y-108416114D01*
X122175713Y-108416118D01*
X122175714Y-108416119D01*
X122494747Y-108677942D01*
X122837907Y-108907234D01*
X122837916Y-108907239D01*
X122837918Y-108907240D01*
X123201881Y-109101783D01*
X123201883Y-109101783D01*
X123201889Y-109101787D01*
X123583187Y-109259726D01*
X123978131Y-109379530D01*
X123978137Y-109379531D01*
X123978140Y-109379532D01*
X123978151Y-109379535D01*
X124382915Y-109460047D01*
X124793643Y-109500500D01*
X124793646Y-109500500D01*
X125206354Y-109500500D01*
X125206357Y-109500500D01*
X125617085Y-109460047D01*
X125695884Y-109444372D01*
X126021848Y-109379535D01*
X126021859Y-109379532D01*
X126021859Y-109379531D01*
X126021869Y-109379530D01*
X126416813Y-109259726D01*
X126798111Y-109101787D01*
X127162093Y-108907234D01*
X127505253Y-108677942D01*
X127824286Y-108416119D01*
X128116119Y-108124286D01*
X128377942Y-107805253D01*
X128607234Y-107462093D01*
X128801787Y-107098111D01*
X128959726Y-106716813D01*
X129079530Y-106321869D01*
X129079532Y-106321859D01*
X129079535Y-106321848D01*
X129160047Y-105917084D01*
X129200500Y-105506353D01*
X129200500Y-105093646D01*
X129160047Y-104682915D01*
X129079535Y-104278151D01*
X129079532Y-104278140D01*
X129079531Y-104278137D01*
X129079530Y-104278131D01*
X128959726Y-103883187D01*
X128801787Y-103501889D01*
X128607234Y-103137907D01*
X128377942Y-102794747D01*
X128116119Y-102475714D01*
X128116118Y-102475713D01*
X128116114Y-102475708D01*
X127824291Y-102183885D01*
X127505258Y-101922062D01*
X127505257Y-101922061D01*
X127505253Y-101922058D01*
X127162093Y-101692766D01*
X127162088Y-101692763D01*
X127162081Y-101692759D01*
X126798118Y-101498216D01*
X126798113Y-101498214D01*
X126416814Y-101340274D01*
X126021859Y-101220467D01*
X126021848Y-101220464D01*
X125617084Y-101139952D01*
X125307741Y-101109485D01*
X125206357Y-101099500D01*
X124793643Y-101099500D01*
X124699966Y-101108726D01*
X124382915Y-101139952D01*
X123978151Y-101220464D01*
X123978140Y-101220467D01*
X123583185Y-101340274D01*
X123201886Y-101498214D01*
X123201881Y-101498216D01*
X122837918Y-101692759D01*
X122837900Y-101692770D01*
X122494755Y-101922052D01*
X122494741Y-101922062D01*
X122175708Y-102183885D01*
X121883885Y-102475708D01*
X121622062Y-102794741D01*
X121622052Y-102794755D01*
X121392770Y-103137900D01*
X121392759Y-103137918D01*
X121198216Y-103501881D01*
X121198214Y-103501886D01*
X121040274Y-103883185D01*
X120920467Y-104278140D01*
X120920464Y-104278151D01*
X120839952Y-104682915D01*
X120799500Y-105093646D01*
X80500500Y-105093646D01*
X80500500Y-94359041D01*
X84849500Y-94359041D01*
X84849500Y-94640958D01*
X84886295Y-94920439D01*
X84959259Y-95192743D01*
X85067135Y-95453179D01*
X85067140Y-95453190D01*
X85208083Y-95697309D01*
X85208088Y-95697317D01*
X85379700Y-95920965D01*
X85379704Y-95920970D01*
X85579029Y-96120295D01*
X85579033Y-96120298D01*
X85579035Y-96120300D01*
X85802683Y-96291912D01*
X85802690Y-96291916D01*
X86046809Y-96432859D01*
X86046814Y-96432861D01*
X86046817Y-96432863D01*
X86307261Y-96540742D01*
X86579558Y-96613704D01*
X86859049Y-96650500D01*
X86859056Y-96650500D01*
X87140944Y-96650500D01*
X87140951Y-96650500D01*
X87420442Y-96613704D01*
X87692739Y-96540742D01*
X87953183Y-96432863D01*
X88197317Y-96291912D01*
X88420965Y-96120300D01*
X88620300Y-95920965D01*
X88791912Y-95697317D01*
X88932863Y-95453183D01*
X89040742Y-95192739D01*
X89113704Y-94920442D01*
X89150500Y-94640951D01*
X89150500Y-94359049D01*
X89113704Y-94079558D01*
X89040742Y-93807261D01*
X88932863Y-93546817D01*
X88932861Y-93546814D01*
X88932859Y-93546809D01*
X88791916Y-93302690D01*
X88791912Y-93302683D01*
X88620300Y-93079035D01*
X88620298Y-93079033D01*
X88620295Y-93079029D01*
X88420970Y-92879704D01*
X88420965Y-92879700D01*
X88197317Y-92708088D01*
X88197311Y-92708084D01*
X88197309Y-92708083D01*
X87953190Y-92567140D01*
X87953179Y-92567135D01*
X87692743Y-92459259D01*
X87420439Y-92386295D01*
X87140958Y-92349500D01*
X87140951Y-92349500D01*
X86859049Y-92349500D01*
X86859041Y-92349500D01*
X86579560Y-92386295D01*
X86307256Y-92459259D01*
X86046820Y-92567135D01*
X86046809Y-92567140D01*
X85802690Y-92708083D01*
X85802682Y-92708089D01*
X85579029Y-92879704D01*
X85379704Y-93079029D01*
X85208089Y-93302682D01*
X85208083Y-93302690D01*
X85067140Y-93546809D01*
X85067135Y-93546820D01*
X84959259Y-93807256D01*
X84886295Y-94079560D01*
X84849500Y-94359041D01*
X80500500Y-94359041D01*
X80500500Y-85484041D01*
X84849500Y-85484041D01*
X84849500Y-85765958D01*
X84886295Y-86045439D01*
X84959259Y-86317743D01*
X85067135Y-86578179D01*
X85067140Y-86578190D01*
X85208083Y-86822309D01*
X85208088Y-86822317D01*
X85379700Y-87045965D01*
X85379704Y-87045970D01*
X85579029Y-87245295D01*
X85579033Y-87245298D01*
X85579035Y-87245300D01*
X85802683Y-87416912D01*
X85802690Y-87416916D01*
X86046809Y-87557859D01*
X86046814Y-87557861D01*
X86046817Y-87557863D01*
X86307261Y-87665742D01*
X86579558Y-87738704D01*
X86859049Y-87775500D01*
X86859056Y-87775500D01*
X87140944Y-87775500D01*
X87140951Y-87775500D01*
X87420442Y-87738704D01*
X87692739Y-87665742D01*
X87953183Y-87557863D01*
X88197317Y-87416912D01*
X88420965Y-87245300D01*
X88620300Y-87045965D01*
X88791912Y-86822317D01*
X88932863Y-86578183D01*
X89040742Y-86317739D01*
X89113704Y-86045442D01*
X89150500Y-85765951D01*
X89150500Y-85484049D01*
X89113704Y-85204558D01*
X89040742Y-84932261D01*
X88932863Y-84671817D01*
X88932861Y-84671814D01*
X88932859Y-84671809D01*
X88791916Y-84427690D01*
X88791912Y-84427683D01*
X88620300Y-84204035D01*
X88620298Y-84204033D01*
X88620295Y-84204029D01*
X88420970Y-84004704D01*
X88420965Y-84004700D01*
X88197317Y-83833088D01*
X88197311Y-83833084D01*
X88197309Y-83833083D01*
X87953190Y-83692140D01*
X87953179Y-83692135D01*
X87692743Y-83584259D01*
X87420439Y-83511295D01*
X87140958Y-83474500D01*
X87140951Y-83474500D01*
X86859049Y-83474500D01*
X86859041Y-83474500D01*
X86579560Y-83511295D01*
X86307256Y-83584259D01*
X86046820Y-83692135D01*
X86046809Y-83692140D01*
X85802690Y-83833083D01*
X85802682Y-83833089D01*
X85579029Y-84004704D01*
X85379704Y-84204029D01*
X85208089Y-84427682D01*
X85208083Y-84427690D01*
X85067140Y-84671809D01*
X85067135Y-84671820D01*
X84959259Y-84932256D01*
X84886295Y-85204560D01*
X84849500Y-85484041D01*
X80500500Y-85484041D01*
X80500500Y-76609041D01*
X84849500Y-76609041D01*
X84849500Y-76890958D01*
X84886295Y-77170439D01*
X84959259Y-77442743D01*
X85067135Y-77703179D01*
X85067140Y-77703190D01*
X85208083Y-77947309D01*
X85208088Y-77947317D01*
X85379700Y-78170965D01*
X85379704Y-78170970D01*
X85579029Y-78370295D01*
X85579033Y-78370298D01*
X85579035Y-78370300D01*
X85802683Y-78541912D01*
X85802690Y-78541916D01*
X86046809Y-78682859D01*
X86046814Y-78682861D01*
X86046817Y-78682863D01*
X86307261Y-78790742D01*
X86579558Y-78863704D01*
X86859049Y-78900500D01*
X86859056Y-78900500D01*
X87140944Y-78900500D01*
X87140951Y-78900500D01*
X87420442Y-78863704D01*
X87692739Y-78790742D01*
X87953183Y-78682863D01*
X88197317Y-78541912D01*
X88420965Y-78370300D01*
X88620300Y-78170965D01*
X88791912Y-77947317D01*
X88932863Y-77703183D01*
X89040742Y-77442739D01*
X89113704Y-77170442D01*
X89150500Y-76890951D01*
X89150500Y-76609049D01*
X89113704Y-76329558D01*
X89040742Y-76057261D01*
X88932863Y-75796817D01*
X88932861Y-75796814D01*
X88932859Y-75796809D01*
X88791916Y-75552690D01*
X88791912Y-75552683D01*
X88620300Y-75329035D01*
X88620298Y-75329033D01*
X88620295Y-75329029D01*
X88420970Y-75129704D01*
X88420965Y-75129700D01*
X88197317Y-74958088D01*
X88197311Y-74958084D01*
X88197309Y-74958083D01*
X87953190Y-74817140D01*
X87953179Y-74817135D01*
X87692743Y-74709259D01*
X87420439Y-74636295D01*
X87140958Y-74599500D01*
X87140951Y-74599500D01*
X86859049Y-74599500D01*
X86859041Y-74599500D01*
X86579560Y-74636295D01*
X86307256Y-74709259D01*
X86046820Y-74817135D01*
X86046809Y-74817140D01*
X85802690Y-74958083D01*
X85802682Y-74958089D01*
X85579029Y-75129704D01*
X85379704Y-75329029D01*
X85208089Y-75552682D01*
X85208083Y-75552690D01*
X85067140Y-75796809D01*
X85067135Y-75796820D01*
X84959259Y-76057256D01*
X84886295Y-76329560D01*
X84849500Y-76609041D01*
X80500500Y-76609041D01*
X80500500Y-67734041D01*
X84849500Y-67734041D01*
X84849500Y-68015958D01*
X84886295Y-68295439D01*
X84959259Y-68567743D01*
X85067135Y-68828179D01*
X85067140Y-68828190D01*
X85208083Y-69072309D01*
X85208088Y-69072317D01*
X85379700Y-69295965D01*
X85379704Y-69295970D01*
X85579029Y-69495295D01*
X85579033Y-69495298D01*
X85579035Y-69495300D01*
X85802683Y-69666912D01*
X85802690Y-69666916D01*
X86046809Y-69807859D01*
X86046814Y-69807861D01*
X86046817Y-69807863D01*
X86307261Y-69915742D01*
X86579558Y-69988704D01*
X86859049Y-70025500D01*
X86859056Y-70025500D01*
X87140944Y-70025500D01*
X87140951Y-70025500D01*
X87420442Y-69988704D01*
X87692739Y-69915742D01*
X87953183Y-69807863D01*
X88197317Y-69666912D01*
X88420965Y-69495300D01*
X88620300Y-69295965D01*
X88791912Y-69072317D01*
X88932863Y-68828183D01*
X89040742Y-68567739D01*
X89113704Y-68295442D01*
X89150500Y-68015951D01*
X89150500Y-67734049D01*
X89113704Y-67454558D01*
X89040742Y-67182261D01*
X88932863Y-66921817D01*
X88932861Y-66921814D01*
X88932859Y-66921809D01*
X88791916Y-66677690D01*
X88791912Y-66677683D01*
X88620300Y-66454035D01*
X88620298Y-66454033D01*
X88620295Y-66454029D01*
X88420970Y-66254704D01*
X88420965Y-66254700D01*
X88197317Y-66083088D01*
X88197311Y-66083084D01*
X88197309Y-66083083D01*
X87953190Y-65942140D01*
X87953179Y-65942135D01*
X87692743Y-65834259D01*
X87420439Y-65761295D01*
X87140958Y-65724500D01*
X87140951Y-65724500D01*
X86859049Y-65724500D01*
X86859041Y-65724500D01*
X86579560Y-65761295D01*
X86307256Y-65834259D01*
X86046820Y-65942135D01*
X86046809Y-65942140D01*
X85802690Y-66083083D01*
X85802682Y-66083089D01*
X85579029Y-66254704D01*
X85379704Y-66454029D01*
X85208089Y-66677682D01*
X85208083Y-66677690D01*
X85067140Y-66921809D01*
X85067135Y-66921820D01*
X84959259Y-67182256D01*
X84886295Y-67454560D01*
X84849500Y-67734041D01*
X80500500Y-67734041D01*
X80500500Y-58859041D01*
X84849500Y-58859041D01*
X84849500Y-59140958D01*
X84886295Y-59420439D01*
X84959259Y-59692743D01*
X85067135Y-59953179D01*
X85067140Y-59953190D01*
X85208083Y-60197309D01*
X85208088Y-60197317D01*
X85379700Y-60420965D01*
X85379704Y-60420970D01*
X85579029Y-60620295D01*
X85579033Y-60620298D01*
X85579035Y-60620300D01*
X85802683Y-60791912D01*
X85802690Y-60791916D01*
X86046809Y-60932859D01*
X86046814Y-60932861D01*
X86046817Y-60932863D01*
X86307261Y-61040742D01*
X86579558Y-61113704D01*
X86859049Y-61150500D01*
X86859056Y-61150500D01*
X87140944Y-61150500D01*
X87140951Y-61150500D01*
X87420442Y-61113704D01*
X87692739Y-61040742D01*
X87953183Y-60932863D01*
X88197317Y-60791912D01*
X88420965Y-60620300D01*
X88620300Y-60420965D01*
X88791912Y-60197317D01*
X88932863Y-59953183D01*
X89040742Y-59692739D01*
X89113704Y-59420442D01*
X89150500Y-59140951D01*
X89150500Y-58859049D01*
X89113704Y-58579558D01*
X89040742Y-58307261D01*
X88932863Y-58046817D01*
X88932861Y-58046814D01*
X88932859Y-58046809D01*
X88791916Y-57802690D01*
X88791912Y-57802683D01*
X88620300Y-57579035D01*
X88620298Y-57579033D01*
X88620295Y-57579029D01*
X88420970Y-57379704D01*
X88420965Y-57379700D01*
X88197317Y-57208088D01*
X88197311Y-57208084D01*
X88197309Y-57208083D01*
X87953190Y-57067140D01*
X87953179Y-57067135D01*
X87692743Y-56959259D01*
X87420439Y-56886295D01*
X87140958Y-56849500D01*
X87140951Y-56849500D01*
X86859049Y-56849500D01*
X86859041Y-56849500D01*
X86579560Y-56886295D01*
X86307256Y-56959259D01*
X86046820Y-57067135D01*
X86046809Y-57067140D01*
X85802690Y-57208083D01*
X85802682Y-57208089D01*
X85579029Y-57379704D01*
X85379704Y-57579029D01*
X85208089Y-57802682D01*
X85208083Y-57802690D01*
X85067140Y-58046809D01*
X85067135Y-58046820D01*
X84959259Y-58307256D01*
X84886295Y-58579560D01*
X84849500Y-58859041D01*
X80500500Y-58859041D01*
X80500500Y-55006961D01*
X80501280Y-54993079D01*
X80502840Y-54979225D01*
X80511459Y-54902729D01*
X80517632Y-54875678D01*
X80545357Y-54796447D01*
X80557391Y-54771457D01*
X80602047Y-54700387D01*
X80619350Y-54678691D01*
X80678690Y-54619351D01*
X80700389Y-54602046D01*
X80771450Y-54557396D01*
X80796456Y-54545353D01*
X80875670Y-54517635D01*
X80902733Y-54511459D01*
X80969016Y-54503991D01*
X80993061Y-54501282D01*
X81006940Y-54500502D01*
X81065892Y-54500502D01*
X81065898Y-54500500D01*
X81074543Y-54500500D01*
X89375500Y-54500500D01*
X89442539Y-54520185D01*
G37*
%TD.AperFunction*%
%TA.AperFunction,Conductor*%
G36*
X108005585Y-113590185D02*
G01*
X108051340Y-113642989D01*
X108061284Y-113712147D01*
X108032259Y-113775703D01*
X108014034Y-113792874D01*
X108003341Y-113801079D01*
X108003330Y-113801089D01*
X107841081Y-113963338D01*
X107701392Y-114145382D01*
X107586657Y-114344109D01*
X107586650Y-114344123D01*
X107498842Y-114556112D01*
X107439453Y-114777759D01*
X107439451Y-114777770D01*
X107409500Y-115005258D01*
X107409500Y-115484741D01*
X107434077Y-115671412D01*
X107439452Y-115712238D01*
X107493557Y-115914163D01*
X107498842Y-115933887D01*
X107586650Y-116145876D01*
X107586657Y-116145890D01*
X107701392Y-116344617D01*
X107841081Y-116526661D01*
X107841089Y-116526670D01*
X108003330Y-116688911D01*
X108003338Y-116688918D01*
X108003339Y-116688919D01*
X108045326Y-116721137D01*
X108185382Y-116828607D01*
X108185385Y-116828608D01*
X108185388Y-116828611D01*
X108384112Y-116943344D01*
X108473997Y-116980576D01*
X108528397Y-117024414D01*
X108550463Y-117090708D01*
X108533184Y-117158407D01*
X108527358Y-117166720D01*
X108527407Y-117166753D01*
X108409058Y-117343874D01*
X108329870Y-117535051D01*
X108329868Y-117535059D01*
X108289500Y-117738002D01*
X108289500Y-119776006D01*
X108280855Y-119805446D01*
X108274332Y-119835433D01*
X108270577Y-119840448D01*
X108269815Y-119843045D01*
X108253181Y-119863687D01*
X108200348Y-119916520D01*
X108200346Y-119916522D01*
X108120049Y-119996819D01*
X108054023Y-120062845D01*
X107939063Y-120234894D01*
X107939057Y-120234906D01*
X107912404Y-120299250D01*
X107868562Y-120353652D01*
X107802268Y-120375716D01*
X107734569Y-120358436D01*
X107728342Y-120354486D01*
X107654811Y-120304719D01*
X107461614Y-120221987D01*
X107461603Y-120221984D01*
X107256251Y-120177312D01*
X107241493Y-120176433D01*
X107209039Y-120174500D01*
X106490963Y-120174500D01*
X106460417Y-120176319D01*
X106443750Y-120177312D01*
X106238392Y-120221985D01*
X106238385Y-120221987D01*
X106123813Y-120271051D01*
X106054437Y-120279346D01*
X106026187Y-120271051D01*
X105911613Y-120221987D01*
X105911602Y-120221984D01*
X105706250Y-120177312D01*
X105691492Y-120176433D01*
X105659038Y-120174500D01*
X104940962Y-120174500D01*
X104910416Y-120176319D01*
X104893749Y-120177312D01*
X104688397Y-120221984D01*
X104688386Y-120221987D01*
X104495191Y-120304718D01*
X104321137Y-120422521D01*
X104321132Y-120422525D01*
X104172525Y-120571132D01*
X104172521Y-120571137D01*
X104054718Y-120745191D01*
X103971987Y-120938386D01*
X103971984Y-120938397D01*
X103927312Y-121143749D01*
X103927312Y-121143755D01*
X103924500Y-121190962D01*
X103924500Y-121759038D01*
X103925931Y-121783058D01*
X103927312Y-121806250D01*
X103971984Y-122011602D01*
X103971987Y-122011613D01*
X104008357Y-122096544D01*
X104054721Y-122204813D01*
X104068119Y-122224608D01*
X104072106Y-122230500D01*
X104093378Y-122297053D01*
X104075292Y-122364541D01*
X104072106Y-122369500D01*
X104054721Y-122395187D01*
X104054719Y-122395189D01*
X104054719Y-122395191D01*
X103971987Y-122588386D01*
X103971984Y-122588397D01*
X103927312Y-122793749D01*
X103927312Y-122793755D01*
X103924500Y-122840962D01*
X103924500Y-123409038D01*
X103925764Y-123430250D01*
X103927312Y-123456250D01*
X103971984Y-123661602D01*
X103971987Y-123661613D01*
X104054718Y-123854808D01*
X104054720Y-123854811D01*
X104054721Y-123854813D01*
X104172523Y-124028865D01*
X104321135Y-124177477D01*
X104495187Y-124295279D01*
X104495191Y-124295280D01*
X104495193Y-124295282D01*
X104605546Y-124342538D01*
X104674312Y-124371985D01*
X104728190Y-124416470D01*
X104749465Y-124483022D01*
X104749500Y-124485973D01*
X104749500Y-124551997D01*
X104789868Y-124754940D01*
X104789870Y-124754948D01*
X104861646Y-124928231D01*
X104869059Y-124946126D01*
X104984023Y-125118183D01*
X105130345Y-125264505D01*
X105130346Y-125264505D01*
X105137413Y-125271572D01*
X105137412Y-125271572D01*
X105137416Y-125271575D01*
X106531813Y-126665974D01*
X106531817Y-126665977D01*
X106703867Y-126780938D01*
X106703880Y-126780945D01*
X106846434Y-126839992D01*
X106895052Y-126860130D01*
X106895056Y-126860130D01*
X106895057Y-126860131D01*
X107098004Y-126900501D01*
X107288914Y-126900501D01*
X107355953Y-126920186D01*
X107376595Y-126936820D01*
X108828694Y-128388919D01*
X108862179Y-128450242D01*
X108863486Y-128457201D01*
X108878444Y-128551636D01*
X108878444Y-128551638D01*
X108935618Y-128727602D01*
X108935619Y-128727605D01*
X109016963Y-128887249D01*
X109019621Y-128892466D01*
X109128378Y-129042157D01*
X109259212Y-129172991D01*
X109408903Y-129281748D01*
X109489762Y-129322947D01*
X109573763Y-129365749D01*
X109573766Y-129365750D01*
X109749734Y-129422925D01*
X109810153Y-129432494D01*
X109844164Y-129437881D01*
X109907299Y-129467810D01*
X109912448Y-129472673D01*
X111286304Y-130846529D01*
X111286333Y-130846560D01*
X111435749Y-130995976D01*
X111435752Y-130995978D01*
X111575060Y-131089060D01*
X111607809Y-131110942D01*
X111798987Y-131190131D01*
X112001937Y-131230500D01*
X112001941Y-131230501D01*
X112001942Y-131230501D01*
X112208872Y-131230501D01*
X116944980Y-131230501D01*
X117012019Y-131250186D01*
X117032661Y-131266820D01*
X119083181Y-133317340D01*
X119116666Y-133378663D01*
X119119500Y-133405021D01*
X119119500Y-143009241D01*
X119099815Y-143076280D01*
X119083181Y-143096922D01*
X118576922Y-143603181D01*
X118549994Y-143617884D01*
X118524176Y-143634477D01*
X118517975Y-143635368D01*
X118515599Y-143636666D01*
X118489241Y-143639500D01*
X118272691Y-143639500D01*
X118205652Y-143619815D01*
X118159897Y-143567011D01*
X118149953Y-143497853D01*
X118165304Y-143453500D01*
X118211741Y-143373068D01*
X118223289Y-143353066D01*
X118317574Y-143125443D01*
X118381341Y-142887460D01*
X118413500Y-142643190D01*
X118413500Y-142396812D01*
X118381341Y-142152542D01*
X118317574Y-141914559D01*
X118223289Y-141686936D01*
X118100100Y-141473566D01*
X117950116Y-141278102D01*
X117950110Y-141278095D01*
X117775905Y-141103890D01*
X117775898Y-141103884D01*
X117580434Y-140953900D01*
X117367068Y-140830713D01*
X117367058Y-140830709D01*
X117139440Y-140736426D01*
X116976100Y-140692660D01*
X116901459Y-140672660D01*
X116860636Y-140667285D01*
X116657196Y-140640501D01*
X116657189Y-140640501D01*
X116410811Y-140640501D01*
X116410803Y-140640501D01*
X116189381Y-140669653D01*
X116166541Y-140672660D01*
X116133191Y-140681596D01*
X115928559Y-140736426D01*
X115700941Y-140830709D01*
X115700931Y-140830713D01*
X115487565Y-140953900D01*
X115292101Y-141103884D01*
X115292094Y-141103890D01*
X115117889Y-141278095D01*
X115117883Y-141278102D01*
X114967899Y-141473566D01*
X114844712Y-141686932D01*
X114844708Y-141686942D01*
X114750425Y-141914560D01*
X114686660Y-142152539D01*
X114686658Y-142152550D01*
X114654500Y-142396804D01*
X114654500Y-142643197D01*
X114681284Y-142846637D01*
X114686659Y-142887460D01*
X114718542Y-143006451D01*
X114750425Y-143125441D01*
X114844708Y-143353059D01*
X114844712Y-143353069D01*
X114902696Y-143453500D01*
X114919169Y-143521401D01*
X114896316Y-143587427D01*
X114841395Y-143630618D01*
X114795309Y-143639500D01*
X114227986Y-143639500D01*
X114160947Y-143619815D01*
X114155101Y-143615818D01*
X114046099Y-143536624D01*
X114046098Y-143536623D01*
X114046096Y-143536622D01*
X113970008Y-143497853D01*
X113881235Y-143452620D01*
X113881232Y-143452619D01*
X113705265Y-143395445D01*
X113563919Y-143373058D01*
X113522514Y-143366500D01*
X113337486Y-143366500D01*
X113296081Y-143373058D01*
X113154734Y-143395445D01*
X112978767Y-143452619D01*
X112978764Y-143452620D01*
X112813900Y-143536624D01*
X112704899Y-143615818D01*
X112639093Y-143639298D01*
X112632014Y-143639500D01*
X105572691Y-143639500D01*
X105505652Y-143619815D01*
X105459897Y-143567011D01*
X105449953Y-143497853D01*
X105465304Y-143453500D01*
X105511741Y-143373068D01*
X105523289Y-143353066D01*
X105617574Y-143125443D01*
X105681341Y-142887460D01*
X105713500Y-142643190D01*
X105713500Y-142396812D01*
X105681341Y-142152542D01*
X105617574Y-141914559D01*
X105523289Y-141686936D01*
X105400100Y-141473566D01*
X105250116Y-141278102D01*
X105250110Y-141278095D01*
X105075905Y-141103890D01*
X105075898Y-141103884D01*
X104880434Y-140953900D01*
X104667068Y-140830713D01*
X104667058Y-140830709D01*
X104439440Y-140736426D01*
X104276100Y-140692660D01*
X104201459Y-140672660D01*
X104160636Y-140667285D01*
X103957196Y-140640501D01*
X103957189Y-140640501D01*
X103710811Y-140640501D01*
X103710803Y-140640501D01*
X103489381Y-140669653D01*
X103466541Y-140672660D01*
X103433191Y-140681596D01*
X103228559Y-140736426D01*
X103000941Y-140830709D01*
X103000931Y-140830713D01*
X102787565Y-140953900D01*
X102592101Y-141103884D01*
X102592094Y-141103890D01*
X102417889Y-141278095D01*
X102417883Y-141278102D01*
X102267899Y-141473566D01*
X102144712Y-141686932D01*
X102144708Y-141686942D01*
X102050425Y-141914560D01*
X101986660Y-142152539D01*
X101986658Y-142152550D01*
X101954500Y-142396804D01*
X101954500Y-142643197D01*
X101981284Y-142846637D01*
X101986659Y-142887460D01*
X102018542Y-143006451D01*
X102050425Y-143125441D01*
X102144708Y-143353059D01*
X102144712Y-143353069D01*
X102202696Y-143453500D01*
X102219169Y-143521401D01*
X102196316Y-143587427D01*
X102141395Y-143630618D01*
X102095309Y-143639500D01*
X98636237Y-143639500D01*
X98569198Y-143619815D01*
X98523443Y-143567011D01*
X98513499Y-143497853D01*
X98528850Y-143453500D01*
X98575287Y-143373068D01*
X98575289Y-143373065D01*
X98669574Y-143145442D01*
X98733341Y-142907459D01*
X98765500Y-142663189D01*
X98765500Y-142416811D01*
X98733341Y-142172541D01*
X98669574Y-141934558D01*
X98575289Y-141706935D01*
X98563740Y-141686932D01*
X98452100Y-141493565D01*
X98302116Y-141298101D01*
X98302110Y-141298094D01*
X98127905Y-141123889D01*
X98127898Y-141123883D01*
X97932434Y-140973899D01*
X97719068Y-140850712D01*
X97719058Y-140850708D01*
X97491440Y-140756425D01*
X97372450Y-140724542D01*
X97253459Y-140692659D01*
X97212636Y-140687284D01*
X97009196Y-140660500D01*
X97009189Y-140660500D01*
X96762811Y-140660500D01*
X96762803Y-140660500D01*
X96530299Y-140691110D01*
X96518541Y-140692659D01*
X96468246Y-140706135D01*
X96280559Y-140756425D01*
X96052941Y-140850708D01*
X96052931Y-140850712D01*
X95839565Y-140973899D01*
X95644101Y-141123883D01*
X95644094Y-141123889D01*
X95469889Y-141298094D01*
X95469883Y-141298101D01*
X95319899Y-141493565D01*
X95196712Y-141706931D01*
X95196708Y-141706941D01*
X95102425Y-141934559D01*
X95052135Y-142122246D01*
X95044019Y-142152539D01*
X95038660Y-142172538D01*
X95038658Y-142172549D01*
X95006500Y-142416803D01*
X95006500Y-142663196D01*
X95033284Y-142866636D01*
X95038659Y-142907459D01*
X95038660Y-142907461D01*
X95102373Y-143145245D01*
X95100710Y-143215095D01*
X95061547Y-143272957D01*
X94997319Y-143300461D01*
X94928416Y-143288874D01*
X94894917Y-143265019D01*
X94746819Y-143116921D01*
X94713334Y-143055598D01*
X94710500Y-143029240D01*
X94710500Y-141001500D01*
X94730185Y-140934461D01*
X94782989Y-140888706D01*
X94834500Y-140877500D01*
X94858559Y-140877500D01*
X94865957Y-140876028D01*
X94895748Y-140870102D01*
X94937922Y-140841922D01*
X94966102Y-140799748D01*
X94973500Y-140762558D01*
X94973500Y-140615192D01*
X94993185Y-140548153D01*
X94994398Y-140546301D01*
X94999026Y-140539375D01*
X95026941Y-140497598D01*
X95106130Y-140306420D01*
X95146500Y-140103465D01*
X95146500Y-139896535D01*
X95106130Y-139693580D01*
X95026941Y-139502402D01*
X95026940Y-139502401D01*
X95026937Y-139502395D01*
X94994398Y-139453697D01*
X94973520Y-139387019D01*
X94973500Y-139384806D01*
X94973500Y-139237441D01*
X94970502Y-139222370D01*
X94966102Y-139200252D01*
X94965600Y-139199500D01*
X94937922Y-139158077D01*
X94895749Y-139129898D01*
X94858559Y-139122500D01*
X94858558Y-139122500D01*
X94711193Y-139122500D01*
X94644154Y-139102815D01*
X94642349Y-139101633D01*
X94593598Y-139069059D01*
X94593595Y-139069057D01*
X94402420Y-138989870D01*
X94402412Y-138989868D01*
X94199469Y-138949500D01*
X94199465Y-138949500D01*
X94184500Y-138949500D01*
X94117461Y-138929815D01*
X94071706Y-138877011D01*
X94060500Y-138825500D01*
X94060500Y-138123425D01*
X94060499Y-138123423D01*
X94037359Y-138007090D01*
X94022820Y-137933998D01*
X94005956Y-137893284D01*
X93948911Y-137755564D01*
X93948904Y-137755551D01*
X93841604Y-137594967D01*
X93841601Y-137594963D01*
X93705035Y-137458397D01*
X93705031Y-137458394D01*
X93544447Y-137351094D01*
X93544434Y-137351087D01*
X93366005Y-137277180D01*
X93365993Y-137277177D01*
X93176574Y-137239499D01*
X93176571Y-137239499D01*
X92983429Y-137239499D01*
X92983426Y-137239499D01*
X92794006Y-137277177D01*
X92793994Y-137277180D01*
X92615565Y-137351087D01*
X92615552Y-137351094D01*
X92454968Y-137458394D01*
X92454964Y-137458397D01*
X92318398Y-137594963D01*
X92318395Y-137594967D01*
X92211095Y-137755551D01*
X92211088Y-137755564D01*
X92178561Y-137834094D01*
X92134720Y-137888498D01*
X92068426Y-137910563D01*
X92000727Y-137893284D01*
X91953116Y-137842147D01*
X91949439Y-137834094D01*
X91916911Y-137755564D01*
X91916904Y-137755551D01*
X91809604Y-137594967D01*
X91809601Y-137594963D01*
X91673035Y-137458397D01*
X91673031Y-137458394D01*
X91512447Y-137351094D01*
X91512434Y-137351087D01*
X91334005Y-137277180D01*
X91333993Y-137277177D01*
X91144574Y-137239499D01*
X91144571Y-137239499D01*
X90951429Y-137239499D01*
X90951426Y-137239499D01*
X90762006Y-137277177D01*
X90761994Y-137277180D01*
X90583565Y-137351087D01*
X90583552Y-137351094D01*
X90422968Y-137458394D01*
X90422964Y-137458397D01*
X90286398Y-137594963D01*
X90286395Y-137594967D01*
X90179095Y-137755551D01*
X90179088Y-137755564D01*
X90105181Y-137933993D01*
X90105177Y-137934007D01*
X90100957Y-137955220D01*
X90068570Y-138017130D01*
X90007853Y-138051702D01*
X89938083Y-138047959D01*
X89881413Y-138007090D01*
X89860679Y-137967016D01*
X89859780Y-137964054D01*
X89859778Y-137964042D01*
X89793631Y-137804347D01*
X89793629Y-137804344D01*
X89793629Y-137804343D01*
X89697599Y-137660625D01*
X89697596Y-137660621D01*
X89575377Y-137538402D01*
X89575373Y-137538399D01*
X89431655Y-137442369D01*
X89431652Y-137442368D01*
X89271958Y-137376221D01*
X89271949Y-137376218D01*
X89102429Y-137342499D01*
X89102426Y-137342499D01*
X88929574Y-137342499D01*
X88929571Y-137342499D01*
X88760050Y-137376218D01*
X88760041Y-137376221D01*
X88600347Y-137442368D01*
X88600344Y-137442369D01*
X88456626Y-137538399D01*
X88456622Y-137538402D01*
X88334403Y-137660621D01*
X88334400Y-137660625D01*
X88238370Y-137804343D01*
X88238369Y-137804346D01*
X88172222Y-137964040D01*
X88172219Y-137964049D01*
X88138500Y-138133568D01*
X88138500Y-138306429D01*
X88172219Y-138475948D01*
X88172222Y-138475957D01*
X88238369Y-138635651D01*
X88238370Y-138635654D01*
X88334400Y-138779372D01*
X88334403Y-138779376D01*
X88456622Y-138901595D01*
X88456626Y-138901598D01*
X88600344Y-138997628D01*
X88600346Y-138997628D01*
X88600348Y-138997630D01*
X88760043Y-139063777D01*
X88760045Y-139063777D01*
X88760050Y-139063779D01*
X88929569Y-139097498D01*
X88929572Y-139097499D01*
X88929574Y-139097499D01*
X89102427Y-139097499D01*
X89115681Y-139094862D01*
X89133971Y-139091224D01*
X89203563Y-139097450D01*
X89258741Y-139140313D01*
X89281986Y-139206202D01*
X89265919Y-139274199D01*
X89245847Y-139300521D01*
X89216023Y-139330345D01*
X89101062Y-139502395D01*
X89101057Y-139502405D01*
X89036933Y-139657213D01*
X88993091Y-139711617D01*
X88926797Y-139733681D01*
X88859098Y-139716401D01*
X88811488Y-139665264D01*
X88807825Y-139657245D01*
X88777631Y-139584348D01*
X88764267Y-139564348D01*
X88681599Y-139440626D01*
X88681596Y-139440622D01*
X88559377Y-139318403D01*
X88559373Y-139318400D01*
X88415655Y-139222370D01*
X88415652Y-139222369D01*
X88255958Y-139156222D01*
X88255949Y-139156219D01*
X88086429Y-139122500D01*
X88086426Y-139122500D01*
X87913574Y-139122500D01*
X87913571Y-139122500D01*
X87744045Y-139156220D01*
X87744041Y-139156222D01*
X87648056Y-139195979D01*
X87592839Y-139205174D01*
X87580477Y-139204398D01*
X87562195Y-139199500D01*
X87502416Y-139199500D01*
X87498543Y-139199257D01*
X87469203Y-139188604D01*
X87439270Y-139179815D01*
X87436642Y-139176782D01*
X87432868Y-139175412D01*
X87413944Y-139150588D01*
X87393515Y-139127011D01*
X87392943Y-139123038D01*
X87390510Y-139119846D01*
X87388011Y-139088737D01*
X87383571Y-139057853D01*
X87385238Y-139054202D01*
X87384917Y-139050201D01*
X87399633Y-139022681D01*
X87412596Y-138994297D01*
X87416791Y-138990595D01*
X87417865Y-138988588D01*
X87421129Y-138986768D01*
X87437418Y-138972398D01*
X87501147Y-138929815D01*
X87543375Y-138901599D01*
X87665600Y-138779374D01*
X87761632Y-138635652D01*
X87827779Y-138475957D01*
X87828181Y-138473939D01*
X87861500Y-138306430D01*
X87861501Y-138306428D01*
X87861501Y-138133571D01*
X87861500Y-138133569D01*
X87827781Y-137964050D01*
X87827778Y-137964042D01*
X87761632Y-137804348D01*
X87761630Y-137804346D01*
X87761630Y-137804344D01*
X87665600Y-137660626D01*
X87665597Y-137660622D01*
X87543378Y-137538403D01*
X87543374Y-137538400D01*
X87399656Y-137442370D01*
X87399653Y-137442369D01*
X87239959Y-137376222D01*
X87239950Y-137376219D01*
X87070430Y-137342500D01*
X87070427Y-137342500D01*
X86897575Y-137342500D01*
X86897572Y-137342500D01*
X86728051Y-137376219D01*
X86728042Y-137376222D01*
X86568348Y-137442369D01*
X86568345Y-137442370D01*
X86424627Y-137538400D01*
X86424623Y-137538403D01*
X86302404Y-137660622D01*
X86302401Y-137660626D01*
X86206371Y-137804344D01*
X86206370Y-137804347D01*
X86140223Y-137964041D01*
X86140220Y-137964050D01*
X86106501Y-138133569D01*
X86106501Y-138306430D01*
X86140220Y-138475949D01*
X86140223Y-138475958D01*
X86199078Y-138618048D01*
X86206547Y-138687517D01*
X86175271Y-138749996D01*
X86115182Y-138785648D01*
X86084517Y-138789500D01*
X85573628Y-138789500D01*
X85506589Y-138769815D01*
X85485947Y-138753181D01*
X82303819Y-135571053D01*
X82270334Y-135509730D01*
X82267500Y-135483372D01*
X82267500Y-133551427D01*
X82267500Y-133539692D01*
X82267501Y-133539689D01*
X82267501Y-133455300D01*
X82264461Y-133443954D01*
X82264050Y-133429415D01*
X82264324Y-133428373D01*
X82264000Y-133425910D01*
X82264000Y-131000125D01*
X82283685Y-130933086D01*
X82300319Y-130912444D01*
X83114318Y-130098445D01*
X83175641Y-130064960D01*
X83201999Y-130062126D01*
X86307509Y-130062126D01*
X86336949Y-130070770D01*
X86366936Y-130077294D01*
X86371951Y-130081048D01*
X86374548Y-130081811D01*
X86395190Y-130098445D01*
X86413181Y-130116436D01*
X86446666Y-130177759D01*
X86449500Y-130204117D01*
X86449500Y-130606517D01*
X86460292Y-130674657D01*
X86464354Y-130700304D01*
X86521950Y-130813342D01*
X86521952Y-130813344D01*
X86521954Y-130813347D01*
X86611652Y-130903045D01*
X86611654Y-130903046D01*
X86611658Y-130903050D01*
X86714960Y-130955685D01*
X86724698Y-130960647D01*
X86818475Y-130975499D01*
X86818481Y-130975500D01*
X87281518Y-130975499D01*
X87375304Y-130960646D01*
X87488342Y-130903050D01*
X87578050Y-130813342D01*
X87635646Y-130700304D01*
X87635646Y-130700302D01*
X87635647Y-130700301D01*
X87648080Y-130621797D01*
X87650500Y-130606519D01*
X87650499Y-130154115D01*
X87670183Y-130087077D01*
X87686813Y-130066440D01*
X87893580Y-129859673D01*
X87954901Y-129826190D01*
X88024593Y-129831174D01*
X88080526Y-129873046D01*
X88104943Y-129938510D01*
X88103733Y-129966753D01*
X88099500Y-129993480D01*
X88099500Y-130606517D01*
X88110292Y-130674657D01*
X88114354Y-130700304D01*
X88171950Y-130813342D01*
X88171952Y-130813344D01*
X88171954Y-130813347D01*
X88261652Y-130903045D01*
X88261654Y-130903046D01*
X88261658Y-130903050D01*
X88364960Y-130955685D01*
X88374698Y-130960647D01*
X88468475Y-130975499D01*
X88468481Y-130975500D01*
X88931518Y-130975499D01*
X89025304Y-130960646D01*
X89138342Y-130903050D01*
X89211808Y-130829583D01*
X89273129Y-130796100D01*
X89342821Y-130801084D01*
X89398755Y-130842955D01*
X89423172Y-130908419D01*
X89422428Y-130933446D01*
X89419501Y-130955685D01*
X89419501Y-131404317D01*
X89425932Y-131453172D01*
X89475936Y-131560405D01*
X89553182Y-131637651D01*
X89586667Y-131698974D01*
X89589501Y-131725332D01*
X89589501Y-132234166D01*
X89569816Y-132301205D01*
X89553182Y-132321847D01*
X87833848Y-134041181D01*
X87772525Y-134074666D01*
X87746167Y-134077500D01*
X84829833Y-134077500D01*
X84762794Y-134057815D01*
X84742152Y-134041181D01*
X84530666Y-133829695D01*
X84497181Y-133768372D01*
X84502165Y-133698680D01*
X84503753Y-133694643D01*
X84519778Y-133655957D01*
X84553500Y-133486426D01*
X84553500Y-133313574D01*
X84553500Y-133313571D01*
X84553499Y-133313569D01*
X84519780Y-133144050D01*
X84519777Y-133144041D01*
X84501328Y-133099501D01*
X84453631Y-132984348D01*
X84453629Y-132984346D01*
X84453629Y-132984344D01*
X84357599Y-132840626D01*
X84357596Y-132840622D01*
X84235377Y-132718403D01*
X84235373Y-132718400D01*
X84091655Y-132622370D01*
X84091652Y-132622369D01*
X83931958Y-132556222D01*
X83931949Y-132556219D01*
X83762429Y-132522500D01*
X83762426Y-132522500D01*
X83589574Y-132522500D01*
X83589571Y-132522500D01*
X83420050Y-132556219D01*
X83420041Y-132556222D01*
X83260347Y-132622369D01*
X83260344Y-132622370D01*
X83116626Y-132718400D01*
X83116622Y-132718403D01*
X82994403Y-132840622D01*
X82994400Y-132840626D01*
X82898370Y-132984344D01*
X82898369Y-132984347D01*
X82832222Y-133144041D01*
X82832219Y-133144050D01*
X82798500Y-133313569D01*
X82798500Y-133486430D01*
X82832219Y-133655949D01*
X82832222Y-133655958D01*
X82898369Y-133815652D01*
X82898370Y-133815655D01*
X82994400Y-133959373D01*
X82994403Y-133959377D01*
X83116622Y-134081596D01*
X83116626Y-134081599D01*
X83260344Y-134177629D01*
X83260346Y-134177629D01*
X83260348Y-134177631D01*
X83420043Y-134243778D01*
X83420045Y-134243778D01*
X83420050Y-134243780D01*
X83589569Y-134277499D01*
X83589572Y-134277500D01*
X83589574Y-134277500D01*
X83762428Y-134277500D01*
X83762429Y-134277499D01*
X83931957Y-134243778D01*
X83970563Y-134227786D01*
X84040027Y-134220317D01*
X84102507Y-134251590D01*
X84105695Y-134254666D01*
X84413540Y-134562511D01*
X84469489Y-134618460D01*
X84469491Y-134618461D01*
X84469495Y-134618464D01*
X84514784Y-134644611D01*
X84538011Y-134658021D01*
X84614438Y-134678500D01*
X84614440Y-134678500D01*
X87961560Y-134678500D01*
X87961562Y-134678500D01*
X88037989Y-134658021D01*
X88106511Y-134618460D01*
X88162460Y-134562511D01*
X90130461Y-132594510D01*
X90170023Y-132525987D01*
X90190501Y-132449561D01*
X90190501Y-132370437D01*
X90190501Y-131725332D01*
X90199120Y-131695976D01*
X90205582Y-131666064D01*
X90209406Y-131660947D01*
X90210186Y-131658293D01*
X90226692Y-131637779D01*
X90226820Y-131637651D01*
X90304066Y-131560405D01*
X90304264Y-131559979D01*
X90312191Y-131552030D01*
X90333749Y-131540216D01*
X90352949Y-131524856D01*
X90363851Y-131523722D01*
X90373465Y-131518455D01*
X90397990Y-131520173D01*
X90422444Y-131517631D01*
X90432228Y-131522571D01*
X90443164Y-131523338D01*
X90462868Y-131538043D01*
X90484813Y-131549125D01*
X90488090Y-131552906D01*
X90488263Y-131552734D01*
X90495934Y-131560405D01*
X90579595Y-131644066D01*
X90686826Y-131694069D01*
X90735682Y-131700501D01*
X90735683Y-131700501D01*
X91084316Y-131700501D01*
X91100600Y-131698357D01*
X91133172Y-131694069D01*
X91240403Y-131644066D01*
X91324064Y-131560405D01*
X91327938Y-131552096D01*
X91374109Y-131499658D01*
X91440320Y-131480501D01*
X93437037Y-131480501D01*
X93451593Y-131484775D01*
X93466751Y-131484114D01*
X93484437Y-131494419D01*
X93504076Y-131500186D01*
X93514954Y-131512200D01*
X93527120Y-131519289D01*
X93544423Y-131544746D01*
X93547478Y-131548120D01*
X93548483Y-131550089D01*
X93585935Y-131630404D01*
X93593186Y-131637655D01*
X93602093Y-131655102D01*
X93605084Y-131670962D01*
X93612818Y-131685125D01*
X93611426Y-131704585D01*
X93615043Y-131723761D01*
X93608985Y-131738719D01*
X93607834Y-131754817D01*
X93599039Y-131773483D01*
X93533609Y-131886811D01*
X93533609Y-131886812D01*
X93499500Y-132014109D01*
X93499500Y-132145892D01*
X93533608Y-132273188D01*
X93551071Y-132303434D01*
X93599500Y-132387315D01*
X93692686Y-132480501D01*
X93806814Y-132546393D01*
X93934108Y-132580501D01*
X93934110Y-132580501D01*
X94065890Y-132580501D01*
X94065892Y-132580501D01*
X94193186Y-132546393D01*
X94307314Y-132480501D01*
X94400500Y-132387315D01*
X94414112Y-132363737D01*
X94416323Y-132361629D01*
X94417184Y-132358699D01*
X94441434Y-132337685D01*
X94464678Y-132315523D01*
X94467679Y-132314944D01*
X94469988Y-132312944D01*
X94501756Y-132308376D01*
X94533285Y-132302299D01*
X94536122Y-132303434D01*
X94539146Y-132303000D01*
X94568348Y-132316336D01*
X94598150Y-132328267D01*
X94599922Y-132330755D01*
X94602702Y-132332025D01*
X94620059Y-132359034D01*
X94638679Y-132385181D01*
X94639322Y-132389008D01*
X94640476Y-132390803D01*
X94645499Y-132425738D01*
X94645499Y-132586056D01*
X94625814Y-132653095D01*
X94590390Y-132689158D01*
X94546626Y-132718400D01*
X94546622Y-132718403D01*
X94424403Y-132840622D01*
X94424400Y-132840626D01*
X94328370Y-132984344D01*
X94328369Y-132984347D01*
X94262222Y-133144041D01*
X94262219Y-133144050D01*
X94228500Y-133313569D01*
X94228500Y-133486430D01*
X94262219Y-133655949D01*
X94262222Y-133655958D01*
X94328369Y-133815652D01*
X94328370Y-133815655D01*
X94424400Y-133959373D01*
X94424403Y-133959377D01*
X94546622Y-134081596D01*
X94546626Y-134081599D01*
X94690344Y-134177629D01*
X94690346Y-134177629D01*
X94690348Y-134177631D01*
X94850043Y-134243778D01*
X94850045Y-134243778D01*
X94850050Y-134243780D01*
X95019569Y-134277499D01*
X95019572Y-134277500D01*
X95019574Y-134277500D01*
X95192428Y-134277500D01*
X95192429Y-134277499D01*
X95248936Y-134266259D01*
X95361949Y-134243780D01*
X95361952Y-134243778D01*
X95361957Y-134243778D01*
X95521652Y-134177631D01*
X95665374Y-134081599D01*
X95787599Y-133959374D01*
X95883631Y-133815652D01*
X95949778Y-133655957D01*
X95955808Y-133625646D01*
X95983499Y-133486430D01*
X95983500Y-133486428D01*
X95983500Y-133313571D01*
X95983499Y-133313569D01*
X95949780Y-133144050D01*
X95949777Y-133144041D01*
X95931328Y-133099501D01*
X95883631Y-132984348D01*
X95883629Y-132984346D01*
X95883629Y-132984344D01*
X95787599Y-132840626D01*
X95787596Y-132840622D01*
X95665377Y-132718403D01*
X95665371Y-132718398D01*
X95609607Y-132681137D01*
X95564803Y-132627525D01*
X95554499Y-132578036D01*
X95554499Y-131170166D01*
X95554499Y-131170164D01*
X95523526Y-131054569D01*
X95497070Y-131008746D01*
X95485409Y-130981438D01*
X95484066Y-130976830D01*
X95484066Y-130976827D01*
X95483447Y-130975500D01*
X95454002Y-130912356D01*
X95434063Y-130869596D01*
X95350402Y-130785935D01*
X95243171Y-130735932D01*
X95243169Y-130735931D01*
X95243170Y-130735931D01*
X95194315Y-130729500D01*
X95194314Y-130729500D01*
X94845682Y-130729500D01*
X94845681Y-130729500D01*
X94796826Y-130735931D01*
X94689593Y-130785935D01*
X94598262Y-130877267D01*
X94595436Y-130874441D01*
X94556985Y-130905170D01*
X94487486Y-130912356D01*
X94425135Y-130880827D01*
X94421904Y-130877098D01*
X94421736Y-130877267D01*
X94330404Y-130785935D01*
X94279830Y-130762352D01*
X94223173Y-130735932D01*
X94223171Y-130735931D01*
X94223172Y-130735931D01*
X94174317Y-130729500D01*
X94174316Y-130729500D01*
X93825684Y-130729500D01*
X93825683Y-130729500D01*
X93776828Y-130735931D01*
X93669597Y-130785934D01*
X93612348Y-130843183D01*
X93551024Y-130876667D01*
X93524667Y-130879501D01*
X91440320Y-130879501D01*
X91373281Y-130859816D01*
X91327938Y-130807905D01*
X91324064Y-130799597D01*
X91240403Y-130715936D01*
X91133172Y-130665933D01*
X91133170Y-130665932D01*
X91133171Y-130665932D01*
X91084316Y-130659501D01*
X91084315Y-130659501D01*
X90735683Y-130659501D01*
X90735682Y-130659501D01*
X90686827Y-130665932D01*
X90579594Y-130715936D01*
X90488263Y-130807268D01*
X90485437Y-130804442D01*
X90446986Y-130835171D01*
X90377487Y-130842357D01*
X90315136Y-130810828D01*
X90311905Y-130807099D01*
X90311737Y-130807268D01*
X90220405Y-130715936D01*
X90176992Y-130695692D01*
X90113174Y-130665933D01*
X90113172Y-130665932D01*
X90113173Y-130665932D01*
X90064318Y-130659501D01*
X90064317Y-130659501D01*
X89715685Y-130659501D01*
X89715684Y-130659501D01*
X89666829Y-130665932D01*
X89559598Y-130715935D01*
X89501004Y-130774529D01*
X89439680Y-130808013D01*
X89369989Y-130803028D01*
X89314055Y-130761157D01*
X89289639Y-130695692D01*
X89290850Y-130667448D01*
X89298080Y-130621797D01*
X89300500Y-130606519D01*
X89300499Y-130204117D01*
X89309144Y-130174674D01*
X89315667Y-130144690D01*
X89319420Y-130139676D01*
X89320183Y-130137079D01*
X89336819Y-130116436D01*
X89385437Y-130067819D01*
X89446760Y-130034335D01*
X89473117Y-130031501D01*
X91215513Y-130031501D01*
X91282552Y-130051186D01*
X91328307Y-130103990D01*
X91330945Y-130111330D01*
X91330953Y-130111328D01*
X91334063Y-130118837D01*
X91403242Y-130238660D01*
X91403244Y-130238663D01*
X91403245Y-130238664D01*
X91501085Y-130336504D01*
X91620914Y-130405687D01*
X91754567Y-130441499D01*
X91754569Y-130441499D01*
X91892931Y-130441499D01*
X91892933Y-130441499D01*
X92026586Y-130405687D01*
X92146415Y-130336504D01*
X92244255Y-130238664D01*
X92313438Y-130118835D01*
X92349250Y-129985182D01*
X92349250Y-129846816D01*
X92313438Y-129713163D01*
X92258918Y-129618732D01*
X92242446Y-129550834D01*
X92265298Y-129484807D01*
X92278617Y-129469061D01*
X92284951Y-129462728D01*
X92354134Y-129342899D01*
X92389946Y-129209246D01*
X92389946Y-129070880D01*
X92354134Y-128937227D01*
X92319542Y-128877312D01*
X92284953Y-128817401D01*
X92284949Y-128817396D01*
X92187112Y-128719559D01*
X92187107Y-128719555D01*
X92067284Y-128650376D01*
X92067283Y-128650375D01*
X92067282Y-128650375D01*
X91933629Y-128614563D01*
X91795263Y-128614563D01*
X91661610Y-128650375D01*
X91661607Y-128650376D01*
X91541784Y-128719555D01*
X91541779Y-128719559D01*
X91443942Y-128817396D01*
X91443938Y-128817401D01*
X91374759Y-128937224D01*
X91371650Y-128944732D01*
X91368946Y-128943612D01*
X91339884Y-128991270D01*
X91277031Y-129021786D01*
X91256493Y-129023499D01*
X89455616Y-129023499D01*
X89426175Y-129014854D01*
X89396189Y-129008331D01*
X89391173Y-129004576D01*
X89388577Y-129003814D01*
X89367935Y-128987180D01*
X89336818Y-128956063D01*
X89303333Y-128894740D01*
X89300499Y-128868382D01*
X89300499Y-128465982D01*
X89289970Y-128399501D01*
X89285646Y-128372196D01*
X89228050Y-128259158D01*
X89228046Y-128259154D01*
X89228045Y-128259152D01*
X89201074Y-128232181D01*
X89167589Y-128170858D01*
X89172573Y-128101166D01*
X89214445Y-128045233D01*
X89279909Y-128020816D01*
X89288755Y-128020500D01*
X89546750Y-128020500D01*
X89613789Y-128040185D01*
X89659544Y-128092989D01*
X89670750Y-128144500D01*
X89670750Y-128206816D01*
X89677181Y-128255671D01*
X89721934Y-128351643D01*
X89727185Y-128362904D01*
X89810846Y-128446565D01*
X89918077Y-128496568D01*
X89966933Y-128503000D01*
X89966934Y-128503000D01*
X90315567Y-128503000D01*
X90331851Y-128500856D01*
X90364423Y-128496568D01*
X90471654Y-128446565D01*
X90555315Y-128362904D01*
X90555315Y-128362903D01*
X90562986Y-128355233D01*
X90565814Y-128358061D01*
X90604227Y-128327343D01*
X90673724Y-128320135D01*
X90736085Y-128351643D01*
X90739343Y-128355403D01*
X90739514Y-128355233D01*
X90747185Y-128362904D01*
X90830846Y-128446565D01*
X90938077Y-128496568D01*
X90986933Y-128503000D01*
X90986934Y-128503000D01*
X91335567Y-128503000D01*
X91351851Y-128500856D01*
X91384423Y-128496568D01*
X91491654Y-128446565D01*
X91575315Y-128362904D01*
X91625318Y-128255673D01*
X91631750Y-128206816D01*
X91631750Y-127988333D01*
X91651435Y-127921294D01*
X91668069Y-127900652D01*
X91926902Y-127641819D01*
X91953829Y-127627115D01*
X91979648Y-127610523D01*
X91985848Y-127609631D01*
X91988225Y-127608334D01*
X92014583Y-127605500D01*
X92015417Y-127605500D01*
X92082456Y-127625185D01*
X92103098Y-127641819D01*
X92118485Y-127657206D01*
X92221259Y-127702585D01*
X92246385Y-127705500D01*
X93478132Y-127705499D01*
X93545171Y-127725184D01*
X93590926Y-127777987D01*
X93600870Y-127847146D01*
X93571845Y-127910702D01*
X93565813Y-127917180D01*
X92986960Y-128496034D01*
X92927288Y-128555705D01*
X92927286Y-128555708D01*
X92885091Y-128628790D01*
X92863250Y-128710303D01*
X92863250Y-129588133D01*
X92879118Y-129647355D01*
X92877454Y-129717205D01*
X92866733Y-129741441D01*
X92853404Y-129764529D01*
X92853401Y-129764536D01*
X92844249Y-129798692D01*
X92817590Y-129898186D01*
X92817590Y-130036552D01*
X92848727Y-130152755D01*
X92853402Y-130170204D01*
X92853403Y-130170207D01*
X92922582Y-130290030D01*
X92922584Y-130290033D01*
X92922585Y-130290034D01*
X93020425Y-130387874D01*
X93020426Y-130387875D01*
X93020428Y-130387876D01*
X93051276Y-130405686D01*
X93140254Y-130457057D01*
X93273907Y-130492869D01*
X93273909Y-130492869D01*
X93412271Y-130492869D01*
X93412273Y-130492869D01*
X93545926Y-130457057D01*
X93665755Y-130387874D01*
X93763595Y-130290034D01*
X93832778Y-130170205D01*
X93868590Y-130036552D01*
X93868590Y-129917955D01*
X93888275Y-129850916D01*
X93941079Y-129805161D01*
X93955390Y-129800016D01*
X93958580Y-129798693D01*
X93958586Y-129798692D01*
X94078415Y-129729509D01*
X94176255Y-129631669D01*
X94245438Y-129511840D01*
X94281250Y-129378187D01*
X94281250Y-129239821D01*
X94245438Y-129106168D01*
X94176255Y-128986339D01*
X94142391Y-128952475D01*
X94108906Y-128891152D01*
X94113890Y-128821460D01*
X94142389Y-128777115D01*
X96026687Y-126892819D01*
X96088010Y-126859334D01*
X96114368Y-126856500D01*
X96741880Y-126856500D01*
X96764819Y-126863235D01*
X96788607Y-126865641D01*
X96800985Y-126873855D01*
X96808919Y-126876185D01*
X96819073Y-126883458D01*
X96824587Y-126887844D01*
X96863207Y-126926464D01*
X96891441Y-126942765D01*
X96936291Y-126968660D01*
X97017805Y-126990501D01*
X97017808Y-126990501D01*
X97109790Y-126990501D01*
X97109806Y-126990500D01*
X97146213Y-126990500D01*
X97213252Y-127010185D01*
X97259007Y-127062989D01*
X97269387Y-127128793D01*
X97268665Y-127135006D01*
X97268665Y-127135009D01*
X97268665Y-127135011D01*
X97265750Y-127160136D01*
X97265750Y-127449856D01*
X97265752Y-127449882D01*
X97268663Y-127474987D01*
X97268665Y-127474991D01*
X97314043Y-127577764D01*
X97314044Y-127577765D01*
X97393485Y-127657206D01*
X97496259Y-127702585D01*
X97521385Y-127705500D01*
X99036114Y-127705499D01*
X99036129Y-127705497D01*
X99036132Y-127705497D01*
X99061237Y-127702586D01*
X99061238Y-127702585D01*
X99061241Y-127702585D01*
X99164015Y-127657206D01*
X99243456Y-127577765D01*
X99268829Y-127520298D01*
X99313912Y-127466925D01*
X99380698Y-127446397D01*
X99447981Y-127465234D01*
X99469943Y-127482706D01*
X100043181Y-128055944D01*
X100076666Y-128117267D01*
X100079500Y-128143625D01*
X100079500Y-136842196D01*
X100082066Y-136851771D01*
X100101341Y-136923709D01*
X100143536Y-136996792D01*
X100143538Y-136996794D01*
X100210273Y-137063529D01*
X100210279Y-137063534D01*
X100841695Y-137694950D01*
X100841705Y-137694961D01*
X100846036Y-137699292D01*
X100905708Y-137758964D01*
X100978791Y-137801159D01*
X101060305Y-137823000D01*
X101060306Y-137823000D01*
X101144694Y-137823000D01*
X102996867Y-137823000D01*
X103063906Y-137842685D01*
X103084548Y-137859319D01*
X104937179Y-139711950D01*
X104937189Y-139711961D01*
X104941519Y-139716291D01*
X104941520Y-139716292D01*
X105001192Y-139775964D01*
X105074275Y-139818159D01*
X105081847Y-139820187D01*
X105086975Y-139821562D01*
X105086977Y-139821562D01*
X105096117Y-139824011D01*
X105155790Y-139840001D01*
X105240179Y-139840001D01*
X105240183Y-139840000D01*
X106646500Y-139840000D01*
X106713539Y-139859685D01*
X106759294Y-139912489D01*
X106770500Y-139964000D01*
X106770500Y-140066431D01*
X106804219Y-140235950D01*
X106804222Y-140235959D01*
X106870369Y-140395653D01*
X106870370Y-140395656D01*
X106966400Y-140539374D01*
X106966403Y-140539378D01*
X107088622Y-140661597D01*
X107088626Y-140661600D01*
X107232344Y-140757630D01*
X107232346Y-140757630D01*
X107232348Y-140757632D01*
X107392043Y-140823779D01*
X107392045Y-140823779D01*
X107392050Y-140823781D01*
X107561569Y-140857500D01*
X107561572Y-140857501D01*
X107561574Y-140857501D01*
X107734428Y-140857501D01*
X107734429Y-140857500D01*
X107803421Y-140843777D01*
X107903949Y-140823781D01*
X107903952Y-140823779D01*
X107903957Y-140823779D01*
X108063652Y-140757632D01*
X108207374Y-140661600D01*
X108329599Y-140539375D01*
X108425631Y-140395653D01*
X108491778Y-140235958D01*
X108525500Y-140066427D01*
X108525500Y-139893575D01*
X108525500Y-139893572D01*
X108525499Y-139893570D01*
X108802500Y-139893570D01*
X108802500Y-140066431D01*
X108836219Y-140235950D01*
X108836222Y-140235959D01*
X108902369Y-140395653D01*
X108902370Y-140395656D01*
X108998400Y-140539374D01*
X108998403Y-140539378D01*
X109120622Y-140661597D01*
X109120626Y-140661600D01*
X109264344Y-140757630D01*
X109264346Y-140757630D01*
X109264348Y-140757632D01*
X109424043Y-140823779D01*
X109424045Y-140823779D01*
X109424050Y-140823781D01*
X109593569Y-140857500D01*
X109593572Y-140857501D01*
X109593574Y-140857501D01*
X109766428Y-140857501D01*
X109766429Y-140857500D01*
X109835421Y-140843777D01*
X109935949Y-140823781D01*
X109935952Y-140823779D01*
X109935957Y-140823779D01*
X110095652Y-140757632D01*
X110239374Y-140661600D01*
X110361599Y-140539375D01*
X110457631Y-140395653D01*
X110523778Y-140235958D01*
X110557500Y-140066427D01*
X110557500Y-139893575D01*
X110557500Y-139893572D01*
X110557499Y-139893570D01*
X110523780Y-139724051D01*
X110523777Y-139724042D01*
X110518980Y-139712461D01*
X110457631Y-139564349D01*
X110457629Y-139564347D01*
X110457629Y-139564345D01*
X110361599Y-139420627D01*
X110361596Y-139420623D01*
X110239377Y-139298404D01*
X110239373Y-139298401D01*
X110095655Y-139202371D01*
X110095652Y-139202370D01*
X109935958Y-139136223D01*
X109935949Y-139136220D01*
X109766429Y-139102501D01*
X109766426Y-139102501D01*
X109593574Y-139102501D01*
X109593571Y-139102501D01*
X109424050Y-139136220D01*
X109424041Y-139136223D01*
X109264347Y-139202370D01*
X109264344Y-139202371D01*
X109120626Y-139298401D01*
X109120622Y-139298404D01*
X108998403Y-139420623D01*
X108998400Y-139420627D01*
X108902370Y-139564345D01*
X108902369Y-139564348D01*
X108836222Y-139724042D01*
X108836219Y-139724051D01*
X108802500Y-139893570D01*
X108525499Y-139893570D01*
X108491780Y-139724051D01*
X108491777Y-139724042D01*
X108486980Y-139712461D01*
X108425631Y-139564349D01*
X108425629Y-139564347D01*
X108425629Y-139564345D01*
X108329599Y-139420627D01*
X108329596Y-139420623D01*
X108207377Y-139298404D01*
X108207373Y-139298401D01*
X108063655Y-139202371D01*
X108063652Y-139202370D01*
X107903958Y-139136223D01*
X107903949Y-139136220D01*
X107734429Y-139102501D01*
X107734426Y-139102501D01*
X107561574Y-139102501D01*
X107561571Y-139102501D01*
X107392050Y-139136220D01*
X107392041Y-139136223D01*
X107263271Y-139189561D01*
X107255094Y-139191187D01*
X107250754Y-139193977D01*
X107215819Y-139199000D01*
X107125126Y-139199000D01*
X107058087Y-139179315D01*
X107012332Y-139126511D01*
X107002388Y-139057353D01*
X107031413Y-138993797D01*
X107056235Y-138971898D01*
X107161444Y-138901599D01*
X107191375Y-138881600D01*
X107313600Y-138759375D01*
X107409632Y-138615653D01*
X107475779Y-138455958D01*
X107509501Y-138286427D01*
X107509501Y-138113575D01*
X107509500Y-138113569D01*
X107786500Y-138113569D01*
X107786500Y-138286430D01*
X107820219Y-138455949D01*
X107820222Y-138455958D01*
X107886369Y-138615652D01*
X107886370Y-138615655D01*
X107982400Y-138759373D01*
X107982403Y-138759377D01*
X108104622Y-138881596D01*
X108104626Y-138881599D01*
X108248344Y-138977629D01*
X108248346Y-138977629D01*
X108248348Y-138977631D01*
X108408043Y-139043778D01*
X108408045Y-139043778D01*
X108408050Y-139043780D01*
X108577569Y-139077499D01*
X108577572Y-139077500D01*
X108577574Y-139077500D01*
X108750428Y-139077500D01*
X108750429Y-139077499D01*
X108849198Y-139057853D01*
X108919949Y-139043780D01*
X108919952Y-139043778D01*
X108919957Y-139043778D01*
X109079652Y-138977631D01*
X109223374Y-138881599D01*
X109345599Y-138759374D01*
X109441631Y-138615652D01*
X109507778Y-138455957D01*
X109507778Y-138455952D01*
X109507780Y-138455949D01*
X109541499Y-138286430D01*
X109541500Y-138286428D01*
X109541500Y-138113571D01*
X109541499Y-138113569D01*
X109818500Y-138113569D01*
X109818500Y-138286430D01*
X109852219Y-138455949D01*
X109852222Y-138455958D01*
X109918369Y-138615652D01*
X109918370Y-138615655D01*
X110014400Y-138759373D01*
X110014403Y-138759377D01*
X110136622Y-138881596D01*
X110136626Y-138881599D01*
X110280344Y-138977629D01*
X110280346Y-138977629D01*
X110280348Y-138977631D01*
X110440043Y-139043778D01*
X110440045Y-139043778D01*
X110440050Y-139043780D01*
X110609569Y-139077499D01*
X110609572Y-139077500D01*
X110609574Y-139077500D01*
X110782428Y-139077500D01*
X110782429Y-139077499D01*
X110881198Y-139057853D01*
X110951949Y-139043780D01*
X110951952Y-139043778D01*
X110951957Y-139043778D01*
X111111652Y-138977631D01*
X111255374Y-138881599D01*
X111377599Y-138759374D01*
X111473631Y-138615652D01*
X111539778Y-138455957D01*
X111539778Y-138455952D01*
X111539780Y-138455949D01*
X111573499Y-138286430D01*
X111573500Y-138286428D01*
X111573500Y-138113571D01*
X111573499Y-138113569D01*
X111850500Y-138113569D01*
X111850500Y-138286430D01*
X111884219Y-138455949D01*
X111884222Y-138455958D01*
X111950369Y-138615652D01*
X111950370Y-138615655D01*
X112046400Y-138759373D01*
X112046403Y-138759377D01*
X112168622Y-138881596D01*
X112168626Y-138881599D01*
X112312344Y-138977629D01*
X112312346Y-138977629D01*
X112312348Y-138977631D01*
X112472043Y-139043778D01*
X112472045Y-139043778D01*
X112472050Y-139043780D01*
X112641569Y-139077499D01*
X112641572Y-139077500D01*
X112743470Y-139077500D01*
X112810509Y-139097185D01*
X112856264Y-139149989D01*
X112866490Y-139211351D01*
X112866500Y-139211351D01*
X112866500Y-139211412D01*
X112866873Y-139213651D01*
X112866500Y-139217439D01*
X112866500Y-140742559D01*
X112873898Y-140779750D01*
X112902077Y-140821923D01*
X112944250Y-140850102D01*
X112944252Y-140850103D01*
X112972205Y-140855663D01*
X112981441Y-140857501D01*
X112981442Y-140857501D01*
X114506559Y-140857501D01*
X114513957Y-140856029D01*
X114543748Y-140850103D01*
X114585922Y-140821923D01*
X114614102Y-140779749D01*
X114621500Y-140742559D01*
X114621500Y-139217443D01*
X114614102Y-139180253D01*
X114614101Y-139180251D01*
X114585922Y-139138078D01*
X114543749Y-139109899D01*
X114506559Y-139102501D01*
X114506558Y-139102501D01*
X113364761Y-139102501D01*
X113297722Y-139082816D01*
X113251967Y-139030012D01*
X113242023Y-138960854D01*
X113271048Y-138897298D01*
X113286100Y-138882645D01*
X113287371Y-138881600D01*
X113287374Y-138881599D01*
X113409599Y-138759374D01*
X113505631Y-138615652D01*
X113571778Y-138455957D01*
X113571778Y-138455952D01*
X113571780Y-138455949D01*
X113605499Y-138286430D01*
X113605500Y-138286428D01*
X113605500Y-138113571D01*
X113605499Y-138113569D01*
X113571780Y-137944050D01*
X113571777Y-137944042D01*
X113505631Y-137784348D01*
X113505629Y-137784345D01*
X113505629Y-137784344D01*
X113409599Y-137640626D01*
X113409596Y-137640622D01*
X113287377Y-137518403D01*
X113287373Y-137518400D01*
X113143655Y-137422370D01*
X113143652Y-137422369D01*
X112983958Y-137356222D01*
X112983949Y-137356219D01*
X112814429Y-137322500D01*
X112814426Y-137322500D01*
X112641574Y-137322500D01*
X112641571Y-137322500D01*
X112472050Y-137356219D01*
X112472041Y-137356222D01*
X112312347Y-137422369D01*
X112312344Y-137422370D01*
X112168626Y-137518400D01*
X112168622Y-137518403D01*
X112046403Y-137640622D01*
X112046400Y-137640626D01*
X111950370Y-137784344D01*
X111950369Y-137784347D01*
X111884222Y-137944041D01*
X111884219Y-137944050D01*
X111850500Y-138113569D01*
X111573499Y-138113569D01*
X111539780Y-137944050D01*
X111539777Y-137944042D01*
X111473631Y-137784348D01*
X111473629Y-137784345D01*
X111473629Y-137784344D01*
X111377599Y-137640626D01*
X111377596Y-137640622D01*
X111255377Y-137518403D01*
X111255373Y-137518400D01*
X111111655Y-137422370D01*
X111111652Y-137422369D01*
X110951958Y-137356222D01*
X110951949Y-137356219D01*
X110782429Y-137322500D01*
X110782426Y-137322500D01*
X110609574Y-137322500D01*
X110609571Y-137322500D01*
X110440050Y-137356219D01*
X110440041Y-137356222D01*
X110280347Y-137422369D01*
X110280344Y-137422370D01*
X110136626Y-137518400D01*
X110136622Y-137518403D01*
X110014403Y-137640622D01*
X110014400Y-137640626D01*
X109918370Y-137784344D01*
X109918369Y-137784347D01*
X109852222Y-137944041D01*
X109852219Y-137944050D01*
X109818500Y-138113569D01*
X109541499Y-138113569D01*
X109507780Y-137944050D01*
X109507777Y-137944042D01*
X109441631Y-137784348D01*
X109441629Y-137784345D01*
X109441629Y-137784344D01*
X109345599Y-137640626D01*
X109345596Y-137640622D01*
X109223377Y-137518403D01*
X109223373Y-137518400D01*
X109079655Y-137422370D01*
X109079652Y-137422369D01*
X108919958Y-137356222D01*
X108919949Y-137356219D01*
X108750429Y-137322500D01*
X108750426Y-137322500D01*
X108577574Y-137322500D01*
X108577571Y-137322500D01*
X108408050Y-137356219D01*
X108408041Y-137356222D01*
X108248347Y-137422369D01*
X108248344Y-137422370D01*
X108104626Y-137518400D01*
X108104622Y-137518403D01*
X107982403Y-137640622D01*
X107982400Y-137640626D01*
X107886370Y-137784344D01*
X107886369Y-137784347D01*
X107820222Y-137944041D01*
X107820219Y-137944050D01*
X107786500Y-138113569D01*
X107509500Y-138113569D01*
X107488320Y-138007090D01*
X107475781Y-137944051D01*
X107475778Y-137944043D01*
X107409632Y-137784349D01*
X107409630Y-137784347D01*
X107409630Y-137784345D01*
X107313600Y-137640627D01*
X107313597Y-137640623D01*
X107191378Y-137518404D01*
X107191374Y-137518401D01*
X107047656Y-137422371D01*
X107047653Y-137422370D01*
X106887959Y-137356223D01*
X106887950Y-137356220D01*
X106718430Y-137322501D01*
X106718427Y-137322501D01*
X106545575Y-137322501D01*
X106545572Y-137322501D01*
X106376051Y-137356220D01*
X106376042Y-137356223D01*
X106216348Y-137422370D01*
X106216345Y-137422371D01*
X106072627Y-137518401D01*
X106072623Y-137518404D01*
X105950404Y-137640623D01*
X105950401Y-137640627D01*
X105854371Y-137784345D01*
X105854370Y-137784348D01*
X105788223Y-137944042D01*
X105788220Y-137944051D01*
X105754501Y-138113570D01*
X105754501Y-138286431D01*
X105788220Y-138455950D01*
X105788223Y-138455959D01*
X105854370Y-138615653D01*
X105854371Y-138615656D01*
X105869374Y-138638109D01*
X105872411Y-138647809D01*
X105879066Y-138655489D01*
X105882674Y-138680588D01*
X105890252Y-138704787D01*
X105887563Y-138714586D01*
X105889010Y-138724647D01*
X105878475Y-138747715D01*
X105871767Y-138772167D01*
X105864207Y-138778957D01*
X105859985Y-138788203D01*
X105838653Y-138801912D01*
X105819789Y-138818857D01*
X105808191Y-138821488D01*
X105801207Y-138825977D01*
X105766272Y-138831000D01*
X105534531Y-138831000D01*
X105467492Y-138811315D01*
X105446850Y-138794681D01*
X103596948Y-136944779D01*
X103596946Y-136944776D01*
X103530208Y-136878038D01*
X103530206Y-136878036D01*
X103457123Y-136835841D01*
X103375610Y-136814000D01*
X103375609Y-136814000D01*
X101518617Y-136814000D01*
X101451578Y-136794315D01*
X101430936Y-136777681D01*
X101156819Y-136503564D01*
X101123334Y-136442241D01*
X101120500Y-136415883D01*
X101120500Y-133293570D01*
X102446500Y-133293570D01*
X102446500Y-133466431D01*
X102480219Y-133635950D01*
X102480222Y-133635959D01*
X102546369Y-133795653D01*
X102546370Y-133795656D01*
X102642400Y-133939374D01*
X102642403Y-133939378D01*
X102764622Y-134061597D01*
X102764626Y-134061600D01*
X102908344Y-134157630D01*
X102908346Y-134157630D01*
X102908348Y-134157632D01*
X103068043Y-134223779D01*
X103068045Y-134223779D01*
X103068050Y-134223781D01*
X103237569Y-134257500D01*
X103237572Y-134257501D01*
X103237574Y-134257501D01*
X103410428Y-134257501D01*
X103410429Y-134257500D01*
X103479421Y-134243777D01*
X103579949Y-134223781D01*
X103579952Y-134223779D01*
X103579957Y-134223779D01*
X103739652Y-134157632D01*
X103883374Y-134061600D01*
X104005599Y-133939375D01*
X104101631Y-133795653D01*
X104167778Y-133635958D01*
X104169830Y-133625646D01*
X104197521Y-133486430D01*
X104201500Y-133466427D01*
X104201500Y-133293575D01*
X104201500Y-133293572D01*
X104201499Y-133293570D01*
X104167780Y-133124051D01*
X104167777Y-133124042D01*
X104143502Y-133065436D01*
X104136033Y-132995967D01*
X104167309Y-132933488D01*
X104170352Y-132930333D01*
X105414457Y-131686231D01*
X105451385Y-131622269D01*
X105451385Y-131622267D01*
X105452392Y-131620524D01*
X105478032Y-131589285D01*
X105491337Y-131577619D01*
X105520405Y-131564065D01*
X105604066Y-131480404D01*
X105605345Y-131477660D01*
X105618252Y-131466344D01*
X105636898Y-131457696D01*
X105652949Y-131444855D01*
X105667952Y-131443295D01*
X105681637Y-131436949D01*
X105701999Y-131439755D01*
X105722444Y-131437630D01*
X105735909Y-131444429D01*
X105750852Y-131446489D01*
X105766465Y-131459859D01*
X105784813Y-131469124D01*
X105788090Y-131472905D01*
X105788263Y-131472733D01*
X105795934Y-131480404D01*
X105879595Y-131564065D01*
X105986826Y-131614068D01*
X106035682Y-131620500D01*
X106035683Y-131620500D01*
X106384316Y-131620500D01*
X106400600Y-131618356D01*
X106433172Y-131614068D01*
X106540403Y-131564065D01*
X106562320Y-131542147D01*
X106568858Y-131538577D01*
X106573171Y-131532498D01*
X106599103Y-131522061D01*
X106623639Y-131508664D01*
X106631074Y-131509195D01*
X106637989Y-131506413D01*
X106665448Y-131511654D01*
X106693331Y-131513648D01*
X106701001Y-131518439D01*
X106706620Y-131519512D01*
X106730037Y-131536578D01*
X106735407Y-131539933D01*
X106736548Y-131541017D01*
X106759596Y-131564065D01*
X106761975Y-131565174D01*
X106770908Y-131573661D01*
X106783975Y-131596200D01*
X106800243Y-131616547D01*
X106802542Y-131628225D01*
X106805952Y-131634106D01*
X106805526Y-131643380D01*
X106809500Y-131663558D01*
X106809500Y-133895157D01*
X106789815Y-133962196D01*
X106773181Y-133982838D01*
X106181835Y-134574184D01*
X106120512Y-134607669D01*
X106094154Y-134610503D01*
X105975812Y-134610503D01*
X105848516Y-134644611D01*
X105734390Y-134710503D01*
X105734387Y-134710505D01*
X105641206Y-134803686D01*
X105641204Y-134803689D01*
X105575312Y-134917815D01*
X105541204Y-135045111D01*
X105541204Y-135176894D01*
X105575312Y-135304190D01*
X105608258Y-135361253D01*
X105641204Y-135418317D01*
X105734390Y-135511503D01*
X105848518Y-135577395D01*
X105975812Y-135611503D01*
X105975814Y-135611503D01*
X106107594Y-135611503D01*
X106107596Y-135611503D01*
X106234890Y-135577395D01*
X106349018Y-135511503D01*
X106442204Y-135418317D01*
X106508096Y-135304189D01*
X106542204Y-135176895D01*
X106542204Y-135058551D01*
X106561889Y-134991512D01*
X106578523Y-134970870D01*
X106904782Y-134644611D01*
X107314455Y-134234939D01*
X107320899Y-134223779D01*
X107351384Y-134170976D01*
X107370500Y-134099635D01*
X107370500Y-131663558D01*
X107390185Y-131596519D01*
X107407459Y-131575242D01*
X107417359Y-131565484D01*
X107420404Y-131564065D01*
X107504065Y-131480404D01*
X107504387Y-131479713D01*
X107512959Y-131471265D01*
X107534173Y-131459880D01*
X107552977Y-131444843D01*
X107564401Y-131443658D01*
X107574524Y-131438226D01*
X107598529Y-131440118D01*
X107622474Y-131437635D01*
X107632724Y-131442814D01*
X107644177Y-131443717D01*
X107663347Y-131458286D01*
X107684835Y-131469143D01*
X107688093Y-131472903D01*
X107688264Y-131472733D01*
X107695935Y-131480404D01*
X107779596Y-131564065D01*
X107886827Y-131614068D01*
X107935683Y-131620500D01*
X107935684Y-131620500D01*
X108284317Y-131620500D01*
X108300601Y-131618356D01*
X108333173Y-131614068D01*
X108440404Y-131564065D01*
X108524065Y-131480404D01*
X108537266Y-131452093D01*
X108548729Y-131439074D01*
X108555935Y-131423297D01*
X108571338Y-131413398D01*
X108583439Y-131399655D01*
X108600324Y-131394769D01*
X108614713Y-131385523D01*
X108649648Y-131380500D01*
X108732452Y-131380500D01*
X108799491Y-131400185D01*
X108820132Y-131416818D01*
X110955544Y-133552231D01*
X110955545Y-133552232D01*
X111007770Y-133604457D01*
X111044473Y-133625647D01*
X111071732Y-133641385D01*
X111143072Y-133660501D01*
X111143073Y-133660501D01*
X113837534Y-133660501D01*
X113904573Y-133680186D01*
X113950328Y-133732990D01*
X113952070Y-133736991D01*
X113976369Y-133795653D01*
X113976370Y-133795655D01*
X113976372Y-133795659D01*
X114072400Y-133939374D01*
X114072403Y-133939378D01*
X114194622Y-134061597D01*
X114194626Y-134061600D01*
X114338344Y-134157630D01*
X114338346Y-134157630D01*
X114338348Y-134157632D01*
X114498043Y-134223779D01*
X114498045Y-134223779D01*
X114498050Y-134223781D01*
X114667569Y-134257500D01*
X114667572Y-134257501D01*
X114667574Y-134257501D01*
X114840428Y-134257501D01*
X114840429Y-134257500D01*
X114909421Y-134243777D01*
X115009949Y-134223781D01*
X115009952Y-134223779D01*
X115009957Y-134223779D01*
X115169652Y-134157632D01*
X115313374Y-134061600D01*
X115435599Y-133939375D01*
X115531631Y-133795653D01*
X115597778Y-133635958D01*
X115599830Y-133625646D01*
X115627521Y-133486430D01*
X115631500Y-133466427D01*
X115631500Y-133293575D01*
X115631500Y-133293572D01*
X115631499Y-133293570D01*
X115597780Y-133124051D01*
X115597777Y-133124042D01*
X115541796Y-132988890D01*
X115531631Y-132964349D01*
X115531629Y-132964347D01*
X115531629Y-132964345D01*
X115435599Y-132820627D01*
X115435596Y-132820623D01*
X115313377Y-132698404D01*
X115313373Y-132698401D01*
X115169655Y-132602371D01*
X115169652Y-132602370D01*
X115009958Y-132536223D01*
X115009949Y-132536220D01*
X114840429Y-132502501D01*
X114840426Y-132502501D01*
X114667574Y-132502501D01*
X114667571Y-132502501D01*
X114498050Y-132536220D01*
X114498041Y-132536223D01*
X114338347Y-132602370D01*
X114338344Y-132602371D01*
X114194626Y-132698401D01*
X114194622Y-132698404D01*
X114072403Y-132820623D01*
X114072400Y-132820627D01*
X113976372Y-132964342D01*
X113976369Y-132964348D01*
X113976369Y-132964349D01*
X113952093Y-133022956D01*
X113908255Y-133077356D01*
X113841961Y-133099422D01*
X113837534Y-133099501D01*
X111347550Y-133099501D01*
X111280511Y-133079816D01*
X111259869Y-133063182D01*
X109131526Y-130934840D01*
X109131524Y-130934837D01*
X109072232Y-130875545D01*
X109072231Y-130875544D01*
X109008269Y-130838616D01*
X109008270Y-130838616D01*
X108984489Y-130832244D01*
X108936929Y-130819500D01*
X108936928Y-130819500D01*
X108936927Y-130819500D01*
X108649648Y-130819500D01*
X108582609Y-130799815D01*
X108537266Y-130747906D01*
X108524065Y-130719596D01*
X108440404Y-130635935D01*
X108333173Y-130585932D01*
X108333171Y-130585931D01*
X108333172Y-130585931D01*
X108284317Y-130579500D01*
X108284316Y-130579500D01*
X107935684Y-130579500D01*
X107935683Y-130579500D01*
X107886828Y-130585931D01*
X107779595Y-130635935D01*
X107688264Y-130727267D01*
X107685440Y-130724443D01*
X107646958Y-130755183D01*
X107577458Y-130762352D01*
X107515114Y-130730808D01*
X107511901Y-130727101D01*
X107511736Y-130727267D01*
X107420404Y-130635935D01*
X107357330Y-130606523D01*
X107313173Y-130585932D01*
X107313171Y-130585931D01*
X107313172Y-130585931D01*
X107264317Y-130579500D01*
X107264316Y-130579500D01*
X106915684Y-130579500D01*
X106915683Y-130579500D01*
X106866828Y-130585931D01*
X106759596Y-130635934D01*
X106737679Y-130657852D01*
X106676355Y-130691336D01*
X106606663Y-130686350D01*
X106562318Y-130657850D01*
X106540403Y-130635935D01*
X106477329Y-130606523D01*
X106433172Y-130585932D01*
X106433170Y-130585931D01*
X106433171Y-130585931D01*
X106384316Y-130579500D01*
X106384315Y-130579500D01*
X106035683Y-130579500D01*
X106035682Y-130579500D01*
X105986827Y-130585931D01*
X105879594Y-130635935D01*
X105788263Y-130727267D01*
X105785437Y-130724441D01*
X105746986Y-130755170D01*
X105677487Y-130762356D01*
X105615136Y-130730827D01*
X105611905Y-130727098D01*
X105611737Y-130727267D01*
X105520405Y-130635935D01*
X105457331Y-130606523D01*
X105413174Y-130585932D01*
X105413172Y-130585931D01*
X105413173Y-130585931D01*
X105364318Y-130579500D01*
X105364317Y-130579500D01*
X105015685Y-130579500D01*
X105015684Y-130579500D01*
X104966829Y-130585931D01*
X104859596Y-130635935D01*
X104775936Y-130719595D01*
X104725932Y-130826828D01*
X104719501Y-130875683D01*
X104719501Y-131324316D01*
X104725932Y-131373171D01*
X104755452Y-131436476D01*
X104765944Y-131505554D01*
X104737424Y-131569338D01*
X104730751Y-131576562D01*
X103773696Y-132533617D01*
X103712373Y-132567102D01*
X103642681Y-132562118D01*
X103638565Y-132560498D01*
X103579957Y-132536223D01*
X103579949Y-132536220D01*
X103410429Y-132502501D01*
X103410426Y-132502501D01*
X103237574Y-132502501D01*
X103237571Y-132502501D01*
X103068050Y-132536220D01*
X103068041Y-132536223D01*
X102908347Y-132602370D01*
X102908344Y-132602371D01*
X102764626Y-132698401D01*
X102764622Y-132698404D01*
X102642403Y-132820623D01*
X102642400Y-132820627D01*
X102546370Y-132964345D01*
X102546369Y-132964348D01*
X102480222Y-133124042D01*
X102480219Y-133124051D01*
X102446500Y-133293570D01*
X101120500Y-133293570D01*
X101120500Y-127798300D01*
X101120500Y-127798297D01*
X101098659Y-127716783D01*
X101056464Y-127643700D01*
X100996792Y-127584028D01*
X100992461Y-127579697D01*
X100992450Y-127579687D01*
X99722462Y-126309699D01*
X99697448Y-126266365D01*
X99695020Y-126267371D01*
X99691911Y-126259866D01*
X99691909Y-126259863D01*
X99691909Y-126259861D01*
X99649714Y-126186778D01*
X99590042Y-126127106D01*
X99590041Y-126127105D01*
X99435144Y-125972208D01*
X99435143Y-125972207D01*
X99375471Y-125912535D01*
X99322428Y-125881910D01*
X99307615Y-125866374D01*
X99289702Y-125854541D01*
X99277089Y-125834359D01*
X99274215Y-125831345D01*
X99271004Y-125824627D01*
X99245817Y-125767583D01*
X99236746Y-125698308D01*
X99245815Y-125667420D01*
X99288835Y-125569991D01*
X99291750Y-125544865D01*
X99291749Y-125255136D01*
X99291747Y-125255117D01*
X99288836Y-125230012D01*
X99288835Y-125230011D01*
X99288835Y-125230009D01*
X99245817Y-125132583D01*
X99236746Y-125063309D01*
X99245815Y-125032420D01*
X99288835Y-124934991D01*
X99291750Y-124909865D01*
X99291749Y-124620136D01*
X99291747Y-124620117D01*
X99288836Y-124595012D01*
X99288835Y-124595010D01*
X99288835Y-124595009D01*
X99243456Y-124492235D01*
X99164015Y-124412794D01*
X99143949Y-124403934D01*
X99061242Y-124367415D01*
X99036115Y-124364500D01*
X97521393Y-124364500D01*
X97521367Y-124364502D01*
X97496262Y-124367413D01*
X97496258Y-124367414D01*
X97413551Y-124403934D01*
X97363465Y-124414500D01*
X97013555Y-124414500D01*
X96946516Y-124394815D01*
X96925874Y-124378181D01*
X96390569Y-123842876D01*
X96357084Y-123781553D01*
X96354250Y-123755195D01*
X96354250Y-122514044D01*
X96362894Y-122484603D01*
X96369418Y-122454617D01*
X96373172Y-122449601D01*
X96373935Y-122447005D01*
X96390569Y-122426363D01*
X96460114Y-122356818D01*
X96521437Y-122323333D01*
X96547795Y-122320499D01*
X96691145Y-122320499D01*
X96691150Y-122320499D01*
X96740737Y-122313972D01*
X96849566Y-122263224D01*
X96885971Y-122226819D01*
X96912898Y-122212115D01*
X96938717Y-122195523D01*
X96944917Y-122194631D01*
X96947294Y-122193334D01*
X96973652Y-122190500D01*
X97112927Y-122190500D01*
X97168020Y-122206677D01*
X97169335Y-122204097D01*
X97178028Y-122208526D01*
X97178030Y-122208528D01*
X97298124Y-122269719D01*
X97350188Y-122277965D01*
X97413321Y-122307893D01*
X97450253Y-122367204D01*
X97449256Y-122437067D01*
X97410646Y-122495300D01*
X97400869Y-122502736D01*
X97393483Y-122507795D01*
X97314044Y-122587234D01*
X97268665Y-122690006D01*
X97268665Y-122690008D01*
X97265750Y-122715131D01*
X97265750Y-123004856D01*
X97265752Y-123004882D01*
X97268663Y-123029987D01*
X97268664Y-123029991D01*
X97311681Y-123127413D01*
X97320753Y-123196691D01*
X97311681Y-123227585D01*
X97268666Y-123325003D01*
X97268665Y-123325008D01*
X97265750Y-123350131D01*
X97265750Y-123639856D01*
X97265752Y-123639882D01*
X97268663Y-123664987D01*
X97268665Y-123664991D01*
X97314043Y-123767764D01*
X97314044Y-123767765D01*
X97393485Y-123847206D01*
X97496259Y-123892585D01*
X97521385Y-123895500D01*
X99036114Y-123895499D01*
X99036129Y-123895497D01*
X99036132Y-123895497D01*
X99061237Y-123892586D01*
X99061238Y-123892585D01*
X99061241Y-123892585D01*
X99164015Y-123847206D01*
X99243456Y-123767765D01*
X99286709Y-123669805D01*
X99290473Y-123664310D01*
X99291309Y-123660468D01*
X99312453Y-123632222D01*
X99457858Y-123486818D01*
X99519181Y-123453335D01*
X99545538Y-123450501D01*
X101596750Y-123450501D01*
X101663789Y-123470186D01*
X101709544Y-123522990D01*
X101720750Y-123574501D01*
X101720750Y-124869753D01*
X101732381Y-124928230D01*
X101732382Y-124928231D01*
X101776697Y-124994553D01*
X101843019Y-125038868D01*
X101843020Y-125038869D01*
X101901497Y-125050500D01*
X101901500Y-125050501D01*
X101901502Y-125050501D01*
X103141000Y-125050501D01*
X103141001Y-125050500D01*
X103166291Y-125045470D01*
X103199479Y-125038869D01*
X103199479Y-125038868D01*
X103199481Y-125038868D01*
X103265802Y-124994553D01*
X103310117Y-124928232D01*
X103310117Y-124928230D01*
X103310118Y-124928230D01*
X103320374Y-124876667D01*
X103321750Y-124869749D01*
X103321750Y-123430253D01*
X103321750Y-123430250D01*
X103321749Y-123430248D01*
X103310118Y-123371771D01*
X103310117Y-123371770D01*
X103265802Y-123305448D01*
X103199480Y-123261133D01*
X103199479Y-123261132D01*
X103141002Y-123249501D01*
X103140998Y-123249501D01*
X102647083Y-123249501D01*
X102580044Y-123229816D01*
X102559402Y-123213182D01*
X102255762Y-122909542D01*
X102255757Y-122909538D01*
X102230783Y-122895120D01*
X102215499Y-122886296D01*
X102215497Y-122886294D01*
X102215497Y-122886295D01*
X102215495Y-122886294D01*
X102209525Y-122882847D01*
X102187240Y-122869980D01*
X102187241Y-122869980D01*
X102149025Y-122859740D01*
X102110812Y-122849501D01*
X102110810Y-122849501D01*
X101737090Y-122849501D01*
X101670051Y-122829816D01*
X101624296Y-122777012D01*
X101614352Y-122707854D01*
X101615473Y-122701310D01*
X101621749Y-122669753D01*
X101621750Y-122669751D01*
X101621750Y-121230250D01*
X101621749Y-121230248D01*
X101610118Y-121171771D01*
X101610117Y-121171770D01*
X101565802Y-121105448D01*
X101499480Y-121061133D01*
X101499479Y-121061132D01*
X101441002Y-121049501D01*
X101440998Y-121049501D01*
X100201502Y-121049501D01*
X100201497Y-121049501D01*
X100143020Y-121061132D01*
X100143019Y-121061133D01*
X100076697Y-121105448D01*
X100032382Y-121171770D01*
X100027708Y-121183055D01*
X100025386Y-121182093D01*
X100000965Y-121228763D01*
X99940244Y-121263329D01*
X99870475Y-121259579D01*
X99813809Y-121218704D01*
X99801263Y-121198947D01*
X99779778Y-121156780D01*
X99779776Y-121156778D01*
X99779773Y-121156774D01*
X99684475Y-121061476D01*
X99684471Y-121061473D01*
X99684470Y-121061472D01*
X99564376Y-121000281D01*
X99564374Y-121000280D01*
X99564371Y-121000279D01*
X99464743Y-120984500D01*
X99464738Y-120984500D01*
X98897762Y-120984500D01*
X98897757Y-120984500D01*
X98798128Y-121000279D01*
X98678028Y-121061473D01*
X98678024Y-121061476D01*
X98582726Y-121156774D01*
X98582724Y-121156778D01*
X98582722Y-121156780D01*
X98557570Y-121206144D01*
X98541735Y-121237222D01*
X98493760Y-121288018D01*
X98425939Y-121304813D01*
X98359804Y-121282275D01*
X98320765Y-121237222D01*
X98317214Y-121230253D01*
X98279778Y-121156780D01*
X98279774Y-121156776D01*
X98279773Y-121156774D01*
X98184475Y-121061476D01*
X98184471Y-121061473D01*
X98184470Y-121061472D01*
X98064376Y-121000281D01*
X98064374Y-121000280D01*
X98064371Y-121000279D01*
X97964743Y-120984500D01*
X97964738Y-120984500D01*
X97397762Y-120984500D01*
X97397757Y-120984500D01*
X97298128Y-121000279D01*
X97178028Y-121061473D01*
X97178024Y-121061476D01*
X97082726Y-121156774D01*
X97082723Y-121156778D01*
X97021529Y-121276877D01*
X97014810Y-121319302D01*
X96984880Y-121382436D01*
X96925568Y-121419366D01*
X96855705Y-121418368D01*
X96839937Y-121412286D01*
X96740737Y-121366028D01*
X96740735Y-121366027D01*
X96740736Y-121366027D01*
X96691151Y-121359500D01*
X96271355Y-121359500D01*
X96255636Y-121361569D01*
X96221763Y-121366028D01*
X96221761Y-121366029D01*
X96221759Y-121366029D01*
X96112933Y-121416776D01*
X96028026Y-121501683D01*
X95977277Y-121610514D01*
X95970750Y-121660098D01*
X95970750Y-121803455D01*
X95951065Y-121870494D01*
X95934431Y-121891136D01*
X95723281Y-122102286D01*
X95723280Y-122102288D01*
X95684350Y-122169714D01*
X95684351Y-122169715D01*
X95677136Y-122182212D01*
X95653250Y-122271356D01*
X95653250Y-123997885D01*
X95661551Y-124028862D01*
X95661552Y-124028866D01*
X95677134Y-124087024D01*
X95677135Y-124087025D01*
X95723277Y-124166947D01*
X95723281Y-124166952D01*
X96394147Y-124837819D01*
X96427632Y-124899142D01*
X96422648Y-124968834D01*
X96380776Y-125024767D01*
X96315312Y-125049184D01*
X96306466Y-125049500D01*
X95117794Y-125049500D01*
X95050755Y-125029815D01*
X95030113Y-125013181D01*
X94828069Y-124811137D01*
X94794584Y-124749814D01*
X94791750Y-124723456D01*
X94791750Y-122096544D01*
X94811435Y-122029505D01*
X94828069Y-122008863D01*
X95130414Y-121706518D01*
X95461720Y-121375212D01*
X95507864Y-121295288D01*
X95517376Y-121259788D01*
X95531750Y-121206144D01*
X95531750Y-120456544D01*
X95551435Y-120389505D01*
X95568069Y-120368863D01*
X96265113Y-119671819D01*
X96326436Y-119638334D01*
X96352794Y-119635500D01*
X99361142Y-119635500D01*
X99361144Y-119635500D01*
X99450288Y-119611614D01*
X99468516Y-119601090D01*
X99530212Y-119565470D01*
X101020469Y-118075212D01*
X101066614Y-117995288D01*
X101083461Y-117932413D01*
X101090500Y-117906144D01*
X101090500Y-116439725D01*
X101110185Y-116372686D01*
X101162989Y-116326931D01*
X101167048Y-116325164D01*
X101237594Y-116295943D01*
X101237595Y-116295942D01*
X101237598Y-116295941D01*
X101409655Y-116180977D01*
X101555977Y-116034655D01*
X101670941Y-115862598D01*
X101750130Y-115671420D01*
X101790500Y-115468465D01*
X101790500Y-115011535D01*
X101750130Y-114808580D01*
X101670941Y-114617402D01*
X101555977Y-114445345D01*
X101555976Y-114445344D01*
X101552592Y-114440279D01*
X101553675Y-114439555D01*
X101528993Y-114381428D01*
X101540789Y-114312561D01*
X101564476Y-114279403D01*
X102237062Y-113606819D01*
X102298385Y-113573334D01*
X102324743Y-113570500D01*
X107938546Y-113570500D01*
X108005585Y-113590185D01*
G37*
%TD.AperFunction*%
%TA.AperFunction,Conductor*%
G36*
X94221951Y-125196830D02*
G01*
X94228430Y-125202862D01*
X94706038Y-125680470D01*
X94764980Y-125714500D01*
X94764982Y-125714501D01*
X94785959Y-125726613D01*
X94785961Y-125726613D01*
X94785962Y-125726614D01*
X94875106Y-125750500D01*
X94875107Y-125750500D01*
X94967394Y-125750500D01*
X95433132Y-125750500D01*
X95454377Y-125756738D01*
X95476466Y-125758318D01*
X95487249Y-125766390D01*
X95500171Y-125770185D01*
X95514670Y-125786918D01*
X95532399Y-125800190D01*
X95537106Y-125812810D01*
X95545926Y-125822989D01*
X95549077Y-125844906D01*
X95556816Y-125865654D01*
X95553953Y-125878814D01*
X95555870Y-125892147D01*
X95546670Y-125912290D01*
X95541964Y-125933927D01*
X95528695Y-125951652D01*
X95526845Y-125955703D01*
X95520813Y-125962181D01*
X95510784Y-125972210D01*
X94228430Y-127254563D01*
X94167107Y-127288048D01*
X94097415Y-127283064D01*
X94041482Y-127241192D01*
X94017065Y-127175728D01*
X94016749Y-127166882D01*
X94016749Y-127160143D01*
X94016749Y-127160136D01*
X94016747Y-127160117D01*
X94013836Y-127135012D01*
X94013835Y-127135011D01*
X94013835Y-127135009D01*
X93970817Y-127037583D01*
X93961746Y-126968309D01*
X93970815Y-126937420D01*
X94013835Y-126839991D01*
X94016750Y-126814865D01*
X94016749Y-126525136D01*
X94016747Y-126525117D01*
X94013836Y-126500012D01*
X94013835Y-126500011D01*
X94013835Y-126500009D01*
X93970817Y-126402583D01*
X93961746Y-126333309D01*
X93970815Y-126302420D01*
X94013835Y-126204991D01*
X94016750Y-126179865D01*
X94016749Y-125890136D01*
X94016335Y-125886563D01*
X94013836Y-125865012D01*
X94013835Y-125865011D01*
X94013835Y-125865009D01*
X93970817Y-125767583D01*
X93961746Y-125698309D01*
X93970815Y-125667420D01*
X94013835Y-125569991D01*
X94016750Y-125544865D01*
X94016749Y-125290542D01*
X94036433Y-125223504D01*
X94089237Y-125177749D01*
X94158396Y-125167805D01*
X94221951Y-125196830D01*
G37*
%TD.AperFunction*%
%TD*%
M02*
