%TF.GenerationSoftware,KiCad,Pcbnew,9.0.4-9.0.4-0~ubuntu24.04.1*%
%TF.CreationDate,2025-09-27T21:59:24+02:00*%
%TF.ProjectId,ModuCard-vesc-to-mms-converter,4d6f6475-4361-4726-942d-766573632d74,rev?*%
%TF.SameCoordinates,Original*%
%TF.FileFunction,Copper,L2,Bot*%
%TF.FilePolarity,Positive*%
%FSLAX46Y46*%
G04 Gerber Fmt 4.6, Leading zero omitted, Abs format (unit mm)*
G04 Created by KiCad (PCBNEW 9.0.4-9.0.4-0~ubuntu24.04.1) date 2025-09-27 21:59:24*
%MOMM*%
%LPD*%
G01*
G04 APERTURE LIST*
G04 Aperture macros list*
%AMRoundRect*
0 Rectangle with rounded corners*
0 $1 Rounding radius*
0 $2 $3 $4 $5 $6 $7 $8 $9 X,Y pos of 4 corners*
0 Add a 4 corners polygon primitive as box body*
4,1,4,$2,$3,$4,$5,$6,$7,$8,$9,$2,$3,0*
0 Add four circle primitives for the rounded corners*
1,1,$1+$1,$2,$3*
1,1,$1+$1,$4,$5*
1,1,$1+$1,$6,$7*
1,1,$1+$1,$8,$9*
0 Add four rect primitives between the rounded corners*
20,1,$1+$1,$2,$3,$4,$5,0*
20,1,$1+$1,$4,$5,$6,$7,0*
20,1,$1+$1,$6,$7,$8,$9,0*
20,1,$1+$1,$8,$9,$2,$3,0*%
G04 Aperture macros list end*
%TA.AperFunction,ComponentPad*%
%ADD10C,0.900000*%
%TD*%
%TA.AperFunction,ComponentPad*%
%ADD11C,8.000000*%
%TD*%
%TA.AperFunction,ComponentPad*%
%ADD12RoundRect,0.250000X-0.600000X-0.725000X0.600000X-0.725000X0.600000X0.725000X-0.600000X0.725000X0*%
%TD*%
%TA.AperFunction,ComponentPad*%
%ADD13O,1.700000X1.950000*%
%TD*%
%TA.AperFunction,ComponentPad*%
%ADD14R,1.600000X1.600000*%
%TD*%
%TA.AperFunction,ComponentPad*%
%ADD15O,1.600000X1.600000*%
%TD*%
%TA.AperFunction,ComponentPad*%
%ADD16R,0.900000X2.000000*%
%TD*%
%TA.AperFunction,ComponentPad*%
%ADD17RoundRect,1.025000X1.025000X1.025000X-1.025000X1.025000X-1.025000X-1.025000X1.025000X-1.025000X0*%
%TD*%
%TA.AperFunction,ComponentPad*%
%ADD18C,4.100000*%
%TD*%
%TA.AperFunction,ComponentPad*%
%ADD19R,1.500000X1.500000*%
%TD*%
%TA.AperFunction,ComponentPad*%
%ADD20C,1.500000*%
%TD*%
%TA.AperFunction,ComponentPad*%
%ADD21C,2.300000*%
%TD*%
%TA.AperFunction,ViaPad*%
%ADD22C,0.600000*%
%TD*%
%TA.AperFunction,ViaPad*%
%ADD23C,0.550000*%
%TD*%
%TA.AperFunction,ViaPad*%
%ADD24C,0.650000*%
%TD*%
%TA.AperFunction,Conductor*%
%ADD25C,1.500000*%
%TD*%
%TA.AperFunction,Conductor*%
%ADD26C,0.300000*%
%TD*%
%TA.AperFunction,Conductor*%
%ADD27C,0.240000*%
%TD*%
%TA.AperFunction,Conductor*%
%ADD28C,0.254000*%
%TD*%
G04 APERTURE END LIST*
D10*
%TO.P,H10,1,1*%
%TO.N,GND*%
X98000000Y-105300000D03*
X97121320Y-107421320D03*
X97121320Y-103178680D03*
X95000000Y-108300000D03*
D11*
X95000000Y-105300000D03*
D10*
X95000000Y-102300000D03*
X92878680Y-107421320D03*
X92878680Y-103178680D03*
X92000000Y-105300000D03*
%TD*%
D12*
%TO.P,J3,1,Pin_1*%
%TO.N,GND*%
X106660000Y-115245000D03*
D13*
%TO.P,J3,2,Pin_2*%
%TO.N,/CAN/CAN-*%
X109160000Y-115245000D03*
%TO.P,J3,3,Pin_3*%
%TO.N,/CAN/CAN+*%
X111660000Y-115245000D03*
%TO.P,J3,4,Pin_4*%
%TO.N,+5V*%
X114160000Y-115245000D03*
%TD*%
D14*
%TO.P,SW1,1*%
%TO.N,Net-(R2-Pad2)*%
X122110000Y-115580000D03*
D15*
%TO.P,SW1,2*%
%TO.N,Net-(R3-Pad2)*%
X119570000Y-115580000D03*
%TO.P,SW1,3*%
%TO.N,/CAN/CAN2-*%
X119570000Y-123200000D03*
%TO.P,SW1,4*%
%TO.N,/CAN/CAN1+*%
X122110000Y-123200000D03*
%TD*%
D10*
%TO.P,H9,1,1*%
%TO.N,VCC*%
X122000000Y-105300000D03*
X122878680Y-103178680D03*
X122878680Y-107421320D03*
X125000000Y-102300000D03*
D11*
X125000000Y-105300000D03*
D10*
X125000000Y-108300000D03*
X127121320Y-103178680D03*
X127121320Y-107421320D03*
X128000000Y-105300000D03*
%TD*%
D12*
%TO.P,J4,1,Pin_1*%
%TO.N,GND*%
X90740000Y-115240000D03*
D13*
%TO.P,J4,2,Pin_2*%
X93240000Y-115240000D03*
%TO.P,J4,3,Pin_3*%
%TO.N,/USB/USB_VESC_D+*%
X95740000Y-115240000D03*
%TO.P,J4,4,Pin_4*%
%TO.N,/USB/USB_VESC_D-*%
X98240000Y-115240000D03*
%TO.P,J4,5,Pin_5*%
%TO.N,+5V*%
X100740000Y-115240000D03*
%TD*%
D16*
%TO.P,J5,*%
%TO.N,*%
X138100000Y-137930001D03*
X124600000Y-137930001D03*
D17*
%TO.P,J5,1,Pin_1*%
%TO.N,GND*%
X134950000Y-131930001D03*
D18*
%TO.P,J5,2,Pin_2*%
%TO.N,VCC*%
X127750000Y-131930001D03*
%TD*%
D19*
%TO.P,J1,1*%
%TO.N,/CAN/CAN1-*%
X113744000Y-139980001D03*
D20*
%TO.P,J1,2*%
%TO.N,/CAN/CAN1+*%
X112728000Y-138200000D03*
%TO.P,J1,3*%
%TO.N,GND*%
X111712000Y-139980001D03*
%TO.P,J1,4*%
%TO.N,/CAN/CAN2-*%
X110696000Y-138200000D03*
%TO.P,J1,5*%
%TO.N,/CAN/CAN2+*%
X109680000Y-139980001D03*
%TO.P,J1,6*%
%TO.N,+12V*%
X108664000Y-138200000D03*
%TO.P,J1,7*%
%TO.N,USB_UPSTREAM_D-*%
X107648000Y-139980001D03*
%TO.P,J1,8*%
%TO.N,USB_UPSTREAM_D+*%
X106632001Y-138200001D03*
%TO.P,J1,9*%
%TO.N,GND*%
X117044000Y-133380001D03*
%TO.P,J1,10*%
%TO.N,Net-(J1-Pad10)*%
X114754000Y-133380001D03*
%TO.P,J1,11*%
%TO.N,GND*%
X105614000Y-133380001D03*
%TO.P,J1,12*%
%TO.N,Net-(J1-Pad12)*%
X103324000Y-133380001D03*
D21*
%TO.P,J1,SH*%
%TO.N,GND*%
X118314000Y-139090001D03*
X102054000Y-139090001D03*
%TD*%
D19*
%TO.P,J2,1*%
%TO.N,/CAN/CAN1-*%
X94096000Y-140000000D03*
D20*
%TO.P,J2,2*%
%TO.N,/CAN/CAN1+*%
X93080000Y-138219999D03*
%TO.P,J2,3*%
%TO.N,GND*%
X92064000Y-140000000D03*
%TO.P,J2,4*%
%TO.N,/CAN/CAN2-*%
X91048000Y-138219999D03*
%TO.P,J2,5*%
%TO.N,/CAN/CAN2+*%
X90032000Y-140000000D03*
%TO.P,J2,6*%
%TO.N,+12V*%
X89016000Y-138219999D03*
%TO.P,J2,7*%
%TO.N,USB_DOWNSTREAM_D-*%
X88000000Y-140000000D03*
%TO.P,J2,8*%
%TO.N,USB_DOWNSTREAM_D+*%
X86984001Y-138220000D03*
%TO.P,J2,9*%
%TO.N,GND*%
X97396000Y-133400000D03*
%TO.P,J2,10*%
%TO.N,Net-(J2-Pad10)*%
X95106000Y-133400000D03*
%TO.P,J2,11*%
%TO.N,GND*%
X85966000Y-133400000D03*
%TO.P,J2,12*%
%TO.N,Net-(J2-Pad12)*%
X83676000Y-133400000D03*
D21*
%TO.P,J2,SH*%
%TO.N,GND*%
X98666000Y-139110000D03*
X82406000Y-139110000D03*
%TD*%
D22*
%TO.N,+12V*%
X106041704Y-135111003D03*
%TO.N,GND*%
X94681250Y-129060000D03*
X102521250Y-121950001D03*
X95281250Y-122960000D03*
X92481250Y-130490001D03*
X92181250Y-128360000D03*
D23*
X99805000Y-136400000D03*
D22*
X94581250Y-126160000D03*
D23*
X111200000Y-143365000D03*
X101700000Y-133700000D03*
X99805000Y-133782001D03*
D22*
X96653750Y-123682500D03*
X100821250Y-124150001D03*
X94030928Y-130422901D03*
D23*
X101500000Y-136400000D03*
D22*
X95381250Y-124560000D03*
%TO.N,+12V*%
X94000000Y-132080001D03*
D24*
%TO.N,USB_UPSTREAM_D+*%
X91823750Y-129915999D03*
X93343090Y-129967369D03*
%TO.N,USB_UPSTREAM_D-*%
X91864446Y-129140063D03*
X93755750Y-129309004D03*
D23*
%TO.N,/CAN/CAN2-*%
X117400000Y-128125000D03*
X108892000Y-146615000D03*
%TO.N,/CAN/CAN2+*%
X108160000Y-147465000D03*
%TO.N,/CAN/CAN1-*%
X110024999Y-128276370D03*
X113430000Y-144542000D03*
X113650000Y-123130741D03*
%TO.N,/CAN/CAN1+*%
X118480000Y-130120001D03*
X112680000Y-145415000D03*
%TO.N,/CAN/CAN-*%
X105300000Y-121475000D03*
%TO.N,/CAN/CAN+*%
X106850001Y-121475000D03*
%TD*%
D25*
%TO.N,+12V*%
X106041704Y-135111003D02*
X108664000Y-137733299D01*
X108664000Y-137733299D02*
X108664000Y-138179002D01*
X93900000Y-135131002D02*
X91023339Y-135131002D01*
X103832001Y-135111003D02*
X106041704Y-135111003D01*
D26*
X94000000Y-132080001D02*
X94000000Y-135031002D01*
D25*
X103812002Y-135131002D02*
X95831703Y-135131002D01*
X89016000Y-137138341D02*
X89016000Y-138199001D01*
X91023339Y-135131002D02*
X89016000Y-137138341D01*
D26*
X94000000Y-135031002D02*
X93900000Y-135131002D01*
D25*
X95831703Y-135131002D02*
X93900000Y-135131002D01*
X103832001Y-135111003D02*
X103812002Y-135131002D01*
D27*
%TO.N,USB_UPSTREAM_D+*%
X93098221Y-129722500D02*
X92017249Y-129722500D01*
X92017249Y-129722500D02*
X91823750Y-129915999D01*
X93343090Y-129967369D02*
X93098221Y-129722500D01*
%TO.N,USB_UPSTREAM_D-*%
X93722254Y-129342500D02*
X92066883Y-129342500D01*
X93755750Y-129309004D02*
X93722254Y-129342500D01*
X92066883Y-129342500D02*
X91864446Y-129140063D01*
D26*
%TO.N,/CAN/CAN2-*%
X117310000Y-125640000D02*
X117310000Y-128035000D01*
D28*
X110696000Y-141544000D02*
X110696000Y-138200000D01*
D26*
X117310000Y-128035000D02*
X117400000Y-128125000D01*
D28*
X108744000Y-146467000D02*
X108744000Y-143496000D01*
D26*
X119570000Y-123380000D02*
X117310000Y-125640000D01*
X119570000Y-123200000D02*
X119570000Y-123380000D01*
D28*
X108744000Y-143496000D02*
X110696000Y-141544000D01*
X108892000Y-146615000D02*
X108744000Y-146467000D01*
%TO.N,/CAN/CAN2+*%
X110142000Y-140442001D02*
X109680000Y-139980001D01*
X108160000Y-147465000D02*
X108190000Y-147435000D01*
X108190000Y-147435000D02*
X108190000Y-143266526D01*
X110142000Y-141314526D02*
X110142000Y-140442001D01*
X108190000Y-143266526D02*
X110142000Y-141314526D01*
%TO.N,/CAN/CAN1-*%
X113282000Y-140442001D02*
X113744000Y-139980001D01*
X113282000Y-144394000D02*
X113282000Y-140442001D01*
D26*
X110024999Y-128276370D02*
X110050000Y-128251369D01*
X113650000Y-124550000D02*
X113650000Y-123130741D01*
D28*
X113430000Y-144542000D02*
X113282000Y-144394000D01*
D26*
X110050000Y-128251369D02*
X110050000Y-128150000D01*
X110050000Y-128150000D02*
X113650000Y-124550000D01*
%TO.N,/CAN/CAN1+*%
X118725000Y-129934104D02*
X118725000Y-126675000D01*
X118725000Y-126675000D02*
X122110000Y-123290000D01*
X122110000Y-123290000D02*
X122110000Y-123200000D01*
D28*
X112728000Y-145367000D02*
X112728000Y-138200000D01*
D26*
X118539103Y-130120001D02*
X118725000Y-129934104D01*
D28*
X112680000Y-145415000D02*
X112728000Y-145367000D01*
D26*
X118480000Y-130120001D02*
X118539103Y-130120001D01*
%TO.N,/CAN/CAN-*%
X105775000Y-119530734D02*
X107235734Y-118070000D01*
X109495000Y-115245000D02*
X109160000Y-115245000D01*
X107235734Y-118070000D02*
X109100000Y-118070000D01*
X105775000Y-121000000D02*
X105775000Y-119530734D01*
X110190000Y-116980000D02*
X110190000Y-115940000D01*
X105300000Y-121475000D02*
X105775000Y-121000000D01*
X109100000Y-118070000D02*
X110190000Y-116980000D01*
X110190000Y-115940000D02*
X109495000Y-115245000D01*
%TO.N,/CAN/CAN+*%
X110790000Y-115890000D02*
X111435000Y-115245000D01*
X106375001Y-119779265D02*
X107484266Y-118670000D01*
X111435000Y-115245000D02*
X111660000Y-115245000D01*
X110790000Y-117240000D02*
X110790000Y-115890000D01*
X107484266Y-118670000D02*
X109360000Y-118670000D01*
X106850001Y-121475000D02*
X106375001Y-121000000D01*
X106375001Y-121000000D02*
X106375001Y-119779265D01*
X109360000Y-118670000D02*
X110790000Y-117240000D01*
%TD*%
%TA.AperFunction,Conductor*%
%TO.N,VCC*%
G36*
X139442539Y-100049686D02*
G01*
X139488294Y-100102490D01*
X139499500Y-100154001D01*
X139499500Y-134706001D01*
X139479815Y-134773040D01*
X139427011Y-134818795D01*
X139375500Y-134830001D01*
X124724000Y-134830001D01*
X124656961Y-134810316D01*
X124611206Y-134757512D01*
X124600000Y-134706001D01*
X124600000Y-130842062D01*
X132699500Y-130842062D01*
X132699500Y-133017925D01*
X132699501Y-133017940D01*
X132709696Y-133147485D01*
X132763596Y-133361396D01*
X132854826Y-133562244D01*
X132980449Y-133743569D01*
X133136431Y-133899551D01*
X133317756Y-134025174D01*
X133317757Y-134025174D01*
X133317761Y-134025177D01*
X133451875Y-134086094D01*
X133518604Y-134116404D01*
X133518605Y-134116404D01*
X133518607Y-134116405D01*
X133732515Y-134170305D01*
X133862067Y-134180501D01*
X136037932Y-134180500D01*
X136167485Y-134170305D01*
X136381393Y-134116405D01*
X136582239Y-134025177D01*
X136763567Y-133899552D01*
X136919551Y-133743568D01*
X137045176Y-133562240D01*
X137136404Y-133361394D01*
X137190304Y-133147486D01*
X137200500Y-133017934D01*
X137200499Y-130842069D01*
X137190304Y-130712516D01*
X137136404Y-130498608D01*
X137045176Y-130297762D01*
X137005521Y-130240524D01*
X136919550Y-130116432D01*
X136763568Y-129960450D01*
X136582243Y-129834827D01*
X136381395Y-129743597D01*
X136238787Y-129707663D01*
X136167485Y-129689697D01*
X136037933Y-129679501D01*
X136037931Y-129679501D01*
X133862075Y-129679501D01*
X133862060Y-129679502D01*
X133732515Y-129689697D01*
X133518604Y-129743597D01*
X133317756Y-129834827D01*
X133136431Y-129960450D01*
X132980449Y-130116432D01*
X132854826Y-130297757D01*
X132763596Y-130498605D01*
X132709696Y-130712516D01*
X132699500Y-130842062D01*
X124600000Y-130842062D01*
X124600000Y-124259041D01*
X134349500Y-124259041D01*
X134349500Y-124540958D01*
X134386295Y-124820439D01*
X134459259Y-125092743D01*
X134567135Y-125353179D01*
X134567140Y-125353190D01*
X134708083Y-125597309D01*
X134708088Y-125597317D01*
X134820232Y-125743465D01*
X134879704Y-125820970D01*
X135079029Y-126020295D01*
X135079033Y-126020298D01*
X135079035Y-126020300D01*
X135302683Y-126191912D01*
X135302690Y-126191916D01*
X135546809Y-126332859D01*
X135546814Y-126332861D01*
X135546817Y-126332863D01*
X135807261Y-126440742D01*
X136079558Y-126513704D01*
X136359049Y-126550500D01*
X136359056Y-126550500D01*
X136640944Y-126550500D01*
X136640951Y-126550500D01*
X136920442Y-126513704D01*
X137192739Y-126440742D01*
X137453183Y-126332863D01*
X137697317Y-126191912D01*
X137920965Y-126020300D01*
X138120300Y-125820965D01*
X138291912Y-125597317D01*
X138432863Y-125353183D01*
X138540742Y-125092739D01*
X138613704Y-124820442D01*
X138650500Y-124540951D01*
X138650500Y-124259049D01*
X138613704Y-123979558D01*
X138540742Y-123707261D01*
X138432863Y-123446817D01*
X138432861Y-123446814D01*
X138432859Y-123446809D01*
X138291916Y-123202690D01*
X138291912Y-123202683D01*
X138120300Y-122979035D01*
X138120298Y-122979033D01*
X138120295Y-122979029D01*
X137920970Y-122779704D01*
X137920965Y-122779700D01*
X137697317Y-122608088D01*
X137697311Y-122608084D01*
X137697309Y-122608083D01*
X137453190Y-122467140D01*
X137453179Y-122467135D01*
X137192743Y-122359259D01*
X136920439Y-122286295D01*
X136640958Y-122249500D01*
X136640951Y-122249500D01*
X136359049Y-122249500D01*
X136359041Y-122249500D01*
X136079560Y-122286295D01*
X135807256Y-122359259D01*
X135546820Y-122467135D01*
X135546809Y-122467140D01*
X135302690Y-122608083D01*
X135302682Y-122608089D01*
X135079029Y-122779704D01*
X134879704Y-122979029D01*
X134708089Y-123202682D01*
X134708083Y-123202690D01*
X134567140Y-123446809D01*
X134567135Y-123446820D01*
X134459259Y-123707256D01*
X134386295Y-123979560D01*
X134349500Y-124259041D01*
X124600000Y-124259041D01*
X124600000Y-110030001D01*
X119124000Y-110030001D01*
X119056961Y-110010316D01*
X119011206Y-109957512D01*
X119000000Y-109906001D01*
X119000000Y-100638095D01*
X119019685Y-100571056D01*
X119072489Y-100525301D01*
X119123843Y-100514095D01*
X130000117Y-100500500D01*
X130065892Y-100500500D01*
X130066200Y-100500417D01*
X130066517Y-100500417D01*
X130129497Y-100483457D01*
X130129650Y-100483416D01*
X130190032Y-100467237D01*
X130190031Y-100467237D01*
X130193186Y-100466392D01*
X130193461Y-100466232D01*
X130193769Y-100466150D01*
X130250572Y-100433259D01*
X130307314Y-100400500D01*
X130307318Y-100400495D01*
X130307545Y-100400322D01*
X130307639Y-100400249D01*
X130307800Y-100400123D01*
X130307814Y-100400116D01*
X130338615Y-100369236D01*
X130354151Y-100353663D01*
X130354152Y-100353664D01*
X130354159Y-100353653D01*
X130400500Y-100307314D01*
X130400643Y-100307064D01*
X130400841Y-100306867D01*
X130400877Y-100306819D01*
X130400884Y-100306813D01*
X130433611Y-100249962D01*
X130433612Y-100249961D01*
X130433622Y-100249966D01*
X130433684Y-100249834D01*
X130466392Y-100193186D01*
X130466474Y-100192878D01*
X130466633Y-100192603D01*
X130483513Y-100129288D01*
X130485492Y-100121903D01*
X130521859Y-100062244D01*
X130584707Y-100031717D01*
X130605266Y-100030001D01*
X139375500Y-100030001D01*
X139442539Y-100049686D01*
G37*
%TD.AperFunction*%
%TD*%
%TA.AperFunction,Conductor*%
%TO.N,GND*%
G36*
X89442539Y-54520185D02*
G01*
X89488294Y-54572989D01*
X89499500Y-54624500D01*
X89499500Y-99984426D01*
X89499418Y-99984734D01*
X89499500Y-100050226D01*
X89499500Y-100115896D01*
X89499517Y-100116023D01*
X89499565Y-100116387D01*
X89499581Y-100116512D01*
X89516570Y-100179601D01*
X89516590Y-100179754D01*
X89516609Y-100179749D01*
X89533606Y-100243182D01*
X89533848Y-100243766D01*
X89566740Y-100300572D01*
X89566739Y-100300572D01*
X89567070Y-100301145D01*
X89599500Y-100357314D01*
X89599724Y-100357538D01*
X89599884Y-100357814D01*
X89646335Y-100404149D01*
X89692686Y-100450500D01*
X89692961Y-100450659D01*
X89693187Y-100450884D01*
X89749902Y-100483533D01*
X89750014Y-100483650D01*
X89750037Y-100483611D01*
X89806814Y-100516392D01*
X89806821Y-100516394D01*
X89807395Y-100516632D01*
X89807397Y-100516633D01*
X89807398Y-100516633D01*
X89807400Y-100516634D01*
X89870710Y-100533513D01*
X89870860Y-100533553D01*
X89934108Y-100550500D01*
X89934113Y-100550500D01*
X89934128Y-100550502D01*
X89934365Y-100550533D01*
X89934472Y-100550547D01*
X89934552Y-100550558D01*
X89934729Y-100550580D01*
X89934734Y-100550582D01*
X90000334Y-100550500D01*
X90065892Y-100550500D01*
X90066199Y-100550417D01*
X118670347Y-100514661D01*
X118737409Y-100534262D01*
X118783230Y-100587009D01*
X118794500Y-100638661D01*
X118794500Y-109906008D01*
X118799197Y-109949687D01*
X118810397Y-110001175D01*
X118812890Y-110011373D01*
X118812891Y-110011376D01*
X118855899Y-110092084D01*
X118855901Y-110092087D01*
X118901660Y-110144896D01*
X118919242Y-110162840D01*
X118919246Y-110162844D01*
X118919247Y-110162845D01*
X118919249Y-110162846D01*
X118999059Y-110207489D01*
X118999063Y-110207491D01*
X119066102Y-110227176D01*
X119124000Y-110235501D01*
X124270500Y-110235501D01*
X124337539Y-110255186D01*
X124383294Y-110307990D01*
X124394500Y-110359501D01*
X124394500Y-134706008D01*
X124399197Y-134749687D01*
X124410397Y-134801175D01*
X124412890Y-134811373D01*
X124412891Y-134811376D01*
X124455899Y-134892084D01*
X124455901Y-134892087D01*
X124501660Y-134944896D01*
X124519242Y-134962840D01*
X124519246Y-134962844D01*
X124519247Y-134962845D01*
X124519249Y-134962846D01*
X124598516Y-135007185D01*
X124599063Y-135007491D01*
X124666102Y-135027176D01*
X124724000Y-135035501D01*
X124724004Y-135035501D01*
X139375500Y-135035501D01*
X139442539Y-135055186D01*
X139488294Y-135107990D01*
X139499500Y-135159501D01*
X139499500Y-147473038D01*
X139498720Y-147486923D01*
X139488540Y-147577265D01*
X139482362Y-147604334D01*
X139454648Y-147683537D01*
X139442600Y-147708555D01*
X139397957Y-147779604D01*
X139380644Y-147801313D01*
X139321313Y-147860644D01*
X139299604Y-147877957D01*
X139228552Y-147922602D01*
X139203537Y-147934648D01*
X139203535Y-147934649D01*
X139124337Y-147962362D01*
X139097265Y-147968541D01*
X139006911Y-147978721D01*
X138993028Y-147979501D01*
X109399494Y-147979501D01*
X109332455Y-147959816D01*
X109286700Y-147907012D01*
X109276756Y-147837854D01*
X109281563Y-147817184D01*
X109297379Y-147768506D01*
X109336816Y-147710830D01*
X109359010Y-147696341D01*
X109508096Y-147620378D01*
X109657787Y-147511621D01*
X109788621Y-147380787D01*
X109897378Y-147231096D01*
X109981379Y-147066235D01*
X110038555Y-146890264D01*
X110067500Y-146707514D01*
X110067500Y-146522486D01*
X110038555Y-146339736D01*
X110009967Y-146251750D01*
X109981380Y-146163767D01*
X109981379Y-146163764D01*
X109938577Y-146079763D01*
X109897378Y-145998904D01*
X109795181Y-145858242D01*
X109771702Y-145792437D01*
X109771500Y-145785358D01*
X109771500Y-143972966D01*
X109791185Y-143905927D01*
X109807819Y-143885285D01*
X111488819Y-142204286D01*
X111550142Y-142170801D01*
X111619834Y-142175785D01*
X111675767Y-142217657D01*
X111700184Y-142283121D01*
X111700500Y-142291967D01*
X111700500Y-144722995D01*
X111680815Y-144790034D01*
X111676821Y-144795877D01*
X111674622Y-144798902D01*
X111590620Y-144963764D01*
X111590619Y-144963767D01*
X111533445Y-145139734D01*
X111504500Y-145322486D01*
X111504500Y-145507513D01*
X111533445Y-145690265D01*
X111590619Y-145866232D01*
X111590620Y-145866235D01*
X111658219Y-145998903D01*
X111674622Y-146031096D01*
X111783379Y-146180787D01*
X111914213Y-146311621D01*
X112063904Y-146420378D01*
X112144763Y-146461577D01*
X112228764Y-146504379D01*
X112228767Y-146504380D01*
X112284493Y-146522486D01*
X112404736Y-146561555D01*
X112587486Y-146590500D01*
X112587487Y-146590500D01*
X112772513Y-146590500D01*
X112772514Y-146590500D01*
X112955264Y-146561555D01*
X113131235Y-146504379D01*
X113296096Y-146420378D01*
X113445787Y-146311621D01*
X113576621Y-146180787D01*
X113685378Y-146031096D01*
X113769379Y-145866235D01*
X113822763Y-145701933D01*
X113862200Y-145644258D01*
X113884393Y-145629769D01*
X114046096Y-145547378D01*
X114195787Y-145438621D01*
X114326621Y-145307787D01*
X114435378Y-145158096D01*
X114519379Y-144993235D01*
X114576555Y-144817264D01*
X114605500Y-144634514D01*
X114605500Y-144449486D01*
X114576555Y-144266736D01*
X114519379Y-144090765D01*
X114519379Y-144090764D01*
X114459357Y-143972966D01*
X114435378Y-143925904D01*
X114333181Y-143785242D01*
X114309702Y-143719437D01*
X114309500Y-143712358D01*
X114309500Y-142396804D01*
X114654500Y-142396804D01*
X114654500Y-142643197D01*
X114672487Y-142779815D01*
X114686659Y-142887460D01*
X114707922Y-142966814D01*
X114750425Y-143125441D01*
X114844708Y-143353059D01*
X114844712Y-143353069D01*
X114967899Y-143566435D01*
X115117883Y-143761899D01*
X115117889Y-143761906D01*
X115292094Y-143936111D01*
X115292101Y-143936117D01*
X115487565Y-144086101D01*
X115700931Y-144209288D01*
X115700932Y-144209288D01*
X115700935Y-144209290D01*
X115928558Y-144303575D01*
X116166541Y-144367342D01*
X116410811Y-144399501D01*
X116410818Y-144399501D01*
X116657182Y-144399501D01*
X116657189Y-144399501D01*
X116901459Y-144367342D01*
X117139442Y-144303575D01*
X117367065Y-144209290D01*
X117580435Y-144086101D01*
X117775900Y-143936116D01*
X117950115Y-143761901D01*
X118100100Y-143566436D01*
X118223289Y-143353066D01*
X118317574Y-143125443D01*
X118381341Y-142887460D01*
X118413500Y-142643190D01*
X118413500Y-142396812D01*
X118381341Y-142152542D01*
X118317574Y-141914559D01*
X118223289Y-141686936D01*
X118100100Y-141473566D01*
X117950116Y-141278102D01*
X117950110Y-141278095D01*
X117775905Y-141103890D01*
X117775898Y-141103884D01*
X117580434Y-140953900D01*
X117367068Y-140830713D01*
X117367058Y-140830709D01*
X117139440Y-140736426D01*
X116976100Y-140692660D01*
X116901459Y-140672660D01*
X116860636Y-140667285D01*
X116657196Y-140640501D01*
X116657189Y-140640501D01*
X116410811Y-140640501D01*
X116410803Y-140640501D01*
X116178299Y-140671111D01*
X116166541Y-140672660D01*
X116133191Y-140681596D01*
X115928559Y-140736426D01*
X115700941Y-140830709D01*
X115700931Y-140830713D01*
X115487565Y-140953900D01*
X115292101Y-141103884D01*
X115292094Y-141103890D01*
X115117889Y-141278095D01*
X115117883Y-141278102D01*
X114967899Y-141473566D01*
X114844712Y-141686932D01*
X114844708Y-141686942D01*
X114750425Y-141914560D01*
X114686660Y-142152539D01*
X114686658Y-142152550D01*
X114654500Y-142396804D01*
X114309500Y-142396804D01*
X114309500Y-140981501D01*
X114329185Y-140914462D01*
X114381989Y-140868707D01*
X114433500Y-140857501D01*
X114506559Y-140857501D01*
X114513957Y-140856029D01*
X114543748Y-140850103D01*
X114585922Y-140821923D01*
X114614102Y-140779749D01*
X114621500Y-140742559D01*
X114621500Y-140553794D01*
X114641185Y-140486755D01*
X114642399Y-140484902D01*
X114654559Y-140466704D01*
X114732014Y-140279712D01*
X114770461Y-140086430D01*
X114771501Y-140081203D01*
X114771501Y-139878797D01*
X114732015Y-139680295D01*
X114732014Y-139680294D01*
X114732014Y-139680290D01*
X114654559Y-139493297D01*
X114654558Y-139493295D01*
X114642397Y-139475094D01*
X114621520Y-139408416D01*
X114621500Y-139406205D01*
X114621500Y-139217442D01*
X114618502Y-139202371D01*
X114614102Y-139180253D01*
X114607395Y-139170215D01*
X114585922Y-139138078D01*
X114543749Y-139109899D01*
X114506559Y-139102501D01*
X114506558Y-139102501D01*
X114317795Y-139102501D01*
X114250756Y-139082816D01*
X114248935Y-139081624D01*
X114230704Y-139069442D01*
X114230701Y-139069440D01*
X114230700Y-139069440D01*
X114043711Y-138991987D01*
X114043705Y-138991985D01*
X113855308Y-138954509D01*
X113793397Y-138922123D01*
X113758823Y-138861407D01*
X113755500Y-138832892D01*
X113755500Y-138098799D01*
X113755499Y-138098795D01*
X113729894Y-137970069D01*
X113716014Y-137900289D01*
X113638559Y-137713296D01*
X113638558Y-137713295D01*
X113638555Y-137713289D01*
X113526112Y-137545007D01*
X113526109Y-137545003D01*
X113382996Y-137401890D01*
X113382992Y-137401887D01*
X113214710Y-137289444D01*
X113214701Y-137289439D01*
X113027711Y-137211986D01*
X113027703Y-137211984D01*
X112829204Y-137172500D01*
X112829200Y-137172500D01*
X112626800Y-137172500D01*
X112626795Y-137172500D01*
X112428296Y-137211984D01*
X112428288Y-137211986D01*
X112241298Y-137289439D01*
X112241289Y-137289444D01*
X112073007Y-137401887D01*
X112073003Y-137401890D01*
X111929890Y-137545003D01*
X111929887Y-137545007D01*
X111815102Y-137716795D01*
X111761490Y-137761600D01*
X111692165Y-137770307D01*
X111629137Y-137740152D01*
X111608898Y-137716795D01*
X111494112Y-137545007D01*
X111494109Y-137545003D01*
X111350996Y-137401890D01*
X111350992Y-137401887D01*
X111182710Y-137289444D01*
X111182701Y-137289439D01*
X110995711Y-137211986D01*
X110995703Y-137211984D01*
X110797204Y-137172500D01*
X110797200Y-137172500D01*
X110594800Y-137172500D01*
X110594795Y-137172500D01*
X110396296Y-137211984D01*
X110396288Y-137211986D01*
X110209298Y-137289439D01*
X110209289Y-137289444D01*
X110041007Y-137401887D01*
X110041003Y-137401890D01*
X109897890Y-137545003D01*
X109897887Y-137545007D01*
X109831314Y-137644640D01*
X109777701Y-137689445D01*
X109708376Y-137698152D01*
X109645349Y-137667997D01*
X109608630Y-137608554D01*
X109606595Y-137599940D01*
X109589972Y-137516374D01*
X109577973Y-137456048D01*
X109522656Y-137322501D01*
X109506323Y-137283069D01*
X109506322Y-137283067D01*
X109506321Y-137283065D01*
X109402302Y-137127391D01*
X109402299Y-137127387D01*
X109185160Y-136910248D01*
X123949500Y-136910248D01*
X123949500Y-138949753D01*
X123961131Y-139008230D01*
X123961132Y-139008231D01*
X124005447Y-139074553D01*
X124071769Y-139118868D01*
X124071770Y-139118869D01*
X124130247Y-139130500D01*
X124130250Y-139130501D01*
X124130252Y-139130501D01*
X125069750Y-139130501D01*
X125069751Y-139130500D01*
X125084568Y-139127553D01*
X125128229Y-139118869D01*
X125128229Y-139118868D01*
X125128231Y-139118868D01*
X125194552Y-139074553D01*
X125238867Y-139008232D01*
X125238867Y-139008230D01*
X125238868Y-139008230D01*
X125249553Y-138954509D01*
X125250500Y-138949749D01*
X125250500Y-136910253D01*
X125250500Y-136910250D01*
X125250499Y-136910248D01*
X137449500Y-136910248D01*
X137449500Y-138949753D01*
X137461131Y-139008230D01*
X137461132Y-139008231D01*
X137505447Y-139074553D01*
X137571769Y-139118868D01*
X137571770Y-139118869D01*
X137630247Y-139130500D01*
X137630250Y-139130501D01*
X137630252Y-139130501D01*
X138569750Y-139130501D01*
X138569751Y-139130500D01*
X138584568Y-139127553D01*
X138628229Y-139118869D01*
X138628229Y-139118868D01*
X138628231Y-139118868D01*
X138694552Y-139074553D01*
X138738867Y-139008232D01*
X138738867Y-139008230D01*
X138738868Y-139008230D01*
X138749553Y-138954509D01*
X138750500Y-138949749D01*
X138750500Y-136910253D01*
X138750500Y-136910250D01*
X138750499Y-136910248D01*
X138738868Y-136851771D01*
X138738867Y-136851770D01*
X138694552Y-136785448D01*
X138628230Y-136741133D01*
X138628229Y-136741132D01*
X138569752Y-136729501D01*
X138569748Y-136729501D01*
X137630252Y-136729501D01*
X137630247Y-136729501D01*
X137571770Y-136741132D01*
X137571769Y-136741133D01*
X137505447Y-136785448D01*
X137461132Y-136851770D01*
X137461131Y-136851771D01*
X137449500Y-136910248D01*
X125250499Y-136910248D01*
X125238868Y-136851771D01*
X125238867Y-136851770D01*
X125194552Y-136785448D01*
X125128230Y-136741133D01*
X125128229Y-136741132D01*
X125069752Y-136729501D01*
X125069748Y-136729501D01*
X124130252Y-136729501D01*
X124130247Y-136729501D01*
X124071770Y-136741132D01*
X124071769Y-136741133D01*
X124005447Y-136785448D01*
X123961132Y-136851770D01*
X123961131Y-136851771D01*
X123949500Y-136910248D01*
X109185160Y-136910248D01*
X106647615Y-134372703D01*
X106647611Y-134372700D01*
X106491937Y-134268681D01*
X106491934Y-134268680D01*
X106390028Y-134226469D01*
X106390022Y-134226467D01*
X106383532Y-134223779D01*
X106318955Y-134197030D01*
X106221429Y-134177631D01*
X106201268Y-134173620D01*
X106135323Y-134160503D01*
X106135321Y-134160503D01*
X106135320Y-134160503D01*
X104083834Y-134160503D01*
X104016795Y-134140818D01*
X103971040Y-134088014D01*
X103961096Y-134018856D01*
X103990121Y-133955300D01*
X103996153Y-133948822D01*
X104005596Y-133939378D01*
X104005599Y-133939375D01*
X104101631Y-133795653D01*
X104167778Y-133635958D01*
X104171106Y-133619231D01*
X104197521Y-133486430D01*
X104201500Y-133466427D01*
X104201500Y-133293575D01*
X104201500Y-133293572D01*
X104201499Y-133293570D01*
X113876500Y-133293570D01*
X113876500Y-133466431D01*
X113910219Y-133635950D01*
X113910222Y-133635959D01*
X113976369Y-133795653D01*
X113976370Y-133795656D01*
X114072400Y-133939374D01*
X114072403Y-133939378D01*
X114194622Y-134061597D01*
X114194626Y-134061600D01*
X114338344Y-134157630D01*
X114338346Y-134157630D01*
X114338348Y-134157632D01*
X114498043Y-134223779D01*
X114498045Y-134223779D01*
X114498050Y-134223781D01*
X114667569Y-134257500D01*
X114667572Y-134257501D01*
X114667574Y-134257501D01*
X114840428Y-134257501D01*
X114840429Y-134257500D01*
X114909421Y-134243777D01*
X115009949Y-134223781D01*
X115009952Y-134223779D01*
X115009957Y-134223779D01*
X115169652Y-134157632D01*
X115313374Y-134061600D01*
X115435599Y-133939375D01*
X115531631Y-133795653D01*
X115597778Y-133635958D01*
X115601106Y-133619231D01*
X115627521Y-133486430D01*
X115631500Y-133466427D01*
X115631500Y-133293575D01*
X115631500Y-133293572D01*
X115631499Y-133293570D01*
X115597780Y-133124051D01*
X115597777Y-133124042D01*
X115589336Y-133103663D01*
X115531631Y-132964349D01*
X115531629Y-132964347D01*
X115531629Y-132964345D01*
X115435599Y-132820627D01*
X115435596Y-132820623D01*
X115313377Y-132698404D01*
X115313373Y-132698401D01*
X115169655Y-132602371D01*
X115169652Y-132602370D01*
X115009958Y-132536223D01*
X115009949Y-132536220D01*
X114840429Y-132502501D01*
X114840426Y-132502501D01*
X114667574Y-132502501D01*
X114667571Y-132502501D01*
X114498050Y-132536220D01*
X114498041Y-132536223D01*
X114338347Y-132602370D01*
X114338344Y-132602371D01*
X114194626Y-132698401D01*
X114194622Y-132698404D01*
X114072403Y-132820623D01*
X114072400Y-132820627D01*
X113976370Y-132964345D01*
X113976369Y-132964348D01*
X113910222Y-133124042D01*
X113910219Y-133124051D01*
X113876500Y-133293570D01*
X104201499Y-133293570D01*
X104167780Y-133124051D01*
X104167777Y-133124042D01*
X104159336Y-133103663D01*
X104101631Y-132964349D01*
X104101629Y-132964347D01*
X104101629Y-132964345D01*
X104005599Y-132820627D01*
X104005596Y-132820623D01*
X103883377Y-132698404D01*
X103883373Y-132698401D01*
X103739655Y-132602371D01*
X103739652Y-132602370D01*
X103579958Y-132536223D01*
X103579949Y-132536220D01*
X103410429Y-132502501D01*
X103410426Y-132502501D01*
X103237574Y-132502501D01*
X103237571Y-132502501D01*
X103068050Y-132536220D01*
X103068041Y-132536223D01*
X102908347Y-132602370D01*
X102908344Y-132602371D01*
X102764626Y-132698401D01*
X102764622Y-132698404D01*
X102642403Y-132820623D01*
X102642400Y-132820627D01*
X102546370Y-132964345D01*
X102546369Y-132964348D01*
X102480222Y-133124042D01*
X102480219Y-133124051D01*
X102446500Y-133293570D01*
X102446500Y-133466431D01*
X102480219Y-133635950D01*
X102480222Y-133635959D01*
X102546369Y-133795653D01*
X102546370Y-133795656D01*
X102642400Y-133939374D01*
X102642403Y-133939378D01*
X102671846Y-133968821D01*
X102705331Y-134030144D01*
X102700347Y-134099836D01*
X102658475Y-134155769D01*
X102593011Y-134180186D01*
X102584165Y-134180502D01*
X95865834Y-134180502D01*
X95798795Y-134160817D01*
X95753040Y-134108013D01*
X95743096Y-134038855D01*
X95772121Y-133975299D01*
X95778153Y-133968821D01*
X95787596Y-133959377D01*
X95787599Y-133959374D01*
X95883631Y-133815652D01*
X95949778Y-133655957D01*
X95957084Y-133619231D01*
X95983499Y-133486430D01*
X95983500Y-133486428D01*
X95983500Y-133313571D01*
X95983499Y-133313569D01*
X95949780Y-133144050D01*
X95949777Y-133144041D01*
X95941493Y-133124042D01*
X95883631Y-132984348D01*
X95883629Y-132984346D01*
X95883629Y-132984344D01*
X95787599Y-132840626D01*
X95787596Y-132840622D01*
X95665377Y-132718403D01*
X95665373Y-132718400D01*
X95521655Y-132622370D01*
X95521652Y-132622369D01*
X95361958Y-132556222D01*
X95361949Y-132556219D01*
X95192429Y-132522500D01*
X95192426Y-132522500D01*
X95019574Y-132522500D01*
X95019571Y-132522500D01*
X94850050Y-132556219D01*
X94850041Y-132556222D01*
X94690347Y-132622369D01*
X94690344Y-132622370D01*
X94543391Y-132720562D01*
X94533690Y-132723599D01*
X94526011Y-132730254D01*
X94500911Y-132733862D01*
X94476713Y-132741440D01*
X94466913Y-132738751D01*
X94456853Y-132740198D01*
X94433784Y-132729663D01*
X94409333Y-132722955D01*
X94402542Y-132715395D01*
X94393297Y-132711173D01*
X94379587Y-132689841D01*
X94362643Y-132670977D01*
X94360011Y-132659379D01*
X94355523Y-132652395D01*
X94350500Y-132617460D01*
X94350500Y-132488677D01*
X94370185Y-132421638D01*
X94386819Y-132400996D01*
X94400500Y-132387315D01*
X94466392Y-132273187D01*
X94500500Y-132145893D01*
X94500500Y-132014109D01*
X94466392Y-131886815D01*
X94400500Y-131772687D01*
X94307314Y-131679501D01*
X94250250Y-131646555D01*
X94193187Y-131613609D01*
X94129539Y-131596555D01*
X94065892Y-131579501D01*
X93934108Y-131579501D01*
X93806812Y-131613609D01*
X93692686Y-131679501D01*
X93692683Y-131679503D01*
X93599502Y-131772684D01*
X93599500Y-131772687D01*
X93533608Y-131886813D01*
X93499500Y-132014109D01*
X93499500Y-132145892D01*
X93533608Y-132273188D01*
X93566554Y-132330251D01*
X93599500Y-132387315D01*
X93599502Y-132387317D01*
X93613181Y-132400996D01*
X93646666Y-132462319D01*
X93649500Y-132488677D01*
X93649500Y-134056502D01*
X93629815Y-134123541D01*
X93577011Y-134169296D01*
X93525500Y-134180502D01*
X90929717Y-134180502D01*
X90746095Y-134217027D01*
X90746087Y-134217029D01*
X90681511Y-134243778D01*
X90681510Y-134243778D01*
X90573108Y-134288679D01*
X90573105Y-134288680D01*
X90417430Y-134392700D01*
X90417426Y-134392703D01*
X88277700Y-136532429D01*
X88277697Y-136532433D01*
X88173680Y-136688104D01*
X88173675Y-136688113D01*
X88134456Y-136782799D01*
X88102027Y-136861088D01*
X88102024Y-136861097D01*
X88065500Y-137044720D01*
X88065500Y-137914563D01*
X88045815Y-137981602D01*
X87993011Y-138027357D01*
X87923853Y-138037301D01*
X87860297Y-138008276D01*
X87826939Y-137962015D01*
X87801374Y-137900296D01*
X87761632Y-137804348D01*
X87761630Y-137804346D01*
X87761630Y-137804344D01*
X87665600Y-137660626D01*
X87665597Y-137660622D01*
X87543378Y-137538403D01*
X87543374Y-137538400D01*
X87399656Y-137442370D01*
X87399653Y-137442369D01*
X87239959Y-137376222D01*
X87239950Y-137376219D01*
X87070430Y-137342500D01*
X87070427Y-137342500D01*
X86897575Y-137342500D01*
X86897572Y-137342500D01*
X86728051Y-137376219D01*
X86728042Y-137376222D01*
X86568348Y-137442369D01*
X86568345Y-137442370D01*
X86424627Y-137538400D01*
X86424623Y-137538403D01*
X86302404Y-137660622D01*
X86302401Y-137660626D01*
X86206371Y-137804344D01*
X86206370Y-137804347D01*
X86140223Y-137964041D01*
X86140220Y-137964050D01*
X86106501Y-138133569D01*
X86106501Y-138306430D01*
X86140220Y-138475949D01*
X86140223Y-138475958D01*
X86206370Y-138635652D01*
X86206371Y-138635655D01*
X86302401Y-138779373D01*
X86302404Y-138779377D01*
X86424623Y-138901596D01*
X86424627Y-138901599D01*
X86568345Y-138997629D01*
X86568347Y-138997629D01*
X86568349Y-138997631D01*
X86728044Y-139063778D01*
X86728046Y-139063778D01*
X86728051Y-139063780D01*
X86897570Y-139097499D01*
X86897573Y-139097500D01*
X86897575Y-139097500D01*
X87070429Y-139097500D01*
X87070430Y-139097499D01*
X87144248Y-139082816D01*
X87239950Y-139063780D01*
X87239953Y-139063778D01*
X87239958Y-139063778D01*
X87399653Y-138997631D01*
X87543375Y-138901599D01*
X87665600Y-138779374D01*
X87761632Y-138635652D01*
X87827779Y-138475957D01*
X87843256Y-138398145D01*
X87875640Y-138336237D01*
X87936355Y-138301663D01*
X88006125Y-138305402D01*
X88062797Y-138346268D01*
X88086490Y-138398147D01*
X88102025Y-138476246D01*
X88102027Y-138476252D01*
X88173676Y-138649229D01*
X88173681Y-138649238D01*
X88277697Y-138804908D01*
X88277700Y-138804912D01*
X88410088Y-138937300D01*
X88410092Y-138937303D01*
X88472862Y-138979245D01*
X88472864Y-138979246D01*
X88565769Y-139041323D01*
X88738749Y-139112974D01*
X88920871Y-139149200D01*
X88922379Y-139149500D01*
X88922383Y-139149501D01*
X88922384Y-139149501D01*
X89109617Y-139149501D01*
X89109618Y-139149500D01*
X89293251Y-139112974D01*
X89466231Y-139041323D01*
X89621908Y-138937303D01*
X89754302Y-138804909D01*
X89858322Y-138649232D01*
X89929973Y-138476252D01*
X89945509Y-138398142D01*
X89977893Y-138336235D01*
X90038608Y-138301660D01*
X90108378Y-138305399D01*
X90165050Y-138346265D01*
X90188743Y-138398144D01*
X90204220Y-138475949D01*
X90204222Y-138475957D01*
X90270369Y-138635651D01*
X90270370Y-138635654D01*
X90366400Y-138779372D01*
X90366403Y-138779376D01*
X90488622Y-138901595D01*
X90488626Y-138901598D01*
X90632344Y-138997628D01*
X90632346Y-138997628D01*
X90632348Y-138997630D01*
X90792043Y-139063777D01*
X90792045Y-139063777D01*
X90792050Y-139063779D01*
X90961569Y-139097498D01*
X90961572Y-139097499D01*
X90961574Y-139097499D01*
X91134428Y-139097499D01*
X91134429Y-139097498D01*
X91208242Y-139082816D01*
X91303949Y-139063779D01*
X91303952Y-139063777D01*
X91303957Y-139063777D01*
X91463652Y-138997630D01*
X91607374Y-138901598D01*
X91729599Y-138779373D01*
X91825631Y-138635651D01*
X91891778Y-138475956D01*
X91891778Y-138475951D01*
X91891780Y-138475948D01*
X91925499Y-138306429D01*
X91925500Y-138306427D01*
X91925500Y-138133570D01*
X91925499Y-138133568D01*
X92202500Y-138133568D01*
X92202500Y-138306429D01*
X92236219Y-138475948D01*
X92236222Y-138475957D01*
X92302369Y-138635651D01*
X92302370Y-138635654D01*
X92398400Y-138779372D01*
X92398403Y-138779376D01*
X92520622Y-138901595D01*
X92520626Y-138901598D01*
X92664344Y-138997628D01*
X92664346Y-138997628D01*
X92664348Y-138997630D01*
X92824043Y-139063777D01*
X92824045Y-139063777D01*
X92824050Y-139063779D01*
X92993569Y-139097498D01*
X92993572Y-139097499D01*
X93095470Y-139097499D01*
X93162509Y-139117184D01*
X93208264Y-139169988D01*
X93218490Y-139231350D01*
X93218500Y-139231350D01*
X93218500Y-139231411D01*
X93218873Y-139233650D01*
X93218500Y-139237438D01*
X93218500Y-140762558D01*
X93225898Y-140799749D01*
X93254077Y-140841922D01*
X93296250Y-140870101D01*
X93296252Y-140870102D01*
X93324205Y-140875662D01*
X93333441Y-140877500D01*
X93333442Y-140877500D01*
X94858559Y-140877500D01*
X94865957Y-140876028D01*
X94895748Y-140870102D01*
X94937922Y-140841922D01*
X94966102Y-140799748D01*
X94973500Y-140762558D01*
X94973500Y-139237442D01*
X94966102Y-139200252D01*
X94965492Y-139199339D01*
X94937922Y-139158077D01*
X94895749Y-139129898D01*
X94858559Y-139122500D01*
X94858558Y-139122500D01*
X93716761Y-139122500D01*
X93649722Y-139102815D01*
X93603967Y-139050011D01*
X93594023Y-138980853D01*
X93623048Y-138917297D01*
X93638100Y-138902644D01*
X93639371Y-138901599D01*
X93639374Y-138901598D01*
X93761599Y-138779373D01*
X93857631Y-138635651D01*
X93923778Y-138475956D01*
X93923778Y-138475951D01*
X93923780Y-138475948D01*
X93957499Y-138306429D01*
X93957500Y-138306427D01*
X93957500Y-138133570D01*
X93957499Y-138133568D01*
X93923780Y-137964049D01*
X93923777Y-137964041D01*
X93857631Y-137804347D01*
X93857629Y-137804344D01*
X93857629Y-137804343D01*
X93761599Y-137660625D01*
X93761596Y-137660621D01*
X93639377Y-137538402D01*
X93639373Y-137538399D01*
X93495655Y-137442369D01*
X93495652Y-137442368D01*
X93335958Y-137376221D01*
X93335949Y-137376218D01*
X93166429Y-137342499D01*
X93166426Y-137342499D01*
X92993574Y-137342499D01*
X92993571Y-137342499D01*
X92824050Y-137376218D01*
X92824041Y-137376221D01*
X92664347Y-137442368D01*
X92664344Y-137442369D01*
X92520626Y-137538399D01*
X92520622Y-137538402D01*
X92398403Y-137660621D01*
X92398400Y-137660625D01*
X92302370Y-137804343D01*
X92302369Y-137804346D01*
X92236222Y-137964040D01*
X92236219Y-137964049D01*
X92202500Y-138133568D01*
X91925499Y-138133568D01*
X91891780Y-137964049D01*
X91891777Y-137964041D01*
X91825631Y-137804347D01*
X91825629Y-137804344D01*
X91825629Y-137804343D01*
X91729599Y-137660625D01*
X91729596Y-137660621D01*
X91607377Y-137538402D01*
X91607373Y-137538399D01*
X91463655Y-137442369D01*
X91463652Y-137442368D01*
X91303958Y-137376221D01*
X91303949Y-137376218D01*
X91134429Y-137342499D01*
X91134426Y-137342499D01*
X90961574Y-137342499D01*
X90961571Y-137342499D01*
X90792050Y-137376218D01*
X90792041Y-137376221D01*
X90632347Y-137442368D01*
X90632344Y-137442369D01*
X90488626Y-137538399D01*
X90488622Y-137538402D01*
X90366403Y-137660621D01*
X90366400Y-137660625D01*
X90270370Y-137804343D01*
X90270369Y-137804346D01*
X90205061Y-137962016D01*
X90161220Y-138016420D01*
X90094926Y-138038485D01*
X90027227Y-138021206D01*
X89979616Y-137970069D01*
X89966500Y-137914564D01*
X89966500Y-137583413D01*
X89986185Y-137516374D01*
X90002819Y-137495732D01*
X91380730Y-136117821D01*
X91442053Y-136084336D01*
X91468411Y-136081502D01*
X103905620Y-136081502D01*
X103942486Y-136074168D01*
X103994178Y-136063885D01*
X104018369Y-136061503D01*
X105596632Y-136061503D01*
X105663671Y-136081188D01*
X105684313Y-136097822D01*
X106697311Y-137110820D01*
X106730796Y-137172143D01*
X106725812Y-137241835D01*
X106683940Y-137297768D01*
X106618476Y-137322185D01*
X106609630Y-137322501D01*
X106545572Y-137322501D01*
X106376051Y-137356220D01*
X106376042Y-137356223D01*
X106216348Y-137422370D01*
X106216345Y-137422371D01*
X106072627Y-137518401D01*
X106072623Y-137518404D01*
X105950404Y-137640623D01*
X105950401Y-137640627D01*
X105854371Y-137784345D01*
X105854370Y-137784348D01*
X105788223Y-137944042D01*
X105788220Y-137944051D01*
X105754501Y-138113570D01*
X105754501Y-138286431D01*
X105788220Y-138455950D01*
X105788223Y-138455959D01*
X105854370Y-138615653D01*
X105854371Y-138615656D01*
X105950401Y-138759374D01*
X105950404Y-138759378D01*
X106072623Y-138881597D01*
X106072627Y-138881600D01*
X106216345Y-138977630D01*
X106216347Y-138977630D01*
X106216349Y-138977632D01*
X106376044Y-139043779D01*
X106376046Y-139043779D01*
X106376051Y-139043781D01*
X106545570Y-139077500D01*
X106545573Y-139077501D01*
X106545575Y-139077501D01*
X106718429Y-139077501D01*
X106718430Y-139077500D01*
X106787427Y-139063776D01*
X106887950Y-139043781D01*
X106887953Y-139043779D01*
X106887958Y-139043779D01*
X107047653Y-138977632D01*
X107191375Y-138881600D01*
X107313600Y-138759375D01*
X107409632Y-138615653D01*
X107475779Y-138455958D01*
X107491256Y-138378146D01*
X107523640Y-138316238D01*
X107584355Y-138281664D01*
X107654125Y-138285403D01*
X107710797Y-138326269D01*
X107734490Y-138378148D01*
X107750025Y-138456247D01*
X107750027Y-138456253D01*
X107821676Y-138629230D01*
X107821681Y-138629239D01*
X107925697Y-138784909D01*
X107925700Y-138784913D01*
X108058088Y-138917301D01*
X108058092Y-138917304D01*
X108120862Y-138959246D01*
X108120866Y-138959248D01*
X108213769Y-139021324D01*
X108386749Y-139092975D01*
X108570379Y-139129501D01*
X108570383Y-139129502D01*
X108570384Y-139129502D01*
X108757616Y-139129502D01*
X108757978Y-139129430D01*
X108758171Y-139129447D01*
X108763679Y-139128905D01*
X108763781Y-139129949D01*
X108779972Y-139131397D01*
X108801882Y-139128622D01*
X108814093Y-139134448D01*
X108827570Y-139135654D01*
X108845010Y-139149200D01*
X108864941Y-139158711D01*
X108872064Y-139170215D01*
X108882749Y-139178515D01*
X108890096Y-139199339D01*
X108901722Y-139218115D01*
X108901494Y-139231642D01*
X108905997Y-139244403D01*
X108900919Y-139265896D01*
X108900548Y-139287975D01*
X108890950Y-139308088D01*
X108889932Y-139312401D01*
X108885349Y-139319829D01*
X108885273Y-139319943D01*
X108769439Y-139493299D01*
X108697381Y-139667265D01*
X108653540Y-139721668D01*
X108587246Y-139743733D01*
X108519547Y-139726454D01*
X108471936Y-139675317D01*
X108468261Y-139667269D01*
X108425631Y-139564349D01*
X108425629Y-139564347D01*
X108425629Y-139564345D01*
X108329599Y-139420627D01*
X108329596Y-139420623D01*
X108207377Y-139298404D01*
X108207373Y-139298401D01*
X108156560Y-139264448D01*
X108156548Y-139264441D01*
X108063652Y-139202370D01*
X108001305Y-139176545D01*
X108001301Y-139176543D01*
X107903958Y-139136223D01*
X107903949Y-139136220D01*
X107734429Y-139102501D01*
X107734426Y-139102501D01*
X107561574Y-139102501D01*
X107561571Y-139102501D01*
X107392050Y-139136220D01*
X107392041Y-139136223D01*
X107232347Y-139202370D01*
X107232344Y-139202371D01*
X107088626Y-139298401D01*
X107088622Y-139298404D01*
X106966403Y-139420623D01*
X106966400Y-139420627D01*
X106870370Y-139564345D01*
X106870369Y-139564348D01*
X106804222Y-139724042D01*
X106804219Y-139724051D01*
X106770500Y-139893570D01*
X106770500Y-140066431D01*
X106804219Y-140235950D01*
X106804222Y-140235959D01*
X106870369Y-140395653D01*
X106870370Y-140395656D01*
X106966400Y-140539374D01*
X106966403Y-140539378D01*
X107088622Y-140661597D01*
X107088626Y-140661600D01*
X107232344Y-140757630D01*
X107232346Y-140757630D01*
X107232348Y-140757632D01*
X107392043Y-140823779D01*
X107392045Y-140823779D01*
X107392050Y-140823781D01*
X107561569Y-140857500D01*
X107561572Y-140857501D01*
X107561574Y-140857501D01*
X107734428Y-140857501D01*
X107734429Y-140857500D01*
X107803421Y-140843777D01*
X107903949Y-140823781D01*
X107903952Y-140823779D01*
X107903957Y-140823779D01*
X108063652Y-140757632D01*
X108207374Y-140661600D01*
X108329599Y-140539375D01*
X108425631Y-140395653D01*
X108468260Y-140292734D01*
X108512099Y-140238334D01*
X108578393Y-140216268D01*
X108646092Y-140233547D01*
X108693703Y-140284683D01*
X108697381Y-140292737D01*
X108769438Y-140466700D01*
X108769439Y-140466702D01*
X108881888Y-140634993D01*
X108881891Y-140634997D01*
X109037476Y-140790582D01*
X109070961Y-140851905D01*
X109065977Y-140921597D01*
X109037476Y-140965944D01*
X108242592Y-141760829D01*
X107535009Y-142468412D01*
X107535007Y-142468414D01*
X107463446Y-142539974D01*
X107391886Y-142611534D01*
X107279444Y-142779815D01*
X107279439Y-142779824D01*
X107201986Y-142966814D01*
X107201984Y-142966822D01*
X107162500Y-143165321D01*
X107162500Y-146803673D01*
X107148985Y-146859966D01*
X107132635Y-146892054D01*
X107070620Y-147013764D01*
X107070619Y-147013767D01*
X107013445Y-147189734D01*
X107013445Y-147189736D01*
X106984500Y-147372486D01*
X106984500Y-147557514D01*
X106991916Y-147604334D01*
X107013445Y-147740265D01*
X107038437Y-147817183D01*
X107040432Y-147887024D01*
X107004352Y-147946857D01*
X106941651Y-147977685D01*
X106920506Y-147979501D01*
X81006962Y-147979501D01*
X80993078Y-147978721D01*
X80980553Y-147977309D01*
X80902735Y-147968541D01*
X80875666Y-147962363D01*
X80796460Y-147934648D01*
X80771443Y-147922600D01*
X80700399Y-147877961D01*
X80678688Y-147860648D01*
X80619352Y-147801311D01*
X80602043Y-147779607D01*
X80557394Y-147708550D01*
X80545350Y-147683538D01*
X80517636Y-147604333D01*
X80511458Y-147577263D01*
X80501280Y-147486929D01*
X80500500Y-147473046D01*
X80500500Y-142416803D01*
X82306500Y-142416803D01*
X82306500Y-142663196D01*
X82321854Y-142779815D01*
X82338659Y-142907459D01*
X82354565Y-142966822D01*
X82402425Y-143145440D01*
X82496708Y-143373058D01*
X82496712Y-143373068D01*
X82619899Y-143586434D01*
X82769883Y-143781898D01*
X82769889Y-143781905D01*
X82944094Y-143956110D01*
X82944101Y-143956116D01*
X83139565Y-144106100D01*
X83352931Y-144229287D01*
X83352932Y-144229287D01*
X83352935Y-144229289D01*
X83580558Y-144323574D01*
X83818541Y-144387341D01*
X84062811Y-144419500D01*
X84062818Y-144419500D01*
X84309182Y-144419500D01*
X84309189Y-144419500D01*
X84553459Y-144387341D01*
X84791442Y-144323574D01*
X85019065Y-144229289D01*
X85232435Y-144106100D01*
X85427900Y-143956115D01*
X85602115Y-143781900D01*
X85752100Y-143586435D01*
X85875289Y-143373065D01*
X85969574Y-143145442D01*
X86033341Y-142907459D01*
X86065500Y-142663189D01*
X86065500Y-142416811D01*
X86065499Y-142416803D01*
X95006500Y-142416803D01*
X95006500Y-142663196D01*
X95021854Y-142779815D01*
X95038659Y-142907459D01*
X95054565Y-142966822D01*
X95102425Y-143145440D01*
X95196708Y-143373058D01*
X95196712Y-143373068D01*
X95319899Y-143586434D01*
X95469883Y-143781898D01*
X95469889Y-143781905D01*
X95644094Y-143956110D01*
X95644101Y-143956116D01*
X95839565Y-144106100D01*
X96052931Y-144229287D01*
X96052932Y-144229287D01*
X96052935Y-144229289D01*
X96280558Y-144323574D01*
X96518541Y-144387341D01*
X96762811Y-144419500D01*
X96762818Y-144419500D01*
X97009182Y-144419500D01*
X97009189Y-144419500D01*
X97253459Y-144387341D01*
X97491442Y-144323574D01*
X97719065Y-144229289D01*
X97932435Y-144106100D01*
X98127900Y-143956115D01*
X98302115Y-143781900D01*
X98452100Y-143586435D01*
X98575289Y-143373065D01*
X98669574Y-143145442D01*
X98733341Y-142907459D01*
X98765500Y-142663189D01*
X98765500Y-142416811D01*
X98762866Y-142396804D01*
X101954500Y-142396804D01*
X101954500Y-142643197D01*
X101972487Y-142779815D01*
X101986659Y-142887460D01*
X102007922Y-142966814D01*
X102050425Y-143125441D01*
X102144708Y-143353059D01*
X102144712Y-143353069D01*
X102267899Y-143566435D01*
X102417883Y-143761899D01*
X102417889Y-143761906D01*
X102592094Y-143936111D01*
X102592101Y-143936117D01*
X102787565Y-144086101D01*
X103000931Y-144209288D01*
X103000932Y-144209288D01*
X103000935Y-144209290D01*
X103228558Y-144303575D01*
X103466541Y-144367342D01*
X103710811Y-144399501D01*
X103710818Y-144399501D01*
X103957182Y-144399501D01*
X103957189Y-144399501D01*
X104201459Y-144367342D01*
X104439442Y-144303575D01*
X104667065Y-144209290D01*
X104880435Y-144086101D01*
X105075900Y-143936116D01*
X105250115Y-143761901D01*
X105400100Y-143566436D01*
X105523289Y-143353066D01*
X105617574Y-143125443D01*
X105681341Y-142887460D01*
X105713500Y-142643190D01*
X105713500Y-142396812D01*
X105681341Y-142152542D01*
X105617574Y-141914559D01*
X105523289Y-141686936D01*
X105400100Y-141473566D01*
X105250116Y-141278102D01*
X105250110Y-141278095D01*
X105075905Y-141103890D01*
X105075898Y-141103884D01*
X104880434Y-140953900D01*
X104667068Y-140830713D01*
X104667058Y-140830709D01*
X104439440Y-140736426D01*
X104276100Y-140692660D01*
X104201459Y-140672660D01*
X104160636Y-140667285D01*
X103957196Y-140640501D01*
X103957189Y-140640501D01*
X103710811Y-140640501D01*
X103710803Y-140640501D01*
X103478299Y-140671111D01*
X103466541Y-140672660D01*
X103433191Y-140681596D01*
X103228559Y-140736426D01*
X103000941Y-140830709D01*
X103000931Y-140830713D01*
X102787565Y-140953900D01*
X102592101Y-141103884D01*
X102592094Y-141103890D01*
X102417889Y-141278095D01*
X102417883Y-141278102D01*
X102267899Y-141473566D01*
X102144712Y-141686932D01*
X102144708Y-141686942D01*
X102050425Y-141914560D01*
X101986660Y-142152539D01*
X101986658Y-142152550D01*
X101954500Y-142396804D01*
X98762866Y-142396804D01*
X98733341Y-142172541D01*
X98669574Y-141934558D01*
X98575289Y-141706935D01*
X98563740Y-141686932D01*
X98452100Y-141493565D01*
X98302116Y-141298101D01*
X98302110Y-141298094D01*
X98127905Y-141123889D01*
X98127898Y-141123883D01*
X97932434Y-140973899D01*
X97719068Y-140850712D01*
X97719058Y-140850708D01*
X97491440Y-140756425D01*
X97372450Y-140724542D01*
X97253459Y-140692659D01*
X97212636Y-140687284D01*
X97009196Y-140660500D01*
X97009189Y-140660500D01*
X96762811Y-140660500D01*
X96762803Y-140660500D01*
X96530299Y-140691110D01*
X96518541Y-140692659D01*
X96468246Y-140706135D01*
X96280559Y-140756425D01*
X96052941Y-140850708D01*
X96052931Y-140850712D01*
X95839565Y-140973899D01*
X95644101Y-141123883D01*
X95644094Y-141123889D01*
X95469889Y-141298094D01*
X95469883Y-141298101D01*
X95319899Y-141493565D01*
X95196712Y-141706931D01*
X95196708Y-141706941D01*
X95102425Y-141934559D01*
X95076664Y-142030704D01*
X95044019Y-142152539D01*
X95038660Y-142172538D01*
X95038658Y-142172549D01*
X95006500Y-142416803D01*
X86065499Y-142416803D01*
X86033341Y-142172541D01*
X85969574Y-141934558D01*
X85875289Y-141706935D01*
X85863740Y-141686932D01*
X85752100Y-141493565D01*
X85602116Y-141298101D01*
X85602110Y-141298094D01*
X85427905Y-141123889D01*
X85427898Y-141123883D01*
X85232434Y-140973899D01*
X85019068Y-140850712D01*
X85019058Y-140850708D01*
X84791440Y-140756425D01*
X84672450Y-140724542D01*
X84553459Y-140692659D01*
X84512636Y-140687284D01*
X84309196Y-140660500D01*
X84309189Y-140660500D01*
X84062811Y-140660500D01*
X84062803Y-140660500D01*
X83830299Y-140691110D01*
X83818541Y-140692659D01*
X83768246Y-140706135D01*
X83580559Y-140756425D01*
X83352941Y-140850708D01*
X83352931Y-140850712D01*
X83139565Y-140973899D01*
X82944101Y-141123883D01*
X82944094Y-141123889D01*
X82769889Y-141298094D01*
X82769883Y-141298101D01*
X82619899Y-141493565D01*
X82496712Y-141706931D01*
X82496708Y-141706941D01*
X82402425Y-141934559D01*
X82376664Y-142030704D01*
X82344019Y-142152539D01*
X82338660Y-142172538D01*
X82338658Y-142172549D01*
X82306500Y-142416803D01*
X80500500Y-142416803D01*
X80500500Y-139913569D01*
X87122500Y-139913569D01*
X87122500Y-140086430D01*
X87156219Y-140255949D01*
X87156222Y-140255958D01*
X87222369Y-140415652D01*
X87222370Y-140415655D01*
X87318400Y-140559373D01*
X87318403Y-140559377D01*
X87440622Y-140681596D01*
X87440626Y-140681599D01*
X87584344Y-140777629D01*
X87584346Y-140777629D01*
X87584348Y-140777631D01*
X87744043Y-140843778D01*
X87744045Y-140843778D01*
X87744050Y-140843780D01*
X87913569Y-140877499D01*
X87913572Y-140877500D01*
X87913574Y-140877500D01*
X88086428Y-140877500D01*
X88086429Y-140877499D01*
X88142936Y-140866259D01*
X88255949Y-140843780D01*
X88255952Y-140843778D01*
X88255957Y-140843778D01*
X88415652Y-140777631D01*
X88559374Y-140681599D01*
X88681599Y-140559374D01*
X88777631Y-140415652D01*
X88843778Y-140255957D01*
X88847284Y-140238334D01*
X88877499Y-140086430D01*
X88877500Y-140086428D01*
X88877500Y-139913571D01*
X88877499Y-139913569D01*
X89154500Y-139913569D01*
X89154500Y-140086430D01*
X89188219Y-140255949D01*
X89188222Y-140255958D01*
X89254369Y-140415652D01*
X89254370Y-140415655D01*
X89350400Y-140559373D01*
X89350403Y-140559377D01*
X89472622Y-140681596D01*
X89472626Y-140681599D01*
X89616344Y-140777629D01*
X89616346Y-140777629D01*
X89616348Y-140777631D01*
X89776043Y-140843778D01*
X89776045Y-140843778D01*
X89776050Y-140843780D01*
X89945569Y-140877499D01*
X89945572Y-140877500D01*
X89945574Y-140877500D01*
X90118428Y-140877500D01*
X90118429Y-140877499D01*
X90174936Y-140866259D01*
X90287949Y-140843780D01*
X90287952Y-140843778D01*
X90287957Y-140843778D01*
X90447652Y-140777631D01*
X90591374Y-140681599D01*
X90713599Y-140559374D01*
X90809631Y-140415652D01*
X90875778Y-140255957D01*
X90879284Y-140238334D01*
X90909499Y-140086430D01*
X90909500Y-140086428D01*
X90909500Y-139913571D01*
X90909499Y-139913569D01*
X90875780Y-139744050D01*
X90875777Y-139744041D01*
X90809631Y-139584348D01*
X90809629Y-139584346D01*
X90809629Y-139584344D01*
X90713599Y-139440626D01*
X90713596Y-139440622D01*
X90591377Y-139318403D01*
X90591373Y-139318400D01*
X90447655Y-139222370D01*
X90447652Y-139222369D01*
X90287958Y-139156222D01*
X90287949Y-139156219D01*
X90118429Y-139122500D01*
X90118426Y-139122500D01*
X89945574Y-139122500D01*
X89945571Y-139122500D01*
X89776050Y-139156219D01*
X89776046Y-139156221D01*
X89776044Y-139156221D01*
X89776043Y-139156222D01*
X89770034Y-139158711D01*
X89678693Y-139196544D01*
X89678685Y-139196548D01*
X89616348Y-139222369D01*
X89523459Y-139284435D01*
X89523435Y-139284449D01*
X89472628Y-139318398D01*
X89472622Y-139318403D01*
X89350403Y-139440622D01*
X89350400Y-139440626D01*
X89254370Y-139584344D01*
X89254369Y-139584347D01*
X89188222Y-139744041D01*
X89188219Y-139744050D01*
X89154500Y-139913569D01*
X88877499Y-139913569D01*
X88843780Y-139744050D01*
X88843777Y-139744041D01*
X88777631Y-139584348D01*
X88777629Y-139584346D01*
X88777629Y-139584344D01*
X88681599Y-139440626D01*
X88681596Y-139440622D01*
X88559377Y-139318403D01*
X88559373Y-139318400D01*
X88508560Y-139284447D01*
X88508548Y-139284440D01*
X88415652Y-139222369D01*
X88353305Y-139196544D01*
X88353301Y-139196542D01*
X88255958Y-139156222D01*
X88255949Y-139156219D01*
X88086429Y-139122500D01*
X88086426Y-139122500D01*
X87913574Y-139122500D01*
X87913571Y-139122500D01*
X87744050Y-139156219D01*
X87744041Y-139156222D01*
X87584347Y-139222369D01*
X87584344Y-139222370D01*
X87440626Y-139318400D01*
X87440622Y-139318403D01*
X87318403Y-139440622D01*
X87318400Y-139440626D01*
X87222370Y-139584344D01*
X87222369Y-139584347D01*
X87156222Y-139744041D01*
X87156219Y-139744050D01*
X87122500Y-139913569D01*
X80500500Y-139913569D01*
X80500500Y-133313569D01*
X82798500Y-133313569D01*
X82798500Y-133486430D01*
X82832219Y-133655949D01*
X82832222Y-133655958D01*
X82898369Y-133815652D01*
X82898370Y-133815655D01*
X82994400Y-133959373D01*
X82994403Y-133959377D01*
X83116622Y-134081596D01*
X83116626Y-134081599D01*
X83260344Y-134177629D01*
X83260346Y-134177629D01*
X83260348Y-134177631D01*
X83420043Y-134243778D01*
X83420045Y-134243778D01*
X83420050Y-134243780D01*
X83589569Y-134277499D01*
X83589572Y-134277500D01*
X83589574Y-134277500D01*
X83762428Y-134277500D01*
X83762429Y-134277499D01*
X83818936Y-134266259D01*
X83931949Y-134243780D01*
X83931952Y-134243778D01*
X83931957Y-134243778D01*
X84091652Y-134177631D01*
X84235374Y-134081599D01*
X84357599Y-133959374D01*
X84453631Y-133815652D01*
X84519778Y-133655957D01*
X84527084Y-133619231D01*
X84553499Y-133486430D01*
X84553500Y-133486428D01*
X84553500Y-133313571D01*
X84553499Y-133313569D01*
X84519780Y-133144050D01*
X84519777Y-133144041D01*
X84511493Y-133124042D01*
X84453631Y-132984348D01*
X84453629Y-132984346D01*
X84453629Y-132984344D01*
X84357599Y-132840626D01*
X84357596Y-132840622D01*
X84235377Y-132718403D01*
X84235373Y-132718400D01*
X84091655Y-132622370D01*
X84091652Y-132622369D01*
X83931958Y-132556222D01*
X83931949Y-132556219D01*
X83762429Y-132522500D01*
X83762426Y-132522500D01*
X83589574Y-132522500D01*
X83589571Y-132522500D01*
X83420050Y-132556219D01*
X83420041Y-132556222D01*
X83260347Y-132622369D01*
X83260344Y-132622370D01*
X83116626Y-132718400D01*
X83116622Y-132718403D01*
X82994403Y-132840622D01*
X82994400Y-132840626D01*
X82898370Y-132984344D01*
X82898369Y-132984347D01*
X82832222Y-133144041D01*
X82832219Y-133144050D01*
X82798500Y-133313569D01*
X80500500Y-133313569D01*
X80500500Y-129846816D01*
X91298250Y-129846816D01*
X91298250Y-129985182D01*
X91333166Y-130115489D01*
X91334062Y-130118834D01*
X91334063Y-130118837D01*
X91403242Y-130238660D01*
X91403244Y-130238663D01*
X91403245Y-130238664D01*
X91501085Y-130336504D01*
X91620914Y-130405687D01*
X91754567Y-130441499D01*
X91754569Y-130441499D01*
X91892931Y-130441499D01*
X91892933Y-130441499D01*
X92026586Y-130405687D01*
X92146415Y-130336504D01*
X92244255Y-130238664D01*
X92313438Y-130118835D01*
X92313437Y-130118835D01*
X92317502Y-130111796D01*
X92318789Y-130112539D01*
X92356984Y-130065144D01*
X92423278Y-130043079D01*
X92427704Y-130043000D01*
X92724169Y-130043000D01*
X92791208Y-130062685D01*
X92836963Y-130115489D01*
X92843944Y-130134906D01*
X92853402Y-130170206D01*
X92853403Y-130170207D01*
X92922582Y-130290030D01*
X92922584Y-130290033D01*
X92922585Y-130290034D01*
X93020425Y-130387874D01*
X93020426Y-130387875D01*
X93020428Y-130387876D01*
X93051276Y-130405686D01*
X93140254Y-130457057D01*
X93273907Y-130492869D01*
X93273909Y-130492869D01*
X93412271Y-130492869D01*
X93412273Y-130492869D01*
X93545926Y-130457057D01*
X93665755Y-130387874D01*
X93763595Y-130290034D01*
X93832778Y-130170205D01*
X93868590Y-130036552D01*
X93868590Y-129917955D01*
X93888275Y-129850916D01*
X93941079Y-129805161D01*
X93955390Y-129800016D01*
X93958580Y-129798693D01*
X93958586Y-129798692D01*
X94078415Y-129729509D01*
X94176255Y-129631669D01*
X94245438Y-129511840D01*
X94281250Y-129378187D01*
X94281250Y-129239821D01*
X94245438Y-129106168D01*
X94176255Y-128986339D01*
X94078415Y-128888499D01*
X94078414Y-128888498D01*
X94078411Y-128888496D01*
X93958588Y-128819317D01*
X93958587Y-128819316D01*
X93958586Y-128819316D01*
X93824933Y-128783504D01*
X93686567Y-128783504D01*
X93552914Y-128819316D01*
X93552911Y-128819317D01*
X93433088Y-128888496D01*
X93433083Y-128888500D01*
X93335903Y-128985681D01*
X93274580Y-129019166D01*
X93248222Y-129022000D01*
X92471997Y-129022000D01*
X92404958Y-129002315D01*
X92359203Y-128949511D01*
X92357454Y-128944646D01*
X92357243Y-128944734D01*
X92354135Y-128937232D01*
X92354134Y-128937227D01*
X92286059Y-128819317D01*
X92284953Y-128817401D01*
X92284949Y-128817396D01*
X92187112Y-128719559D01*
X92187107Y-128719555D01*
X92067284Y-128650376D01*
X92067283Y-128650375D01*
X92067282Y-128650375D01*
X91933629Y-128614563D01*
X91795263Y-128614563D01*
X91661610Y-128650375D01*
X91661607Y-128650376D01*
X91541784Y-128719555D01*
X91541779Y-128719559D01*
X91443942Y-128817396D01*
X91443938Y-128817401D01*
X91374759Y-128937224D01*
X91374758Y-128937227D01*
X91338946Y-129070880D01*
X91338946Y-129209246D01*
X91363398Y-129300500D01*
X91374758Y-129342898D01*
X91374759Y-129342901D01*
X91429276Y-129437327D01*
X91445749Y-129505227D01*
X91422896Y-129571254D01*
X91409574Y-129587005D01*
X91403244Y-129593334D01*
X91403242Y-129593337D01*
X91334063Y-129713160D01*
X91334062Y-129713163D01*
X91298250Y-129846816D01*
X80500500Y-129846816D01*
X80500500Y-128183856D01*
X108849499Y-128183856D01*
X108849499Y-128368883D01*
X108878444Y-128551635D01*
X108935618Y-128727602D01*
X108935619Y-128727605D01*
X109018766Y-128890788D01*
X109019621Y-128892466D01*
X109128378Y-129042157D01*
X109259212Y-129172991D01*
X109408903Y-129281748D01*
X109445706Y-129300500D01*
X109573763Y-129365749D01*
X109573766Y-129365750D01*
X109661749Y-129394337D01*
X109749735Y-129422925D01*
X109932485Y-129451870D01*
X109932486Y-129451870D01*
X110117512Y-129451870D01*
X110117513Y-129451870D01*
X110300263Y-129422925D01*
X110476234Y-129365749D01*
X110641095Y-129281748D01*
X110790786Y-129172991D01*
X110921620Y-129042157D01*
X111030377Y-128892466D01*
X111114378Y-128727605D01*
X111171554Y-128551634D01*
X111172319Y-128546806D01*
X111202245Y-128483670D01*
X111207094Y-128478535D01*
X111653143Y-128032486D01*
X116224500Y-128032486D01*
X116224500Y-128037589D01*
X116224500Y-128217513D01*
X116253445Y-128400265D01*
X116310619Y-128576232D01*
X116310620Y-128576235D01*
X116383646Y-128719555D01*
X116394622Y-128741096D01*
X116503379Y-128890787D01*
X116634213Y-129021621D01*
X116783904Y-129130378D01*
X116864763Y-129171577D01*
X116948764Y-129214379D01*
X116948767Y-129214380D01*
X117027068Y-129239821D01*
X117124736Y-129271555D01*
X117307486Y-129300500D01*
X117307487Y-129300500D01*
X117379040Y-129300500D01*
X117446079Y-129320185D01*
X117491834Y-129372989D01*
X117501778Y-129442147D01*
X117479360Y-129497383D01*
X117474623Y-129503903D01*
X117390620Y-129668765D01*
X117390619Y-129668768D01*
X117333445Y-129844735D01*
X117304500Y-130027487D01*
X117304500Y-130212514D01*
X117333445Y-130395266D01*
X117390619Y-130571233D01*
X117390620Y-130571236D01*
X117474454Y-130735768D01*
X117474622Y-130736097D01*
X117583379Y-130885788D01*
X117714213Y-131016622D01*
X117863904Y-131125379D01*
X117944763Y-131166578D01*
X118028764Y-131209380D01*
X118028767Y-131209381D01*
X118116750Y-131237968D01*
X118204736Y-131266556D01*
X118387486Y-131295501D01*
X118387487Y-131295501D01*
X118572513Y-131295501D01*
X118572514Y-131295501D01*
X118755264Y-131266556D01*
X118931235Y-131209380D01*
X119096096Y-131125379D01*
X119245787Y-131016622D01*
X119376621Y-130885788D01*
X119485378Y-130736097D01*
X119569379Y-130571236D01*
X119570391Y-130568120D01*
X119585220Y-130537542D01*
X119655941Y-130431702D01*
X119735130Y-130240524D01*
X119775500Y-130037569D01*
X119775500Y-127161492D01*
X119795185Y-127094453D01*
X119811814Y-127073816D01*
X121948811Y-124936818D01*
X122010134Y-124903334D01*
X122036492Y-124900500D01*
X122221450Y-124900500D01*
X122221457Y-124900500D01*
X122442463Y-124871404D01*
X122657781Y-124813710D01*
X122863726Y-124728405D01*
X123056774Y-124616948D01*
X123233624Y-124481247D01*
X123391247Y-124323624D01*
X123526948Y-124146774D01*
X123638405Y-123953726D01*
X123723710Y-123747781D01*
X123781404Y-123532463D01*
X123810500Y-123311457D01*
X123810500Y-123088543D01*
X123781404Y-122867537D01*
X123723710Y-122652219D01*
X123638405Y-122446274D01*
X123526948Y-122253226D01*
X123391247Y-122076376D01*
X123391242Y-122076370D01*
X123233629Y-121918757D01*
X123233622Y-121918751D01*
X123056782Y-121783058D01*
X123056780Y-121783057D01*
X123056774Y-121783052D01*
X122863726Y-121671595D01*
X122863722Y-121671593D01*
X122657790Y-121586293D01*
X122657783Y-121586291D01*
X122657781Y-121586290D01*
X122442463Y-121528596D01*
X122442457Y-121528595D01*
X122442452Y-121528594D01*
X122221466Y-121499501D01*
X122221463Y-121499500D01*
X122221457Y-121499500D01*
X121998543Y-121499500D01*
X121998537Y-121499500D01*
X121998533Y-121499501D01*
X121777547Y-121528594D01*
X121777540Y-121528595D01*
X121777537Y-121528596D01*
X121562219Y-121586290D01*
X121562209Y-121586293D01*
X121356277Y-121671593D01*
X121356273Y-121671595D01*
X121163226Y-121783052D01*
X121163217Y-121783058D01*
X120986377Y-121918751D01*
X120986370Y-121918757D01*
X120927681Y-121977447D01*
X120866358Y-122010932D01*
X120796666Y-122005948D01*
X120752319Y-121977447D01*
X120693629Y-121918757D01*
X120693622Y-121918751D01*
X120516782Y-121783058D01*
X120516780Y-121783057D01*
X120516774Y-121783052D01*
X120323726Y-121671595D01*
X120323722Y-121671593D01*
X120117790Y-121586293D01*
X120117783Y-121586291D01*
X120117781Y-121586290D01*
X119902463Y-121528596D01*
X119902457Y-121528595D01*
X119902452Y-121528594D01*
X119681466Y-121499501D01*
X119681463Y-121499500D01*
X119681457Y-121499500D01*
X119458543Y-121499500D01*
X119458537Y-121499500D01*
X119458533Y-121499501D01*
X119237547Y-121528594D01*
X119237540Y-121528595D01*
X119237537Y-121528596D01*
X119022219Y-121586290D01*
X119022209Y-121586293D01*
X118816277Y-121671593D01*
X118816273Y-121671595D01*
X118623226Y-121783052D01*
X118623217Y-121783058D01*
X118446377Y-121918751D01*
X118446370Y-121918757D01*
X118288757Y-122076370D01*
X118288751Y-122076377D01*
X118153058Y-122253217D01*
X118153052Y-122253226D01*
X118041595Y-122446273D01*
X118041593Y-122446277D01*
X117956293Y-122652209D01*
X117956290Y-122652219D01*
X117901828Y-122855477D01*
X117898597Y-122867534D01*
X117898594Y-122867547D01*
X117869501Y-123088533D01*
X117869500Y-123088549D01*
X117869500Y-123311450D01*
X117869501Y-123311467D01*
X117894489Y-123501270D01*
X117883723Y-123570305D01*
X117859231Y-123605136D01*
X117210909Y-124253459D01*
X116640347Y-124824021D01*
X116640345Y-124824023D01*
X116592966Y-124871402D01*
X116494023Y-124970344D01*
X116379058Y-125142403D01*
X116299870Y-125333579D01*
X116299868Y-125333587D01*
X116259500Y-125536530D01*
X116259500Y-127811460D01*
X116258100Y-127820295D01*
X116257906Y-127831280D01*
X116256380Y-127840701D01*
X116253445Y-127849736D01*
X116224500Y-128032486D01*
X111653143Y-128032486D01*
X114465977Y-125219655D01*
X114580942Y-125047598D01*
X114660130Y-124856420D01*
X114685594Y-124728405D01*
X114700501Y-124653467D01*
X114700501Y-124441425D01*
X114700500Y-124441399D01*
X114700500Y-123688050D01*
X114714016Y-123631754D01*
X114739377Y-123581981D01*
X114739380Y-123581973D01*
X114755466Y-123532465D01*
X114796555Y-123406005D01*
X114825500Y-123223255D01*
X114825500Y-123038227D01*
X114796555Y-122855477D01*
X114739379Y-122679506D01*
X114739379Y-122679505D01*
X114655377Y-122514644D01*
X114546621Y-122364954D01*
X114415787Y-122234120D01*
X114266096Y-122125363D01*
X114101235Y-122041361D01*
X114101232Y-122041360D01*
X113925265Y-121984186D01*
X113833889Y-121969713D01*
X113742514Y-121955241D01*
X113557486Y-121955241D01*
X113496569Y-121964889D01*
X113374734Y-121984186D01*
X113198767Y-122041360D01*
X113198764Y-122041361D01*
X113033903Y-122125363D01*
X112948499Y-122187413D01*
X112884213Y-122234120D01*
X112884211Y-122234122D01*
X112884210Y-122234122D01*
X112753381Y-122364951D01*
X112753381Y-122364952D01*
X112753379Y-122364954D01*
X112720487Y-122410226D01*
X112644622Y-122514644D01*
X112560620Y-122679505D01*
X112560619Y-122679508D01*
X112503445Y-122855475D01*
X112474500Y-123038227D01*
X112474500Y-123223254D01*
X112503445Y-123406006D01*
X112560619Y-123581973D01*
X112560622Y-123581981D01*
X112585984Y-123631754D01*
X112599500Y-123688050D01*
X112599500Y-124063506D01*
X112579815Y-124130545D01*
X112563181Y-124151187D01*
X109493077Y-127221290D01*
X109461694Y-127244092D01*
X109408903Y-127270991D01*
X109312134Y-127341298D01*
X109259212Y-127379749D01*
X109259210Y-127379751D01*
X109259209Y-127379751D01*
X109128380Y-127510580D01*
X109128380Y-127510581D01*
X109128378Y-127510583D01*
X109081671Y-127574869D01*
X109019621Y-127660273D01*
X108935619Y-127825134D01*
X108935618Y-127825137D01*
X108878444Y-128001104D01*
X108849499Y-128183856D01*
X80500500Y-128183856D01*
X80500500Y-124859041D01*
X81549500Y-124859041D01*
X81549500Y-125140958D01*
X81586295Y-125420439D01*
X81659259Y-125692743D01*
X81767135Y-125953179D01*
X81767140Y-125953190D01*
X81908083Y-126197309D01*
X81908088Y-126197317D01*
X82079700Y-126420965D01*
X82079704Y-126420970D01*
X82279029Y-126620295D01*
X82279033Y-126620298D01*
X82279035Y-126620300D01*
X82502683Y-126791912D01*
X82502690Y-126791916D01*
X82746809Y-126932859D01*
X82746814Y-126932861D01*
X82746817Y-126932863D01*
X83007261Y-127040742D01*
X83279558Y-127113704D01*
X83559049Y-127150500D01*
X83559056Y-127150500D01*
X83840944Y-127150500D01*
X83840951Y-127150500D01*
X84120442Y-127113704D01*
X84392739Y-127040742D01*
X84653183Y-126932863D01*
X84897317Y-126791912D01*
X85120965Y-126620300D01*
X85320300Y-126420965D01*
X85491912Y-126197317D01*
X85632863Y-125953183D01*
X85740742Y-125692739D01*
X85813704Y-125420442D01*
X85850500Y-125140951D01*
X85850500Y-124859049D01*
X85813704Y-124579558D01*
X85740742Y-124307261D01*
X85632863Y-124046817D01*
X85632861Y-124046814D01*
X85632859Y-124046809D01*
X85491916Y-123802690D01*
X85491912Y-123802683D01*
X85320300Y-123579035D01*
X85320298Y-123579033D01*
X85320295Y-123579029D01*
X85120970Y-123379704D01*
X85120965Y-123379700D01*
X84897317Y-123208088D01*
X84897311Y-123208084D01*
X84897309Y-123208083D01*
X84653190Y-123067140D01*
X84653179Y-123067135D01*
X84392743Y-122959259D01*
X84120439Y-122886295D01*
X83840958Y-122849500D01*
X83840951Y-122849500D01*
X83559049Y-122849500D01*
X83559041Y-122849500D01*
X83279560Y-122886295D01*
X83007256Y-122959259D01*
X82746820Y-123067135D01*
X82746809Y-123067140D01*
X82502690Y-123208083D01*
X82502684Y-123208087D01*
X82502683Y-123208088D01*
X82482917Y-123223255D01*
X82279029Y-123379704D01*
X82079704Y-123579029D01*
X82039247Y-123631754D01*
X81910617Y-123799388D01*
X81908089Y-123802682D01*
X81908083Y-123802690D01*
X81767140Y-124046809D01*
X81767135Y-124046820D01*
X81659259Y-124307256D01*
X81586295Y-124579560D01*
X81549500Y-124859041D01*
X80500500Y-124859041D01*
X80500500Y-121382486D01*
X104124500Y-121382486D01*
X104124500Y-121567513D01*
X104153445Y-121750265D01*
X104210619Y-121926232D01*
X104210620Y-121926235D01*
X104269281Y-122041362D01*
X104294622Y-122091096D01*
X104403379Y-122240787D01*
X104534213Y-122371621D01*
X104683904Y-122480378D01*
X104751155Y-122514644D01*
X104848764Y-122564379D01*
X104848767Y-122564380D01*
X104936750Y-122592967D01*
X105024736Y-122621555D01*
X105207486Y-122650500D01*
X105207487Y-122650500D01*
X105392513Y-122650500D01*
X105392514Y-122650500D01*
X105575264Y-122621555D01*
X105751235Y-122564379D01*
X105916096Y-122480378D01*
X106002114Y-122417881D01*
X106067920Y-122394401D01*
X106135974Y-122410226D01*
X106147880Y-122417877D01*
X106233905Y-122480378D01*
X106301156Y-122514644D01*
X106398765Y-122564379D01*
X106398768Y-122564380D01*
X106486751Y-122592967D01*
X106574737Y-122621555D01*
X106757487Y-122650500D01*
X106757488Y-122650500D01*
X106942514Y-122650500D01*
X106942515Y-122650500D01*
X107125265Y-122621555D01*
X107301236Y-122564379D01*
X107466097Y-122480378D01*
X107615788Y-122371621D01*
X107746622Y-122240787D01*
X107855379Y-122091096D01*
X107939380Y-121926235D01*
X107996556Y-121750264D01*
X108025501Y-121567514D01*
X108025501Y-121382486D01*
X107996556Y-121199736D01*
X107939380Y-121023765D01*
X107939380Y-121023764D01*
X107855378Y-120858903D01*
X107746622Y-120709213D01*
X107615788Y-120578379D01*
X107579761Y-120552204D01*
X107476615Y-120477263D01*
X107473274Y-120472930D01*
X107468298Y-120470658D01*
X107452165Y-120445555D01*
X107433950Y-120421932D01*
X107432697Y-120415261D01*
X107430524Y-120411880D01*
X107425501Y-120376945D01*
X107425501Y-120265758D01*
X107445186Y-120198719D01*
X107461820Y-120178077D01*
X107883079Y-119756819D01*
X107944402Y-119723334D01*
X107970760Y-119720500D01*
X109463466Y-119720500D01*
X109463467Y-119720499D01*
X109666420Y-119680130D01*
X109857598Y-119600941D01*
X110029655Y-119485977D01*
X110175977Y-119339655D01*
X110175978Y-119339653D01*
X110183044Y-119332587D01*
X110183047Y-119332583D01*
X111459651Y-118055979D01*
X111459655Y-118055977D01*
X111605977Y-117909655D01*
X111720941Y-117737598D01*
X111800130Y-117546420D01*
X111840500Y-117343465D01*
X111840500Y-117220585D01*
X111860185Y-117153546D01*
X111912989Y-117107791D01*
X111948312Y-117097647D01*
X112002238Y-117090548D01*
X112223887Y-117031158D01*
X112435888Y-116943344D01*
X112634612Y-116828611D01*
X112816661Y-116688919D01*
X112816665Y-116688914D01*
X112816670Y-116688911D01*
X112978911Y-116526670D01*
X112978914Y-116526665D01*
X112978919Y-116526661D01*
X113118611Y-116344612D01*
X113231939Y-116148320D01*
X113282506Y-116100105D01*
X113351113Y-116086882D01*
X113415978Y-116112850D01*
X113427007Y-116122640D01*
X113490342Y-116185975D01*
X113490345Y-116185977D01*
X113662402Y-116300941D01*
X113853580Y-116380130D01*
X114031393Y-116415499D01*
X114056530Y-116420499D01*
X114056534Y-116420500D01*
X114056535Y-116420500D01*
X114263466Y-116420500D01*
X114263467Y-116420499D01*
X114466420Y-116380130D01*
X114657598Y-116300941D01*
X114829655Y-116185977D01*
X114975977Y-116039655D01*
X115090941Y-115867598D01*
X115169251Y-115678543D01*
X118569499Y-115678543D01*
X118607947Y-115871829D01*
X118607950Y-115871839D01*
X118683364Y-116053907D01*
X118683371Y-116053920D01*
X118792860Y-116217781D01*
X118792863Y-116217785D01*
X118932214Y-116357136D01*
X118932218Y-116357139D01*
X119096079Y-116466628D01*
X119096092Y-116466635D01*
X119278160Y-116542049D01*
X119278165Y-116542051D01*
X119278169Y-116542051D01*
X119278170Y-116542052D01*
X119471456Y-116580500D01*
X119471459Y-116580500D01*
X119668543Y-116580500D01*
X119798582Y-116554632D01*
X119861835Y-116542051D01*
X120043914Y-116466632D01*
X120207782Y-116357139D01*
X120347139Y-116217782D01*
X120456632Y-116053914D01*
X120464609Y-116034657D01*
X120532049Y-115871839D01*
X120532051Y-115871835D01*
X120570500Y-115678541D01*
X120570500Y-115481459D01*
X120570500Y-115481456D01*
X120532052Y-115288170D01*
X120532051Y-115288169D01*
X120532051Y-115288165D01*
X120532049Y-115288160D01*
X120456635Y-115106092D01*
X120456628Y-115106079D01*
X120347139Y-114942218D01*
X120347136Y-114942214D01*
X120207785Y-114802863D01*
X120207781Y-114802860D01*
X120144006Y-114760247D01*
X121109500Y-114760247D01*
X121109500Y-116399752D01*
X121121131Y-116458229D01*
X121121132Y-116458230D01*
X121165447Y-116524552D01*
X121231769Y-116568867D01*
X121231770Y-116568868D01*
X121290247Y-116580499D01*
X121290250Y-116580500D01*
X121290252Y-116580500D01*
X122929750Y-116580500D01*
X122929751Y-116580499D01*
X122944568Y-116577552D01*
X122988229Y-116568868D01*
X122988229Y-116568867D01*
X122988231Y-116568867D01*
X123054552Y-116524552D01*
X123098867Y-116458231D01*
X123098867Y-116458229D01*
X123098868Y-116458229D01*
X123110499Y-116399752D01*
X123110500Y-116399750D01*
X123110500Y-114760249D01*
X123110499Y-114760247D01*
X123098868Y-114701770D01*
X123098867Y-114701769D01*
X123054552Y-114635447D01*
X122988230Y-114591132D01*
X122988229Y-114591131D01*
X122929752Y-114579500D01*
X122929748Y-114579500D01*
X121290252Y-114579500D01*
X121290247Y-114579500D01*
X121231770Y-114591131D01*
X121231769Y-114591132D01*
X121165447Y-114635447D01*
X121121132Y-114701769D01*
X121121131Y-114701770D01*
X121109500Y-114760247D01*
X120144006Y-114760247D01*
X120043920Y-114693371D01*
X120043907Y-114693364D01*
X119861839Y-114617950D01*
X119861829Y-114617947D01*
X119668543Y-114579500D01*
X119668541Y-114579500D01*
X119471459Y-114579500D01*
X119471457Y-114579500D01*
X119278170Y-114617947D01*
X119278160Y-114617950D01*
X119096092Y-114693364D01*
X119096079Y-114693371D01*
X118932218Y-114802860D01*
X118932214Y-114802863D01*
X118792863Y-114942214D01*
X118792860Y-114942218D01*
X118683371Y-115106079D01*
X118683364Y-115106092D01*
X118607950Y-115288160D01*
X118607947Y-115288170D01*
X118569500Y-115481456D01*
X118569500Y-115481459D01*
X118569500Y-115678541D01*
X118569500Y-115678543D01*
X118569499Y-115678543D01*
X115169251Y-115678543D01*
X115170130Y-115676420D01*
X115210500Y-115473465D01*
X115210500Y-115016535D01*
X115170130Y-114813580D01*
X115090941Y-114622402D01*
X114975977Y-114450345D01*
X114975975Y-114450342D01*
X114829657Y-114304024D01*
X114743626Y-114246541D01*
X114657598Y-114189059D01*
X114466420Y-114109870D01*
X114466412Y-114109868D01*
X114263469Y-114069500D01*
X114263465Y-114069500D01*
X114056535Y-114069500D01*
X114056530Y-114069500D01*
X113853587Y-114109868D01*
X113853579Y-114109870D01*
X113662403Y-114189058D01*
X113490344Y-114304023D01*
X113427007Y-114367360D01*
X113365683Y-114400844D01*
X113295992Y-114395859D01*
X113240058Y-114353988D01*
X113231939Y-114341678D01*
X113143824Y-114189059D01*
X113118611Y-114145388D01*
X113118608Y-114145385D01*
X113118607Y-114145382D01*
X112978918Y-113963338D01*
X112978911Y-113963330D01*
X112816670Y-113801089D01*
X112816661Y-113801081D01*
X112634617Y-113661392D01*
X112435890Y-113546657D01*
X112435876Y-113546650D01*
X112223887Y-113458842D01*
X112002238Y-113399452D01*
X111964215Y-113394446D01*
X111774741Y-113369500D01*
X111774734Y-113369500D01*
X111545266Y-113369500D01*
X111545258Y-113369500D01*
X111328715Y-113398009D01*
X111317762Y-113399452D01*
X111224076Y-113424554D01*
X111096112Y-113458842D01*
X110884123Y-113546650D01*
X110884109Y-113546657D01*
X110685382Y-113661392D01*
X110503338Y-113801081D01*
X110497681Y-113806738D01*
X110436358Y-113840223D01*
X110366666Y-113835239D01*
X110322319Y-113806738D01*
X110316670Y-113801089D01*
X110316661Y-113801081D01*
X110134617Y-113661392D01*
X109935890Y-113546657D01*
X109935876Y-113546650D01*
X109723887Y-113458842D01*
X109502238Y-113399452D01*
X109464215Y-113394446D01*
X109274741Y-113369500D01*
X109274734Y-113369500D01*
X109045266Y-113369500D01*
X109045258Y-113369500D01*
X108828715Y-113398009D01*
X108817762Y-113399452D01*
X108724076Y-113424554D01*
X108596112Y-113458842D01*
X108384123Y-113546650D01*
X108384109Y-113546657D01*
X108185382Y-113661392D01*
X108003338Y-113801081D01*
X107841081Y-113963338D01*
X107701392Y-114145382D01*
X107586657Y-114344109D01*
X107586650Y-114344123D01*
X107498842Y-114556112D01*
X107439453Y-114777759D01*
X107439451Y-114777770D01*
X107409500Y-115005258D01*
X107409500Y-115484741D01*
X107434077Y-115671412D01*
X107439452Y-115712238D01*
X107498842Y-115933887D01*
X107586650Y-116145876D01*
X107586657Y-116145890D01*
X107701392Y-116344617D01*
X107841081Y-116526661D01*
X107841089Y-116526670D01*
X108003329Y-116688910D01*
X108003333Y-116688913D01*
X108003339Y-116688919D01*
X108144356Y-116797126D01*
X108185557Y-116853552D01*
X108189712Y-116923299D01*
X108155499Y-116984219D01*
X108093782Y-117016971D01*
X108068868Y-117019500D01*
X107345333Y-117019500D01*
X107345313Y-117019499D01*
X107339199Y-117019499D01*
X107132269Y-117019499D01*
X107132267Y-117019499D01*
X106929319Y-117059868D01*
X106929309Y-117059871D01*
X106738142Y-117139054D01*
X106738129Y-117139061D01*
X106566079Y-117254022D01*
X106566075Y-117254025D01*
X105105347Y-118714755D01*
X105105345Y-118714757D01*
X105032184Y-118787918D01*
X104959023Y-118861078D01*
X104844058Y-119033137D01*
X104764870Y-119224313D01*
X104764868Y-119224321D01*
X104724500Y-119427264D01*
X104724500Y-120376945D01*
X104704815Y-120443984D01*
X104673386Y-120477263D01*
X104534211Y-120578380D01*
X104403381Y-120709210D01*
X104403381Y-120709211D01*
X104403379Y-120709213D01*
X104356672Y-120773499D01*
X104294622Y-120858903D01*
X104210620Y-121023764D01*
X104210619Y-121023767D01*
X104153445Y-121199734D01*
X104124500Y-121382486D01*
X80500500Y-121382486D01*
X80500500Y-115011530D01*
X94689500Y-115011530D01*
X94689500Y-115468469D01*
X94692737Y-115484741D01*
X94729870Y-115671420D01*
X94809059Y-115862598D01*
X94866541Y-115948626D01*
X94924024Y-116034657D01*
X95070342Y-116180975D01*
X95070345Y-116180977D01*
X95242402Y-116295941D01*
X95433580Y-116375130D01*
X95636530Y-116415499D01*
X95636534Y-116415500D01*
X95636535Y-116415500D01*
X95843466Y-116415500D01*
X95843467Y-116415499D01*
X96046420Y-116375130D01*
X96237598Y-116295941D01*
X96409655Y-116180977D01*
X96555977Y-116034655D01*
X96670941Y-115862598D01*
X96750130Y-115671420D01*
X96790500Y-115468465D01*
X96790500Y-115011535D01*
X96790499Y-115011530D01*
X97189500Y-115011530D01*
X97189500Y-115468469D01*
X97192737Y-115484741D01*
X97229870Y-115671420D01*
X97309059Y-115862598D01*
X97366541Y-115948626D01*
X97424024Y-116034657D01*
X97570342Y-116180975D01*
X97570345Y-116180977D01*
X97742402Y-116295941D01*
X97933580Y-116375130D01*
X98136530Y-116415499D01*
X98136534Y-116415500D01*
X98136535Y-116415500D01*
X98343466Y-116415500D01*
X98343467Y-116415499D01*
X98546420Y-116375130D01*
X98737598Y-116295941D01*
X98909655Y-116180977D01*
X99055977Y-116034655D01*
X99170941Y-115862598D01*
X99250130Y-115671420D01*
X99290500Y-115468465D01*
X99290500Y-115011535D01*
X99290499Y-115011530D01*
X99689500Y-115011530D01*
X99689500Y-115468469D01*
X99692737Y-115484741D01*
X99729870Y-115671420D01*
X99809059Y-115862598D01*
X99866541Y-115948626D01*
X99924024Y-116034657D01*
X100070342Y-116180975D01*
X100070345Y-116180977D01*
X100242402Y-116295941D01*
X100433580Y-116375130D01*
X100636530Y-116415499D01*
X100636534Y-116415500D01*
X100636535Y-116415500D01*
X100843466Y-116415500D01*
X100843467Y-116415499D01*
X101046420Y-116375130D01*
X101237598Y-116295941D01*
X101409655Y-116180977D01*
X101555977Y-116034655D01*
X101670941Y-115862598D01*
X101750130Y-115671420D01*
X101790500Y-115468465D01*
X101790500Y-115011535D01*
X101750130Y-114808580D01*
X101670941Y-114617402D01*
X101555977Y-114445345D01*
X101555975Y-114445342D01*
X101409657Y-114299024D01*
X101245081Y-114189059D01*
X101237598Y-114184059D01*
X101046420Y-114104870D01*
X101046412Y-114104868D01*
X100843469Y-114064500D01*
X100843465Y-114064500D01*
X100636535Y-114064500D01*
X100636530Y-114064500D01*
X100433587Y-114104868D01*
X100433579Y-114104870D01*
X100242403Y-114184058D01*
X100070342Y-114299024D01*
X99924024Y-114445342D01*
X99809058Y-114617403D01*
X99729870Y-114808579D01*
X99729868Y-114808587D01*
X99689500Y-115011530D01*
X99290499Y-115011530D01*
X99250130Y-114808580D01*
X99170941Y-114617402D01*
X99055977Y-114445345D01*
X99055975Y-114445342D01*
X98909657Y-114299024D01*
X98745081Y-114189059D01*
X98737598Y-114184059D01*
X98546420Y-114104870D01*
X98546412Y-114104868D01*
X98343469Y-114064500D01*
X98343465Y-114064500D01*
X98136535Y-114064500D01*
X98136530Y-114064500D01*
X97933587Y-114104868D01*
X97933579Y-114104870D01*
X97742403Y-114184058D01*
X97570342Y-114299024D01*
X97424024Y-114445342D01*
X97309058Y-114617403D01*
X97229870Y-114808579D01*
X97229868Y-114808587D01*
X97189500Y-115011530D01*
X96790499Y-115011530D01*
X96750130Y-114808580D01*
X96670941Y-114617402D01*
X96555977Y-114445345D01*
X96555975Y-114445342D01*
X96409657Y-114299024D01*
X96245081Y-114189059D01*
X96237598Y-114184059D01*
X96046420Y-114104870D01*
X96046412Y-114104868D01*
X95843469Y-114064500D01*
X95843465Y-114064500D01*
X95636535Y-114064500D01*
X95636530Y-114064500D01*
X95433587Y-114104868D01*
X95433579Y-114104870D01*
X95242403Y-114184058D01*
X95070342Y-114299024D01*
X94924024Y-114445342D01*
X94809058Y-114617403D01*
X94729870Y-114808579D01*
X94729868Y-114808587D01*
X94689500Y-115011530D01*
X80500500Y-115011530D01*
X80500500Y-94359041D01*
X84849500Y-94359041D01*
X84849500Y-94640958D01*
X84886295Y-94920439D01*
X84959259Y-95192743D01*
X85067135Y-95453179D01*
X85067140Y-95453190D01*
X85208083Y-95697309D01*
X85208088Y-95697317D01*
X85379700Y-95920965D01*
X85379704Y-95920970D01*
X85579029Y-96120295D01*
X85579033Y-96120298D01*
X85579035Y-96120300D01*
X85802683Y-96291912D01*
X85802690Y-96291916D01*
X86046809Y-96432859D01*
X86046814Y-96432861D01*
X86046817Y-96432863D01*
X86307261Y-96540742D01*
X86579558Y-96613704D01*
X86859049Y-96650500D01*
X86859056Y-96650500D01*
X87140944Y-96650500D01*
X87140951Y-96650500D01*
X87420442Y-96613704D01*
X87692739Y-96540742D01*
X87953183Y-96432863D01*
X88197317Y-96291912D01*
X88420965Y-96120300D01*
X88620300Y-95920965D01*
X88791912Y-95697317D01*
X88932863Y-95453183D01*
X89040742Y-95192739D01*
X89113704Y-94920442D01*
X89150500Y-94640951D01*
X89150500Y-94359049D01*
X89113704Y-94079558D01*
X89040742Y-93807261D01*
X88932863Y-93546817D01*
X88932861Y-93546814D01*
X88932859Y-93546809D01*
X88791916Y-93302690D01*
X88791912Y-93302683D01*
X88620300Y-93079035D01*
X88620298Y-93079033D01*
X88620295Y-93079029D01*
X88420970Y-92879704D01*
X88420965Y-92879700D01*
X88197317Y-92708088D01*
X88197311Y-92708084D01*
X88197309Y-92708083D01*
X87953190Y-92567140D01*
X87953179Y-92567135D01*
X87692743Y-92459259D01*
X87420439Y-92386295D01*
X87140958Y-92349500D01*
X87140951Y-92349500D01*
X86859049Y-92349500D01*
X86859041Y-92349500D01*
X86579560Y-92386295D01*
X86307256Y-92459259D01*
X86046820Y-92567135D01*
X86046809Y-92567140D01*
X85802690Y-92708083D01*
X85802682Y-92708089D01*
X85579029Y-92879704D01*
X85379704Y-93079029D01*
X85208089Y-93302682D01*
X85208083Y-93302690D01*
X85067140Y-93546809D01*
X85067135Y-93546820D01*
X84959259Y-93807256D01*
X84886295Y-94079560D01*
X84849500Y-94359041D01*
X80500500Y-94359041D01*
X80500500Y-85484041D01*
X84849500Y-85484041D01*
X84849500Y-85765958D01*
X84886295Y-86045439D01*
X84959259Y-86317743D01*
X85067135Y-86578179D01*
X85067140Y-86578190D01*
X85208083Y-86822309D01*
X85208088Y-86822317D01*
X85379700Y-87045965D01*
X85379704Y-87045970D01*
X85579029Y-87245295D01*
X85579033Y-87245298D01*
X85579035Y-87245300D01*
X85802683Y-87416912D01*
X85802690Y-87416916D01*
X86046809Y-87557859D01*
X86046814Y-87557861D01*
X86046817Y-87557863D01*
X86307261Y-87665742D01*
X86579558Y-87738704D01*
X86859049Y-87775500D01*
X86859056Y-87775500D01*
X87140944Y-87775500D01*
X87140951Y-87775500D01*
X87420442Y-87738704D01*
X87692739Y-87665742D01*
X87953183Y-87557863D01*
X88197317Y-87416912D01*
X88420965Y-87245300D01*
X88620300Y-87045965D01*
X88791912Y-86822317D01*
X88932863Y-86578183D01*
X89040742Y-86317739D01*
X89113704Y-86045442D01*
X89150500Y-85765951D01*
X89150500Y-85484049D01*
X89113704Y-85204558D01*
X89040742Y-84932261D01*
X88932863Y-84671817D01*
X88932861Y-84671814D01*
X88932859Y-84671809D01*
X88791916Y-84427690D01*
X88791912Y-84427683D01*
X88620300Y-84204035D01*
X88620298Y-84204033D01*
X88620295Y-84204029D01*
X88420970Y-84004704D01*
X88420965Y-84004700D01*
X88197317Y-83833088D01*
X88197311Y-83833084D01*
X88197309Y-83833083D01*
X87953190Y-83692140D01*
X87953179Y-83692135D01*
X87692743Y-83584259D01*
X87420439Y-83511295D01*
X87140958Y-83474500D01*
X87140951Y-83474500D01*
X86859049Y-83474500D01*
X86859041Y-83474500D01*
X86579560Y-83511295D01*
X86307256Y-83584259D01*
X86046820Y-83692135D01*
X86046809Y-83692140D01*
X85802690Y-83833083D01*
X85802682Y-83833089D01*
X85579029Y-84004704D01*
X85379704Y-84204029D01*
X85208089Y-84427682D01*
X85208083Y-84427690D01*
X85067140Y-84671809D01*
X85067135Y-84671820D01*
X84959259Y-84932256D01*
X84886295Y-85204560D01*
X84849500Y-85484041D01*
X80500500Y-85484041D01*
X80500500Y-76609041D01*
X84849500Y-76609041D01*
X84849500Y-76890958D01*
X84886295Y-77170439D01*
X84959259Y-77442743D01*
X85067135Y-77703179D01*
X85067140Y-77703190D01*
X85208083Y-77947309D01*
X85208088Y-77947317D01*
X85379700Y-78170965D01*
X85379704Y-78170970D01*
X85579029Y-78370295D01*
X85579033Y-78370298D01*
X85579035Y-78370300D01*
X85802683Y-78541912D01*
X85802690Y-78541916D01*
X86046809Y-78682859D01*
X86046814Y-78682861D01*
X86046817Y-78682863D01*
X86307261Y-78790742D01*
X86579558Y-78863704D01*
X86859049Y-78900500D01*
X86859056Y-78900500D01*
X87140944Y-78900500D01*
X87140951Y-78900500D01*
X87420442Y-78863704D01*
X87692739Y-78790742D01*
X87953183Y-78682863D01*
X88197317Y-78541912D01*
X88420965Y-78370300D01*
X88620300Y-78170965D01*
X88791912Y-77947317D01*
X88932863Y-77703183D01*
X89040742Y-77442739D01*
X89113704Y-77170442D01*
X89150500Y-76890951D01*
X89150500Y-76609049D01*
X89113704Y-76329558D01*
X89040742Y-76057261D01*
X88932863Y-75796817D01*
X88932861Y-75796814D01*
X88932859Y-75796809D01*
X88791916Y-75552690D01*
X88791912Y-75552683D01*
X88620300Y-75329035D01*
X88620298Y-75329033D01*
X88620295Y-75329029D01*
X88420970Y-75129704D01*
X88420965Y-75129700D01*
X88197317Y-74958088D01*
X88197311Y-74958084D01*
X88197309Y-74958083D01*
X87953190Y-74817140D01*
X87953179Y-74817135D01*
X87692743Y-74709259D01*
X87420439Y-74636295D01*
X87140958Y-74599500D01*
X87140951Y-74599500D01*
X86859049Y-74599500D01*
X86859041Y-74599500D01*
X86579560Y-74636295D01*
X86307256Y-74709259D01*
X86046820Y-74817135D01*
X86046809Y-74817140D01*
X85802690Y-74958083D01*
X85802682Y-74958089D01*
X85579029Y-75129704D01*
X85379704Y-75329029D01*
X85208089Y-75552682D01*
X85208083Y-75552690D01*
X85067140Y-75796809D01*
X85067135Y-75796820D01*
X84959259Y-76057256D01*
X84886295Y-76329560D01*
X84849500Y-76609041D01*
X80500500Y-76609041D01*
X80500500Y-67734041D01*
X84849500Y-67734041D01*
X84849500Y-68015958D01*
X84886295Y-68295439D01*
X84959259Y-68567743D01*
X85067135Y-68828179D01*
X85067140Y-68828190D01*
X85208083Y-69072309D01*
X85208088Y-69072317D01*
X85379700Y-69295965D01*
X85379704Y-69295970D01*
X85579029Y-69495295D01*
X85579033Y-69495298D01*
X85579035Y-69495300D01*
X85802683Y-69666912D01*
X85802690Y-69666916D01*
X86046809Y-69807859D01*
X86046814Y-69807861D01*
X86046817Y-69807863D01*
X86307261Y-69915742D01*
X86579558Y-69988704D01*
X86859049Y-70025500D01*
X86859056Y-70025500D01*
X87140944Y-70025500D01*
X87140951Y-70025500D01*
X87420442Y-69988704D01*
X87692739Y-69915742D01*
X87953183Y-69807863D01*
X88197317Y-69666912D01*
X88420965Y-69495300D01*
X88620300Y-69295965D01*
X88791912Y-69072317D01*
X88932863Y-68828183D01*
X89040742Y-68567739D01*
X89113704Y-68295442D01*
X89150500Y-68015951D01*
X89150500Y-67734049D01*
X89113704Y-67454558D01*
X89040742Y-67182261D01*
X88932863Y-66921817D01*
X88932861Y-66921814D01*
X88932859Y-66921809D01*
X88791916Y-66677690D01*
X88791912Y-66677683D01*
X88620300Y-66454035D01*
X88620298Y-66454033D01*
X88620295Y-66454029D01*
X88420970Y-66254704D01*
X88420965Y-66254700D01*
X88197317Y-66083088D01*
X88197311Y-66083084D01*
X88197309Y-66083083D01*
X87953190Y-65942140D01*
X87953179Y-65942135D01*
X87692743Y-65834259D01*
X87420439Y-65761295D01*
X87140958Y-65724500D01*
X87140951Y-65724500D01*
X86859049Y-65724500D01*
X86859041Y-65724500D01*
X86579560Y-65761295D01*
X86307256Y-65834259D01*
X86046820Y-65942135D01*
X86046809Y-65942140D01*
X85802690Y-66083083D01*
X85802682Y-66083089D01*
X85579029Y-66254704D01*
X85379704Y-66454029D01*
X85208089Y-66677682D01*
X85208083Y-66677690D01*
X85067140Y-66921809D01*
X85067135Y-66921820D01*
X84959259Y-67182256D01*
X84886295Y-67454560D01*
X84849500Y-67734041D01*
X80500500Y-67734041D01*
X80500500Y-58859041D01*
X84849500Y-58859041D01*
X84849500Y-59140958D01*
X84886295Y-59420439D01*
X84959259Y-59692743D01*
X85067135Y-59953179D01*
X85067140Y-59953190D01*
X85208083Y-60197309D01*
X85208088Y-60197317D01*
X85379700Y-60420965D01*
X85379704Y-60420970D01*
X85579029Y-60620295D01*
X85579033Y-60620298D01*
X85579035Y-60620300D01*
X85802683Y-60791912D01*
X85802690Y-60791916D01*
X86046809Y-60932859D01*
X86046814Y-60932861D01*
X86046817Y-60932863D01*
X86307261Y-61040742D01*
X86579558Y-61113704D01*
X86859049Y-61150500D01*
X86859056Y-61150500D01*
X87140944Y-61150500D01*
X87140951Y-61150500D01*
X87420442Y-61113704D01*
X87692739Y-61040742D01*
X87953183Y-60932863D01*
X88197317Y-60791912D01*
X88420965Y-60620300D01*
X88620300Y-60420965D01*
X88791912Y-60197317D01*
X88932863Y-59953183D01*
X89040742Y-59692739D01*
X89113704Y-59420442D01*
X89150500Y-59140951D01*
X89150500Y-58859049D01*
X89113704Y-58579558D01*
X89040742Y-58307261D01*
X88932863Y-58046817D01*
X88932861Y-58046814D01*
X88932859Y-58046809D01*
X88791916Y-57802690D01*
X88791912Y-57802683D01*
X88620300Y-57579035D01*
X88620298Y-57579033D01*
X88620295Y-57579029D01*
X88420970Y-57379704D01*
X88420965Y-57379700D01*
X88197317Y-57208088D01*
X88197311Y-57208084D01*
X88197309Y-57208083D01*
X87953190Y-57067140D01*
X87953179Y-57067135D01*
X87692743Y-56959259D01*
X87420439Y-56886295D01*
X87140958Y-56849500D01*
X87140951Y-56849500D01*
X86859049Y-56849500D01*
X86859041Y-56849500D01*
X86579560Y-56886295D01*
X86307256Y-56959259D01*
X86046820Y-57067135D01*
X86046809Y-57067140D01*
X85802690Y-57208083D01*
X85802682Y-57208089D01*
X85579029Y-57379704D01*
X85379704Y-57579029D01*
X85208089Y-57802682D01*
X85208083Y-57802690D01*
X85067140Y-58046809D01*
X85067135Y-58046820D01*
X84959259Y-58307256D01*
X84886295Y-58579560D01*
X84849500Y-58859041D01*
X80500500Y-58859041D01*
X80500500Y-55006961D01*
X80501280Y-54993079D01*
X80502840Y-54979225D01*
X80511459Y-54902729D01*
X80517632Y-54875678D01*
X80545357Y-54796447D01*
X80557391Y-54771457D01*
X80602047Y-54700387D01*
X80619350Y-54678691D01*
X80678690Y-54619351D01*
X80700389Y-54602046D01*
X80771450Y-54557396D01*
X80796456Y-54545353D01*
X80875670Y-54517635D01*
X80902733Y-54511459D01*
X80969016Y-54503991D01*
X80993061Y-54501282D01*
X81006940Y-54500502D01*
X81065892Y-54500502D01*
X81065898Y-54500500D01*
X81074543Y-54500500D01*
X89375500Y-54500500D01*
X89442539Y-54520185D01*
G37*
%TD.AperFunction*%
%TA.AperFunction,Conductor*%
G36*
X136034705Y-129885383D02*
G01*
X136123660Y-129892383D01*
X136144226Y-129895759D01*
X136302424Y-129935620D01*
X136323404Y-129942961D01*
X136470261Y-130009668D01*
X136489587Y-130020634D01*
X136621170Y-130111796D01*
X136622165Y-130112485D01*
X136639230Y-130126732D01*
X136753268Y-130240770D01*
X136767515Y-130257835D01*
X136859362Y-130390408D01*
X136870333Y-130409743D01*
X136937037Y-130556598D01*
X136944379Y-130577581D01*
X136984239Y-130735768D01*
X136987616Y-130756337D01*
X136994617Y-130845293D01*
X136994999Y-130855022D01*
X136994999Y-133004978D01*
X136994617Y-133014707D01*
X136987616Y-133103663D01*
X136984239Y-133124232D01*
X136944379Y-133282419D01*
X136937037Y-133303402D01*
X136870333Y-133450257D01*
X136859362Y-133469592D01*
X136767517Y-133602162D01*
X136753270Y-133619227D01*
X136639226Y-133733271D01*
X136622161Y-133747518D01*
X136489591Y-133839363D01*
X136470256Y-133850334D01*
X136323401Y-133917038D01*
X136302418Y-133924380D01*
X136144231Y-133964240D01*
X136123662Y-133967617D01*
X136034707Y-133974618D01*
X136024978Y-133975000D01*
X133875021Y-133975000D01*
X133865292Y-133974618D01*
X133776336Y-133967617D01*
X133755767Y-133964240D01*
X133597580Y-133924380D01*
X133576597Y-133917038D01*
X133429742Y-133850334D01*
X133410407Y-133839363D01*
X133277834Y-133747516D01*
X133260769Y-133733269D01*
X133146731Y-133619231D01*
X133132484Y-133602166D01*
X133132481Y-133602162D01*
X133040633Y-133469588D01*
X133029665Y-133450258D01*
X133029665Y-133450257D01*
X132962958Y-133303399D01*
X132955621Y-133282432D01*
X132915757Y-133124224D01*
X132912382Y-133103657D01*
X132905382Y-133014699D01*
X132905000Y-133004972D01*
X132905000Y-130855003D01*
X132905382Y-130845275D01*
X132912380Y-130756347D01*
X132915755Y-130735782D01*
X132955621Y-130577567D01*
X132962959Y-130556597D01*
X133029669Y-130409732D01*
X133040630Y-130390416D01*
X133132489Y-130257826D01*
X133146725Y-130240774D01*
X133260773Y-130126726D01*
X133277825Y-130112490D01*
X133410415Y-130020631D01*
X133429731Y-130009670D01*
X133576602Y-129942957D01*
X133597562Y-129935623D01*
X133755776Y-129895758D01*
X133776336Y-129892383D01*
X133846605Y-129886854D01*
X133865301Y-129885383D01*
X133875028Y-129885001D01*
X136024977Y-129885001D01*
X136034705Y-129885383D01*
G37*
%TD.AperFunction*%
%TD*%
M02*
