%TF.GenerationSoftware,KiCad,Pcbnew,9.0.4-9.0.4-0~ubuntu24.04.1*%
%TF.CreationDate,2025-09-27T21:59:24+02:00*%
%TF.ProjectId,ModuCard-vesc-to-mms-converter,4d6f6475-4361-4726-942d-766573632d74,rev?*%
%TF.SameCoordinates,Original*%
%TF.FileFunction,Soldermask,Top*%
%TF.FilePolarity,Negative*%
%FSLAX46Y46*%
G04 Gerber Fmt 4.6, Leading zero omitted, Abs format (unit mm)*
G04 Created by KiCad (PCBNEW 9.0.4-9.0.4-0~ubuntu24.04.1) date 2025-09-27 21:59:24*
%MOMM*%
%LPD*%
G01*
G04 APERTURE LIST*
G04 Aperture macros list*
%AMRoundRect*
0 Rectangle with rounded corners*
0 $1 Rounding radius*
0 $2 $3 $4 $5 $6 $7 $8 $9 X,Y pos of 4 corners*
0 Add a 4 corners polygon primitive as box body*
4,1,4,$2,$3,$4,$5,$6,$7,$8,$9,$2,$3,0*
0 Add four circle primitives for the rounded corners*
1,1,$1+$1,$2,$3*
1,1,$1+$1,$4,$5*
1,1,$1+$1,$6,$7*
1,1,$1+$1,$8,$9*
0 Add four rect primitives between the rounded corners*
20,1,$1+$1,$2,$3,$4,$5,0*
20,1,$1+$1,$4,$5,$6,$7,0*
20,1,$1+$1,$6,$7,$8,$9,0*
20,1,$1+$1,$8,$9,$2,$3,0*%
G04 Aperture macros list end*
%ADD10C,0.900000*%
%ADD11C,8.000000*%
%ADD12RoundRect,0.100000X-0.712500X-0.100000X0.712500X-0.100000X0.712500X0.100000X-0.712500X0.100000X0*%
%ADD13RoundRect,0.250000X-0.600000X-0.725000X0.600000X-0.725000X0.600000X0.725000X-0.600000X0.725000X0*%
%ADD14O,1.700000X1.950000*%
%ADD15RoundRect,0.225000X-0.250000X0.225000X-0.250000X-0.225000X0.250000X-0.225000X0.250000X0.225000X0*%
%ADD16R,1.600000X1.600000*%
%ADD17O,1.600000X1.600000*%
%ADD18RoundRect,0.135000X0.135000X0.185000X-0.135000X0.185000X-0.135000X-0.185000X0.135000X-0.185000X0*%
%ADD19RoundRect,0.200000X-0.275000X0.200000X-0.275000X-0.200000X0.275000X-0.200000X0.275000X0.200000X0*%
%ADD20RoundRect,0.200000X0.275000X-0.200000X0.275000X0.200000X-0.275000X0.200000X-0.275000X-0.200000X0*%
%ADD21RoundRect,0.135000X-0.135000X-0.185000X0.135000X-0.185000X0.135000X0.185000X-0.135000X0.185000X0*%
%ADD22R,0.900000X2.000000*%
%ADD23RoundRect,1.025000X1.025000X1.025000X-1.025000X1.025000X-1.025000X-1.025000X1.025000X-1.025000X0*%
%ADD24C,4.100000*%
%ADD25R,1.200000X1.400000*%
%ADD26RoundRect,0.140000X-0.170000X0.140000X-0.170000X-0.140000X0.170000X-0.140000X0.170000X0.140000X0*%
%ADD27RoundRect,0.200000X-0.200000X-0.275000X0.200000X-0.275000X0.200000X0.275000X-0.200000X0.275000X0*%
%ADD28R,1.500000X1.500000*%
%ADD29C,1.500000*%
%ADD30C,2.300000*%
G04 APERTURE END LIST*
D10*
%TO.C,H10*%
X98000000Y-105300000D03*
X97121320Y-107421320D03*
X97121320Y-103178680D03*
X95000000Y-108300000D03*
D11*
X95000000Y-105300000D03*
D10*
X95000000Y-102300000D03*
X92878680Y-107421320D03*
X92878680Y-103178680D03*
X92000000Y-105300000D03*
%TD*%
D12*
%TO.C,U1*%
X93003750Y-122860000D03*
X93003750Y-123495000D03*
X93003750Y-124130000D03*
X93003750Y-124765000D03*
X93003750Y-125400000D03*
X93003750Y-126035000D03*
X93003750Y-126670000D03*
X93003750Y-127305000D03*
X98278750Y-127305000D03*
X98278750Y-126670000D03*
X98278750Y-126035000D03*
X98278750Y-125400000D03*
X98278750Y-124765000D03*
X98278750Y-124130000D03*
X98278750Y-123495000D03*
X98278750Y-122860000D03*
%TD*%
D13*
%TO.C,J3*%
X106660000Y-115245000D03*
D14*
X109160000Y-115245000D03*
X111660000Y-115245000D03*
X114160000Y-115245000D03*
%TD*%
D15*
%TO.C,C5*%
X97681250Y-120085000D03*
X97681250Y-121635000D03*
%TD*%
D16*
%TO.C,SW1*%
X122110000Y-115580000D03*
D17*
X119570000Y-115580000D03*
X119570000Y-123200000D03*
X122110000Y-123200000D03*
%TD*%
D18*
%TO.C,R11*%
X91161249Y-126882500D03*
X90141251Y-126882500D03*
%TD*%
D19*
%TO.C,R8*%
X105300000Y-121475000D03*
X105300000Y-123125000D03*
%TD*%
D20*
%TO.C,R2*%
X113600000Y-123125000D03*
X113600000Y-121475000D03*
%TD*%
D21*
%TO.C,R12*%
X90141250Y-127982500D03*
X91161250Y-127982500D03*
%TD*%
D20*
%TO.C,R3*%
X112000000Y-123125000D03*
X112000000Y-121475000D03*
%TD*%
D10*
%TO.C,H9*%
X122000000Y-105300000D03*
X122878680Y-103178680D03*
X122878680Y-107421320D03*
X125000000Y-102300000D03*
D11*
X125000000Y-105300000D03*
D10*
X125000000Y-108300000D03*
X127121320Y-103178680D03*
X127121320Y-107421320D03*
X128000000Y-105300000D03*
%TD*%
D21*
%TO.C,R17*%
X94000000Y-131250000D03*
X95019998Y-131250000D03*
%TD*%
D13*
%TO.C,J4*%
X90740000Y-115240000D03*
D14*
X93240000Y-115240000D03*
X95740000Y-115240000D03*
X98240000Y-115240000D03*
X100740000Y-115240000D03*
%TD*%
D22*
%TO.C,J5*%
X138100000Y-137930001D03*
X124600000Y-137930001D03*
D23*
X134950000Y-131930001D03*
D24*
X127750000Y-131930001D03*
%TD*%
D25*
%TO.C,Y1*%
X102521250Y-124150001D03*
X102521250Y-121950001D03*
X100821250Y-121950001D03*
X100821250Y-124150001D03*
%TD*%
D21*
%TO.C,R9*%
X90141250Y-124882500D03*
X91161250Y-124882500D03*
%TD*%
D19*
%TO.C,R6*%
X106850001Y-121475000D03*
X106850001Y-123125000D03*
%TD*%
D15*
%TO.C,C6*%
X99181250Y-120085000D03*
X99181250Y-121635000D03*
%TD*%
D21*
%TO.C,R1*%
X107090000Y-131100000D03*
X108110000Y-131100000D03*
%TD*%
D15*
%TO.C,C3*%
X93081250Y-119985000D03*
X93081250Y-121535000D03*
%TD*%
D26*
%TO.C,C4*%
X94281250Y-120880000D03*
X94281250Y-121840000D03*
%TD*%
%TO.C,C7*%
X96481250Y-120880000D03*
X96481250Y-121840000D03*
%TD*%
D20*
%TO.C,R7*%
X108870001Y-123095000D03*
X108870001Y-121445000D03*
%TD*%
D18*
%TO.C,R4*%
X90909999Y-131180001D03*
X89890001Y-131180001D03*
%TD*%
D20*
%TO.C,R5*%
X110410000Y-123095000D03*
X110410000Y-121445000D03*
%TD*%
D21*
%TO.C,R10*%
X90131250Y-125882500D03*
X91151250Y-125882500D03*
%TD*%
D27*
%TO.C,R13*%
X87050000Y-130300000D03*
X88700000Y-130300000D03*
%TD*%
D18*
%TO.C,R18*%
X106209999Y-131100000D03*
X105190001Y-131100000D03*
%TD*%
D28*
%TO.C,J1*%
X113744000Y-139980001D03*
D29*
X112728000Y-138200000D03*
X111712000Y-139980001D03*
X110696000Y-138200000D03*
X109680000Y-139980001D03*
X108664000Y-138200000D03*
X107648000Y-139980001D03*
X106632001Y-138200001D03*
X117044000Y-133380001D03*
X114754000Y-133380001D03*
X105614000Y-133380001D03*
X103324000Y-133380001D03*
D30*
X118314000Y-139090001D03*
X102054000Y-139090001D03*
%TD*%
D28*
%TO.C,J2*%
X94096000Y-140000000D03*
D29*
X93080000Y-138219999D03*
X92064000Y-140000000D03*
X91048000Y-138219999D03*
X90032000Y-140000000D03*
X89016000Y-138219999D03*
X88000000Y-140000000D03*
X86984001Y-138220000D03*
X97396000Y-133400000D03*
X95106000Y-133400000D03*
X85966000Y-133400000D03*
X83676000Y-133400000D03*
D30*
X98666000Y-139110000D03*
X82406000Y-139110000D03*
%TD*%
D27*
%TO.C,R14*%
X87050000Y-128772500D03*
X88700000Y-128772500D03*
%TD*%
M02*
