%TF.GenerationSoftware,KiCad,Pcbnew,9.0.4-9.0.4-0~ubuntu24.04.1*%
%TF.CreationDate,2025-09-27T21:59:24+02:00*%
%TF.ProjectId,ModuCard-vesc-to-mms-converter,4d6f6475-4361-4726-942d-766573632d74,rev?*%
%TF.SameCoordinates,Original*%
%TF.FileFunction,Soldermask,Bot*%
%TF.FilePolarity,Negative*%
%FSLAX46Y46*%
G04 Gerber Fmt 4.6, Leading zero omitted, Abs format (unit mm)*
G04 Created by KiCad (PCBNEW 9.0.4-9.0.4-0~ubuntu24.04.1) date 2025-09-27 21:59:24*
%MOMM*%
%LPD*%
G01*
G04 APERTURE LIST*
G04 Aperture macros list*
%AMRoundRect*
0 Rectangle with rounded corners*
0 $1 Rounding radius*
0 $2 $3 $4 $5 $6 $7 $8 $9 X,Y pos of 4 corners*
0 Add a 4 corners polygon primitive as box body*
4,1,4,$2,$3,$4,$5,$6,$7,$8,$9,$2,$3,0*
0 Add four circle primitives for the rounded corners*
1,1,$1+$1,$2,$3*
1,1,$1+$1,$4,$5*
1,1,$1+$1,$6,$7*
1,1,$1+$1,$8,$9*
0 Add four rect primitives between the rounded corners*
20,1,$1+$1,$2,$3,$4,$5,0*
20,1,$1+$1,$4,$5,$6,$7,0*
20,1,$1+$1,$6,$7,$8,$9,0*
20,1,$1+$1,$8,$9,$2,$3,0*%
G04 Aperture macros list end*
%ADD10C,0.900000*%
%ADD11C,8.000000*%
%ADD12RoundRect,0.250000X-0.600000X-0.725000X0.600000X-0.725000X0.600000X0.725000X-0.600000X0.725000X0*%
%ADD13O,1.700000X1.950000*%
%ADD14R,1.600000X1.600000*%
%ADD15O,1.600000X1.600000*%
%ADD16R,0.900000X2.000000*%
%ADD17RoundRect,1.025000X1.025000X1.025000X-1.025000X1.025000X-1.025000X-1.025000X1.025000X-1.025000X0*%
%ADD18C,4.100000*%
%ADD19C,3.250000*%
%ADD20R,1.500000X1.500000*%
%ADD21C,1.500000*%
%ADD22C,2.300000*%
G04 APERTURE END LIST*
D10*
%TO.C,H10*%
X98000000Y-105300000D03*
X97121320Y-107421320D03*
X97121320Y-103178680D03*
X95000000Y-108300000D03*
D11*
X95000000Y-105300000D03*
D10*
X95000000Y-102300000D03*
X92878680Y-107421320D03*
X92878680Y-103178680D03*
X92000000Y-105300000D03*
%TD*%
D12*
%TO.C,J3*%
X106660000Y-115245000D03*
D13*
X109160000Y-115245000D03*
X111660000Y-115245000D03*
X114160000Y-115245000D03*
%TD*%
D14*
%TO.C,SW1*%
X122110000Y-115580000D03*
D15*
X119570000Y-115580000D03*
X119570000Y-123200000D03*
X122110000Y-123200000D03*
%TD*%
D10*
%TO.C,H9*%
X122000000Y-105300000D03*
X122878680Y-103178680D03*
X122878680Y-107421320D03*
X125000000Y-102300000D03*
D11*
X125000000Y-105300000D03*
D10*
X125000000Y-108300000D03*
X127121320Y-103178680D03*
X127121320Y-107421320D03*
X128000000Y-105300000D03*
%TD*%
D12*
%TO.C,J4*%
X90740000Y-115240000D03*
D13*
X93240000Y-115240000D03*
X95740000Y-115240000D03*
X98240000Y-115240000D03*
X100740000Y-115240000D03*
%TD*%
D16*
%TO.C,J5*%
X138100000Y-137930001D03*
X124600000Y-137930001D03*
D17*
X134950000Y-131930001D03*
D18*
X127750000Y-131930001D03*
%TD*%
D19*
%TO.C,J1*%
X116534000Y-142520001D03*
X103834000Y-142520001D03*
D20*
X113744000Y-139980001D03*
D21*
X112728000Y-138200000D03*
X111712000Y-139980001D03*
X110696000Y-138200000D03*
X109680000Y-139980001D03*
X108664000Y-138200000D03*
X107648000Y-139980001D03*
X106632001Y-138200001D03*
X117044000Y-133380001D03*
X114754000Y-133380001D03*
X105614000Y-133380001D03*
X103324000Y-133380001D03*
D22*
X118314000Y-139090001D03*
X102054000Y-139090001D03*
%TD*%
D19*
%TO.C,J2*%
X96886000Y-142540000D03*
X84186000Y-142540000D03*
D20*
X94096000Y-140000000D03*
D21*
X93080000Y-138219999D03*
X92064000Y-140000000D03*
X91048000Y-138219999D03*
X90032000Y-140000000D03*
X89016000Y-138219999D03*
X88000000Y-140000000D03*
X86984001Y-138220000D03*
X97396000Y-133400000D03*
X95106000Y-133400000D03*
X85966000Y-133400000D03*
X83676000Y-133400000D03*
D22*
X98666000Y-139110000D03*
X82406000Y-139110000D03*
%TD*%
G36*
X139543039Y-100019685D02*
G01*
X139588794Y-100072489D01*
X139600000Y-100124000D01*
X139600000Y-120226000D01*
X139580315Y-120293039D01*
X139527511Y-120338794D01*
X139476000Y-120350000D01*
X132376017Y-120350000D01*
X132399934Y-129175664D01*
X132380431Y-129242757D01*
X132327751Y-129288654D01*
X132275934Y-129300000D01*
X124574000Y-129300000D01*
X124506961Y-129280315D01*
X124461206Y-129227511D01*
X124450000Y-129176000D01*
X124450000Y-128176000D01*
X125574000Y-128176000D01*
X126700000Y-128176000D01*
X127698000Y-128176000D01*
X129700000Y-128176000D01*
X129700000Y-127248000D01*
X127698000Y-127248000D01*
X127698000Y-128176000D01*
X126700000Y-128176000D01*
X126700000Y-127248000D01*
X125574000Y-127248000D01*
X125574000Y-128176000D01*
X124450000Y-128176000D01*
X124450000Y-126250000D01*
X125574000Y-126250000D01*
X126700000Y-126250000D01*
X127698000Y-126250000D01*
X129700000Y-126250000D01*
X130698000Y-126250000D01*
X131268001Y-126250000D01*
X131262576Y-124248000D01*
X130698000Y-124248000D01*
X130698000Y-126250000D01*
X129700000Y-126250000D01*
X129700000Y-124248000D01*
X127698000Y-124248000D01*
X127698000Y-126250000D01*
X126700000Y-126250000D01*
X126700000Y-124248000D01*
X125574000Y-124248000D01*
X125574000Y-126250000D01*
X124450000Y-126250000D01*
X124450000Y-123250000D01*
X125574000Y-123250000D01*
X126700000Y-123250000D01*
X127698000Y-123250000D01*
X129700000Y-123250000D01*
X130698000Y-123250000D01*
X131259871Y-123250000D01*
X131254446Y-121248000D01*
X130698000Y-121248000D01*
X130698000Y-123250000D01*
X129700000Y-123250000D01*
X129700000Y-121248000D01*
X127698000Y-121248000D01*
X127698000Y-123250000D01*
X126700000Y-123250000D01*
X126700000Y-121248000D01*
X125574000Y-121248000D01*
X125574000Y-123250000D01*
X124450000Y-123250000D01*
X124450000Y-120250000D01*
X125574000Y-120250000D01*
X126700000Y-120250000D01*
X127698000Y-120250000D01*
X129700000Y-120250000D01*
X130698000Y-120250000D01*
X131251741Y-120250000D01*
X131250896Y-119938040D01*
X131270399Y-119870947D01*
X131287096Y-119850142D01*
X131873209Y-119262438D01*
X131934487Y-119228870D01*
X131961009Y-119226000D01*
X132700000Y-119226000D01*
X133698000Y-119226000D01*
X135700000Y-119226000D01*
X136698000Y-119226000D01*
X138476000Y-119226000D01*
X138476000Y-118248000D01*
X136698000Y-118248000D01*
X136698000Y-119226000D01*
X135700000Y-119226000D01*
X135700000Y-118248000D01*
X133698000Y-118248000D01*
X133698000Y-119226000D01*
X132700000Y-119226000D01*
X132700000Y-118248000D01*
X130698000Y-118248000D01*
X130698000Y-120250000D01*
X129700000Y-120250000D01*
X129700000Y-118248000D01*
X127698000Y-118248000D01*
X127698000Y-120250000D01*
X126700000Y-120250000D01*
X126700000Y-118248000D01*
X125574000Y-118248000D01*
X125574000Y-120250000D01*
X124450000Y-120250000D01*
X124450000Y-117250000D01*
X125574000Y-117250000D01*
X126700000Y-117250000D01*
X127698000Y-117250000D01*
X129700000Y-117250000D01*
X130698000Y-117250000D01*
X132700000Y-117250000D01*
X133698000Y-117250000D01*
X135700000Y-117250000D01*
X136698000Y-117250000D01*
X138476000Y-117250000D01*
X138476000Y-115248000D01*
X136698000Y-115248000D01*
X136698000Y-117250000D01*
X135700000Y-117250000D01*
X135700000Y-115248000D01*
X133698000Y-115248000D01*
X133698000Y-117250000D01*
X132700000Y-117250000D01*
X132700000Y-115248000D01*
X130698000Y-115248000D01*
X130698000Y-117250000D01*
X129700000Y-117250000D01*
X129700000Y-115248000D01*
X127698000Y-115248000D01*
X127698000Y-117250000D01*
X126700000Y-117250000D01*
X126700000Y-115248000D01*
X125574000Y-115248000D01*
X125574000Y-117250000D01*
X124450000Y-117250000D01*
X124450000Y-114250000D01*
X125574000Y-114250000D01*
X126700000Y-114250000D01*
X127698000Y-114250000D01*
X129700000Y-114250000D01*
X130698000Y-114250000D01*
X132700000Y-114250000D01*
X133698000Y-114250000D01*
X135700000Y-114250000D01*
X136698000Y-114250000D01*
X138476000Y-114250000D01*
X138476000Y-112248000D01*
X136698000Y-112248000D01*
X136698000Y-114250000D01*
X135700000Y-114250000D01*
X135700000Y-112248000D01*
X133698000Y-112248000D01*
X133698000Y-114250000D01*
X132700000Y-114250000D01*
X132700000Y-112248000D01*
X130698000Y-112248000D01*
X130698000Y-114250000D01*
X129700000Y-114250000D01*
X129700000Y-112248000D01*
X127698000Y-112248000D01*
X127698000Y-114250000D01*
X126700000Y-114250000D01*
X126700000Y-112248000D01*
X125574000Y-112248000D01*
X125574000Y-114250000D01*
X124450000Y-114250000D01*
X124450000Y-110529205D01*
X130698000Y-110529205D01*
X130698000Y-111250000D01*
X132700000Y-111250000D01*
X133698000Y-111250000D01*
X135700000Y-111250000D01*
X136698000Y-111250000D01*
X138476000Y-111250000D01*
X138476000Y-109248000D01*
X136698000Y-109248000D01*
X136698000Y-111250000D01*
X135700000Y-111250000D01*
X135700000Y-109248000D01*
X133698000Y-109248000D01*
X133698000Y-111250000D01*
X132700000Y-111250000D01*
X132700000Y-109248000D01*
X130757226Y-109248000D01*
X130767759Y-110406644D01*
X130748685Y-110473859D01*
X130731843Y-110495053D01*
X130698000Y-110529205D01*
X124450000Y-110529205D01*
X124450000Y-110124000D01*
X124469685Y-110056961D01*
X124522489Y-110011206D01*
X124574000Y-110000000D01*
X129640016Y-110000000D01*
X129640016Y-109999999D01*
X129605907Y-106248000D01*
X130729953Y-106248000D01*
X130748153Y-108250000D01*
X132700000Y-108250000D01*
X133698000Y-108250000D01*
X135700000Y-108250000D01*
X136698000Y-108250000D01*
X138476000Y-108250000D01*
X138476000Y-106248000D01*
X136698000Y-106248000D01*
X136698000Y-108250000D01*
X135700000Y-108250000D01*
X135700000Y-106248000D01*
X133698000Y-106248000D01*
X133698000Y-108250000D01*
X132700000Y-108250000D01*
X132700000Y-106248000D01*
X130729953Y-106248000D01*
X129605907Y-106248000D01*
X129578634Y-103248000D01*
X130702681Y-103248000D01*
X130720881Y-105250000D01*
X132700000Y-105250000D01*
X133698000Y-105250000D01*
X135700000Y-105250000D01*
X136698000Y-105250000D01*
X138476000Y-105250000D01*
X138476000Y-103248000D01*
X136698000Y-103248000D01*
X136698000Y-105250000D01*
X135700000Y-105250000D01*
X135700000Y-103248000D01*
X133698000Y-103248000D01*
X133698000Y-105250000D01*
X132700000Y-105250000D01*
X132700000Y-103248000D01*
X130702681Y-103248000D01*
X129578634Y-103248000D01*
X129569561Y-102250000D01*
X130698000Y-102250000D01*
X132700000Y-102250000D01*
X133698000Y-102250000D01*
X135700000Y-102250000D01*
X136698000Y-102250000D01*
X138476000Y-102250000D01*
X138476000Y-101124000D01*
X136698000Y-101124000D01*
X136698000Y-102250000D01*
X135700000Y-102250000D01*
X135700000Y-101124000D01*
X133698000Y-101124000D01*
X133698000Y-102250000D01*
X132700000Y-102250000D01*
X132700000Y-101124000D01*
X130698000Y-101124000D01*
X130698000Y-102250000D01*
X129569561Y-102250000D01*
X129550248Y-100125533D01*
X129569322Y-100058318D01*
X129621708Y-100012085D01*
X129674089Y-100000406D01*
X130000001Y-100000000D01*
X139476000Y-100000000D01*
X139543039Y-100019685D01*
G37*
M02*
