%TF.GenerationSoftware,KiCad,Pcbnew,9.0.4-9.0.4-0~ubuntu24.04.1*%
%TF.CreationDate,2025-09-27T21:59:24+02:00*%
%TF.ProjectId,ModuCard-vesc-to-mms-converter,4d6f6475-4361-4726-942d-766573632d74,rev?*%
%TF.SameCoordinates,Original*%
%TF.FileFunction,Legend,Top*%
%TF.FilePolarity,Positive*%
%FSLAX46Y46*%
G04 Gerber Fmt 4.6, Leading zero omitted, Abs format (unit mm)*
G04 Created by KiCad (PCBNEW 9.0.4-9.0.4-0~ubuntu24.04.1) date 2025-09-27 21:59:24*
%MOMM*%
%LPD*%
G01*
G04 APERTURE LIST*
G04 Aperture macros list*
%AMRoundRect*
0 Rectangle with rounded corners*
0 $1 Rounding radius*
0 $2 $3 $4 $5 $6 $7 $8 $9 X,Y pos of 4 corners*
0 Add a 4 corners polygon primitive as box body*
4,1,4,$2,$3,$4,$5,$6,$7,$8,$9,$2,$3,0*
0 Add four circle primitives for the rounded corners*
1,1,$1+$1,$2,$3*
1,1,$1+$1,$4,$5*
1,1,$1+$1,$6,$7*
1,1,$1+$1,$8,$9*
0 Add four rect primitives between the rounded corners*
20,1,$1+$1,$2,$3,$4,$5,0*
20,1,$1+$1,$4,$5,$6,$7,0*
20,1,$1+$1,$6,$7,$8,$9,0*
20,1,$1+$1,$8,$9,$2,$3,0*%
G04 Aperture macros list end*
%ADD10C,0.100000*%
%ADD11C,0.200000*%
%ADD12C,0.140000*%
%ADD13C,0.150000*%
%ADD14C,0.000000*%
%ADD15C,0.120000*%
%ADD16C,0.900000*%
%ADD17C,8.000000*%
%ADD18RoundRect,0.100000X-0.712500X-0.100000X0.712500X-0.100000X0.712500X0.100000X-0.712500X0.100000X0*%
%ADD19RoundRect,0.250000X-0.600000X-0.725000X0.600000X-0.725000X0.600000X0.725000X-0.600000X0.725000X0*%
%ADD20O,1.700000X1.950000*%
%ADD21RoundRect,0.225000X-0.250000X0.225000X-0.250000X-0.225000X0.250000X-0.225000X0.250000X0.225000X0*%
%ADD22R,1.600000X1.600000*%
%ADD23O,1.600000X1.600000*%
%ADD24RoundRect,0.135000X0.135000X0.185000X-0.135000X0.185000X-0.135000X-0.185000X0.135000X-0.185000X0*%
%ADD25RoundRect,0.200000X-0.275000X0.200000X-0.275000X-0.200000X0.275000X-0.200000X0.275000X0.200000X0*%
%ADD26RoundRect,0.200000X0.275000X-0.200000X0.275000X0.200000X-0.275000X0.200000X-0.275000X-0.200000X0*%
%ADD27RoundRect,0.135000X-0.135000X-0.185000X0.135000X-0.185000X0.135000X0.185000X-0.135000X0.185000X0*%
%ADD28R,0.900000X2.000000*%
%ADD29RoundRect,1.025000X1.025000X1.025000X-1.025000X1.025000X-1.025000X-1.025000X1.025000X-1.025000X0*%
%ADD30C,4.100000*%
%ADD31R,1.200000X1.400000*%
%ADD32RoundRect,0.140000X-0.170000X0.140000X-0.170000X-0.140000X0.170000X-0.140000X0.170000X0.140000X0*%
%ADD33RoundRect,0.200000X-0.200000X-0.275000X0.200000X-0.275000X0.200000X0.275000X-0.200000X0.275000X0*%
%ADD34C,3.250000*%
%ADD35R,1.500000X1.500000*%
%ADD36C,1.500000*%
%ADD37C,2.300000*%
G04 APERTURE END LIST*
D10*
X89010000Y-128120000D02*
X86050000Y-128120000D01*
X110470000Y-124470000D02*
X110670000Y-124970000D01*
X86040000Y-131100000D02*
X86050000Y-128120000D01*
X82850000Y-122400000D02*
X89750000Y-122400000D01*
X90550000Y-122800000D02*
X90450000Y-122200000D01*
X107630000Y-119420000D02*
X111230000Y-119420000D01*
X111230000Y-124050000D01*
X107630000Y-124050000D01*
X107630000Y-119420000D01*
X89750000Y-122400000D02*
X90550000Y-122800000D01*
X89000000Y-131100000D02*
X86040000Y-131100000D01*
X115070000Y-124970000D02*
X111470000Y-124970000D01*
X110470000Y-124470000D02*
X110970000Y-124370000D01*
X90550000Y-122800000D02*
X89950000Y-122900000D01*
X103730000Y-119420000D02*
X107530000Y-119420000D01*
X107530000Y-124060000D01*
X103730000Y-124060000D01*
X103730000Y-119420000D01*
X111470000Y-124970000D02*
X110470000Y-124470000D01*
X89010000Y-128120000D02*
X89000000Y-131100000D01*
D11*
X111593958Y-126075645D02*
X111708244Y-126113740D01*
X111708244Y-126113740D02*
X111898720Y-126113740D01*
X111898720Y-126113740D02*
X111974911Y-126075645D01*
X111974911Y-126075645D02*
X112013006Y-126037549D01*
X112013006Y-126037549D02*
X112051101Y-125961359D01*
X112051101Y-125961359D02*
X112051101Y-125885168D01*
X112051101Y-125885168D02*
X112013006Y-125808978D01*
X112013006Y-125808978D02*
X111974911Y-125770883D01*
X111974911Y-125770883D02*
X111898720Y-125732787D01*
X111898720Y-125732787D02*
X111746339Y-125694692D01*
X111746339Y-125694692D02*
X111670149Y-125656597D01*
X111670149Y-125656597D02*
X111632054Y-125618502D01*
X111632054Y-125618502D02*
X111593958Y-125542311D01*
X111593958Y-125542311D02*
X111593958Y-125466121D01*
X111593958Y-125466121D02*
X111632054Y-125389930D01*
X111632054Y-125389930D02*
X111670149Y-125351835D01*
X111670149Y-125351835D02*
X111746339Y-125313740D01*
X111746339Y-125313740D02*
X111936816Y-125313740D01*
X111936816Y-125313740D02*
X112051101Y-125351835D01*
X112546340Y-125313740D02*
X112698721Y-125313740D01*
X112698721Y-125313740D02*
X112774911Y-125351835D01*
X112774911Y-125351835D02*
X112851102Y-125428025D01*
X112851102Y-125428025D02*
X112889197Y-125580406D01*
X112889197Y-125580406D02*
X112889197Y-125847073D01*
X112889197Y-125847073D02*
X112851102Y-125999454D01*
X112851102Y-125999454D02*
X112774911Y-126075645D01*
X112774911Y-126075645D02*
X112698721Y-126113740D01*
X112698721Y-126113740D02*
X112546340Y-126113740D01*
X112546340Y-126113740D02*
X112470149Y-126075645D01*
X112470149Y-126075645D02*
X112393959Y-125999454D01*
X112393959Y-125999454D02*
X112355863Y-125847073D01*
X112355863Y-125847073D02*
X112355863Y-125580406D01*
X112355863Y-125580406D02*
X112393959Y-125428025D01*
X112393959Y-125428025D02*
X112470149Y-125351835D01*
X112470149Y-125351835D02*
X112546340Y-125313740D01*
X113613006Y-126113740D02*
X113232054Y-126113740D01*
X113232054Y-126113740D02*
X113232054Y-125313740D01*
X113879673Y-126113740D02*
X113879673Y-125313740D01*
X113879673Y-125313740D02*
X114070149Y-125313740D01*
X114070149Y-125313740D02*
X114184435Y-125351835D01*
X114184435Y-125351835D02*
X114260625Y-125428025D01*
X114260625Y-125428025D02*
X114298720Y-125504216D01*
X114298720Y-125504216D02*
X114336816Y-125656597D01*
X114336816Y-125656597D02*
X114336816Y-125770883D01*
X114336816Y-125770883D02*
X114298720Y-125923264D01*
X114298720Y-125923264D02*
X114260625Y-125999454D01*
X114260625Y-125999454D02*
X114184435Y-126075645D01*
X114184435Y-126075645D02*
X114070149Y-126113740D01*
X114070149Y-126113740D02*
X113879673Y-126113740D01*
X114679673Y-125694692D02*
X114946339Y-125694692D01*
X115060625Y-126113740D02*
X114679673Y-126113740D01*
X114679673Y-126113740D02*
X114679673Y-125313740D01*
X114679673Y-125313740D02*
X115060625Y-125313740D01*
X115860626Y-126113740D02*
X115593959Y-125732787D01*
X115403483Y-126113740D02*
X115403483Y-125313740D01*
X115403483Y-125313740D02*
X115708245Y-125313740D01*
X115708245Y-125313740D02*
X115784435Y-125351835D01*
X115784435Y-125351835D02*
X115822530Y-125389930D01*
X115822530Y-125389930D02*
X115860626Y-125466121D01*
X115860626Y-125466121D02*
X115860626Y-125580406D01*
X115860626Y-125580406D02*
X115822530Y-125656597D01*
X115822530Y-125656597D02*
X115784435Y-125694692D01*
X115784435Y-125694692D02*
X115708245Y-125732787D01*
X115708245Y-125732787D02*
X115403483Y-125732787D01*
X116965388Y-125313740D02*
X117117769Y-125313740D01*
X117117769Y-125313740D02*
X117193959Y-125351835D01*
X117193959Y-125351835D02*
X117270150Y-125428025D01*
X117270150Y-125428025D02*
X117308245Y-125580406D01*
X117308245Y-125580406D02*
X117308245Y-125847073D01*
X117308245Y-125847073D02*
X117270150Y-125999454D01*
X117270150Y-125999454D02*
X117193959Y-126075645D01*
X117193959Y-126075645D02*
X117117769Y-126113740D01*
X117117769Y-126113740D02*
X116965388Y-126113740D01*
X116965388Y-126113740D02*
X116889197Y-126075645D01*
X116889197Y-126075645D02*
X116813007Y-125999454D01*
X116813007Y-125999454D02*
X116774911Y-125847073D01*
X116774911Y-125847073D02*
X116774911Y-125580406D01*
X116774911Y-125580406D02*
X116813007Y-125428025D01*
X116813007Y-125428025D02*
X116889197Y-125351835D01*
X116889197Y-125351835D02*
X116965388Y-125313740D01*
X117651102Y-126113740D02*
X117651102Y-125313740D01*
X117651102Y-125313740D02*
X118108245Y-126113740D01*
X118108245Y-126113740D02*
X118108245Y-125313740D01*
X118870149Y-126113740D02*
X118489197Y-126113740D01*
X118489197Y-126113740D02*
X118489197Y-125313740D01*
X119289197Y-125732787D02*
X119289197Y-126113740D01*
X119022530Y-125313740D02*
X119289197Y-125732787D01*
X119289197Y-125732787D02*
X119555863Y-125313740D01*
X111784435Y-126601695D02*
X111936816Y-126601695D01*
X111936816Y-126601695D02*
X112013006Y-126639790D01*
X112013006Y-126639790D02*
X112089197Y-126715980D01*
X112089197Y-126715980D02*
X112127292Y-126868361D01*
X112127292Y-126868361D02*
X112127292Y-127135028D01*
X112127292Y-127135028D02*
X112089197Y-127287409D01*
X112089197Y-127287409D02*
X112013006Y-127363600D01*
X112013006Y-127363600D02*
X111936816Y-127401695D01*
X111936816Y-127401695D02*
X111784435Y-127401695D01*
X111784435Y-127401695D02*
X111708244Y-127363600D01*
X111708244Y-127363600D02*
X111632054Y-127287409D01*
X111632054Y-127287409D02*
X111593958Y-127135028D01*
X111593958Y-127135028D02*
X111593958Y-126868361D01*
X111593958Y-126868361D02*
X111632054Y-126715980D01*
X111632054Y-126715980D02*
X111708244Y-126639790D01*
X111708244Y-126639790D02*
X111784435Y-126601695D01*
X112470149Y-127401695D02*
X112470149Y-126601695D01*
X112470149Y-126601695D02*
X112927292Y-127401695D01*
X112927292Y-127401695D02*
X112927292Y-126601695D01*
X113308244Y-126982647D02*
X113574910Y-126982647D01*
X113689196Y-127401695D02*
X113308244Y-127401695D01*
X113308244Y-127401695D02*
X113308244Y-126601695D01*
X113308244Y-126601695D02*
X113689196Y-126601695D01*
X115060625Y-126639790D02*
X114984435Y-126601695D01*
X114984435Y-126601695D02*
X114870149Y-126601695D01*
X114870149Y-126601695D02*
X114755863Y-126639790D01*
X114755863Y-126639790D02*
X114679673Y-126715980D01*
X114679673Y-126715980D02*
X114641578Y-126792171D01*
X114641578Y-126792171D02*
X114603482Y-126944552D01*
X114603482Y-126944552D02*
X114603482Y-127058838D01*
X114603482Y-127058838D02*
X114641578Y-127211219D01*
X114641578Y-127211219D02*
X114679673Y-127287409D01*
X114679673Y-127287409D02*
X114755863Y-127363600D01*
X114755863Y-127363600D02*
X114870149Y-127401695D01*
X114870149Y-127401695D02*
X114946340Y-127401695D01*
X114946340Y-127401695D02*
X115060625Y-127363600D01*
X115060625Y-127363600D02*
X115098721Y-127325504D01*
X115098721Y-127325504D02*
X115098721Y-127058838D01*
X115098721Y-127058838D02*
X114946340Y-127058838D01*
X115898721Y-127401695D02*
X115632054Y-127020742D01*
X115441578Y-127401695D02*
X115441578Y-126601695D01*
X115441578Y-126601695D02*
X115746340Y-126601695D01*
X115746340Y-126601695D02*
X115822530Y-126639790D01*
X115822530Y-126639790D02*
X115860625Y-126677885D01*
X115860625Y-126677885D02*
X115898721Y-126754076D01*
X115898721Y-126754076D02*
X115898721Y-126868361D01*
X115898721Y-126868361D02*
X115860625Y-126944552D01*
X115860625Y-126944552D02*
X115822530Y-126982647D01*
X115822530Y-126982647D02*
X115746340Y-127020742D01*
X115746340Y-127020742D02*
X115441578Y-127020742D01*
X116393959Y-126601695D02*
X116546340Y-126601695D01*
X116546340Y-126601695D02*
X116622530Y-126639790D01*
X116622530Y-126639790D02*
X116698721Y-126715980D01*
X116698721Y-126715980D02*
X116736816Y-126868361D01*
X116736816Y-126868361D02*
X116736816Y-127135028D01*
X116736816Y-127135028D02*
X116698721Y-127287409D01*
X116698721Y-127287409D02*
X116622530Y-127363600D01*
X116622530Y-127363600D02*
X116546340Y-127401695D01*
X116546340Y-127401695D02*
X116393959Y-127401695D01*
X116393959Y-127401695D02*
X116317768Y-127363600D01*
X116317768Y-127363600D02*
X116241578Y-127287409D01*
X116241578Y-127287409D02*
X116203482Y-127135028D01*
X116203482Y-127135028D02*
X116203482Y-126868361D01*
X116203482Y-126868361D02*
X116241578Y-126715980D01*
X116241578Y-126715980D02*
X116317768Y-126639790D01*
X116317768Y-126639790D02*
X116393959Y-126601695D01*
X117079673Y-126601695D02*
X117079673Y-127249314D01*
X117079673Y-127249314D02*
X117117768Y-127325504D01*
X117117768Y-127325504D02*
X117155863Y-127363600D01*
X117155863Y-127363600D02*
X117232054Y-127401695D01*
X117232054Y-127401695D02*
X117384435Y-127401695D01*
X117384435Y-127401695D02*
X117460625Y-127363600D01*
X117460625Y-127363600D02*
X117498720Y-127325504D01*
X117498720Y-127325504D02*
X117536816Y-127249314D01*
X117536816Y-127249314D02*
X117536816Y-126601695D01*
X117917768Y-127401695D02*
X117917768Y-126601695D01*
X117917768Y-126601695D02*
X118222530Y-126601695D01*
X118222530Y-126601695D02*
X118298720Y-126639790D01*
X118298720Y-126639790D02*
X118336815Y-126677885D01*
X118336815Y-126677885D02*
X118374911Y-126754076D01*
X118374911Y-126754076D02*
X118374911Y-126868361D01*
X118374911Y-126868361D02*
X118336815Y-126944552D01*
X118336815Y-126944552D02*
X118298720Y-126982647D01*
X118298720Y-126982647D02*
X118222530Y-127020742D01*
X118222530Y-127020742D02*
X117917768Y-127020742D01*
D10*
G36*
X105263084Y-120236704D02*
G01*
X104925636Y-120236704D01*
X105094360Y-119730532D01*
X105263084Y-120236704D01*
G37*
G36*
X107489760Y-120733530D02*
G01*
X103695154Y-120733530D01*
X103695154Y-120000990D01*
X103806265Y-120000990D01*
X103806265Y-120143847D01*
X103807460Y-120149856D01*
X103807758Y-120155974D01*
X103855377Y-120346450D01*
X103857716Y-120351402D01*
X103859163Y-120356684D01*
X103906781Y-120451921D01*
X103911692Y-120458249D01*
X103916147Y-120464916D01*
X104011386Y-120560155D01*
X104013467Y-120561545D01*
X104013981Y-120562573D01*
X104020946Y-120566543D01*
X104027607Y-120570994D01*
X104028755Y-120570994D01*
X104030930Y-120572234D01*
X104173786Y-120619853D01*
X104181736Y-120620855D01*
X104189598Y-120622419D01*
X104284836Y-120622419D01*
X104292698Y-120620855D01*
X104300647Y-120619853D01*
X104432317Y-120575963D01*
X104711153Y-120575963D01*
X104728267Y-120610192D01*
X104764571Y-120622293D01*
X104798800Y-120605179D01*
X104808461Y-120588230D01*
X104892303Y-120336704D01*
X105296417Y-120336704D01*
X105380259Y-120588230D01*
X105389920Y-120605178D01*
X105424149Y-120622293D01*
X105460453Y-120610191D01*
X105477567Y-120575963D01*
X105475127Y-120556607D01*
X105147064Y-119572419D01*
X105711027Y-119572419D01*
X105711027Y-120572419D01*
X105714833Y-120591553D01*
X105741893Y-120618613D01*
X105780161Y-120618613D01*
X105807221Y-120591553D01*
X105811027Y-120572419D01*
X105811027Y-119760697D01*
X106289043Y-120597226D01*
X106301841Y-120611951D01*
X106308465Y-120613757D01*
X106313321Y-120618613D01*
X106326269Y-120618613D01*
X106338761Y-120622020D01*
X106344723Y-120618613D01*
X106351589Y-120618613D01*
X106360742Y-120609459D01*
X106371987Y-120603034D01*
X106373794Y-120596407D01*
X106378649Y-120591553D01*
X106382455Y-120572419D01*
X106382455Y-119861678D01*
X106711153Y-119861678D01*
X106728267Y-119895906D01*
X106764572Y-119908007D01*
X106783388Y-119902854D01*
X106878625Y-119855236D01*
X106884958Y-119850320D01*
X106891620Y-119845869D01*
X106986858Y-119750631D01*
X106989606Y-119746517D01*
X106993106Y-119743011D01*
X106996741Y-119737558D01*
X106996741Y-120522419D01*
X106761027Y-120522419D01*
X106741893Y-120526225D01*
X106714833Y-120553285D01*
X106714833Y-120591553D01*
X106741893Y-120618613D01*
X106761027Y-120622419D01*
X107332455Y-120622419D01*
X107351589Y-120618613D01*
X107378649Y-120591553D01*
X107378649Y-120553285D01*
X107351589Y-120526225D01*
X107332455Y-120522419D01*
X107096741Y-120522419D01*
X107096741Y-119572419D01*
X107092935Y-119553285D01*
X107089294Y-119549644D01*
X107088285Y-119544597D01*
X107076169Y-119536519D01*
X107065875Y-119526225D01*
X107060729Y-119526225D01*
X107056445Y-119523369D01*
X107042167Y-119526225D01*
X107027607Y-119526225D01*
X107023966Y-119529865D01*
X107018919Y-119530875D01*
X107005139Y-119544684D01*
X106912644Y-119683424D01*
X106826648Y-119769421D01*
X106738666Y-119813412D01*
X106723254Y-119825373D01*
X106711153Y-119861678D01*
X106382455Y-119861678D01*
X106382455Y-119572419D01*
X106378649Y-119553285D01*
X106351589Y-119526225D01*
X106313321Y-119526225D01*
X106286261Y-119553285D01*
X106282455Y-119572419D01*
X106282455Y-120384140D01*
X105804439Y-119547612D01*
X105791642Y-119532887D01*
X105785015Y-119531079D01*
X105780161Y-119526225D01*
X105767214Y-119526225D01*
X105754721Y-119522818D01*
X105748759Y-119526225D01*
X105741893Y-119526225D01*
X105732739Y-119535378D01*
X105721495Y-119541804D01*
X105719687Y-119548430D01*
X105714833Y-119553285D01*
X105711027Y-119572419D01*
X105147064Y-119572419D01*
X105141794Y-119556608D01*
X105132133Y-119539659D01*
X105128790Y-119537987D01*
X105127120Y-119534647D01*
X105112083Y-119529634D01*
X105097904Y-119522545D01*
X105094359Y-119523726D01*
X105090816Y-119522545D01*
X105076642Y-119529632D01*
X105061600Y-119534646D01*
X105059928Y-119537989D01*
X105056587Y-119539660D01*
X105046926Y-119556608D01*
X104713593Y-120556608D01*
X104711153Y-120575963D01*
X104432317Y-120575963D01*
X104443504Y-120572234D01*
X104445679Y-120570994D01*
X104446828Y-120570994D01*
X104453498Y-120566536D01*
X104460452Y-120562573D01*
X104460964Y-120561547D01*
X104463049Y-120560155D01*
X104510668Y-120512535D01*
X104521506Y-120496314D01*
X104521506Y-120458045D01*
X104494446Y-120430986D01*
X104456177Y-120430986D01*
X104439956Y-120441825D01*
X104400683Y-120481098D01*
X104276723Y-120522419D01*
X104197711Y-120522419D01*
X104073751Y-120481099D01*
X103992595Y-120399942D01*
X103951060Y-120316872D01*
X103906265Y-120137692D01*
X103906265Y-120007145D01*
X103951060Y-119827965D01*
X103992596Y-119744893D01*
X104073749Y-119663739D01*
X104197711Y-119622419D01*
X104276723Y-119622419D01*
X104400684Y-119663739D01*
X104439956Y-119703012D01*
X104456177Y-119713851D01*
X104494446Y-119713851D01*
X104521506Y-119686791D01*
X104521506Y-119648522D01*
X104510667Y-119632301D01*
X104463048Y-119584683D01*
X104460965Y-119583291D01*
X104460452Y-119582265D01*
X104453491Y-119578297D01*
X104446827Y-119573844D01*
X104445679Y-119573844D01*
X104443504Y-119572604D01*
X104300647Y-119524985D01*
X104292698Y-119523982D01*
X104284836Y-119522419D01*
X104189598Y-119522419D01*
X104181736Y-119523982D01*
X104173786Y-119524985D01*
X104030930Y-119572604D01*
X104028755Y-119573844D01*
X104027607Y-119573844D01*
X104020946Y-119578294D01*
X104013981Y-119582265D01*
X104013467Y-119583292D01*
X104011386Y-119584683D01*
X103916148Y-119679921D01*
X103911696Y-119686582D01*
X103906781Y-119692916D01*
X103859163Y-119788153D01*
X103857716Y-119793434D01*
X103855377Y-119798387D01*
X103807758Y-119988863D01*
X103807460Y-119994980D01*
X103806265Y-120000990D01*
X103695154Y-120000990D01*
X103695154Y-119411308D01*
X107489760Y-119411308D01*
X107489760Y-120733530D01*
G37*
D12*
X82908771Y-119653131D02*
X82908771Y-118953131D01*
X82908771Y-118953131D02*
X83075438Y-118953131D01*
X83075438Y-118953131D02*
X83175438Y-118986464D01*
X83175438Y-118986464D02*
X83242105Y-119053131D01*
X83242105Y-119053131D02*
X83275438Y-119119798D01*
X83275438Y-119119798D02*
X83308771Y-119253131D01*
X83308771Y-119253131D02*
X83308771Y-119353131D01*
X83308771Y-119353131D02*
X83275438Y-119486464D01*
X83275438Y-119486464D02*
X83242105Y-119553131D01*
X83242105Y-119553131D02*
X83175438Y-119619798D01*
X83175438Y-119619798D02*
X83075438Y-119653131D01*
X83075438Y-119653131D02*
X82908771Y-119653131D01*
X83708771Y-119653131D02*
X83642105Y-119619798D01*
X83642105Y-119619798D02*
X83608771Y-119586464D01*
X83608771Y-119586464D02*
X83575438Y-119519798D01*
X83575438Y-119519798D02*
X83575438Y-119319798D01*
X83575438Y-119319798D02*
X83608771Y-119253131D01*
X83608771Y-119253131D02*
X83642105Y-119219798D01*
X83642105Y-119219798D02*
X83708771Y-119186464D01*
X83708771Y-119186464D02*
X83808771Y-119186464D01*
X83808771Y-119186464D02*
X83875438Y-119219798D01*
X83875438Y-119219798D02*
X83908771Y-119253131D01*
X83908771Y-119253131D02*
X83942105Y-119319798D01*
X83942105Y-119319798D02*
X83942105Y-119519798D01*
X83942105Y-119519798D02*
X83908771Y-119586464D01*
X83908771Y-119586464D02*
X83875438Y-119619798D01*
X83875438Y-119619798D02*
X83808771Y-119653131D01*
X83808771Y-119653131D02*
X83708771Y-119653131D01*
X84775437Y-119653131D02*
X84775437Y-118953131D01*
X84775437Y-118953131D02*
X85175437Y-119653131D01*
X85175437Y-119653131D02*
X85175437Y-118953131D01*
X85642104Y-118953131D02*
X85775437Y-118953131D01*
X85775437Y-118953131D02*
X85842104Y-118986464D01*
X85842104Y-118986464D02*
X85908770Y-119053131D01*
X85908770Y-119053131D02*
X85942104Y-119186464D01*
X85942104Y-119186464D02*
X85942104Y-119419798D01*
X85942104Y-119419798D02*
X85908770Y-119553131D01*
X85908770Y-119553131D02*
X85842104Y-119619798D01*
X85842104Y-119619798D02*
X85775437Y-119653131D01*
X85775437Y-119653131D02*
X85642104Y-119653131D01*
X85642104Y-119653131D02*
X85575437Y-119619798D01*
X85575437Y-119619798D02*
X85508770Y-119553131D01*
X85508770Y-119553131D02*
X85475437Y-119419798D01*
X85475437Y-119419798D02*
X85475437Y-119186464D01*
X85475437Y-119186464D02*
X85508770Y-119053131D01*
X85508770Y-119053131D02*
X85575437Y-118986464D01*
X85575437Y-118986464D02*
X85642104Y-118953131D01*
X86142103Y-118953131D02*
X86542103Y-118953131D01*
X86342103Y-119653131D02*
X86342103Y-118953131D01*
X87275436Y-119619798D02*
X87342103Y-119653131D01*
X87342103Y-119653131D02*
X87475436Y-119653131D01*
X87475436Y-119653131D02*
X87542103Y-119619798D01*
X87542103Y-119619798D02*
X87575436Y-119553131D01*
X87575436Y-119553131D02*
X87575436Y-119519798D01*
X87575436Y-119519798D02*
X87542103Y-119453131D01*
X87542103Y-119453131D02*
X87475436Y-119419798D01*
X87475436Y-119419798D02*
X87375436Y-119419798D01*
X87375436Y-119419798D02*
X87308769Y-119386464D01*
X87308769Y-119386464D02*
X87275436Y-119319798D01*
X87275436Y-119319798D02*
X87275436Y-119286464D01*
X87275436Y-119286464D02*
X87308769Y-119219798D01*
X87308769Y-119219798D02*
X87375436Y-119186464D01*
X87375436Y-119186464D02*
X87475436Y-119186464D01*
X87475436Y-119186464D02*
X87542103Y-119219798D01*
X87975436Y-119653131D02*
X87908770Y-119619798D01*
X87908770Y-119619798D02*
X87875436Y-119586464D01*
X87875436Y-119586464D02*
X87842103Y-119519798D01*
X87842103Y-119519798D02*
X87842103Y-119319798D01*
X87842103Y-119319798D02*
X87875436Y-119253131D01*
X87875436Y-119253131D02*
X87908770Y-119219798D01*
X87908770Y-119219798D02*
X87975436Y-119186464D01*
X87975436Y-119186464D02*
X88075436Y-119186464D01*
X88075436Y-119186464D02*
X88142103Y-119219798D01*
X88142103Y-119219798D02*
X88175436Y-119253131D01*
X88175436Y-119253131D02*
X88208770Y-119319798D01*
X88208770Y-119319798D02*
X88208770Y-119519798D01*
X88208770Y-119519798D02*
X88175436Y-119586464D01*
X88175436Y-119586464D02*
X88142103Y-119619798D01*
X88142103Y-119619798D02*
X88075436Y-119653131D01*
X88075436Y-119653131D02*
X87975436Y-119653131D01*
X88608769Y-119653131D02*
X88542103Y-119619798D01*
X88542103Y-119619798D02*
X88508769Y-119553131D01*
X88508769Y-119553131D02*
X88508769Y-118953131D01*
X89175436Y-119653131D02*
X89175436Y-118953131D01*
X89175436Y-119619798D02*
X89108770Y-119653131D01*
X89108770Y-119653131D02*
X88975436Y-119653131D01*
X88975436Y-119653131D02*
X88908770Y-119619798D01*
X88908770Y-119619798D02*
X88875436Y-119586464D01*
X88875436Y-119586464D02*
X88842103Y-119519798D01*
X88842103Y-119519798D02*
X88842103Y-119319798D01*
X88842103Y-119319798D02*
X88875436Y-119253131D01*
X88875436Y-119253131D02*
X88908770Y-119219798D01*
X88908770Y-119219798D02*
X88975436Y-119186464D01*
X88975436Y-119186464D02*
X89108770Y-119186464D01*
X89108770Y-119186464D02*
X89175436Y-119219798D01*
X89775436Y-119619798D02*
X89708769Y-119653131D01*
X89708769Y-119653131D02*
X89575436Y-119653131D01*
X89575436Y-119653131D02*
X89508769Y-119619798D01*
X89508769Y-119619798D02*
X89475436Y-119553131D01*
X89475436Y-119553131D02*
X89475436Y-119286464D01*
X89475436Y-119286464D02*
X89508769Y-119219798D01*
X89508769Y-119219798D02*
X89575436Y-119186464D01*
X89575436Y-119186464D02*
X89708769Y-119186464D01*
X89708769Y-119186464D02*
X89775436Y-119219798D01*
X89775436Y-119219798D02*
X89808769Y-119286464D01*
X89808769Y-119286464D02*
X89808769Y-119353131D01*
X89808769Y-119353131D02*
X89475436Y-119419798D01*
X90108769Y-119653131D02*
X90108769Y-119186464D01*
X90108769Y-119319798D02*
X90142103Y-119253131D01*
X90142103Y-119253131D02*
X90175436Y-119219798D01*
X90175436Y-119219798D02*
X90242103Y-119186464D01*
X90242103Y-119186464D02*
X90308769Y-119186464D01*
X83208771Y-120313425D02*
X83208771Y-120780092D01*
X82908771Y-120313425D02*
X82908771Y-120680092D01*
X82908771Y-120680092D02*
X82942105Y-120746759D01*
X82942105Y-120746759D02*
X83008771Y-120780092D01*
X83008771Y-120780092D02*
X83108771Y-120780092D01*
X83108771Y-120780092D02*
X83175438Y-120746759D01*
X83175438Y-120746759D02*
X83208771Y-120713425D01*
X83508771Y-120746759D02*
X83575438Y-120780092D01*
X83575438Y-120780092D02*
X83708771Y-120780092D01*
X83708771Y-120780092D02*
X83775438Y-120746759D01*
X83775438Y-120746759D02*
X83808771Y-120680092D01*
X83808771Y-120680092D02*
X83808771Y-120646759D01*
X83808771Y-120646759D02*
X83775438Y-120580092D01*
X83775438Y-120580092D02*
X83708771Y-120546759D01*
X83708771Y-120546759D02*
X83608771Y-120546759D01*
X83608771Y-120546759D02*
X83542104Y-120513425D01*
X83542104Y-120513425D02*
X83508771Y-120446759D01*
X83508771Y-120446759D02*
X83508771Y-120413425D01*
X83508771Y-120413425D02*
X83542104Y-120346759D01*
X83542104Y-120346759D02*
X83608771Y-120313425D01*
X83608771Y-120313425D02*
X83708771Y-120313425D01*
X83708771Y-120313425D02*
X83775438Y-120346759D01*
X84108771Y-120780092D02*
X84108771Y-120080092D01*
X84108771Y-120346759D02*
X84175438Y-120313425D01*
X84175438Y-120313425D02*
X84308771Y-120313425D01*
X84308771Y-120313425D02*
X84375438Y-120346759D01*
X84375438Y-120346759D02*
X84408771Y-120380092D01*
X84408771Y-120380092D02*
X84442105Y-120446759D01*
X84442105Y-120446759D02*
X84442105Y-120646759D01*
X84442105Y-120646759D02*
X84408771Y-120713425D01*
X84408771Y-120713425D02*
X84375438Y-120746759D01*
X84375438Y-120746759D02*
X84308771Y-120780092D01*
X84308771Y-120780092D02*
X84175438Y-120780092D01*
X84175438Y-120780092D02*
X84108771Y-120746759D01*
X85275437Y-120780092D02*
X85275437Y-120080092D01*
X85575437Y-120780092D02*
X85575437Y-120413425D01*
X85575437Y-120413425D02*
X85542104Y-120346759D01*
X85542104Y-120346759D02*
X85475437Y-120313425D01*
X85475437Y-120313425D02*
X85375437Y-120313425D01*
X85375437Y-120313425D02*
X85308771Y-120346759D01*
X85308771Y-120346759D02*
X85275437Y-120380092D01*
X86208770Y-120313425D02*
X86208770Y-120780092D01*
X85908770Y-120313425D02*
X85908770Y-120680092D01*
X85908770Y-120680092D02*
X85942104Y-120746759D01*
X85942104Y-120746759D02*
X86008770Y-120780092D01*
X86008770Y-120780092D02*
X86108770Y-120780092D01*
X86108770Y-120780092D02*
X86175437Y-120746759D01*
X86175437Y-120746759D02*
X86208770Y-120713425D01*
X86542103Y-120780092D02*
X86542103Y-120080092D01*
X86542103Y-120346759D02*
X86608770Y-120313425D01*
X86608770Y-120313425D02*
X86742103Y-120313425D01*
X86742103Y-120313425D02*
X86808770Y-120346759D01*
X86808770Y-120346759D02*
X86842103Y-120380092D01*
X86842103Y-120380092D02*
X86875437Y-120446759D01*
X86875437Y-120446759D02*
X86875437Y-120646759D01*
X86875437Y-120646759D02*
X86842103Y-120713425D01*
X86842103Y-120713425D02*
X86808770Y-120746759D01*
X86808770Y-120746759D02*
X86742103Y-120780092D01*
X86742103Y-120780092D02*
X86608770Y-120780092D01*
X86608770Y-120780092D02*
X86542103Y-120746759D01*
X87708769Y-120780092D02*
X87708769Y-120313425D01*
X87708769Y-120080092D02*
X87675436Y-120113425D01*
X87675436Y-120113425D02*
X87708769Y-120146759D01*
X87708769Y-120146759D02*
X87742103Y-120113425D01*
X87742103Y-120113425D02*
X87708769Y-120080092D01*
X87708769Y-120080092D02*
X87708769Y-120146759D01*
X87942102Y-120313425D02*
X88208769Y-120313425D01*
X88042102Y-120780092D02*
X88042102Y-120180092D01*
X88042102Y-120180092D02*
X88075436Y-120113425D01*
X88075436Y-120113425D02*
X88142102Y-120080092D01*
X88142102Y-120080092D02*
X88208769Y-120080092D01*
X82908771Y-121907053D02*
X82908771Y-121207053D01*
X82908771Y-121473720D02*
X82975438Y-121440386D01*
X82975438Y-121440386D02*
X83108771Y-121440386D01*
X83108771Y-121440386D02*
X83175438Y-121473720D01*
X83175438Y-121473720D02*
X83208771Y-121507053D01*
X83208771Y-121507053D02*
X83242105Y-121573720D01*
X83242105Y-121573720D02*
X83242105Y-121773720D01*
X83242105Y-121773720D02*
X83208771Y-121840386D01*
X83208771Y-121840386D02*
X83175438Y-121873720D01*
X83175438Y-121873720D02*
X83108771Y-121907053D01*
X83108771Y-121907053D02*
X82975438Y-121907053D01*
X82975438Y-121907053D02*
X82908771Y-121873720D01*
X83475438Y-121440386D02*
X83642104Y-121907053D01*
X83808771Y-121440386D02*
X83642104Y-121907053D01*
X83642104Y-121907053D02*
X83575438Y-122073720D01*
X83575438Y-122073720D02*
X83542104Y-122107053D01*
X83542104Y-122107053D02*
X83475438Y-122140386D01*
X84075437Y-121440386D02*
X84075437Y-122140386D01*
X84075437Y-121473720D02*
X84142104Y-121440386D01*
X84142104Y-121440386D02*
X84275437Y-121440386D01*
X84275437Y-121440386D02*
X84342104Y-121473720D01*
X84342104Y-121473720D02*
X84375437Y-121507053D01*
X84375437Y-121507053D02*
X84408771Y-121573720D01*
X84408771Y-121573720D02*
X84408771Y-121773720D01*
X84408771Y-121773720D02*
X84375437Y-121840386D01*
X84375437Y-121840386D02*
X84342104Y-121873720D01*
X84342104Y-121873720D02*
X84275437Y-121907053D01*
X84275437Y-121907053D02*
X84142104Y-121907053D01*
X84142104Y-121907053D02*
X84075437Y-121873720D01*
X85008770Y-121907053D02*
X85008770Y-121540386D01*
X85008770Y-121540386D02*
X84975437Y-121473720D01*
X84975437Y-121473720D02*
X84908770Y-121440386D01*
X84908770Y-121440386D02*
X84775437Y-121440386D01*
X84775437Y-121440386D02*
X84708770Y-121473720D01*
X85008770Y-121873720D02*
X84942104Y-121907053D01*
X84942104Y-121907053D02*
X84775437Y-121907053D01*
X84775437Y-121907053D02*
X84708770Y-121873720D01*
X84708770Y-121873720D02*
X84675437Y-121807053D01*
X84675437Y-121807053D02*
X84675437Y-121740386D01*
X84675437Y-121740386D02*
X84708770Y-121673720D01*
X84708770Y-121673720D02*
X84775437Y-121640386D01*
X84775437Y-121640386D02*
X84942104Y-121640386D01*
X84942104Y-121640386D02*
X85008770Y-121607053D01*
X85308770Y-121873720D02*
X85375437Y-121907053D01*
X85375437Y-121907053D02*
X85508770Y-121907053D01*
X85508770Y-121907053D02*
X85575437Y-121873720D01*
X85575437Y-121873720D02*
X85608770Y-121807053D01*
X85608770Y-121807053D02*
X85608770Y-121773720D01*
X85608770Y-121773720D02*
X85575437Y-121707053D01*
X85575437Y-121707053D02*
X85508770Y-121673720D01*
X85508770Y-121673720D02*
X85408770Y-121673720D01*
X85408770Y-121673720D02*
X85342103Y-121640386D01*
X85342103Y-121640386D02*
X85308770Y-121573720D01*
X85308770Y-121573720D02*
X85308770Y-121540386D01*
X85308770Y-121540386D02*
X85342103Y-121473720D01*
X85342103Y-121473720D02*
X85408770Y-121440386D01*
X85408770Y-121440386D02*
X85508770Y-121440386D01*
X85508770Y-121440386D02*
X85575437Y-121473720D01*
X85875437Y-121873720D02*
X85942104Y-121907053D01*
X85942104Y-121907053D02*
X86075437Y-121907053D01*
X86075437Y-121907053D02*
X86142104Y-121873720D01*
X86142104Y-121873720D02*
X86175437Y-121807053D01*
X86175437Y-121807053D02*
X86175437Y-121773720D01*
X86175437Y-121773720D02*
X86142104Y-121707053D01*
X86142104Y-121707053D02*
X86075437Y-121673720D01*
X86075437Y-121673720D02*
X85975437Y-121673720D01*
X85975437Y-121673720D02*
X85908770Y-121640386D01*
X85908770Y-121640386D02*
X85875437Y-121573720D01*
X85875437Y-121573720D02*
X85875437Y-121540386D01*
X85875437Y-121540386D02*
X85908770Y-121473720D01*
X85908770Y-121473720D02*
X85975437Y-121440386D01*
X85975437Y-121440386D02*
X86075437Y-121440386D01*
X86075437Y-121440386D02*
X86142104Y-121473720D01*
X87008770Y-121907053D02*
X87008770Y-121440386D01*
X87008770Y-121207053D02*
X86975437Y-121240386D01*
X86975437Y-121240386D02*
X87008770Y-121273720D01*
X87008770Y-121273720D02*
X87042104Y-121240386D01*
X87042104Y-121240386D02*
X87008770Y-121207053D01*
X87008770Y-121207053D02*
X87008770Y-121273720D01*
X87308770Y-121873720D02*
X87375437Y-121907053D01*
X87375437Y-121907053D02*
X87508770Y-121907053D01*
X87508770Y-121907053D02*
X87575437Y-121873720D01*
X87575437Y-121873720D02*
X87608770Y-121807053D01*
X87608770Y-121807053D02*
X87608770Y-121773720D01*
X87608770Y-121773720D02*
X87575437Y-121707053D01*
X87575437Y-121707053D02*
X87508770Y-121673720D01*
X87508770Y-121673720D02*
X87408770Y-121673720D01*
X87408770Y-121673720D02*
X87342103Y-121640386D01*
X87342103Y-121640386D02*
X87308770Y-121573720D01*
X87308770Y-121573720D02*
X87308770Y-121540386D01*
X87308770Y-121540386D02*
X87342103Y-121473720D01*
X87342103Y-121473720D02*
X87408770Y-121440386D01*
X87408770Y-121440386D02*
X87508770Y-121440386D01*
X87508770Y-121440386D02*
X87575437Y-121473720D01*
X88742103Y-121440386D02*
X88742103Y-121907053D01*
X88442103Y-121440386D02*
X88442103Y-121807053D01*
X88442103Y-121807053D02*
X88475437Y-121873720D01*
X88475437Y-121873720D02*
X88542103Y-121907053D01*
X88542103Y-121907053D02*
X88642103Y-121907053D01*
X88642103Y-121907053D02*
X88708770Y-121873720D01*
X88708770Y-121873720D02*
X88742103Y-121840386D01*
X89042103Y-121873720D02*
X89108770Y-121907053D01*
X89108770Y-121907053D02*
X89242103Y-121907053D01*
X89242103Y-121907053D02*
X89308770Y-121873720D01*
X89308770Y-121873720D02*
X89342103Y-121807053D01*
X89342103Y-121807053D02*
X89342103Y-121773720D01*
X89342103Y-121773720D02*
X89308770Y-121707053D01*
X89308770Y-121707053D02*
X89242103Y-121673720D01*
X89242103Y-121673720D02*
X89142103Y-121673720D01*
X89142103Y-121673720D02*
X89075436Y-121640386D01*
X89075436Y-121640386D02*
X89042103Y-121573720D01*
X89042103Y-121573720D02*
X89042103Y-121540386D01*
X89042103Y-121540386D02*
X89075436Y-121473720D01*
X89075436Y-121473720D02*
X89142103Y-121440386D01*
X89142103Y-121440386D02*
X89242103Y-121440386D01*
X89242103Y-121440386D02*
X89308770Y-121473720D01*
X89908770Y-121873720D02*
X89842103Y-121907053D01*
X89842103Y-121907053D02*
X89708770Y-121907053D01*
X89708770Y-121907053D02*
X89642103Y-121873720D01*
X89642103Y-121873720D02*
X89608770Y-121807053D01*
X89608770Y-121807053D02*
X89608770Y-121540386D01*
X89608770Y-121540386D02*
X89642103Y-121473720D01*
X89642103Y-121473720D02*
X89708770Y-121440386D01*
X89708770Y-121440386D02*
X89842103Y-121440386D01*
X89842103Y-121440386D02*
X89908770Y-121473720D01*
X89908770Y-121473720D02*
X89942103Y-121540386D01*
X89942103Y-121540386D02*
X89942103Y-121607053D01*
X89942103Y-121607053D02*
X89608770Y-121673720D01*
X90542103Y-121907053D02*
X90542103Y-121207053D01*
X90542103Y-121873720D02*
X90475437Y-121907053D01*
X90475437Y-121907053D02*
X90342103Y-121907053D01*
X90342103Y-121907053D02*
X90275437Y-121873720D01*
X90275437Y-121873720D02*
X90242103Y-121840386D01*
X90242103Y-121840386D02*
X90208770Y-121773720D01*
X90208770Y-121773720D02*
X90208770Y-121573720D01*
X90208770Y-121573720D02*
X90242103Y-121507053D01*
X90242103Y-121507053D02*
X90275437Y-121473720D01*
X90275437Y-121473720D02*
X90342103Y-121440386D01*
X90342103Y-121440386D02*
X90475437Y-121440386D01*
X90475437Y-121440386D02*
X90542103Y-121473720D01*
D10*
G36*
X109093084Y-120236704D02*
G01*
X108755636Y-120236704D01*
X108924360Y-119730532D01*
X109093084Y-120236704D01*
G37*
G36*
X111323566Y-120733530D02*
G01*
X107525154Y-120733530D01*
X107525154Y-120000990D01*
X107636265Y-120000990D01*
X107636265Y-120143847D01*
X107637460Y-120149856D01*
X107637758Y-120155974D01*
X107685377Y-120346450D01*
X107687716Y-120351402D01*
X107689163Y-120356684D01*
X107736781Y-120451921D01*
X107741692Y-120458249D01*
X107746147Y-120464916D01*
X107841386Y-120560155D01*
X107843467Y-120561545D01*
X107843981Y-120562573D01*
X107850946Y-120566543D01*
X107857607Y-120570994D01*
X107858755Y-120570994D01*
X107860930Y-120572234D01*
X108003786Y-120619853D01*
X108011736Y-120620855D01*
X108019598Y-120622419D01*
X108114836Y-120622419D01*
X108122698Y-120620855D01*
X108130647Y-120619853D01*
X108262317Y-120575963D01*
X108541153Y-120575963D01*
X108558267Y-120610192D01*
X108594571Y-120622293D01*
X108628800Y-120605179D01*
X108638461Y-120588230D01*
X108722303Y-120336704D01*
X109126417Y-120336704D01*
X109210259Y-120588230D01*
X109219920Y-120605178D01*
X109254149Y-120622293D01*
X109290453Y-120610191D01*
X109307567Y-120575963D01*
X109305127Y-120556607D01*
X108977064Y-119572419D01*
X109541027Y-119572419D01*
X109541027Y-120572419D01*
X109544833Y-120591553D01*
X109571893Y-120618613D01*
X109610161Y-120618613D01*
X109637221Y-120591553D01*
X109641027Y-120572419D01*
X109641027Y-119760697D01*
X110119043Y-120597226D01*
X110131841Y-120611951D01*
X110138465Y-120613757D01*
X110143321Y-120618613D01*
X110156269Y-120618613D01*
X110168761Y-120622020D01*
X110174723Y-120618613D01*
X110181589Y-120618613D01*
X110190742Y-120609459D01*
X110201987Y-120603034D01*
X110203794Y-120596407D01*
X110208649Y-120591553D01*
X110212455Y-120572419D01*
X110212455Y-120553285D01*
X110497214Y-120553285D01*
X110497214Y-120591553D01*
X110524274Y-120618613D01*
X110543408Y-120622419D01*
X111162455Y-120622419D01*
X111181589Y-120618613D01*
X111208649Y-120591553D01*
X111208649Y-120553285D01*
X111181589Y-120526225D01*
X111162455Y-120522419D01*
X110664118Y-120522419D01*
X111150191Y-120036345D01*
X111151581Y-120034263D01*
X111152609Y-120033750D01*
X111156579Y-120026784D01*
X111161030Y-120020124D01*
X111161030Y-120018976D01*
X111162270Y-120016801D01*
X111209889Y-119873945D01*
X111210891Y-119865994D01*
X111212455Y-119858133D01*
X111212455Y-119762895D01*
X111211966Y-119760438D01*
X111212329Y-119759350D01*
X111210212Y-119751622D01*
X111208649Y-119743761D01*
X111207837Y-119742949D01*
X111207176Y-119740534D01*
X111159557Y-119645296D01*
X111154645Y-119638967D01*
X111150191Y-119632301D01*
X111102572Y-119584683D01*
X111095910Y-119580231D01*
X111089577Y-119575316D01*
X110994340Y-119527698D01*
X110991924Y-119527036D01*
X110991113Y-119526225D01*
X110983251Y-119524661D01*
X110975524Y-119522545D01*
X110974435Y-119522907D01*
X110971979Y-119522419D01*
X110733884Y-119522419D01*
X110731427Y-119522907D01*
X110730339Y-119522545D01*
X110722611Y-119524661D01*
X110714750Y-119526225D01*
X110713938Y-119527036D01*
X110711523Y-119527698D01*
X110616285Y-119575317D01*
X110609956Y-119580228D01*
X110603290Y-119584683D01*
X110555672Y-119632302D01*
X110544833Y-119648523D01*
X110544833Y-119686791D01*
X110571893Y-119713851D01*
X110610161Y-119713851D01*
X110626382Y-119703012D01*
X110668264Y-119661130D01*
X110745688Y-119622419D01*
X110960176Y-119622419D01*
X111037599Y-119661130D01*
X111073743Y-119697275D01*
X111112455Y-119774698D01*
X111112455Y-119850020D01*
X111071134Y-119973981D01*
X110508053Y-120537064D01*
X110497214Y-120553285D01*
X110212455Y-120553285D01*
X110212455Y-119572419D01*
X110208649Y-119553285D01*
X110181589Y-119526225D01*
X110143321Y-119526225D01*
X110116261Y-119553285D01*
X110112455Y-119572419D01*
X110112455Y-120384140D01*
X109634439Y-119547612D01*
X109621642Y-119532887D01*
X109615015Y-119531079D01*
X109610161Y-119526225D01*
X109597214Y-119526225D01*
X109584721Y-119522818D01*
X109578759Y-119526225D01*
X109571893Y-119526225D01*
X109562739Y-119535378D01*
X109551495Y-119541804D01*
X109549687Y-119548430D01*
X109544833Y-119553285D01*
X109541027Y-119572419D01*
X108977064Y-119572419D01*
X108971794Y-119556608D01*
X108962133Y-119539659D01*
X108958790Y-119537987D01*
X108957120Y-119534647D01*
X108942083Y-119529634D01*
X108927904Y-119522545D01*
X108924359Y-119523726D01*
X108920816Y-119522545D01*
X108906642Y-119529632D01*
X108891600Y-119534646D01*
X108889928Y-119537989D01*
X108886587Y-119539660D01*
X108876926Y-119556608D01*
X108543593Y-120556608D01*
X108541153Y-120575963D01*
X108262317Y-120575963D01*
X108273504Y-120572234D01*
X108275679Y-120570994D01*
X108276828Y-120570994D01*
X108283498Y-120566536D01*
X108290452Y-120562573D01*
X108290964Y-120561547D01*
X108293049Y-120560155D01*
X108340668Y-120512535D01*
X108351506Y-120496314D01*
X108351506Y-120458045D01*
X108324446Y-120430986D01*
X108286177Y-120430986D01*
X108269956Y-120441825D01*
X108230683Y-120481098D01*
X108106723Y-120522419D01*
X108027711Y-120522419D01*
X107903751Y-120481099D01*
X107822595Y-120399942D01*
X107781060Y-120316872D01*
X107736265Y-120137692D01*
X107736265Y-120007145D01*
X107781060Y-119827965D01*
X107822596Y-119744893D01*
X107903749Y-119663739D01*
X108027711Y-119622419D01*
X108106723Y-119622419D01*
X108230684Y-119663739D01*
X108269956Y-119703012D01*
X108286177Y-119713851D01*
X108324446Y-119713851D01*
X108351506Y-119686791D01*
X108351506Y-119648522D01*
X108340667Y-119632301D01*
X108293048Y-119584683D01*
X108290965Y-119583291D01*
X108290452Y-119582265D01*
X108283491Y-119578297D01*
X108276827Y-119573844D01*
X108275679Y-119573844D01*
X108273504Y-119572604D01*
X108130647Y-119524985D01*
X108122698Y-119523982D01*
X108114836Y-119522419D01*
X108019598Y-119522419D01*
X108011736Y-119523982D01*
X108003786Y-119524985D01*
X107860930Y-119572604D01*
X107858755Y-119573844D01*
X107857607Y-119573844D01*
X107850946Y-119578294D01*
X107843981Y-119582265D01*
X107843467Y-119583292D01*
X107841386Y-119584683D01*
X107746148Y-119679921D01*
X107741696Y-119686582D01*
X107736781Y-119692916D01*
X107689163Y-119788153D01*
X107687716Y-119793434D01*
X107685377Y-119798387D01*
X107637758Y-119988863D01*
X107637460Y-119994980D01*
X107636265Y-120000990D01*
X107525154Y-120000990D01*
X107525154Y-119411308D01*
X111323566Y-119411308D01*
X111323566Y-120733530D01*
G37*
D11*
G36*
X134226479Y-119331071D02*
G01*
X134274956Y-119379547D01*
X134328572Y-119486778D01*
X134328572Y-119796706D01*
X134274956Y-119903937D01*
X134226479Y-119952413D01*
X134119250Y-120006028D01*
X133880750Y-120006028D01*
X133773522Y-119952414D01*
X133725042Y-119903934D01*
X133671429Y-119796707D01*
X133671429Y-119486777D01*
X133725042Y-119379550D01*
X133773522Y-119331070D01*
X133880750Y-119277457D01*
X134119250Y-119277457D01*
X134226479Y-119331071D01*
G37*
G36*
X135583623Y-118759644D02*
G01*
X135632100Y-118808120D01*
X135691362Y-118926645D01*
X135757143Y-119189766D01*
X135757143Y-119522290D01*
X135691362Y-119785410D01*
X135632100Y-119903934D01*
X135583620Y-119952414D01*
X135476393Y-120006028D01*
X135380750Y-120006028D01*
X135273522Y-119952414D01*
X135225042Y-119903934D01*
X135165778Y-119785407D01*
X135100000Y-119522291D01*
X135100000Y-119189765D01*
X135165778Y-118926649D01*
X135225043Y-118808119D01*
X135273519Y-118759643D01*
X135380750Y-118706028D01*
X135476392Y-118706028D01*
X135583623Y-118759644D01*
G37*
G36*
X135257143Y-116824344D02*
G01*
X135257143Y-117557880D01*
X135190678Y-117591112D01*
X134952178Y-117591112D01*
X134844950Y-117537498D01*
X134796470Y-117489018D01*
X134742857Y-117381791D01*
X134742857Y-117000432D01*
X134796470Y-116893204D01*
X134844947Y-116844727D01*
X134952178Y-116791112D01*
X135190678Y-116791112D01*
X135257143Y-116824344D01*
G37*
G36*
X130971428Y-117557880D02*
G01*
X130904963Y-117591112D01*
X130595035Y-117591112D01*
X130503105Y-117545148D01*
X130457142Y-117453219D01*
X130457142Y-117357575D01*
X130503105Y-117265647D01*
X130595035Y-117219684D01*
X130928570Y-117219684D01*
X130948079Y-117217763D01*
X130951399Y-117216387D01*
X130954983Y-117216133D01*
X130971428Y-117209839D01*
X130971428Y-117557880D01*
G37*
G36*
X134828572Y-114409428D02*
G01*
X134828572Y-115142964D01*
X134762107Y-115176196D01*
X134523607Y-115176196D01*
X134416379Y-115122582D01*
X134367899Y-115074102D01*
X134314286Y-114966875D01*
X134314286Y-114585516D01*
X134367899Y-114478288D01*
X134416376Y-114429811D01*
X134523607Y-114376196D01*
X134762107Y-114376196D01*
X134828572Y-114409428D01*
G37*
G36*
X130440766Y-114429812D02*
G01*
X130489243Y-114478288D01*
X130542857Y-114585516D01*
X130542857Y-114966875D01*
X130489243Y-115074102D01*
X130440763Y-115122582D01*
X130333536Y-115176196D01*
X130166464Y-115176196D01*
X130059236Y-115122582D01*
X130010756Y-115074102D01*
X129957143Y-114966875D01*
X129957143Y-114585516D01*
X130010756Y-114478288D01*
X130059233Y-114429811D01*
X130166464Y-114376196D01*
X130333535Y-114376196D01*
X130440766Y-114429812D01*
G37*
G36*
X133471429Y-115142964D02*
G01*
X133404964Y-115176196D01*
X133095036Y-115176196D01*
X133003106Y-115130232D01*
X132957143Y-115038303D01*
X132957143Y-114942659D01*
X133003106Y-114850731D01*
X133095036Y-114804768D01*
X133428571Y-114804768D01*
X133448080Y-114802847D01*
X133451400Y-114801471D01*
X133454984Y-114801217D01*
X133471429Y-114794923D01*
X133471429Y-115142964D01*
G37*
G36*
X136139750Y-114422161D02*
G01*
X136185715Y-114514089D01*
X136185715Y-114551358D01*
X135671429Y-114654215D01*
X135671429Y-114514088D01*
X135717392Y-114422160D01*
X135809322Y-114376196D01*
X136047821Y-114376196D01*
X136139750Y-114422161D01*
G37*
G36*
X137551596Y-120372695D02*
G01*
X128162690Y-120372695D01*
X128162690Y-119022093D01*
X128757929Y-119022093D01*
X128760695Y-119061013D01*
X128778144Y-119095912D01*
X128807621Y-119121476D01*
X128844637Y-119133815D01*
X128883557Y-119131049D01*
X128901866Y-119124043D01*
X129044722Y-119052614D01*
X129053120Y-119047327D01*
X129055558Y-119046318D01*
X129058301Y-119044066D01*
X129061313Y-119042171D01*
X129063045Y-119040173D01*
X129070712Y-119033882D01*
X129185715Y-118918878D01*
X129185715Y-120006028D01*
X128857144Y-120006028D01*
X128837635Y-120007949D01*
X128801587Y-120022881D01*
X128773997Y-120050471D01*
X128759065Y-120086519D01*
X128759065Y-120125537D01*
X128773997Y-120161585D01*
X128801587Y-120189175D01*
X128837635Y-120204107D01*
X128857144Y-120206028D01*
X129714287Y-120206028D01*
X129733796Y-120204107D01*
X129769844Y-120189175D01*
X129797434Y-120161585D01*
X129812366Y-120125537D01*
X129812366Y-120086519D01*
X129797434Y-120050471D01*
X129769844Y-120022881D01*
X129733796Y-120007949D01*
X129714287Y-120006028D01*
X129385715Y-120006028D01*
X129385715Y-119593521D01*
X130186500Y-119593521D01*
X130187636Y-119609505D01*
X130187636Y-119625537D01*
X130189011Y-119628857D01*
X130189266Y-119632441D01*
X130196432Y-119646773D01*
X130202568Y-119661585D01*
X130205109Y-119664126D01*
X130206716Y-119667339D01*
X130218823Y-119677840D01*
X130230158Y-119689175D01*
X130233476Y-119690549D01*
X130236192Y-119692905D01*
X130251401Y-119697974D01*
X130266206Y-119704107D01*
X130271306Y-119704609D01*
X130273208Y-119705243D01*
X130275841Y-119705055D01*
X130285715Y-119706028D01*
X130900001Y-119706028D01*
X130900001Y-120106028D01*
X130901922Y-120125537D01*
X130916854Y-120161585D01*
X130944444Y-120189175D01*
X130980492Y-120204107D01*
X131019510Y-120204107D01*
X131055558Y-120189175D01*
X131083148Y-120161585D01*
X131098080Y-120125537D01*
X131100001Y-120106028D01*
X131100001Y-119706028D01*
X131214286Y-119706028D01*
X131233795Y-119704107D01*
X131269843Y-119689175D01*
X131297433Y-119661585D01*
X131312365Y-119625537D01*
X131312365Y-119586519D01*
X131297433Y-119550471D01*
X131269843Y-119522881D01*
X131251037Y-119515091D01*
X131687635Y-119515091D01*
X131687635Y-119554109D01*
X131702567Y-119590157D01*
X131730157Y-119617747D01*
X131766205Y-119632679D01*
X131785714Y-119634600D01*
X132928572Y-119634600D01*
X132948081Y-119632679D01*
X132984129Y-119617747D01*
X133011719Y-119590157D01*
X133026651Y-119554109D01*
X133026651Y-119515091D01*
X133011719Y-119479043D01*
X132984129Y-119451453D01*
X132948081Y-119436521D01*
X132928572Y-119434600D01*
X131785714Y-119434600D01*
X131766205Y-119436521D01*
X131730157Y-119451453D01*
X131702567Y-119479043D01*
X131687635Y-119515091D01*
X131251037Y-119515091D01*
X131233795Y-119507949D01*
X131214286Y-119506028D01*
X131100001Y-119506028D01*
X131100001Y-119248885D01*
X133471429Y-119248885D01*
X133471429Y-119820314D01*
X133473350Y-119839823D01*
X133474725Y-119843143D01*
X133474980Y-119846727D01*
X133481986Y-119865035D01*
X133553414Y-120007892D01*
X133558700Y-120016290D01*
X133559710Y-120018728D01*
X133561961Y-120021471D01*
X133563857Y-120024483D01*
X133565854Y-120026215D01*
X133572146Y-120033882D01*
X133643575Y-120105311D01*
X133651245Y-120111605D01*
X133652975Y-120113600D01*
X133655982Y-120115493D01*
X133658729Y-120117747D01*
X133661168Y-120118757D01*
X133669565Y-120124043D01*
X133812422Y-120195471D01*
X133830731Y-120202477D01*
X133834313Y-120202731D01*
X133837634Y-120204107D01*
X133857143Y-120206028D01*
X134142857Y-120206028D01*
X134162366Y-120204107D01*
X134165686Y-120202731D01*
X134169269Y-120202477D01*
X134187578Y-120195471D01*
X134330436Y-120124043D01*
X134338832Y-120118757D01*
X134341273Y-120117747D01*
X134344018Y-120115493D01*
X134347027Y-120113600D01*
X134348759Y-120111602D01*
X134356426Y-120105310D01*
X134427854Y-120033881D01*
X134434146Y-120026214D01*
X134436143Y-120024483D01*
X134438036Y-120021474D01*
X134440291Y-120018728D01*
X134441301Y-120016287D01*
X134446586Y-120007893D01*
X134518015Y-119865036D01*
X134525021Y-119846727D01*
X134525275Y-119843143D01*
X134526651Y-119839823D01*
X134528572Y-119820314D01*
X134528572Y-119463171D01*
X134526651Y-119443662D01*
X134525275Y-119440341D01*
X134525021Y-119436758D01*
X134518015Y-119418449D01*
X134446586Y-119275592D01*
X134441301Y-119267197D01*
X134440291Y-119264757D01*
X134438036Y-119262010D01*
X134436143Y-119259002D01*
X134434146Y-119257270D01*
X134427854Y-119249604D01*
X134356426Y-119178175D01*
X134355551Y-119177457D01*
X134900000Y-119177457D01*
X134900000Y-119534600D01*
X134900335Y-119538002D01*
X134900118Y-119539461D01*
X134901197Y-119546757D01*
X134901921Y-119554109D01*
X134902486Y-119555473D01*
X134902986Y-119558853D01*
X134974414Y-119844567D01*
X134974927Y-119846004D01*
X134974979Y-119846727D01*
X134978090Y-119854857D01*
X134981009Y-119863028D01*
X134981438Y-119863607D01*
X134981985Y-119865036D01*
X135053414Y-120007892D01*
X135058700Y-120016290D01*
X135059710Y-120018728D01*
X135061961Y-120021471D01*
X135063857Y-120024483D01*
X135065854Y-120026215D01*
X135072146Y-120033882D01*
X135143575Y-120105311D01*
X135151245Y-120111605D01*
X135152975Y-120113600D01*
X135155982Y-120115493D01*
X135158729Y-120117747D01*
X135161168Y-120118757D01*
X135169565Y-120124043D01*
X135312422Y-120195471D01*
X135330731Y-120202477D01*
X135334313Y-120202731D01*
X135337634Y-120204107D01*
X135357143Y-120206028D01*
X135500000Y-120206028D01*
X135519509Y-120204107D01*
X135522829Y-120202731D01*
X135526413Y-120202477D01*
X135544721Y-120195471D01*
X135687578Y-120124043D01*
X135695976Y-120118756D01*
X135698414Y-120117747D01*
X135701157Y-120115495D01*
X135704169Y-120113600D01*
X135705901Y-120111602D01*
X135713568Y-120105311D01*
X135784997Y-120033882D01*
X135791291Y-120026211D01*
X135793286Y-120024482D01*
X135795179Y-120021474D01*
X135797433Y-120018728D01*
X135798443Y-120016288D01*
X135803729Y-120007892D01*
X135875157Y-119865035D01*
X135875702Y-119863608D01*
X135876133Y-119863028D01*
X135879059Y-119854836D01*
X135882163Y-119846726D01*
X135882214Y-119846006D01*
X135882728Y-119844568D01*
X135954157Y-119558854D01*
X135954657Y-119555472D01*
X135955222Y-119554109D01*
X135955945Y-119546760D01*
X135957025Y-119539462D01*
X135956807Y-119538003D01*
X135957143Y-119534600D01*
X135957143Y-119177457D01*
X135956807Y-119174053D01*
X135957025Y-119172595D01*
X135955945Y-119165296D01*
X135955222Y-119157948D01*
X135954657Y-119156584D01*
X135954157Y-119153203D01*
X135882728Y-118867488D01*
X135882214Y-118866049D01*
X135882163Y-118865330D01*
X135879059Y-118857219D01*
X135876133Y-118849028D01*
X135875702Y-118848447D01*
X135875157Y-118847021D01*
X135803729Y-118704164D01*
X135798444Y-118695768D01*
X135797433Y-118693327D01*
X135795177Y-118690579D01*
X135793286Y-118687574D01*
X135791291Y-118685843D01*
X135784996Y-118678174D01*
X135725356Y-118618535D01*
X136186499Y-118618535D01*
X136190846Y-118637651D01*
X136690846Y-120137651D01*
X136698837Y-120155551D01*
X136703520Y-120160950D01*
X136706715Y-120167340D01*
X136716187Y-120175555D01*
X136724403Y-120185028D01*
X136730792Y-120188222D01*
X136736191Y-120192905D01*
X136748087Y-120196870D01*
X136759301Y-120202477D01*
X136766428Y-120202983D01*
X136773207Y-120205243D01*
X136785714Y-120204354D01*
X136798221Y-120205243D01*
X136804999Y-120202983D01*
X136812127Y-120202477D01*
X136823339Y-120196870D01*
X136835237Y-120192905D01*
X136840636Y-120188221D01*
X136847026Y-120185027D01*
X136855241Y-120175555D01*
X136864713Y-120167340D01*
X136867907Y-120160950D01*
X136872591Y-120155551D01*
X136880582Y-120137651D01*
X137380582Y-118637651D01*
X137384929Y-118618535D01*
X137382163Y-118579615D01*
X137364713Y-118544716D01*
X137335237Y-118519151D01*
X137298221Y-118506813D01*
X137259301Y-118509579D01*
X137224403Y-118527028D01*
X137198837Y-118556505D01*
X137190846Y-118574405D01*
X136785714Y-119789801D01*
X136380582Y-118574405D01*
X136372591Y-118556505D01*
X136347026Y-118527029D01*
X136312127Y-118509579D01*
X136273207Y-118506813D01*
X136236191Y-118519151D01*
X136206715Y-118544716D01*
X136189265Y-118579615D01*
X136186499Y-118618535D01*
X135725356Y-118618535D01*
X135713567Y-118606746D01*
X135705900Y-118600453D01*
X135704169Y-118598457D01*
X135701161Y-118596563D01*
X135698414Y-118594309D01*
X135695972Y-118593297D01*
X135687578Y-118588014D01*
X135544722Y-118516585D01*
X135526413Y-118509579D01*
X135522829Y-118509324D01*
X135519509Y-118507949D01*
X135500000Y-118506028D01*
X135357143Y-118506028D01*
X135337634Y-118507949D01*
X135334313Y-118509324D01*
X135330730Y-118509579D01*
X135312421Y-118516585D01*
X135169564Y-118588014D01*
X135161169Y-118593298D01*
X135158729Y-118594309D01*
X135155982Y-118596563D01*
X135152974Y-118598457D01*
X135151242Y-118600453D01*
X135143576Y-118606746D01*
X135072147Y-118678174D01*
X135065854Y-118685840D01*
X135063857Y-118687573D01*
X135061963Y-118690581D01*
X135059710Y-118693327D01*
X135058699Y-118695767D01*
X135053414Y-118704164D01*
X134981985Y-118847020D01*
X134981438Y-118848448D01*
X134981009Y-118849028D01*
X134978090Y-118857198D01*
X134974979Y-118865329D01*
X134974927Y-118866051D01*
X134974414Y-118867489D01*
X134902986Y-119153204D01*
X134902486Y-119156583D01*
X134901921Y-119157948D01*
X134901197Y-119165299D01*
X134900118Y-119172596D01*
X134900335Y-119174054D01*
X134900000Y-119177457D01*
X134355551Y-119177457D01*
X134348759Y-119171882D01*
X134347027Y-119169885D01*
X134344018Y-119167991D01*
X134341273Y-119165738D01*
X134338832Y-119164727D01*
X134330436Y-119159442D01*
X134187578Y-119088014D01*
X134169269Y-119081008D01*
X134165686Y-119080753D01*
X134162366Y-119079378D01*
X134142857Y-119077457D01*
X133857143Y-119077457D01*
X133837634Y-119079378D01*
X133834313Y-119080753D01*
X133830731Y-119081008D01*
X133812422Y-119088014D01*
X133700767Y-119143841D01*
X133735669Y-119004229D01*
X133863426Y-118812595D01*
X133916377Y-118759643D01*
X134023607Y-118706028D01*
X134285715Y-118706028D01*
X134305224Y-118704107D01*
X134341272Y-118689175D01*
X134368862Y-118661585D01*
X134383794Y-118625537D01*
X134383794Y-118586519D01*
X134368862Y-118550471D01*
X134341272Y-118522881D01*
X134305224Y-118507949D01*
X134285715Y-118506028D01*
X134000000Y-118506028D01*
X133980491Y-118507949D01*
X133977170Y-118509324D01*
X133973587Y-118509579D01*
X133955278Y-118516585D01*
X133812421Y-118588014D01*
X133804023Y-118593299D01*
X133801585Y-118594310D01*
X133798840Y-118596562D01*
X133795831Y-118598457D01*
X133794098Y-118600454D01*
X133786432Y-118606747D01*
X133715004Y-118678174D01*
X133714959Y-118678228D01*
X133714930Y-118678248D01*
X133708748Y-118685796D01*
X133702568Y-118693328D01*
X133702554Y-118693360D01*
X133702510Y-118693415D01*
X133559652Y-118907701D01*
X133553909Y-118918470D01*
X133552438Y-118920457D01*
X133551600Y-118922802D01*
X133550429Y-118924999D01*
X133549949Y-118927423D01*
X133545843Y-118938918D01*
X133474415Y-119224632D01*
X133473915Y-119228011D01*
X133473350Y-119229376D01*
X133472626Y-119236727D01*
X133471547Y-119244024D01*
X133471764Y-119245482D01*
X133471429Y-119248885D01*
X131100001Y-119248885D01*
X131100001Y-119106028D01*
X131098080Y-119086519D01*
X131083148Y-119050471D01*
X131055558Y-119022881D01*
X131019510Y-119007949D01*
X130980492Y-119007949D01*
X130944444Y-119022881D01*
X130916854Y-119050471D01*
X130901922Y-119086519D01*
X130900001Y-119106028D01*
X130900001Y-119506028D01*
X130424457Y-119506028D01*
X130737726Y-118566223D01*
X130742073Y-118547108D01*
X130739307Y-118508188D01*
X130721857Y-118473289D01*
X130692381Y-118447724D01*
X130655365Y-118435385D01*
X130616445Y-118438152D01*
X130581546Y-118455601D01*
X130555981Y-118485077D01*
X130547990Y-118502978D01*
X130190847Y-119574405D01*
X130188647Y-119584076D01*
X130187636Y-119586519D01*
X130187636Y-119588525D01*
X130186500Y-119593521D01*
X129385715Y-119593521D01*
X129385715Y-118606028D01*
X129385708Y-118605957D01*
X129385715Y-118605923D01*
X129385694Y-118605821D01*
X129383794Y-118586519D01*
X129380004Y-118577370D01*
X129378063Y-118567663D01*
X129372611Y-118559522D01*
X129368862Y-118550471D01*
X129361862Y-118543471D01*
X129356352Y-118535243D01*
X129348197Y-118529806D01*
X129341272Y-118522881D01*
X129332128Y-118519093D01*
X129323887Y-118513599D01*
X129314273Y-118511697D01*
X129305224Y-118507949D01*
X129295323Y-118507949D01*
X129285611Y-118506028D01*
X129276006Y-118507949D01*
X129266206Y-118507949D01*
X129257057Y-118511738D01*
X129247350Y-118513680D01*
X129239209Y-118519131D01*
X129230158Y-118522881D01*
X129223158Y-118529880D01*
X129214930Y-118535391D01*
X129202641Y-118550397D01*
X129202568Y-118550471D01*
X129202554Y-118550503D01*
X129202510Y-118550558D01*
X129065145Y-118756605D01*
X128940765Y-118880985D01*
X128812422Y-118945157D01*
X128795832Y-118955600D01*
X128770268Y-118985077D01*
X128757929Y-119022093D01*
X128162690Y-119022093D01*
X128162690Y-116691112D01*
X129399999Y-116691112D01*
X129399999Y-117691112D01*
X129401920Y-117710621D01*
X129416852Y-117746669D01*
X129444442Y-117774259D01*
X129480490Y-117789191D01*
X129519508Y-117789191D01*
X129555556Y-117774259D01*
X129583146Y-117746669D01*
X129598078Y-117710621D01*
X129599999Y-117691112D01*
X129599999Y-117333969D01*
X130257142Y-117333969D01*
X130257142Y-117476826D01*
X130259063Y-117496335D01*
X130260438Y-117499655D01*
X130260693Y-117503238D01*
X130267699Y-117521547D01*
X130339127Y-117664405D01*
X130341180Y-117667667D01*
X130341694Y-117669208D01*
X130343357Y-117671125D01*
X130349570Y-117680996D01*
X130359044Y-117689212D01*
X130367259Y-117698684D01*
X130377130Y-117704897D01*
X130379047Y-117706560D01*
X130380586Y-117707073D01*
X130383849Y-117709127D01*
X130526707Y-117780555D01*
X130545016Y-117787562D01*
X130548601Y-117787816D01*
X130551919Y-117789191D01*
X130571428Y-117791112D01*
X130928570Y-117791112D01*
X130948079Y-117789191D01*
X130951399Y-117787815D01*
X130954982Y-117787561D01*
X130973291Y-117780555D01*
X131005875Y-117764263D01*
X131015871Y-117774259D01*
X131051919Y-117789191D01*
X131090937Y-117789191D01*
X131126985Y-117774259D01*
X131154575Y-117746669D01*
X131169507Y-117710621D01*
X131171428Y-117691112D01*
X131171428Y-116905398D01*
X131169507Y-116885889D01*
X131168131Y-116882568D01*
X131167877Y-116878985D01*
X131160871Y-116860676D01*
X131089442Y-116717819D01*
X131087387Y-116714554D01*
X131086875Y-116713018D01*
X131085215Y-116711103D01*
X131078999Y-116701229D01*
X131069526Y-116693013D01*
X131061311Y-116683541D01*
X131051437Y-116677326D01*
X131049522Y-116675665D01*
X131047983Y-116675152D01*
X131044720Y-116673098D01*
X131041730Y-116671603D01*
X131473349Y-116671603D01*
X131473349Y-116710621D01*
X131488281Y-116746669D01*
X131515871Y-116774259D01*
X131551919Y-116789191D01*
X131571428Y-116791112D01*
X131685713Y-116791112D01*
X131685713Y-117476826D01*
X131687634Y-117496335D01*
X131689009Y-117499655D01*
X131689264Y-117503239D01*
X131696270Y-117521547D01*
X131767699Y-117664405D01*
X131769753Y-117667668D01*
X131770266Y-117669207D01*
X131771927Y-117671122D01*
X131778142Y-117680996D01*
X131787617Y-117689213D01*
X131795831Y-117698684D01*
X131805702Y-117704897D01*
X131807619Y-117706560D01*
X131809157Y-117707073D01*
X131812421Y-117709127D01*
X131955278Y-117780555D01*
X131973587Y-117787561D01*
X131977169Y-117787815D01*
X131980490Y-117789191D01*
X131999999Y-117791112D01*
X132142856Y-117791112D01*
X132162365Y-117789191D01*
X132198413Y-117774259D01*
X132226003Y-117746669D01*
X132240935Y-117710621D01*
X132240935Y-117671603D01*
X132226003Y-117635555D01*
X132198413Y-117607965D01*
X132162365Y-117593033D01*
X132142856Y-117591112D01*
X132023606Y-117591112D01*
X131931677Y-117545148D01*
X131885713Y-117453219D01*
X131885713Y-116791112D01*
X132142856Y-116791112D01*
X132162365Y-116789191D01*
X132198413Y-116774259D01*
X132226003Y-116746669D01*
X132240935Y-116710621D01*
X132240935Y-116691112D01*
X132542856Y-116691112D01*
X132542856Y-117691112D01*
X132544777Y-117710621D01*
X132559709Y-117746669D01*
X132587299Y-117774259D01*
X132623347Y-117789191D01*
X132662365Y-117789191D01*
X132698413Y-117774259D01*
X132726003Y-117746669D01*
X132740935Y-117710621D01*
X132742856Y-117691112D01*
X132742856Y-116691112D01*
X133257142Y-116691112D01*
X133257142Y-117691112D01*
X133259063Y-117710621D01*
X133273995Y-117746669D01*
X133301585Y-117774259D01*
X133337633Y-117789191D01*
X133376651Y-117789191D01*
X133412699Y-117774259D01*
X133440289Y-117746669D01*
X133455221Y-117710621D01*
X133457142Y-117691112D01*
X133457142Y-116875390D01*
X133487804Y-116844727D01*
X133595035Y-116791112D01*
X133762106Y-116791112D01*
X133854035Y-116837077D01*
X133900000Y-116929005D01*
X133900000Y-117691112D01*
X133901921Y-117710621D01*
X133916853Y-117746669D01*
X133944443Y-117774259D01*
X133980491Y-117789191D01*
X134019509Y-117789191D01*
X134055557Y-117774259D01*
X134083147Y-117746669D01*
X134098079Y-117710621D01*
X134100000Y-117691112D01*
X134100000Y-116976826D01*
X134542857Y-116976826D01*
X134542857Y-117405398D01*
X134544778Y-117424907D01*
X134546153Y-117428227D01*
X134546408Y-117431811D01*
X134553414Y-117450119D01*
X134624842Y-117592976D01*
X134630128Y-117601374D01*
X134631138Y-117603812D01*
X134633389Y-117606555D01*
X134635285Y-117609567D01*
X134637282Y-117611299D01*
X134643574Y-117618966D01*
X134715003Y-117690395D01*
X134722673Y-117696689D01*
X134724403Y-117698684D01*
X134727410Y-117700577D01*
X134730157Y-117702831D01*
X134732596Y-117703841D01*
X134740993Y-117709127D01*
X134883850Y-117780555D01*
X134902159Y-117787561D01*
X134905741Y-117787815D01*
X134909062Y-117789191D01*
X134928571Y-117791112D01*
X135214285Y-117791112D01*
X135233794Y-117789191D01*
X135237114Y-117787815D01*
X135240697Y-117787561D01*
X135257143Y-117781267D01*
X135257143Y-117881790D01*
X135203528Y-117989018D01*
X135155048Y-118037498D01*
X135047821Y-118091112D01*
X134880750Y-118091112D01*
X134759006Y-118030241D01*
X134740697Y-118023235D01*
X134701777Y-118020469D01*
X134664761Y-118032808D01*
X134635285Y-118058373D01*
X134617836Y-118093272D01*
X134615070Y-118132192D01*
X134627409Y-118169208D01*
X134652974Y-118198684D01*
X134669564Y-118209127D01*
X134812422Y-118280555D01*
X134830731Y-118287562D01*
X134834316Y-118287816D01*
X134837634Y-118289191D01*
X134857143Y-118291112D01*
X135071428Y-118291112D01*
X135090937Y-118289191D01*
X135094257Y-118287815D01*
X135097841Y-118287561D01*
X135116149Y-118280555D01*
X135259006Y-118209127D01*
X135267404Y-118203840D01*
X135269842Y-118202831D01*
X135272585Y-118200579D01*
X135275597Y-118198684D01*
X135277329Y-118196686D01*
X135284996Y-118190395D01*
X135356425Y-118118966D01*
X135362716Y-118111299D01*
X135364714Y-118109567D01*
X135366609Y-118106555D01*
X135368861Y-118103812D01*
X135369870Y-118101375D01*
X135375157Y-118092977D01*
X135446586Y-117950120D01*
X135453592Y-117931811D01*
X135453846Y-117928227D01*
X135455222Y-117924907D01*
X135457143Y-117905398D01*
X135457143Y-116691112D01*
X135455222Y-116671603D01*
X135440290Y-116635555D01*
X135412700Y-116607965D01*
X135376652Y-116593033D01*
X135337634Y-116593033D01*
X135301586Y-116607965D01*
X135291590Y-116617961D01*
X135259006Y-116601669D01*
X135240698Y-116594663D01*
X135237114Y-116594408D01*
X135233794Y-116593033D01*
X135214285Y-116591112D01*
X134928571Y-116591112D01*
X134909062Y-116593033D01*
X134905741Y-116594408D01*
X134902158Y-116594663D01*
X134883849Y-116601669D01*
X134740992Y-116673098D01*
X134732597Y-116678382D01*
X134730157Y-116679393D01*
X134727410Y-116681647D01*
X134724402Y-116683541D01*
X134722670Y-116685537D01*
X134715004Y-116691830D01*
X134643575Y-116763258D01*
X134637282Y-116770924D01*
X134635285Y-116772657D01*
X134633391Y-116775665D01*
X134631138Y-116778411D01*
X134630127Y-116780851D01*
X134624842Y-116789248D01*
X134553414Y-116932105D01*
X134546408Y-116950413D01*
X134546153Y-116953996D01*
X134544778Y-116957317D01*
X134542857Y-116976826D01*
X134100000Y-116976826D01*
X134100000Y-116905398D01*
X134098079Y-116885889D01*
X134096703Y-116882568D01*
X134096449Y-116878985D01*
X134089443Y-116860676D01*
X134018014Y-116717819D01*
X134015959Y-116714554D01*
X134015447Y-116713018D01*
X134013787Y-116711103D01*
X134007571Y-116701229D01*
X133998098Y-116693013D01*
X133989883Y-116683541D01*
X133980009Y-116677326D01*
X133978094Y-116675665D01*
X133976555Y-116675152D01*
X133973292Y-116673098D01*
X133830436Y-116601669D01*
X133812127Y-116594663D01*
X133808543Y-116594408D01*
X133805223Y-116593033D01*
X133785714Y-116591112D01*
X133571428Y-116591112D01*
X133551919Y-116593033D01*
X133548598Y-116594408D01*
X133545015Y-116594663D01*
X133526706Y-116601669D01*
X133443488Y-116643278D01*
X133440289Y-116635555D01*
X133412699Y-116607965D01*
X133376651Y-116593033D01*
X133337633Y-116593033D01*
X133301585Y-116607965D01*
X133273995Y-116635555D01*
X133259063Y-116671603D01*
X133257142Y-116691112D01*
X132742856Y-116691112D01*
X132740935Y-116671603D01*
X132726003Y-116635555D01*
X132698413Y-116607965D01*
X132662365Y-116593033D01*
X132623347Y-116593033D01*
X132587299Y-116607965D01*
X132559709Y-116635555D01*
X132544777Y-116671603D01*
X132542856Y-116691112D01*
X132240935Y-116691112D01*
X132240935Y-116671603D01*
X132226003Y-116635555D01*
X132198413Y-116607965D01*
X132162365Y-116593033D01*
X132142856Y-116591112D01*
X131885713Y-116591112D01*
X131885713Y-116243032D01*
X132473349Y-116243032D01*
X132473349Y-116282050D01*
X132482096Y-116303167D01*
X132488281Y-116318099D01*
X132488285Y-116318103D01*
X132500717Y-116333252D01*
X132572145Y-116404679D01*
X132587298Y-116417116D01*
X132602230Y-116423300D01*
X132623347Y-116432048D01*
X132662364Y-116432048D01*
X132662365Y-116432048D01*
X132672922Y-116427674D01*
X132698413Y-116417117D01*
X132713566Y-116404680D01*
X132784995Y-116333252D01*
X132797432Y-116318099D01*
X132803616Y-116303167D01*
X132812364Y-116282050D01*
X132812364Y-116243032D01*
X132798939Y-116210621D01*
X132797433Y-116206984D01*
X132797427Y-116206978D01*
X132784996Y-116191830D01*
X132713567Y-116120401D01*
X132698418Y-116107969D01*
X132698413Y-116107964D01*
X132672922Y-116097406D01*
X132662365Y-116093033D01*
X132623347Y-116093033D01*
X132602230Y-116101780D01*
X132587298Y-116107965D01*
X132572145Y-116120402D01*
X132500717Y-116191831D01*
X132488280Y-116206984D01*
X132486774Y-116210621D01*
X132473349Y-116243032D01*
X131885713Y-116243032D01*
X131885713Y-116191112D01*
X131883792Y-116171603D01*
X131868860Y-116135555D01*
X131841270Y-116107965D01*
X131805222Y-116093033D01*
X131766204Y-116093033D01*
X131730156Y-116107965D01*
X131702566Y-116135555D01*
X131687634Y-116171603D01*
X131685713Y-116191112D01*
X131685713Y-116591112D01*
X131571428Y-116591112D01*
X131551919Y-116593033D01*
X131515871Y-116607965D01*
X131488281Y-116635555D01*
X131473349Y-116671603D01*
X131041730Y-116671603D01*
X130901864Y-116601669D01*
X130883555Y-116594663D01*
X130879971Y-116594408D01*
X130876651Y-116593033D01*
X130857142Y-116591112D01*
X130571428Y-116591112D01*
X130551919Y-116593033D01*
X130548598Y-116594408D01*
X130545015Y-116594663D01*
X130526707Y-116601669D01*
X130383849Y-116673098D01*
X130367258Y-116683541D01*
X130341694Y-116713018D01*
X130329355Y-116750034D01*
X130332121Y-116788954D01*
X130349570Y-116823853D01*
X130379047Y-116849417D01*
X130416063Y-116861756D01*
X130454983Y-116858990D01*
X130473291Y-116851984D01*
X130595035Y-116791112D01*
X130833534Y-116791112D01*
X130925463Y-116837077D01*
X130971428Y-116929005D01*
X130971428Y-116986451D01*
X130904963Y-117019684D01*
X130571428Y-117019684D01*
X130551919Y-117021605D01*
X130548601Y-117022979D01*
X130545016Y-117023234D01*
X130526707Y-117030241D01*
X130383849Y-117101669D01*
X130380585Y-117103722D01*
X130379047Y-117104236D01*
X130377130Y-117105898D01*
X130367259Y-117112112D01*
X130359044Y-117121583D01*
X130349570Y-117129800D01*
X130343357Y-117139670D01*
X130341694Y-117141588D01*
X130341180Y-117143128D01*
X130339127Y-117146391D01*
X130267699Y-117289248D01*
X130260693Y-117307556D01*
X130260438Y-117311139D01*
X130259063Y-117314460D01*
X130257142Y-117333969D01*
X129599999Y-117333969D01*
X129599999Y-117000434D01*
X129653614Y-116893203D01*
X129702090Y-116844727D01*
X129809321Y-116791112D01*
X129928571Y-116791112D01*
X129948080Y-116789191D01*
X129984128Y-116774259D01*
X130011718Y-116746669D01*
X130026650Y-116710621D01*
X130026650Y-116671603D01*
X130011718Y-116635555D01*
X129984128Y-116607965D01*
X129948080Y-116593033D01*
X129928571Y-116591112D01*
X129785714Y-116591112D01*
X129766205Y-116593033D01*
X129762884Y-116594408D01*
X129759301Y-116594663D01*
X129740992Y-116601669D01*
X129598220Y-116673055D01*
X129598078Y-116671603D01*
X129583146Y-116635555D01*
X129555556Y-116607965D01*
X129519508Y-116593033D01*
X129480490Y-116593033D01*
X129444442Y-116607965D01*
X129416852Y-116635555D01*
X129401920Y-116671603D01*
X129399999Y-116691112D01*
X128162690Y-116691112D01*
X128162690Y-113788703D01*
X128329357Y-113788703D01*
X128333704Y-113807819D01*
X128833704Y-115307819D01*
X128841695Y-115325719D01*
X128846378Y-115331118D01*
X128849573Y-115337508D01*
X128859045Y-115345723D01*
X128867261Y-115355196D01*
X128873650Y-115358390D01*
X128879049Y-115363073D01*
X128890945Y-115367038D01*
X128902159Y-115372645D01*
X128909286Y-115373151D01*
X128916065Y-115375411D01*
X128928572Y-115374522D01*
X128941079Y-115375411D01*
X128947857Y-115373151D01*
X128954985Y-115372645D01*
X128966197Y-115367038D01*
X128978095Y-115363073D01*
X128983494Y-115358389D01*
X128989884Y-115355195D01*
X128998099Y-115345723D01*
X129007571Y-115337508D01*
X129010765Y-115331118D01*
X129015449Y-115325719D01*
X129023440Y-115307819D01*
X129272076Y-114561910D01*
X129757143Y-114561910D01*
X129757143Y-114990482D01*
X129759064Y-115009991D01*
X129760439Y-115013311D01*
X129760694Y-115016895D01*
X129767700Y-115035203D01*
X129839128Y-115178060D01*
X129844414Y-115186458D01*
X129845424Y-115188896D01*
X129847675Y-115191639D01*
X129849571Y-115194651D01*
X129851568Y-115196383D01*
X129857860Y-115204050D01*
X129929289Y-115275479D01*
X129936959Y-115281773D01*
X129938689Y-115283768D01*
X129941696Y-115285661D01*
X129944443Y-115287915D01*
X129946882Y-115288925D01*
X129955279Y-115294211D01*
X130098136Y-115365639D01*
X130116445Y-115372645D01*
X130120027Y-115372899D01*
X130123348Y-115374275D01*
X130142857Y-115376196D01*
X130357143Y-115376196D01*
X130376652Y-115374275D01*
X130379972Y-115372899D01*
X130383556Y-115372645D01*
X130401864Y-115365639D01*
X130544721Y-115294211D01*
X130553119Y-115288924D01*
X130555557Y-115287915D01*
X130558300Y-115285663D01*
X130561312Y-115283768D01*
X130563044Y-115281770D01*
X130570711Y-115275479D01*
X130642140Y-115204050D01*
X130648434Y-115196379D01*
X130650429Y-115194650D01*
X130652322Y-115191642D01*
X130654576Y-115188896D01*
X130655586Y-115186456D01*
X130660872Y-115178060D01*
X130732300Y-115035203D01*
X130739306Y-115016894D01*
X130739560Y-115013311D01*
X130740936Y-115009991D01*
X130742857Y-114990482D01*
X130742857Y-114561910D01*
X130740936Y-114542401D01*
X130739560Y-114539080D01*
X130739306Y-114535498D01*
X130732300Y-114517189D01*
X130660872Y-114374332D01*
X130655587Y-114365936D01*
X130654576Y-114363495D01*
X130652320Y-114360747D01*
X130650429Y-114357742D01*
X130648434Y-114356011D01*
X130642139Y-114348342D01*
X130570710Y-114276914D01*
X130563043Y-114270621D01*
X130561312Y-114268625D01*
X130558304Y-114266731D01*
X130555557Y-114264477D01*
X130553115Y-114263465D01*
X130544721Y-114258182D01*
X130401865Y-114186753D01*
X130383556Y-114179747D01*
X130379972Y-114179492D01*
X130376652Y-114178117D01*
X130357143Y-114176196D01*
X130142857Y-114176196D01*
X130123348Y-114178117D01*
X130120027Y-114179492D01*
X130116444Y-114179747D01*
X130098135Y-114186753D01*
X129955278Y-114258182D01*
X129946883Y-114263466D01*
X129944443Y-114264477D01*
X129941696Y-114266731D01*
X129938688Y-114268625D01*
X129936956Y-114270621D01*
X129929290Y-114276914D01*
X129857861Y-114348342D01*
X129851568Y-114356008D01*
X129849571Y-114357741D01*
X129847677Y-114360749D01*
X129845424Y-114363495D01*
X129844413Y-114365935D01*
X129839128Y-114374332D01*
X129767700Y-114517189D01*
X129760694Y-114535497D01*
X129760439Y-114539080D01*
X129759064Y-114542401D01*
X129757143Y-114561910D01*
X129272076Y-114561910D01*
X129523440Y-113807819D01*
X129527787Y-113788703D01*
X129526898Y-113776196D01*
X131185714Y-113776196D01*
X131185714Y-115061910D01*
X131187635Y-115081419D01*
X131189010Y-115084739D01*
X131189265Y-115088323D01*
X131196271Y-115106631D01*
X131267700Y-115249489D01*
X131269754Y-115252752D01*
X131270267Y-115254291D01*
X131271928Y-115256206D01*
X131278143Y-115266080D01*
X131287618Y-115274297D01*
X131295832Y-115283768D01*
X131305703Y-115289981D01*
X131307620Y-115291644D01*
X131309158Y-115292157D01*
X131312422Y-115294211D01*
X131455279Y-115365639D01*
X131473588Y-115372645D01*
X131512508Y-115375411D01*
X131549524Y-115363072D01*
X131579000Y-115337508D01*
X131596450Y-115302609D01*
X131599215Y-115263689D01*
X131586876Y-115226673D01*
X131561312Y-115197196D01*
X131544721Y-115186753D01*
X131431678Y-115130232D01*
X131385714Y-115038303D01*
X131385714Y-114256687D01*
X131759064Y-114256687D01*
X131759064Y-114295705D01*
X131773996Y-114331753D01*
X131801586Y-114359343D01*
X131837634Y-114374275D01*
X131857143Y-114376196D01*
X131971428Y-114376196D01*
X131971428Y-115061910D01*
X131973349Y-115081419D01*
X131974724Y-115084739D01*
X131974979Y-115088323D01*
X131981985Y-115106631D01*
X132053414Y-115249489D01*
X132055468Y-115252752D01*
X132055981Y-115254291D01*
X132057642Y-115256206D01*
X132063857Y-115266080D01*
X132073332Y-115274297D01*
X132081546Y-115283768D01*
X132091417Y-115289981D01*
X132093334Y-115291644D01*
X132094872Y-115292157D01*
X132098136Y-115294211D01*
X132240993Y-115365639D01*
X132259302Y-115372645D01*
X132262884Y-115372899D01*
X132266205Y-115374275D01*
X132285714Y-115376196D01*
X132428571Y-115376196D01*
X132448080Y-115374275D01*
X132484128Y-115359343D01*
X132511718Y-115331753D01*
X132526650Y-115295705D01*
X132526650Y-115256687D01*
X132511718Y-115220639D01*
X132484128Y-115193049D01*
X132448080Y-115178117D01*
X132428571Y-115176196D01*
X132309321Y-115176196D01*
X132217392Y-115130232D01*
X132171428Y-115038303D01*
X132171428Y-114919053D01*
X132757143Y-114919053D01*
X132757143Y-115061910D01*
X132759064Y-115081419D01*
X132760439Y-115084739D01*
X132760694Y-115088322D01*
X132767700Y-115106631D01*
X132839128Y-115249489D01*
X132841181Y-115252751D01*
X132841695Y-115254292D01*
X132843358Y-115256209D01*
X132849571Y-115266080D01*
X132859045Y-115274296D01*
X132867260Y-115283768D01*
X132877131Y-115289981D01*
X132879048Y-115291644D01*
X132880587Y-115292157D01*
X132883850Y-115294211D01*
X133026708Y-115365639D01*
X133045017Y-115372646D01*
X133048602Y-115372900D01*
X133051920Y-115374275D01*
X133071429Y-115376196D01*
X133428571Y-115376196D01*
X133448080Y-115374275D01*
X133451400Y-115372899D01*
X133454983Y-115372645D01*
X133473292Y-115365639D01*
X133505876Y-115349347D01*
X133515872Y-115359343D01*
X133551920Y-115374275D01*
X133590938Y-115374275D01*
X133626986Y-115359343D01*
X133654576Y-115331753D01*
X133669508Y-115295705D01*
X133671429Y-115276196D01*
X133671429Y-114561910D01*
X134114286Y-114561910D01*
X134114286Y-114990482D01*
X134116207Y-115009991D01*
X134117582Y-115013311D01*
X134117837Y-115016895D01*
X134124843Y-115035203D01*
X134196271Y-115178060D01*
X134201557Y-115186458D01*
X134202567Y-115188896D01*
X134204818Y-115191639D01*
X134206714Y-115194651D01*
X134208711Y-115196383D01*
X134215003Y-115204050D01*
X134286432Y-115275479D01*
X134294102Y-115281773D01*
X134295832Y-115283768D01*
X134298839Y-115285661D01*
X134301586Y-115287915D01*
X134304025Y-115288925D01*
X134312422Y-115294211D01*
X134455279Y-115365639D01*
X134473588Y-115372645D01*
X134477170Y-115372899D01*
X134480491Y-115374275D01*
X134500000Y-115376196D01*
X134785714Y-115376196D01*
X134805223Y-115374275D01*
X134808543Y-115372899D01*
X134812126Y-115372645D01*
X134828572Y-115366351D01*
X134828572Y-115466874D01*
X134774957Y-115574102D01*
X134726477Y-115622582D01*
X134619250Y-115676196D01*
X134452179Y-115676196D01*
X134330435Y-115615325D01*
X134312126Y-115608319D01*
X134273206Y-115605553D01*
X134236190Y-115617892D01*
X134206714Y-115643457D01*
X134189265Y-115678356D01*
X134186499Y-115717276D01*
X134198838Y-115754292D01*
X134224403Y-115783768D01*
X134240993Y-115794211D01*
X134383851Y-115865639D01*
X134402160Y-115872646D01*
X134405745Y-115872900D01*
X134409063Y-115874275D01*
X134428572Y-115876196D01*
X134642857Y-115876196D01*
X134662366Y-115874275D01*
X134665686Y-115872899D01*
X134669270Y-115872645D01*
X134687578Y-115865639D01*
X134830435Y-115794211D01*
X134838833Y-115788924D01*
X134841271Y-115787915D01*
X134844014Y-115785663D01*
X134847026Y-115783768D01*
X134848758Y-115781770D01*
X134856425Y-115775479D01*
X134927854Y-115704050D01*
X134934145Y-115696383D01*
X134936143Y-115694651D01*
X134938038Y-115691639D01*
X134940290Y-115688896D01*
X134941299Y-115686459D01*
X134946586Y-115678061D01*
X135018015Y-115535204D01*
X135025021Y-115516895D01*
X135025275Y-115513311D01*
X135026651Y-115509991D01*
X135028572Y-115490482D01*
X135028572Y-114490482D01*
X135471429Y-114490482D01*
X135471429Y-115061910D01*
X135473350Y-115081419D01*
X135474725Y-115084739D01*
X135474980Y-115088322D01*
X135481986Y-115106631D01*
X135553414Y-115249489D01*
X135555467Y-115252751D01*
X135555981Y-115254292D01*
X135557644Y-115256209D01*
X135563857Y-115266080D01*
X135573331Y-115274296D01*
X135581546Y-115283768D01*
X135591417Y-115289981D01*
X135593334Y-115291644D01*
X135594873Y-115292157D01*
X135598136Y-115294211D01*
X135740994Y-115365639D01*
X135759303Y-115372646D01*
X135762888Y-115372900D01*
X135766206Y-115374275D01*
X135785715Y-115376196D01*
X136071429Y-115376196D01*
X136090938Y-115374275D01*
X136094258Y-115372899D01*
X136097842Y-115372645D01*
X136116150Y-115365639D01*
X136259007Y-115294211D01*
X136275598Y-115283768D01*
X136301162Y-115254291D01*
X136313501Y-115217275D01*
X136310736Y-115178355D01*
X136293286Y-115143456D01*
X136263810Y-115117892D01*
X136226794Y-115105553D01*
X136187874Y-115108319D01*
X136169565Y-115115325D01*
X136047822Y-115176196D01*
X135809322Y-115176196D01*
X135717392Y-115130232D01*
X135671429Y-115038303D01*
X135671429Y-114858176D01*
X136305222Y-114731418D01*
X136305224Y-114731418D01*
X136305225Y-114731417D01*
X136305327Y-114731397D01*
X136324080Y-114725687D01*
X136332220Y-114720235D01*
X136341272Y-114716486D01*
X136348271Y-114709486D01*
X136356500Y-114703976D01*
X136361935Y-114695822D01*
X136368862Y-114688896D01*
X136372650Y-114679749D01*
X136378143Y-114671511D01*
X136380044Y-114661899D01*
X136383794Y-114652848D01*
X136385715Y-114633339D01*
X136385715Y-114633239D01*
X136385716Y-114633234D01*
X136385715Y-114633229D01*
X136385715Y-114490482D01*
X136383794Y-114470973D01*
X136382418Y-114467652D01*
X136382164Y-114464069D01*
X136375158Y-114445760D01*
X136303729Y-114302903D01*
X136301674Y-114299638D01*
X136301162Y-114298102D01*
X136299502Y-114296187D01*
X136293286Y-114286313D01*
X136283813Y-114278097D01*
X136275598Y-114268625D01*
X136265724Y-114262410D01*
X136263809Y-114260749D01*
X136262270Y-114260236D01*
X136259007Y-114258182D01*
X136116151Y-114186753D01*
X136097842Y-114179747D01*
X136094258Y-114179492D01*
X136090938Y-114178117D01*
X136071429Y-114176196D01*
X135785715Y-114176196D01*
X135766206Y-114178117D01*
X135762885Y-114179492D01*
X135759302Y-114179747D01*
X135740994Y-114186753D01*
X135598136Y-114258182D01*
X135594872Y-114260236D01*
X135593334Y-114260749D01*
X135591418Y-114262410D01*
X135581545Y-114268625D01*
X135573329Y-114278097D01*
X135563857Y-114286313D01*
X135557642Y-114296186D01*
X135555981Y-114298102D01*
X135555468Y-114299640D01*
X135553414Y-114302904D01*
X135481986Y-114445761D01*
X135474980Y-114464069D01*
X135474725Y-114467652D01*
X135473350Y-114470973D01*
X135471429Y-114490482D01*
X135028572Y-114490482D01*
X135028572Y-114276196D01*
X135026651Y-114256687D01*
X135011719Y-114220639D01*
X134984129Y-114193049D01*
X134948081Y-114178117D01*
X134909063Y-114178117D01*
X134873015Y-114193049D01*
X134863019Y-114203045D01*
X134830435Y-114186753D01*
X134812127Y-114179747D01*
X134808543Y-114179492D01*
X134805223Y-114178117D01*
X134785714Y-114176196D01*
X134500000Y-114176196D01*
X134480491Y-114178117D01*
X134477170Y-114179492D01*
X134473587Y-114179747D01*
X134455278Y-114186753D01*
X134312421Y-114258182D01*
X134304026Y-114263466D01*
X134301586Y-114264477D01*
X134298839Y-114266731D01*
X134295831Y-114268625D01*
X134294099Y-114270621D01*
X134286433Y-114276914D01*
X134215004Y-114348342D01*
X134208711Y-114356008D01*
X134206714Y-114357741D01*
X134204820Y-114360749D01*
X134202567Y-114363495D01*
X134201556Y-114365935D01*
X134196271Y-114374332D01*
X134124843Y-114517189D01*
X134117837Y-114535497D01*
X134117582Y-114539080D01*
X134116207Y-114542401D01*
X134114286Y-114561910D01*
X133671429Y-114561910D01*
X133671429Y-114490482D01*
X133669508Y-114470973D01*
X133668132Y-114467652D01*
X133667878Y-114464069D01*
X133660872Y-114445760D01*
X133589443Y-114302903D01*
X133587388Y-114299638D01*
X133586876Y-114298102D01*
X133585216Y-114296187D01*
X133579000Y-114286313D01*
X133569527Y-114278097D01*
X133561312Y-114268625D01*
X133551438Y-114262410D01*
X133549523Y-114260749D01*
X133547984Y-114260236D01*
X133544721Y-114258182D01*
X133401865Y-114186753D01*
X133383556Y-114179747D01*
X133379972Y-114179492D01*
X133376652Y-114178117D01*
X133357143Y-114176196D01*
X133071429Y-114176196D01*
X133051920Y-114178117D01*
X133048599Y-114179492D01*
X133045016Y-114179747D01*
X133026708Y-114186753D01*
X132883850Y-114258182D01*
X132867259Y-114268625D01*
X132841695Y-114298102D01*
X132829356Y-114335118D01*
X132832122Y-114374038D01*
X132849571Y-114408937D01*
X132879048Y-114434501D01*
X132916064Y-114446840D01*
X132954984Y-114444074D01*
X132973292Y-114437068D01*
X133095036Y-114376196D01*
X133333535Y-114376196D01*
X133425464Y-114422161D01*
X133471429Y-114514089D01*
X133471429Y-114571535D01*
X133404964Y-114604768D01*
X133071429Y-114604768D01*
X133051920Y-114606689D01*
X133048602Y-114608063D01*
X133045017Y-114608318D01*
X133026708Y-114615325D01*
X132883850Y-114686753D01*
X132880586Y-114688806D01*
X132879048Y-114689320D01*
X132877131Y-114690982D01*
X132867260Y-114697196D01*
X132859045Y-114706667D01*
X132849571Y-114714884D01*
X132843358Y-114724754D01*
X132841695Y-114726672D01*
X132841181Y-114728212D01*
X132839128Y-114731475D01*
X132767700Y-114874332D01*
X132760694Y-114892640D01*
X132760439Y-114896223D01*
X132759064Y-114899544D01*
X132757143Y-114919053D01*
X132171428Y-114919053D01*
X132171428Y-114376196D01*
X132428571Y-114376196D01*
X132448080Y-114374275D01*
X132484128Y-114359343D01*
X132511718Y-114331753D01*
X132526650Y-114295705D01*
X132526650Y-114256687D01*
X132511718Y-114220639D01*
X132484128Y-114193049D01*
X132448080Y-114178117D01*
X132428571Y-114176196D01*
X132171428Y-114176196D01*
X132171428Y-113776196D01*
X132169507Y-113756687D01*
X132154575Y-113720639D01*
X132126985Y-113693049D01*
X132090937Y-113678117D01*
X132051919Y-113678117D01*
X132015871Y-113693049D01*
X131988281Y-113720639D01*
X131973349Y-113756687D01*
X131971428Y-113776196D01*
X131971428Y-114176196D01*
X131857143Y-114176196D01*
X131837634Y-114178117D01*
X131801586Y-114193049D01*
X131773996Y-114220639D01*
X131759064Y-114256687D01*
X131385714Y-114256687D01*
X131385714Y-113776196D01*
X131383793Y-113756687D01*
X131368861Y-113720639D01*
X131341271Y-113693049D01*
X131305223Y-113678117D01*
X131266205Y-113678117D01*
X131230157Y-113693049D01*
X131202567Y-113720639D01*
X131187635Y-113756687D01*
X131185714Y-113776196D01*
X129526898Y-113776196D01*
X129525021Y-113749783D01*
X129507571Y-113714884D01*
X129478095Y-113689319D01*
X129441079Y-113676981D01*
X129402159Y-113679747D01*
X129367261Y-113697196D01*
X129341695Y-113726673D01*
X129333704Y-113744573D01*
X128928572Y-114959969D01*
X128523440Y-113744573D01*
X128515449Y-113726673D01*
X128489884Y-113697197D01*
X128454985Y-113679747D01*
X128416065Y-113676981D01*
X128379049Y-113689319D01*
X128349573Y-113714884D01*
X128332123Y-113749783D01*
X128329357Y-113788703D01*
X128162690Y-113788703D01*
X128162690Y-113510314D01*
X137551596Y-113510314D01*
X137551596Y-120372695D01*
G37*
D10*
G36*
X86919222Y-127474425D02*
G01*
X86941080Y-127496283D01*
X86965506Y-127545135D01*
X86965506Y-127716666D01*
X86732173Y-127716666D01*
X86732173Y-127545135D01*
X86756598Y-127496284D01*
X86778458Y-127474424D01*
X86827309Y-127449999D01*
X86870370Y-127449999D01*
X86919222Y-127474425D01*
G37*
G36*
X87285888Y-127441091D02*
G01*
X87307747Y-127462951D01*
X87332173Y-127511802D01*
X87332173Y-127716666D01*
X87065506Y-127716666D01*
X87065506Y-127541447D01*
X87092541Y-127460342D01*
X87111793Y-127441090D01*
X87160643Y-127416666D01*
X87237037Y-127416666D01*
X87285888Y-127441091D01*
G37*
G36*
X88046182Y-126241091D02*
G01*
X88068040Y-126262949D01*
X88092466Y-126311801D01*
X88092466Y-126483332D01*
X87859133Y-126483332D01*
X87859133Y-126311801D01*
X87883558Y-126262950D01*
X87905418Y-126241090D01*
X87954269Y-126216665D01*
X87997330Y-126216665D01*
X88046182Y-126241091D01*
G37*
G36*
X88412848Y-126207757D02*
G01*
X88434707Y-126229617D01*
X88459133Y-126278468D01*
X88459133Y-126483332D01*
X88192466Y-126483332D01*
X88192466Y-126308113D01*
X88219501Y-126227008D01*
X88238753Y-126207756D01*
X88287603Y-126183332D01*
X88363997Y-126183332D01*
X88412848Y-126207757D01*
G37*
G36*
X86952554Y-126141091D02*
G01*
X86974414Y-126162951D01*
X86998840Y-126211802D01*
X86998840Y-126416666D01*
X86732173Y-126416666D01*
X86732173Y-126211802D01*
X86756598Y-126162950D01*
X86778458Y-126141091D01*
X86827309Y-126116666D01*
X86903704Y-126116666D01*
X86952554Y-126141091D01*
G37*
G36*
X87132173Y-125730628D02*
G01*
X86840285Y-125633332D01*
X87132173Y-125536036D01*
X87132173Y-125730628D01*
G37*
G36*
X88046182Y-123541092D02*
G01*
X88068040Y-123562950D01*
X88092466Y-123611802D01*
X88092466Y-123783333D01*
X87859133Y-123783333D01*
X87859133Y-123611802D01*
X87883558Y-123562951D01*
X87905418Y-123541091D01*
X87954269Y-123516666D01*
X87997330Y-123516666D01*
X88046182Y-123541092D01*
G37*
G36*
X88412848Y-123507758D02*
G01*
X88434707Y-123529618D01*
X88459133Y-123578469D01*
X88459133Y-123783333D01*
X88192466Y-123783333D01*
X88192466Y-123608114D01*
X88219501Y-123527009D01*
X88238753Y-123507757D01*
X88287603Y-123483333D01*
X88363997Y-123483333D01*
X88412848Y-123507758D01*
G37*
G36*
X88636911Y-128061110D02*
G01*
X86554395Y-128061110D01*
X86554395Y-127533333D01*
X86632173Y-127533333D01*
X86632173Y-127766666D01*
X86635979Y-127785800D01*
X86663039Y-127812860D01*
X86682173Y-127816666D01*
X87382173Y-127816666D01*
X87401307Y-127812860D01*
X87428367Y-127785800D01*
X87432173Y-127766666D01*
X87432173Y-127514198D01*
X87762939Y-127514198D01*
X87762939Y-127552466D01*
X87789999Y-127579526D01*
X87809133Y-127583332D01*
X88363997Y-127583332D01*
X88412848Y-127607757D01*
X88434707Y-127629617D01*
X88459133Y-127678468D01*
X88459133Y-127788196D01*
X88434707Y-127837046D01*
X88412848Y-127858906D01*
X88363997Y-127883332D01*
X87809133Y-127883332D01*
X87789999Y-127887138D01*
X87762939Y-127914198D01*
X87762939Y-127952466D01*
X87789999Y-127979526D01*
X87809133Y-127983332D01*
X88375800Y-127983332D01*
X88378256Y-127982843D01*
X88379345Y-127983206D01*
X88387072Y-127981089D01*
X88394934Y-127979526D01*
X88395745Y-127978714D01*
X88398161Y-127978053D01*
X88464827Y-127944720D01*
X88471161Y-127939804D01*
X88477821Y-127935354D01*
X88511155Y-127902021D01*
X88515609Y-127895354D01*
X88520521Y-127889026D01*
X88553854Y-127822360D01*
X88554515Y-127819944D01*
X88555327Y-127819133D01*
X88556891Y-127811268D01*
X88559007Y-127803543D01*
X88558644Y-127802455D01*
X88559133Y-127799999D01*
X88559133Y-127666665D01*
X88558644Y-127664208D01*
X88559007Y-127663121D01*
X88556891Y-127655395D01*
X88555327Y-127647531D01*
X88554515Y-127646719D01*
X88553854Y-127644304D01*
X88520521Y-127577638D01*
X88515609Y-127571309D01*
X88511155Y-127564643D01*
X88477821Y-127531310D01*
X88471161Y-127526859D01*
X88464827Y-127521944D01*
X88398161Y-127488611D01*
X88395745Y-127487949D01*
X88394934Y-127487138D01*
X88387072Y-127485574D01*
X88379345Y-127483458D01*
X88378256Y-127483820D01*
X88375800Y-127483332D01*
X87809133Y-127483332D01*
X87789999Y-127487138D01*
X87762939Y-127514198D01*
X87432173Y-127514198D01*
X87432173Y-127499999D01*
X87431684Y-127497542D01*
X87432047Y-127496455D01*
X87429931Y-127488729D01*
X87428367Y-127480865D01*
X87427555Y-127480053D01*
X87426894Y-127477638D01*
X87393561Y-127410972D01*
X87388649Y-127404643D01*
X87384195Y-127397977D01*
X87350861Y-127364644D01*
X87344201Y-127360193D01*
X87337867Y-127355278D01*
X87271201Y-127321945D01*
X87268785Y-127321283D01*
X87267974Y-127320472D01*
X87260112Y-127318908D01*
X87252385Y-127316792D01*
X87251296Y-127317154D01*
X87248840Y-127316666D01*
X87148840Y-127316666D01*
X87146383Y-127317154D01*
X87145296Y-127316792D01*
X87137566Y-127318908D01*
X87129706Y-127320472D01*
X87128895Y-127321282D01*
X87126480Y-127321944D01*
X87059813Y-127355278D01*
X87053491Y-127360184D01*
X87046817Y-127364644D01*
X87013484Y-127397978D01*
X87012092Y-127400060D01*
X87011067Y-127400573D01*
X87007099Y-127407533D01*
X87002646Y-127414199D01*
X87002646Y-127415346D01*
X87002253Y-127416036D01*
X86984195Y-127397978D01*
X86977535Y-127393527D01*
X86971201Y-127388612D01*
X86904534Y-127355278D01*
X86902118Y-127354616D01*
X86901307Y-127353805D01*
X86893445Y-127352241D01*
X86885718Y-127350125D01*
X86884629Y-127350487D01*
X86882173Y-127349999D01*
X86815506Y-127349999D01*
X86813049Y-127350487D01*
X86811961Y-127350125D01*
X86804233Y-127352241D01*
X86796372Y-127353805D01*
X86795560Y-127354616D01*
X86793145Y-127355278D01*
X86726479Y-127388612D01*
X86720147Y-127393525D01*
X86713485Y-127397977D01*
X86680151Y-127431310D01*
X86675696Y-127437976D01*
X86670785Y-127444305D01*
X86637452Y-127510973D01*
X86636790Y-127513387D01*
X86635979Y-127514199D01*
X86634414Y-127522064D01*
X86632299Y-127529789D01*
X86632661Y-127530876D01*
X86632173Y-127533333D01*
X86554395Y-127533333D01*
X86554395Y-126691341D01*
X86632928Y-126691341D01*
X86641230Y-126728698D01*
X86655329Y-126742182D01*
X86955708Y-126933333D01*
X86655329Y-127124483D01*
X86641230Y-127137966D01*
X86632928Y-127175324D01*
X86653473Y-127207609D01*
X86690831Y-127215911D01*
X86709017Y-127208849D01*
X87063400Y-126983333D01*
X87382173Y-126983333D01*
X87401307Y-126979527D01*
X87428367Y-126952467D01*
X87428367Y-126933332D01*
X87759133Y-126933332D01*
X87759133Y-127099999D01*
X87759621Y-127102455D01*
X87759259Y-127103543D01*
X87761374Y-127111267D01*
X87762939Y-127119133D01*
X87763750Y-127119944D01*
X87764412Y-127122359D01*
X87797745Y-127189027D01*
X87802656Y-127195355D01*
X87807111Y-127202022D01*
X87840445Y-127235355D01*
X87847107Y-127239806D01*
X87853439Y-127244720D01*
X87920105Y-127278053D01*
X87922520Y-127278714D01*
X87923332Y-127279526D01*
X87931196Y-127281090D01*
X87938922Y-127283206D01*
X87940009Y-127282843D01*
X87942466Y-127283332D01*
X88009133Y-127283332D01*
X88011589Y-127282843D01*
X88012677Y-127283206D01*
X88020401Y-127281090D01*
X88028267Y-127279526D01*
X88029078Y-127278714D01*
X88031493Y-127278053D01*
X88098161Y-127244720D01*
X88104495Y-127239804D01*
X88111155Y-127235354D01*
X88144488Y-127202021D01*
X88148942Y-127195354D01*
X88153854Y-127189026D01*
X88187188Y-127122359D01*
X88188634Y-127117076D01*
X88190973Y-127112126D01*
X88222976Y-126984115D01*
X88250226Y-126929615D01*
X88272083Y-126907758D01*
X88320936Y-126883332D01*
X88363997Y-126883332D01*
X88412847Y-126907757D01*
X88434708Y-126929619D01*
X88459133Y-126978468D01*
X88459133Y-127125219D01*
X88428366Y-127217521D01*
X88425926Y-127236876D01*
X88443040Y-127271105D01*
X88479344Y-127283206D01*
X88513573Y-127266092D01*
X88523234Y-127249143D01*
X88556567Y-127149143D01*
X88557569Y-127141194D01*
X88559133Y-127133332D01*
X88559133Y-126966666D01*
X88558644Y-126964209D01*
X88559007Y-126963122D01*
X88556890Y-126955392D01*
X88555327Y-126947532D01*
X88554516Y-126946721D01*
X88553855Y-126944306D01*
X88520521Y-126877639D01*
X88515614Y-126871317D01*
X88511155Y-126864643D01*
X88477821Y-126831310D01*
X88471155Y-126826856D01*
X88464827Y-126821945D01*
X88398161Y-126788611D01*
X88395745Y-126787949D01*
X88394934Y-126787138D01*
X88387072Y-126785574D01*
X88379345Y-126783458D01*
X88378256Y-126783820D01*
X88375800Y-126783332D01*
X88309133Y-126783332D01*
X88306676Y-126783820D01*
X88305588Y-126783458D01*
X88297860Y-126785574D01*
X88289999Y-126787138D01*
X88289187Y-126787949D01*
X88286772Y-126788611D01*
X88220105Y-126821945D01*
X88213770Y-126826860D01*
X88207111Y-126831311D01*
X88173778Y-126864644D01*
X88169327Y-126871303D01*
X88164412Y-126877638D01*
X88131079Y-126944306D01*
X88129633Y-126949584D01*
X88127293Y-126954539D01*
X88095289Y-127082548D01*
X88068040Y-127137048D01*
X88046183Y-127158905D01*
X87997331Y-127183332D01*
X87954269Y-127183332D01*
X87905418Y-127158906D01*
X87883558Y-127137047D01*
X87859133Y-127088196D01*
X87859133Y-126941444D01*
X87889900Y-126849143D01*
X87892340Y-126829788D01*
X87875226Y-126795559D01*
X87838922Y-126783458D01*
X87804693Y-126800572D01*
X87795032Y-126817521D01*
X87761699Y-126917521D01*
X87760696Y-126925469D01*
X87759133Y-126933332D01*
X87428367Y-126933332D01*
X87428367Y-126914199D01*
X87401307Y-126887139D01*
X87382173Y-126883333D01*
X87063400Y-126883333D01*
X86709017Y-126657816D01*
X86690831Y-126650754D01*
X86653474Y-126659056D01*
X86632928Y-126691341D01*
X86554395Y-126691341D01*
X86554395Y-126199999D01*
X86632173Y-126199999D01*
X86632173Y-126466666D01*
X86635979Y-126485800D01*
X86663039Y-126512860D01*
X86682173Y-126516666D01*
X87382173Y-126516666D01*
X87401307Y-126512860D01*
X87428367Y-126485800D01*
X87428367Y-126447532D01*
X87401307Y-126420472D01*
X87382173Y-126416666D01*
X87098840Y-126416666D01*
X87098840Y-126299999D01*
X87759133Y-126299999D01*
X87759133Y-126533332D01*
X87762939Y-126552466D01*
X87789999Y-126579526D01*
X87809133Y-126583332D01*
X88509133Y-126583332D01*
X88528267Y-126579526D01*
X88555327Y-126552466D01*
X88559133Y-126533332D01*
X88559133Y-126266665D01*
X88558644Y-126264208D01*
X88559007Y-126263121D01*
X88556891Y-126255395D01*
X88555327Y-126247531D01*
X88554515Y-126246719D01*
X88553854Y-126244304D01*
X88520521Y-126177638D01*
X88515609Y-126171309D01*
X88511155Y-126164643D01*
X88477821Y-126131310D01*
X88471161Y-126126859D01*
X88464827Y-126121944D01*
X88398161Y-126088611D01*
X88395745Y-126087949D01*
X88394934Y-126087138D01*
X88387072Y-126085574D01*
X88379345Y-126083458D01*
X88378256Y-126083820D01*
X88375800Y-126083332D01*
X88275800Y-126083332D01*
X88273343Y-126083820D01*
X88272256Y-126083458D01*
X88264526Y-126085574D01*
X88256666Y-126087138D01*
X88255855Y-126087948D01*
X88253440Y-126088610D01*
X88186773Y-126121944D01*
X88180451Y-126126850D01*
X88173777Y-126131310D01*
X88140444Y-126164644D01*
X88139052Y-126166726D01*
X88138027Y-126167239D01*
X88134059Y-126174199D01*
X88129606Y-126180865D01*
X88129606Y-126182012D01*
X88129213Y-126182702D01*
X88111155Y-126164644D01*
X88104495Y-126160193D01*
X88098161Y-126155278D01*
X88031494Y-126121944D01*
X88029078Y-126121282D01*
X88028267Y-126120471D01*
X88020405Y-126118907D01*
X88012678Y-126116791D01*
X88011589Y-126117153D01*
X88009133Y-126116665D01*
X87942466Y-126116665D01*
X87940009Y-126117153D01*
X87938921Y-126116791D01*
X87931193Y-126118907D01*
X87923332Y-126120471D01*
X87922520Y-126121282D01*
X87920105Y-126121944D01*
X87853439Y-126155278D01*
X87847107Y-126160191D01*
X87840445Y-126164643D01*
X87807111Y-126197976D01*
X87802656Y-126204642D01*
X87797745Y-126210971D01*
X87764412Y-126277639D01*
X87763750Y-126280053D01*
X87762939Y-126280865D01*
X87761374Y-126288730D01*
X87759259Y-126296455D01*
X87759621Y-126297542D01*
X87759133Y-126299999D01*
X87098840Y-126299999D01*
X87098840Y-126199999D01*
X87098351Y-126197542D01*
X87098714Y-126196454D01*
X87096597Y-126188726D01*
X87095034Y-126180865D01*
X87094222Y-126180053D01*
X87093561Y-126177638D01*
X87060227Y-126110972D01*
X87055313Y-126104640D01*
X87050862Y-126097978D01*
X87017529Y-126064644D01*
X87010862Y-126060189D01*
X87004534Y-126055278D01*
X86937866Y-126021945D01*
X86935451Y-126021283D01*
X86934640Y-126020472D01*
X86926774Y-126018907D01*
X86919050Y-126016792D01*
X86917962Y-126017154D01*
X86915506Y-126016666D01*
X86815506Y-126016666D01*
X86813049Y-126017154D01*
X86811962Y-126016792D01*
X86804236Y-126018907D01*
X86796372Y-126020472D01*
X86795560Y-126021283D01*
X86793145Y-126021945D01*
X86726479Y-126055278D01*
X86720150Y-126060189D01*
X86713484Y-126064644D01*
X86680151Y-126097978D01*
X86675700Y-126104637D01*
X86670785Y-126110972D01*
X86637452Y-126177638D01*
X86636790Y-126180053D01*
X86635979Y-126180865D01*
X86634415Y-126188726D01*
X86632299Y-126196454D01*
X86632661Y-126197542D01*
X86632173Y-126199999D01*
X86554395Y-126199999D01*
X86554395Y-125629789D01*
X86632299Y-125629789D01*
X86633480Y-125633333D01*
X86632299Y-125636877D01*
X86639386Y-125651053D01*
X86644400Y-125666093D01*
X86647742Y-125667763D01*
X86649413Y-125671106D01*
X86666362Y-125680767D01*
X87366362Y-125914100D01*
X87385718Y-125916540D01*
X87419946Y-125899426D01*
X87432047Y-125863122D01*
X87414933Y-125828893D01*
X87397985Y-125819232D01*
X87232173Y-125763961D01*
X87232173Y-125502703D01*
X87397984Y-125447433D01*
X87414933Y-125437772D01*
X87432047Y-125403543D01*
X87419946Y-125367239D01*
X87385717Y-125350125D01*
X87366362Y-125352565D01*
X86666362Y-125585899D01*
X86649413Y-125595560D01*
X86647742Y-125598902D01*
X86644400Y-125600573D01*
X86639386Y-125615612D01*
X86632299Y-125629789D01*
X86554395Y-125629789D01*
X86554395Y-124899999D01*
X86632173Y-124899999D01*
X86632173Y-125066666D01*
X86632661Y-125069122D01*
X86632299Y-125070210D01*
X86634414Y-125077934D01*
X86635979Y-125085800D01*
X86636790Y-125086611D01*
X86637452Y-125089026D01*
X86670785Y-125155694D01*
X86675696Y-125162022D01*
X86680151Y-125168689D01*
X86713485Y-125202022D01*
X86720147Y-125206473D01*
X86726479Y-125211387D01*
X86793145Y-125244720D01*
X86795560Y-125245381D01*
X86796372Y-125246193D01*
X86804236Y-125247757D01*
X86811962Y-125249873D01*
X86813049Y-125249510D01*
X86815506Y-125249999D01*
X86882173Y-125249999D01*
X86884629Y-125249510D01*
X86885717Y-125249873D01*
X86893441Y-125247757D01*
X86901307Y-125246193D01*
X86902118Y-125245381D01*
X86904533Y-125244720D01*
X86971201Y-125211387D01*
X86977535Y-125206471D01*
X86984195Y-125202021D01*
X87017528Y-125168688D01*
X87021982Y-125162021D01*
X87026894Y-125155693D01*
X87060228Y-125089026D01*
X87061674Y-125083743D01*
X87064013Y-125078793D01*
X87096016Y-124950782D01*
X87123266Y-124896282D01*
X87145123Y-124874425D01*
X87193976Y-124849999D01*
X87237037Y-124849999D01*
X87285887Y-124874424D01*
X87307748Y-124896286D01*
X87332173Y-124945135D01*
X87332173Y-125091886D01*
X87301406Y-125184188D01*
X87298966Y-125203543D01*
X87316080Y-125237772D01*
X87352384Y-125249873D01*
X87386613Y-125232759D01*
X87396274Y-125215810D01*
X87429607Y-125115810D01*
X87430609Y-125107861D01*
X87432173Y-125099999D01*
X87432173Y-124933333D01*
X87431684Y-124930876D01*
X87432047Y-124929789D01*
X87429930Y-124922059D01*
X87428367Y-124914199D01*
X87427556Y-124913388D01*
X87426895Y-124910973D01*
X87411841Y-124880865D01*
X87762939Y-124880865D01*
X87762939Y-124919133D01*
X87789999Y-124946193D01*
X87809133Y-124949999D01*
X88092466Y-124949999D01*
X88092466Y-125249999D01*
X87809133Y-125249999D01*
X87789999Y-125253805D01*
X87762939Y-125280865D01*
X87762939Y-125319133D01*
X87789999Y-125346193D01*
X87809133Y-125349999D01*
X88509133Y-125349999D01*
X88528267Y-125346193D01*
X88555327Y-125319133D01*
X88555327Y-125280865D01*
X88528267Y-125253805D01*
X88509133Y-125249999D01*
X88192466Y-125249999D01*
X88192466Y-124949999D01*
X88509133Y-124949999D01*
X88528267Y-124946193D01*
X88555327Y-124919133D01*
X88555327Y-124880865D01*
X88528267Y-124853805D01*
X88509133Y-124849999D01*
X87809133Y-124849999D01*
X87789999Y-124853805D01*
X87762939Y-124880865D01*
X87411841Y-124880865D01*
X87393561Y-124844306D01*
X87388654Y-124837984D01*
X87384195Y-124831310D01*
X87350861Y-124797977D01*
X87344195Y-124793523D01*
X87337867Y-124788612D01*
X87271201Y-124755278D01*
X87268785Y-124754616D01*
X87267974Y-124753805D01*
X87260112Y-124752241D01*
X87252385Y-124750125D01*
X87251296Y-124750487D01*
X87248840Y-124749999D01*
X87182173Y-124749999D01*
X87179716Y-124750487D01*
X87178628Y-124750125D01*
X87170900Y-124752241D01*
X87163039Y-124753805D01*
X87162227Y-124754616D01*
X87159812Y-124755278D01*
X87093145Y-124788612D01*
X87086810Y-124793527D01*
X87080151Y-124797978D01*
X87046818Y-124831311D01*
X87042367Y-124837970D01*
X87037452Y-124844305D01*
X87004119Y-124910973D01*
X87002673Y-124916251D01*
X87000333Y-124921206D01*
X86968329Y-125049215D01*
X86941080Y-125103715D01*
X86919223Y-125125572D01*
X86870371Y-125149999D01*
X86827309Y-125149999D01*
X86778458Y-125125573D01*
X86756598Y-125103714D01*
X86732173Y-125054863D01*
X86732173Y-124908111D01*
X86762940Y-124815810D01*
X86765380Y-124796455D01*
X86748266Y-124762226D01*
X86711962Y-124750125D01*
X86677733Y-124767239D01*
X86668072Y-124784188D01*
X86634739Y-124884188D01*
X86633736Y-124892136D01*
X86632173Y-124899999D01*
X86554395Y-124899999D01*
X86554395Y-124233332D01*
X86632173Y-124233332D01*
X86632173Y-124399999D01*
X86632661Y-124402455D01*
X86632299Y-124403543D01*
X86634414Y-124411267D01*
X86635979Y-124419133D01*
X86636790Y-124419944D01*
X86637452Y-124422359D01*
X86670785Y-124489027D01*
X86675696Y-124495355D01*
X86680151Y-124502022D01*
X86713485Y-124535355D01*
X86720147Y-124539806D01*
X86726479Y-124544720D01*
X86793145Y-124578053D01*
X86795560Y-124578714D01*
X86796372Y-124579526D01*
X86804236Y-124581090D01*
X86811962Y-124583206D01*
X86813049Y-124582843D01*
X86815506Y-124583332D01*
X86882173Y-124583332D01*
X86884629Y-124582843D01*
X86885717Y-124583206D01*
X86893441Y-124581090D01*
X86901307Y-124579526D01*
X86902118Y-124578714D01*
X86904533Y-124578053D01*
X86971201Y-124544720D01*
X86977535Y-124539804D01*
X86984195Y-124535354D01*
X87017528Y-124502021D01*
X87021982Y-124495354D01*
X87026894Y-124489026D01*
X87060228Y-124422359D01*
X87061674Y-124417076D01*
X87064013Y-124412126D01*
X87096016Y-124284115D01*
X87123266Y-124229615D01*
X87145123Y-124207758D01*
X87193976Y-124183332D01*
X87237037Y-124183332D01*
X87285887Y-124207757D01*
X87307748Y-124229619D01*
X87332173Y-124278468D01*
X87332173Y-124425219D01*
X87301406Y-124517521D01*
X87298966Y-124536876D01*
X87316080Y-124571105D01*
X87352384Y-124583206D01*
X87386613Y-124566092D01*
X87396274Y-124549143D01*
X87429607Y-124449143D01*
X87430609Y-124441194D01*
X87432173Y-124433332D01*
X87432173Y-124266666D01*
X87431684Y-124264209D01*
X87432047Y-124263122D01*
X87429930Y-124255392D01*
X87428367Y-124247532D01*
X87427556Y-124246721D01*
X87426895Y-124244306D01*
X87393561Y-124177639D01*
X87388654Y-124171317D01*
X87384195Y-124164643D01*
X87367083Y-124147532D01*
X87762939Y-124147532D01*
X87762939Y-124185800D01*
X87789999Y-124212860D01*
X87809133Y-124216666D01*
X88363997Y-124216666D01*
X88412848Y-124241091D01*
X88434707Y-124262951D01*
X88459133Y-124311802D01*
X88459133Y-124421530D01*
X88434707Y-124470380D01*
X88412848Y-124492240D01*
X88363997Y-124516666D01*
X87809133Y-124516666D01*
X87789999Y-124520472D01*
X87762939Y-124547532D01*
X87762939Y-124585800D01*
X87789999Y-124612860D01*
X87809133Y-124616666D01*
X88375800Y-124616666D01*
X88378256Y-124616177D01*
X88379345Y-124616540D01*
X88387072Y-124614423D01*
X88394934Y-124612860D01*
X88395745Y-124612048D01*
X88398161Y-124611387D01*
X88464827Y-124578054D01*
X88471161Y-124573138D01*
X88477821Y-124568688D01*
X88511155Y-124535355D01*
X88515609Y-124528688D01*
X88520521Y-124522360D01*
X88553854Y-124455694D01*
X88554515Y-124453278D01*
X88555327Y-124452467D01*
X88556891Y-124444602D01*
X88559007Y-124436877D01*
X88558644Y-124435789D01*
X88559133Y-124433333D01*
X88559133Y-124299999D01*
X88558644Y-124297542D01*
X88559007Y-124296455D01*
X88556891Y-124288729D01*
X88555327Y-124280865D01*
X88554515Y-124280053D01*
X88553854Y-124277638D01*
X88520521Y-124210972D01*
X88515609Y-124204643D01*
X88511155Y-124197977D01*
X88477821Y-124164644D01*
X88471161Y-124160193D01*
X88464827Y-124155278D01*
X88398161Y-124121945D01*
X88395745Y-124121283D01*
X88394934Y-124120472D01*
X88387072Y-124118908D01*
X88379345Y-124116792D01*
X88378256Y-124117154D01*
X88375800Y-124116666D01*
X87809133Y-124116666D01*
X87789999Y-124120472D01*
X87762939Y-124147532D01*
X87367083Y-124147532D01*
X87350861Y-124131310D01*
X87344195Y-124126856D01*
X87337867Y-124121945D01*
X87271201Y-124088611D01*
X87268785Y-124087949D01*
X87267974Y-124087138D01*
X87260112Y-124085574D01*
X87252385Y-124083458D01*
X87251296Y-124083820D01*
X87248840Y-124083332D01*
X87182173Y-124083332D01*
X87179716Y-124083820D01*
X87178628Y-124083458D01*
X87170900Y-124085574D01*
X87163039Y-124087138D01*
X87162227Y-124087949D01*
X87159812Y-124088611D01*
X87093145Y-124121945D01*
X87086810Y-124126860D01*
X87080151Y-124131311D01*
X87046818Y-124164644D01*
X87042367Y-124171303D01*
X87037452Y-124177638D01*
X87004119Y-124244306D01*
X87002673Y-124249584D01*
X87000333Y-124254539D01*
X86968329Y-124382548D01*
X86941080Y-124437048D01*
X86919223Y-124458905D01*
X86870371Y-124483332D01*
X86827309Y-124483332D01*
X86778458Y-124458906D01*
X86756598Y-124437047D01*
X86732173Y-124388196D01*
X86732173Y-124241444D01*
X86762940Y-124149143D01*
X86765380Y-124129788D01*
X86748266Y-124095559D01*
X86711962Y-124083458D01*
X86677733Y-124100572D01*
X86668072Y-124117521D01*
X86634739Y-124217521D01*
X86633736Y-124225469D01*
X86632173Y-124233332D01*
X86554395Y-124233332D01*
X86554395Y-123600000D01*
X87759133Y-123600000D01*
X87759133Y-123833333D01*
X87762939Y-123852467D01*
X87789999Y-123879527D01*
X87809133Y-123883333D01*
X88509133Y-123883333D01*
X88528267Y-123879527D01*
X88555327Y-123852467D01*
X88559133Y-123833333D01*
X88559133Y-123566666D01*
X88558644Y-123564209D01*
X88559007Y-123563122D01*
X88556891Y-123555396D01*
X88555327Y-123547532D01*
X88554515Y-123546720D01*
X88553854Y-123544305D01*
X88520521Y-123477639D01*
X88515609Y-123471310D01*
X88511155Y-123464644D01*
X88477821Y-123431311D01*
X88471161Y-123426860D01*
X88464827Y-123421945D01*
X88398161Y-123388612D01*
X88395745Y-123387950D01*
X88394934Y-123387139D01*
X88387072Y-123385575D01*
X88379345Y-123383459D01*
X88378256Y-123383821D01*
X88375800Y-123383333D01*
X88275800Y-123383333D01*
X88273343Y-123383821D01*
X88272256Y-123383459D01*
X88264526Y-123385575D01*
X88256666Y-123387139D01*
X88255855Y-123387949D01*
X88253440Y-123388611D01*
X88186773Y-123421945D01*
X88180451Y-123426851D01*
X88173777Y-123431311D01*
X88140444Y-123464645D01*
X88139052Y-123466727D01*
X88138027Y-123467240D01*
X88134059Y-123474200D01*
X88129606Y-123480866D01*
X88129606Y-123482013D01*
X88129213Y-123482703D01*
X88111155Y-123464645D01*
X88104495Y-123460194D01*
X88098161Y-123455279D01*
X88031494Y-123421945D01*
X88029078Y-123421283D01*
X88028267Y-123420472D01*
X88020405Y-123418908D01*
X88012678Y-123416792D01*
X88011589Y-123417154D01*
X88009133Y-123416666D01*
X87942466Y-123416666D01*
X87940009Y-123417154D01*
X87938921Y-123416792D01*
X87931193Y-123418908D01*
X87923332Y-123420472D01*
X87922520Y-123421283D01*
X87920105Y-123421945D01*
X87853439Y-123455279D01*
X87847107Y-123460192D01*
X87840445Y-123464644D01*
X87807111Y-123497977D01*
X87802656Y-123504643D01*
X87797745Y-123510972D01*
X87764412Y-123577640D01*
X87763750Y-123580054D01*
X87762939Y-123580866D01*
X87761374Y-123588731D01*
X87759259Y-123596456D01*
X87759621Y-123597543D01*
X87759133Y-123600000D01*
X86554395Y-123600000D01*
X86554395Y-123305555D01*
X88636911Y-123305555D01*
X88636911Y-128061110D01*
G37*
X93710214Y-84915144D02*
X94147947Y-84477411D01*
X94147947Y-84477411D02*
X94181619Y-84982488D01*
X94181619Y-84982488D02*
X94282634Y-84881473D01*
X94282634Y-84881473D02*
X94383649Y-84847801D01*
X94383649Y-84847801D02*
X94450993Y-84847801D01*
X94450993Y-84847801D02*
X94552008Y-84881473D01*
X94552008Y-84881473D02*
X94720367Y-85049831D01*
X94720367Y-85049831D02*
X94754039Y-85150847D01*
X94754039Y-85150847D02*
X94754039Y-85218190D01*
X94754039Y-85218190D02*
X94720367Y-85319205D01*
X94720367Y-85319205D02*
X94518337Y-85521236D01*
X94518337Y-85521236D02*
X94417321Y-85554908D01*
X94417321Y-85554908D02*
X94349978Y-85554908D01*
X94585680Y-84039679D02*
X94653024Y-83972335D01*
X94653024Y-83972335D02*
X94754039Y-83938663D01*
X94754039Y-83938663D02*
X94821382Y-83938663D01*
X94821382Y-83938663D02*
X94922398Y-83972335D01*
X94922398Y-83972335D02*
X95090756Y-84073350D01*
X95090756Y-84073350D02*
X95259115Y-84241709D01*
X95259115Y-84241709D02*
X95360130Y-84410068D01*
X95360130Y-84410068D02*
X95393802Y-84511083D01*
X95393802Y-84511083D02*
X95393802Y-84578427D01*
X95393802Y-84578427D02*
X95360130Y-84679442D01*
X95360130Y-84679442D02*
X95292787Y-84746785D01*
X95292787Y-84746785D02*
X95191772Y-84780457D01*
X95191772Y-84780457D02*
X95124428Y-84780457D01*
X95124428Y-84780457D02*
X95023413Y-84746785D01*
X95023413Y-84746785D02*
X94855054Y-84645770D01*
X94855054Y-84645770D02*
X94686695Y-84477411D01*
X94686695Y-84477411D02*
X94585680Y-84309053D01*
X94585680Y-84309053D02*
X94552008Y-84208037D01*
X94552008Y-84208037D02*
X94552008Y-84140694D01*
X94552008Y-84140694D02*
X94585680Y-84039679D01*
X95831535Y-84208037D02*
X95360130Y-83736633D01*
X95427474Y-83803976D02*
X95427474Y-83736633D01*
X95427474Y-83736633D02*
X95461146Y-83635618D01*
X95461146Y-83635618D02*
X95562161Y-83534602D01*
X95562161Y-83534602D02*
X95663176Y-83500931D01*
X95663176Y-83500931D02*
X95764191Y-83534602D01*
X95764191Y-83534602D02*
X96134581Y-83904992D01*
X95764191Y-83534602D02*
X95730520Y-83433587D01*
X95730520Y-83433587D02*
X95764191Y-83332572D01*
X95764191Y-83332572D02*
X95865207Y-83231557D01*
X95865207Y-83231557D02*
X95966222Y-83197885D01*
X95966222Y-83197885D02*
X96067237Y-83231557D01*
X96067237Y-83231557D02*
X96437626Y-83601946D01*
X96774344Y-83265229D02*
X96302939Y-82793824D01*
X96370283Y-82861168D02*
X96370283Y-82793824D01*
X96370283Y-82793824D02*
X96403954Y-82692809D01*
X96403954Y-82692809D02*
X96504970Y-82591794D01*
X96504970Y-82591794D02*
X96605985Y-82558122D01*
X96605985Y-82558122D02*
X96707000Y-82591794D01*
X96707000Y-82591794D02*
X97077389Y-82962183D01*
X96707000Y-82591794D02*
X96673328Y-82490778D01*
X96673328Y-82490778D02*
X96707000Y-82389763D01*
X96707000Y-82389763D02*
X96808015Y-82288748D01*
X96808015Y-82288748D02*
X96909031Y-82255076D01*
X96909031Y-82255076D02*
X97010046Y-82288748D01*
X97010046Y-82288748D02*
X97380435Y-82659137D01*
X98121214Y-81177580D02*
X97885511Y-81413282D01*
X98255901Y-81783672D02*
X97548794Y-81076565D01*
X97548794Y-81076565D02*
X97885511Y-80739847D01*
X98626290Y-81009221D02*
X98963008Y-80672504D01*
X98760977Y-81278595D02*
X98289573Y-80335786D01*
X98289573Y-80335786D02*
X99232382Y-80807191D01*
X99468084Y-80571488D02*
X98760977Y-79864382D01*
X98760977Y-79864382D02*
X99872145Y-80167427D01*
X99872145Y-80167427D02*
X99165038Y-79460321D01*
X101219015Y-79359305D02*
X101151672Y-79359305D01*
X101151672Y-79359305D02*
X100983313Y-79325633D01*
X100983313Y-79325633D02*
X100882298Y-79291962D01*
X100882298Y-79291962D02*
X100747611Y-79224618D01*
X100747611Y-79224618D02*
X100545580Y-79089931D01*
X100545580Y-79089931D02*
X100410893Y-78955244D01*
X100410893Y-78955244D02*
X100276206Y-78753214D01*
X100276206Y-78753214D02*
X100208863Y-78618527D01*
X100208863Y-78618527D02*
X100175191Y-78517511D01*
X100175191Y-78517511D02*
X100141519Y-78349153D01*
X100141519Y-78349153D02*
X100141519Y-78281809D01*
X100444565Y-78180794D02*
X100882298Y-77743061D01*
X100882298Y-77743061D02*
X100915970Y-78248137D01*
X100915970Y-78248137D02*
X101016985Y-78147122D01*
X101016985Y-78147122D02*
X101118000Y-78113450D01*
X101118000Y-78113450D02*
X101185344Y-78113450D01*
X101185344Y-78113450D02*
X101286359Y-78147122D01*
X101286359Y-78147122D02*
X101454718Y-78315481D01*
X101454718Y-78315481D02*
X101488389Y-78416496D01*
X101488389Y-78416496D02*
X101488389Y-78483839D01*
X101488389Y-78483839D02*
X101454718Y-78584855D01*
X101454718Y-78584855D02*
X101252687Y-78786885D01*
X101252687Y-78786885D02*
X101151672Y-78820557D01*
X101151672Y-78820557D02*
X101084328Y-78820557D01*
X101320031Y-77305328D02*
X101387374Y-77237985D01*
X101387374Y-77237985D02*
X101488389Y-77204313D01*
X101488389Y-77204313D02*
X101555733Y-77204313D01*
X101555733Y-77204313D02*
X101656748Y-77237985D01*
X101656748Y-77237985D02*
X101825107Y-77339000D01*
X101825107Y-77339000D02*
X101993466Y-77507359D01*
X101993466Y-77507359D02*
X102094481Y-77675717D01*
X102094481Y-77675717D02*
X102128153Y-77776733D01*
X102128153Y-77776733D02*
X102128153Y-77844076D01*
X102128153Y-77844076D02*
X102094481Y-77945091D01*
X102094481Y-77945091D02*
X102027137Y-78012435D01*
X102027137Y-78012435D02*
X101926122Y-78046107D01*
X101926122Y-78046107D02*
X101858779Y-78046107D01*
X101858779Y-78046107D02*
X101757763Y-78012435D01*
X101757763Y-78012435D02*
X101589405Y-77911420D01*
X101589405Y-77911420D02*
X101421046Y-77743061D01*
X101421046Y-77743061D02*
X101320031Y-77574702D01*
X101320031Y-77574702D02*
X101286359Y-77473687D01*
X101286359Y-77473687D02*
X101286359Y-77406343D01*
X101286359Y-77406343D02*
X101320031Y-77305328D01*
X102936275Y-77103298D02*
X102532214Y-77507359D01*
X102734244Y-77305328D02*
X102027137Y-76598221D01*
X102027137Y-76598221D02*
X102060809Y-76766580D01*
X102060809Y-76766580D02*
X102060809Y-76901267D01*
X102060809Y-76901267D02*
X102027137Y-77002282D01*
X102666901Y-75958458D02*
X102734244Y-75891114D01*
X102734244Y-75891114D02*
X102835260Y-75857443D01*
X102835260Y-75857443D02*
X102902603Y-75857443D01*
X102902603Y-75857443D02*
X103003618Y-75891114D01*
X103003618Y-75891114D02*
X103171977Y-75992130D01*
X103171977Y-75992130D02*
X103340336Y-76160488D01*
X103340336Y-76160488D02*
X103441351Y-76328847D01*
X103441351Y-76328847D02*
X103475023Y-76429862D01*
X103475023Y-76429862D02*
X103475023Y-76497206D01*
X103475023Y-76497206D02*
X103441351Y-76598221D01*
X103441351Y-76598221D02*
X103374008Y-76665565D01*
X103374008Y-76665565D02*
X103272992Y-76699236D01*
X103272992Y-76699236D02*
X103205649Y-76699236D01*
X103205649Y-76699236D02*
X103104634Y-76665565D01*
X103104634Y-76665565D02*
X102936275Y-76564549D01*
X102936275Y-76564549D02*
X102767916Y-76396191D01*
X102767916Y-76396191D02*
X102666901Y-76227832D01*
X102666901Y-76227832D02*
X102633229Y-76126817D01*
X102633229Y-76126817D02*
X102633229Y-76059473D01*
X102633229Y-76059473D02*
X102666901Y-75958458D01*
X104114786Y-76463534D02*
X104114786Y-76396191D01*
X104114786Y-76396191D02*
X104081114Y-76227832D01*
X104081114Y-76227832D02*
X104047443Y-76126817D01*
X104047443Y-76126817D02*
X103980099Y-75992130D01*
X103980099Y-75992130D02*
X103845412Y-75790099D01*
X103845412Y-75790099D02*
X103710725Y-75655412D01*
X103710725Y-75655412D02*
X103508695Y-75520725D01*
X103508695Y-75520725D02*
X103374008Y-75453382D01*
X103374008Y-75453382D02*
X103272992Y-75419710D01*
X103272992Y-75419710D02*
X103104634Y-75386038D01*
X103104634Y-75386038D02*
X103037290Y-75386038D01*
D13*
X95169345Y-127994820D02*
X95169345Y-128804343D01*
X95169345Y-128804343D02*
X95216964Y-128899581D01*
X95216964Y-128899581D02*
X95264583Y-128947201D01*
X95264583Y-128947201D02*
X95359821Y-128994820D01*
X95359821Y-128994820D02*
X95550297Y-128994820D01*
X95550297Y-128994820D02*
X95645535Y-128947201D01*
X95645535Y-128947201D02*
X95693154Y-128899581D01*
X95693154Y-128899581D02*
X95740773Y-128804343D01*
X95740773Y-128804343D02*
X95740773Y-127994820D01*
X96740773Y-128994820D02*
X96169345Y-128994820D01*
X96455059Y-128994820D02*
X96455059Y-127994820D01*
X96455059Y-127994820D02*
X96359821Y-128137677D01*
X96359821Y-128137677D02*
X96264583Y-128232915D01*
X96264583Y-128232915D02*
X96169345Y-128280534D01*
X96749366Y-119616666D02*
X96782700Y-119649999D01*
X96782700Y-119649999D02*
X96816033Y-119749999D01*
X96816033Y-119749999D02*
X96816033Y-119816666D01*
X96816033Y-119816666D02*
X96782700Y-119916666D01*
X96782700Y-119916666D02*
X96716033Y-119983333D01*
X96716033Y-119983333D02*
X96649366Y-120016666D01*
X96649366Y-120016666D02*
X96516033Y-120049999D01*
X96516033Y-120049999D02*
X96416033Y-120049999D01*
X96416033Y-120049999D02*
X96282700Y-120016666D01*
X96282700Y-120016666D02*
X96216033Y-119983333D01*
X96216033Y-119983333D02*
X96149366Y-119916666D01*
X96149366Y-119916666D02*
X96116033Y-119816666D01*
X96116033Y-119816666D02*
X96116033Y-119749999D01*
X96116033Y-119749999D02*
X96149366Y-119649999D01*
X96149366Y-119649999D02*
X96182700Y-119616666D01*
X96116033Y-118983333D02*
X96116033Y-119316666D01*
X96116033Y-119316666D02*
X96449366Y-119349999D01*
X96449366Y-119349999D02*
X96416033Y-119316666D01*
X96416033Y-119316666D02*
X96382700Y-119249999D01*
X96382700Y-119249999D02*
X96382700Y-119083333D01*
X96382700Y-119083333D02*
X96416033Y-119016666D01*
X96416033Y-119016666D02*
X96449366Y-118983333D01*
X96449366Y-118983333D02*
X96516033Y-118949999D01*
X96516033Y-118949999D02*
X96682700Y-118949999D01*
X96682700Y-118949999D02*
X96749366Y-118983333D01*
X96749366Y-118983333D02*
X96782700Y-119016666D01*
X96782700Y-119016666D02*
X96816033Y-119083333D01*
X96816033Y-119083333D02*
X96816033Y-119249999D01*
X96816033Y-119249999D02*
X96782700Y-119316666D01*
X96782700Y-119316666D02*
X96749366Y-119349999D01*
X113916033Y-120216666D02*
X113582700Y-120449999D01*
X113916033Y-120616666D02*
X113216033Y-120616666D01*
X113216033Y-120616666D02*
X113216033Y-120349999D01*
X113216033Y-120349999D02*
X113249366Y-120283333D01*
X113249366Y-120283333D02*
X113282700Y-120249999D01*
X113282700Y-120249999D02*
X113349366Y-120216666D01*
X113349366Y-120216666D02*
X113449366Y-120216666D01*
X113449366Y-120216666D02*
X113516033Y-120249999D01*
X113516033Y-120249999D02*
X113549366Y-120283333D01*
X113549366Y-120283333D02*
X113582700Y-120349999D01*
X113582700Y-120349999D02*
X113582700Y-120616666D01*
X113282700Y-119949999D02*
X113249366Y-119916666D01*
X113249366Y-119916666D02*
X113216033Y-119849999D01*
X113216033Y-119849999D02*
X113216033Y-119683333D01*
X113216033Y-119683333D02*
X113249366Y-119616666D01*
X113249366Y-119616666D02*
X113282700Y-119583333D01*
X113282700Y-119583333D02*
X113349366Y-119549999D01*
X113349366Y-119549999D02*
X113416033Y-119549999D01*
X113416033Y-119549999D02*
X113516033Y-119583333D01*
X113516033Y-119583333D02*
X113916033Y-119983333D01*
X113916033Y-119983333D02*
X113916033Y-119549999D01*
X112416033Y-120216666D02*
X112082700Y-120449999D01*
X112416033Y-120616666D02*
X111716033Y-120616666D01*
X111716033Y-120616666D02*
X111716033Y-120349999D01*
X111716033Y-120349999D02*
X111749366Y-120283333D01*
X111749366Y-120283333D02*
X111782700Y-120249999D01*
X111782700Y-120249999D02*
X111849366Y-120216666D01*
X111849366Y-120216666D02*
X111949366Y-120216666D01*
X111949366Y-120216666D02*
X112016033Y-120249999D01*
X112016033Y-120249999D02*
X112049366Y-120283333D01*
X112049366Y-120283333D02*
X112082700Y-120349999D01*
X112082700Y-120349999D02*
X112082700Y-120616666D01*
X111716033Y-119983333D02*
X111716033Y-119549999D01*
X111716033Y-119549999D02*
X111982700Y-119783333D01*
X111982700Y-119783333D02*
X111982700Y-119683333D01*
X111982700Y-119683333D02*
X112016033Y-119616666D01*
X112016033Y-119616666D02*
X112049366Y-119583333D01*
X112049366Y-119583333D02*
X112116033Y-119549999D01*
X112116033Y-119549999D02*
X112282700Y-119549999D01*
X112282700Y-119549999D02*
X112349366Y-119583333D01*
X112349366Y-119583333D02*
X112382700Y-119616666D01*
X112382700Y-119616666D02*
X112416033Y-119683333D01*
X112416033Y-119683333D02*
X112416033Y-119883333D01*
X112416033Y-119883333D02*
X112382700Y-119949999D01*
X112382700Y-119949999D02*
X112349366Y-119983333D01*
X124878572Y-129544701D02*
X126021430Y-129544701D01*
X125450001Y-130116129D02*
X125450001Y-128973272D01*
X137178571Y-129544701D02*
X138321429Y-129544701D01*
X101252559Y-125978628D02*
X101252559Y-126454819D01*
X100919226Y-125454819D02*
X101252559Y-125978628D01*
X101252559Y-125978628D02*
X101585892Y-125454819D01*
X102443035Y-126454819D02*
X101871607Y-126454819D01*
X102157321Y-126454819D02*
X102157321Y-125454819D01*
X102157321Y-125454819D02*
X102062083Y-125597676D01*
X102062083Y-125597676D02*
X101966845Y-125692914D01*
X101966845Y-125692914D02*
X101871607Y-125740533D01*
X100749366Y-120016666D02*
X100782700Y-120049999D01*
X100782700Y-120049999D02*
X100816033Y-120149999D01*
X100816033Y-120149999D02*
X100816033Y-120216666D01*
X100816033Y-120216666D02*
X100782700Y-120316666D01*
X100782700Y-120316666D02*
X100716033Y-120383333D01*
X100716033Y-120383333D02*
X100649366Y-120416666D01*
X100649366Y-120416666D02*
X100516033Y-120449999D01*
X100516033Y-120449999D02*
X100416033Y-120449999D01*
X100416033Y-120449999D02*
X100282700Y-120416666D01*
X100282700Y-120416666D02*
X100216033Y-120383333D01*
X100216033Y-120383333D02*
X100149366Y-120316666D01*
X100149366Y-120316666D02*
X100116033Y-120216666D01*
X100116033Y-120216666D02*
X100116033Y-120149999D01*
X100116033Y-120149999D02*
X100149366Y-120049999D01*
X100149366Y-120049999D02*
X100182700Y-120016666D01*
X100116033Y-119416666D02*
X100116033Y-119549999D01*
X100116033Y-119549999D02*
X100149366Y-119616666D01*
X100149366Y-119616666D02*
X100182700Y-119649999D01*
X100182700Y-119649999D02*
X100282700Y-119716666D01*
X100282700Y-119716666D02*
X100416033Y-119749999D01*
X100416033Y-119749999D02*
X100682700Y-119749999D01*
X100682700Y-119749999D02*
X100749366Y-119716666D01*
X100749366Y-119716666D02*
X100782700Y-119683333D01*
X100782700Y-119683333D02*
X100816033Y-119616666D01*
X100816033Y-119616666D02*
X100816033Y-119483333D01*
X100816033Y-119483333D02*
X100782700Y-119416666D01*
X100782700Y-119416666D02*
X100749366Y-119383333D01*
X100749366Y-119383333D02*
X100682700Y-119349999D01*
X100682700Y-119349999D02*
X100516033Y-119349999D01*
X100516033Y-119349999D02*
X100449366Y-119383333D01*
X100449366Y-119383333D02*
X100416033Y-119416666D01*
X100416033Y-119416666D02*
X100382700Y-119483333D01*
X100382700Y-119483333D02*
X100382700Y-119616666D01*
X100382700Y-119616666D02*
X100416033Y-119683333D01*
X100416033Y-119683333D02*
X100449366Y-119716666D01*
X100449366Y-119716666D02*
X100516033Y-119749999D01*
X92149366Y-120076666D02*
X92182700Y-120109999D01*
X92182700Y-120109999D02*
X92216033Y-120209999D01*
X92216033Y-120209999D02*
X92216033Y-120276666D01*
X92216033Y-120276666D02*
X92182700Y-120376666D01*
X92182700Y-120376666D02*
X92116033Y-120443333D01*
X92116033Y-120443333D02*
X92049366Y-120476666D01*
X92049366Y-120476666D02*
X91916033Y-120509999D01*
X91916033Y-120509999D02*
X91816033Y-120509999D01*
X91816033Y-120509999D02*
X91682700Y-120476666D01*
X91682700Y-120476666D02*
X91616033Y-120443333D01*
X91616033Y-120443333D02*
X91549366Y-120376666D01*
X91549366Y-120376666D02*
X91516033Y-120276666D01*
X91516033Y-120276666D02*
X91516033Y-120209999D01*
X91516033Y-120209999D02*
X91549366Y-120109999D01*
X91549366Y-120109999D02*
X91582700Y-120076666D01*
X91516033Y-119843333D02*
X91516033Y-119409999D01*
X91516033Y-119409999D02*
X91782700Y-119643333D01*
X91782700Y-119643333D02*
X91782700Y-119543333D01*
X91782700Y-119543333D02*
X91816033Y-119476666D01*
X91816033Y-119476666D02*
X91849366Y-119443333D01*
X91849366Y-119443333D02*
X91916033Y-119409999D01*
X91916033Y-119409999D02*
X92082700Y-119409999D01*
X92082700Y-119409999D02*
X92149366Y-119443333D01*
X92149366Y-119443333D02*
X92182700Y-119476666D01*
X92182700Y-119476666D02*
X92216033Y-119543333D01*
X92216033Y-119543333D02*
X92216033Y-119743333D01*
X92216033Y-119743333D02*
X92182700Y-119809999D01*
X92182700Y-119809999D02*
X92149366Y-119843333D01*
X94649366Y-119916666D02*
X94682700Y-119949999D01*
X94682700Y-119949999D02*
X94716033Y-120049999D01*
X94716033Y-120049999D02*
X94716033Y-120116666D01*
X94716033Y-120116666D02*
X94682700Y-120216666D01*
X94682700Y-120216666D02*
X94616033Y-120283333D01*
X94616033Y-120283333D02*
X94549366Y-120316666D01*
X94549366Y-120316666D02*
X94416033Y-120349999D01*
X94416033Y-120349999D02*
X94316033Y-120349999D01*
X94316033Y-120349999D02*
X94182700Y-120316666D01*
X94182700Y-120316666D02*
X94116033Y-120283333D01*
X94116033Y-120283333D02*
X94049366Y-120216666D01*
X94049366Y-120216666D02*
X94016033Y-120116666D01*
X94016033Y-120116666D02*
X94016033Y-120049999D01*
X94016033Y-120049999D02*
X94049366Y-119949999D01*
X94049366Y-119949999D02*
X94082700Y-119916666D01*
X94249366Y-119316666D02*
X94716033Y-119316666D01*
X93982700Y-119483333D02*
X94482700Y-119649999D01*
X94482700Y-119649999D02*
X94482700Y-119216666D01*
X95749366Y-119616666D02*
X95782700Y-119649999D01*
X95782700Y-119649999D02*
X95816033Y-119749999D01*
X95816033Y-119749999D02*
X95816033Y-119816666D01*
X95816033Y-119816666D02*
X95782700Y-119916666D01*
X95782700Y-119916666D02*
X95716033Y-119983333D01*
X95716033Y-119983333D02*
X95649366Y-120016666D01*
X95649366Y-120016666D02*
X95516033Y-120049999D01*
X95516033Y-120049999D02*
X95416033Y-120049999D01*
X95416033Y-120049999D02*
X95282700Y-120016666D01*
X95282700Y-120016666D02*
X95216033Y-119983333D01*
X95216033Y-119983333D02*
X95149366Y-119916666D01*
X95149366Y-119916666D02*
X95116033Y-119816666D01*
X95116033Y-119816666D02*
X95116033Y-119749999D01*
X95116033Y-119749999D02*
X95149366Y-119649999D01*
X95149366Y-119649999D02*
X95182700Y-119616666D01*
X95116033Y-119383333D02*
X95116033Y-118916666D01*
X95116033Y-118916666D02*
X95816033Y-119216666D01*
X89889285Y-130569771D02*
X89689285Y-130284057D01*
X89546428Y-130569771D02*
X89546428Y-129969771D01*
X89546428Y-129969771D02*
X89774999Y-129969771D01*
X89774999Y-129969771D02*
X89832142Y-129998342D01*
X89832142Y-129998342D02*
X89860713Y-130026914D01*
X89860713Y-130026914D02*
X89889285Y-130084057D01*
X89889285Y-130084057D02*
X89889285Y-130169771D01*
X89889285Y-130169771D02*
X89860713Y-130226914D01*
X89860713Y-130226914D02*
X89832142Y-130255485D01*
X89832142Y-130255485D02*
X89774999Y-130284057D01*
X89774999Y-130284057D02*
X89546428Y-130284057D01*
X90460713Y-130569771D02*
X90117856Y-130569771D01*
X90289285Y-130569771D02*
X90289285Y-129969771D01*
X90289285Y-129969771D02*
X90232142Y-130055485D01*
X90232142Y-130055485D02*
X90174999Y-130112628D01*
X90174999Y-130112628D02*
X90117856Y-130141200D01*
X90660714Y-129969771D02*
X91032142Y-129969771D01*
X91032142Y-129969771D02*
X90832142Y-130198342D01*
X90832142Y-130198342D02*
X90917857Y-130198342D01*
X90917857Y-130198342D02*
X90975000Y-130226914D01*
X90975000Y-130226914D02*
X91003571Y-130255485D01*
X91003571Y-130255485D02*
X91032142Y-130312628D01*
X91032142Y-130312628D02*
X91032142Y-130455485D01*
X91032142Y-130455485D02*
X91003571Y-130512628D01*
X91003571Y-130512628D02*
X90975000Y-130541200D01*
X90975000Y-130541200D02*
X90917857Y-130569771D01*
X90917857Y-130569771D02*
X90746428Y-130569771D01*
X90746428Y-130569771D02*
X90689285Y-130541200D01*
X90689285Y-130541200D02*
X90660714Y-130512628D01*
X89945535Y-129369771D02*
X89745535Y-129084057D01*
X89602678Y-129369771D02*
X89602678Y-128769771D01*
X89602678Y-128769771D02*
X89831249Y-128769771D01*
X89831249Y-128769771D02*
X89888392Y-128798342D01*
X89888392Y-128798342D02*
X89916963Y-128826914D01*
X89916963Y-128826914D02*
X89945535Y-128884057D01*
X89945535Y-128884057D02*
X89945535Y-128969771D01*
X89945535Y-128969771D02*
X89916963Y-129026914D01*
X89916963Y-129026914D02*
X89888392Y-129055485D01*
X89888392Y-129055485D02*
X89831249Y-129084057D01*
X89831249Y-129084057D02*
X89602678Y-129084057D01*
X90516963Y-129369771D02*
X90174106Y-129369771D01*
X90345535Y-129369771D02*
X90345535Y-128769771D01*
X90345535Y-128769771D02*
X90288392Y-128855485D01*
X90288392Y-128855485D02*
X90231249Y-128912628D01*
X90231249Y-128912628D02*
X90174106Y-128941200D01*
X91031250Y-128969771D02*
X91031250Y-129369771D01*
X90888392Y-128741200D02*
X90745535Y-129169771D01*
X90745535Y-129169771D02*
X91116964Y-129169771D01*
D14*
%TO.C,kibuzzard-68D83794*%
G36*
X107365900Y-103425508D02*
G01*
X107548743Y-103452630D01*
X107728048Y-103497544D01*
X107902086Y-103559816D01*
X108069183Y-103638847D01*
X108227729Y-103733876D01*
X108376197Y-103843987D01*
X108513158Y-103968121D01*
X108637291Y-104105081D01*
X108747403Y-104253549D01*
X108842432Y-104412095D01*
X108921463Y-104579192D01*
X108983735Y-104753231D01*
X109028648Y-104932535D01*
X109055770Y-105115379D01*
X109064840Y-105300000D01*
X109055770Y-105484621D01*
X109028648Y-105667465D01*
X108983735Y-105846769D01*
X108921463Y-106020808D01*
X108842432Y-106187905D01*
X108747403Y-106346451D01*
X108637291Y-106494919D01*
X108513158Y-106631879D01*
X108376197Y-106756013D01*
X108227729Y-106866124D01*
X108069183Y-106961153D01*
X107902086Y-107040184D01*
X107728048Y-107102456D01*
X107548743Y-107147370D01*
X107365900Y-107174492D01*
X107181279Y-107183562D01*
X106838813Y-107183562D01*
X105757991Y-107183562D01*
X103090868Y-107183562D01*
X101960731Y-107183562D01*
X100933333Y-107183562D01*
X100590868Y-107183562D01*
X99335160Y-105300000D01*
X99348859Y-105279452D01*
X100933333Y-105279452D01*
X100949386Y-105645462D01*
X100997546Y-105962671D01*
X101077811Y-106231079D01*
X101190183Y-106450685D01*
X101334660Y-106621490D01*
X101511244Y-106743493D01*
X101719934Y-106816695D01*
X101960731Y-106841096D01*
X102206393Y-106825114D01*
X102328375Y-106800000D01*
X103090868Y-106800000D01*
X103542922Y-106800000D01*
X103542922Y-104621918D01*
X103551142Y-104621918D01*
X104192237Y-106800000D01*
X104652511Y-106800000D01*
X104652511Y-103841096D01*
X105112785Y-103841096D01*
X105112785Y-106758904D01*
X105422032Y-106820548D01*
X105757991Y-106841096D01*
X106099087Y-106805651D01*
X106366210Y-106699315D01*
X106569121Y-106505651D01*
X106717580Y-106208219D01*
X106784932Y-105947489D01*
X106825342Y-105631050D01*
X106838813Y-105258904D01*
X106823017Y-104874786D01*
X106775628Y-104552568D01*
X106696647Y-104292252D01*
X106586073Y-104093836D01*
X106381735Y-103907763D01*
X106105708Y-103796119D01*
X105757991Y-103758904D01*
X105434361Y-103779452D01*
X105112785Y-103841096D01*
X104652511Y-103841096D01*
X104652511Y-103800000D01*
X104221005Y-103800000D01*
X104221005Y-105978082D01*
X104208676Y-105978082D01*
X103567580Y-103800000D01*
X103090868Y-103800000D01*
X103090868Y-106800000D01*
X102328375Y-106800000D01*
X102439269Y-106777169D01*
X102659361Y-106697260D01*
X102659361Y-105012329D01*
X101701826Y-105012329D01*
X101701826Y-105361644D01*
X102219635Y-105361644D01*
X102219635Y-106438356D01*
X101973059Y-106487671D01*
X101722374Y-106417808D01*
X101537443Y-106208219D01*
X101452968Y-105980822D01*
X101402283Y-105671233D01*
X101385388Y-105279452D01*
X101403196Y-104896575D01*
X101456621Y-104597260D01*
X101545662Y-104381507D01*
X101750114Y-104185788D01*
X102042922Y-104120548D01*
X102294635Y-104145205D01*
X102556621Y-104219178D01*
X102556621Y-103849315D01*
X102304909Y-103781507D01*
X102042922Y-103758904D01*
X101703881Y-103799543D01*
X101426484Y-103921461D01*
X101210731Y-104124658D01*
X101089369Y-104333990D01*
X101002683Y-104596233D01*
X100950671Y-104911387D01*
X100933333Y-105279452D01*
X99348859Y-105279452D01*
X100590868Y-103416438D01*
X100933333Y-103416438D01*
X106838813Y-103416438D01*
X107181279Y-103416438D01*
X107365900Y-103425508D01*
G37*
G36*
X106042580Y-104180137D02*
G01*
X106238813Y-104371233D01*
X106323288Y-104583105D01*
X106373973Y-104878995D01*
X106390868Y-105258904D01*
X106374201Y-105678539D01*
X106324201Y-106000457D01*
X106240868Y-106224658D01*
X106045148Y-106421918D01*
X105757991Y-106487671D01*
X105573059Y-106450685D01*
X105573059Y-104153425D01*
X105757991Y-104116438D01*
X106042580Y-104180137D01*
G37*
%TO.C,kibuzzard-68D8378B*%
G36*
X120705251Y-105300000D02*
G01*
X119449543Y-107183562D01*
X119107078Y-107183562D01*
X118564612Y-107183562D01*
X116509817Y-107183562D01*
X114520776Y-107183562D01*
X113320776Y-107183562D01*
X112978310Y-107183562D01*
X112793689Y-107174492D01*
X112610846Y-107147370D01*
X112431541Y-107102456D01*
X112257503Y-107040184D01*
X112090406Y-106961153D01*
X111931860Y-106866124D01*
X111783392Y-106756013D01*
X111646431Y-106631879D01*
X111522298Y-106494919D01*
X111412186Y-106346451D01*
X111317157Y-106187905D01*
X111238126Y-106020808D01*
X111175854Y-105846769D01*
X111130941Y-105667465D01*
X111103819Y-105484621D01*
X111094749Y-105300000D01*
X111103819Y-105115379D01*
X111130941Y-104932535D01*
X111175854Y-104753231D01*
X111238126Y-104579192D01*
X111317157Y-104412095D01*
X111412186Y-104253549D01*
X111522298Y-104105081D01*
X111646431Y-103968121D01*
X111783392Y-103843987D01*
X111842702Y-103800000D01*
X113320776Y-103800000D01*
X113986530Y-106800000D01*
X114520776Y-106800000D01*
X114864884Y-105258904D01*
X115470091Y-105258904D01*
X115486337Y-105629730D01*
X115535074Y-105951113D01*
X115616303Y-106223052D01*
X115730023Y-106445548D01*
X115876234Y-106618600D01*
X116054937Y-106742209D01*
X116266132Y-106816374D01*
X116509817Y-106841096D01*
X116784132Y-106815411D01*
X117031735Y-106738356D01*
X117031735Y-106360274D01*
X116797489Y-106455822D01*
X116579680Y-106487671D01*
X116378767Y-106453539D01*
X116214384Y-106351142D01*
X116086530Y-106180479D01*
X115995205Y-105941553D01*
X115940411Y-105634361D01*
X115922146Y-105258904D01*
X117524886Y-105258904D01*
X117541132Y-105629730D01*
X117589869Y-105951113D01*
X117671097Y-106223052D01*
X117784817Y-106445548D01*
X117931029Y-106618600D01*
X118109732Y-106742209D01*
X118320926Y-106816374D01*
X118564612Y-106841096D01*
X118838927Y-106815411D01*
X119086530Y-106738356D01*
X119086530Y-106360274D01*
X118852283Y-106455822D01*
X118634475Y-106487671D01*
X118433562Y-106453539D01*
X118269178Y-106351142D01*
X118141324Y-106180479D01*
X118050000Y-105941553D01*
X117995205Y-105634361D01*
X117976941Y-105258904D01*
X117993493Y-104911073D01*
X118043151Y-104626484D01*
X118125913Y-104405137D01*
X118241781Y-104247032D01*
X118390753Y-104152169D01*
X118572831Y-104120548D01*
X118667352Y-104136986D01*
X118667352Y-104778082D01*
X119107078Y-104778082D01*
X119107078Y-103849315D01*
X118845091Y-103781507D01*
X118552283Y-103758904D01*
X118311487Y-103782342D01*
X118102797Y-103852654D01*
X117926213Y-103969842D01*
X117781735Y-104133904D01*
X117669364Y-104344842D01*
X117589098Y-104602654D01*
X117540939Y-104907342D01*
X117524886Y-105258904D01*
X115922146Y-105258904D01*
X115938699Y-104911073D01*
X115988356Y-104626484D01*
X116071119Y-104405137D01*
X116186986Y-104247032D01*
X116335959Y-104152169D01*
X116518037Y-104120548D01*
X116612557Y-104136986D01*
X116612557Y-104778082D01*
X117052283Y-104778082D01*
X117052283Y-103849315D01*
X116790297Y-103781507D01*
X116497489Y-103758904D01*
X116256692Y-103782342D01*
X116048002Y-103852654D01*
X115871418Y-103969842D01*
X115726941Y-104133904D01*
X115614569Y-104344842D01*
X115534304Y-104602654D01*
X115486144Y-104907342D01*
X115470091Y-105258904D01*
X114864884Y-105258904D01*
X115190639Y-103800000D01*
X114734475Y-103800000D01*
X114265982Y-106389041D01*
X114261872Y-106389041D01*
X113793379Y-103800000D01*
X113320776Y-103800000D01*
X111842702Y-103800000D01*
X111931860Y-103733876D01*
X112090406Y-103638847D01*
X112257503Y-103559816D01*
X112431541Y-103497544D01*
X112610846Y-103452630D01*
X112793689Y-103425508D01*
X112978310Y-103416438D01*
X113320776Y-103416438D01*
X119107078Y-103416438D01*
X119449543Y-103416438D01*
X120705251Y-105300000D01*
G37*
D15*
%TO.C,U1*%
X95641250Y-122400000D02*
X93691250Y-122400000D01*
X95641250Y-122400000D02*
X97591250Y-122400000D01*
X95641250Y-127765000D02*
X93691250Y-127765000D01*
X95641250Y-127765000D02*
X97591250Y-127765000D01*
X91931250Y-122860000D02*
X91601250Y-123100000D01*
X91601250Y-122620000D01*
X91931250Y-122860000D01*
G36*
X91931250Y-122860000D02*
G01*
X91601250Y-123100000D01*
X91601250Y-122620000D01*
X91931250Y-122860000D01*
G37*
%TO.C,J3*%
X103810000Y-112495000D02*
X103810000Y-113745000D01*
X104100000Y-112785000D02*
X104100000Y-118755000D01*
X104100000Y-118755000D02*
X116720000Y-118755000D01*
X104110000Y-112795000D02*
X104110000Y-113545000D01*
X104110000Y-113545000D02*
X105910000Y-113545000D01*
X104110000Y-115045000D02*
X104860000Y-115045000D01*
X104860000Y-115045000D02*
X104860000Y-117995000D01*
X104860000Y-117995000D02*
X110410000Y-117995000D01*
X105060000Y-112495000D02*
X103810000Y-112495000D01*
X105910000Y-112795000D02*
X104110000Y-112795000D01*
X105910000Y-113545000D02*
X105910000Y-112795000D01*
X107410000Y-112795000D02*
X107410000Y-113545000D01*
X107410000Y-113545000D02*
X113410000Y-113545000D01*
X113410000Y-112795000D02*
X107410000Y-112795000D01*
X113410000Y-113545000D02*
X113410000Y-112795000D01*
X114910000Y-112795000D02*
X114910000Y-113545000D01*
X114910000Y-113545000D02*
X116710000Y-113545000D01*
X115960000Y-115045000D02*
X115960000Y-117995000D01*
X115960000Y-117995000D02*
X110410000Y-117995000D01*
X116710000Y-112795000D02*
X114910000Y-112795000D01*
X116710000Y-113545000D02*
X116710000Y-112795000D01*
X116710000Y-115045000D02*
X115960000Y-115045000D01*
X116720000Y-112785000D02*
X104100000Y-112785000D01*
X116720000Y-118755000D02*
X116720000Y-112785000D01*
%TO.C,C5*%
X97171250Y-120719419D02*
X97171250Y-121000581D01*
X98191250Y-120719419D02*
X98191250Y-121000581D01*
D14*
%TO.C,kibuzzard-675D9C73*%
G36*
X123433699Y-113610548D02*
G01*
X123246027Y-113610548D01*
X123339178Y-113140685D01*
X123340548Y-113140685D01*
X123433699Y-113610548D01*
G37*
G36*
X125038161Y-112865169D02*
G01*
X125099109Y-112874210D01*
X125158877Y-112889181D01*
X125216890Y-112909939D01*
X125272589Y-112936282D01*
X125325438Y-112967959D01*
X125374927Y-113004662D01*
X125420581Y-113046040D01*
X125461959Y-113091694D01*
X125498662Y-113141183D01*
X125530339Y-113194032D01*
X125556682Y-113249731D01*
X125577440Y-113307744D01*
X125592411Y-113367512D01*
X125601452Y-113428460D01*
X125604475Y-113490000D01*
X125601452Y-113551540D01*
X125592411Y-113612488D01*
X125577440Y-113672256D01*
X125556682Y-113730269D01*
X125530339Y-113785968D01*
X125498662Y-113838817D01*
X125461959Y-113888306D01*
X125420581Y-113933960D01*
X125374927Y-113975338D01*
X125325438Y-114012041D01*
X125272589Y-114043718D01*
X125216890Y-114070061D01*
X125158877Y-114090819D01*
X125099109Y-114105790D01*
X125038161Y-114114831D01*
X124976621Y-114117854D01*
X124862466Y-114117854D01*
X124709041Y-114117854D01*
X123767945Y-114117854D01*
X123017260Y-114117854D01*
X122724110Y-114117854D01*
X122377534Y-114117854D01*
X122263379Y-114117854D01*
X122201839Y-114114831D01*
X122140891Y-114105790D01*
X122081123Y-114090819D01*
X122023110Y-114070061D01*
X121967411Y-114043718D01*
X121914562Y-114012041D01*
X121865073Y-113975338D01*
X121819419Y-113933960D01*
X121778041Y-113888306D01*
X121741338Y-113838817D01*
X121709661Y-113785968D01*
X121683318Y-113730269D01*
X121662560Y-113672256D01*
X121647589Y-113612488D01*
X121638548Y-113551540D01*
X121635525Y-113490000D01*
X121636198Y-113476301D01*
X122377534Y-113476301D01*
X122382949Y-113599910D01*
X122399195Y-113707038D01*
X122426271Y-113797684D01*
X122464178Y-113871849D01*
X122512915Y-113929533D01*
X122572483Y-113970736D01*
X122642881Y-113995458D01*
X122724110Y-114003699D01*
X122815548Y-113995137D01*
X122832055Y-113990000D01*
X123017260Y-113990000D01*
X123170685Y-113990000D01*
X123222740Y-113726986D01*
X123456986Y-113726986D01*
X123509041Y-113990000D01*
X123667945Y-113990000D01*
X123767945Y-113990000D01*
X123918630Y-113990000D01*
X123918630Y-113263973D01*
X123921370Y-113263973D01*
X124135069Y-113990000D01*
X124288493Y-113990000D01*
X124288493Y-113129726D01*
X124470685Y-113129726D01*
X124470685Y-113263973D01*
X124706301Y-113132466D01*
X124709041Y-113133836D01*
X124709041Y-113990000D01*
X124862466Y-113990000D01*
X124862466Y-112990000D01*
X124710411Y-112990000D01*
X124470685Y-113129726D01*
X124288493Y-113129726D01*
X124288493Y-112990000D01*
X124144658Y-112990000D01*
X124144658Y-113716027D01*
X124140548Y-113716027D01*
X123926849Y-112990000D01*
X123767945Y-112990000D01*
X123767945Y-113990000D01*
X123667945Y-113990000D01*
X123430959Y-112990000D01*
X123252877Y-112990000D01*
X123017260Y-113990000D01*
X122832055Y-113990000D01*
X122898082Y-113969452D01*
X122898082Y-113843425D01*
X122820000Y-113875274D01*
X122747397Y-113885890D01*
X122680426Y-113874513D01*
X122625632Y-113840381D01*
X122583014Y-113783493D01*
X122552572Y-113703851D01*
X122534307Y-113601454D01*
X122528219Y-113476301D01*
X122533737Y-113360358D01*
X122550289Y-113265495D01*
X122577877Y-113191712D01*
X122616499Y-113139011D01*
X122666157Y-113107390D01*
X122726849Y-113096849D01*
X122758356Y-113102329D01*
X122758356Y-113316027D01*
X122904932Y-113316027D01*
X122904932Y-113006438D01*
X122817603Y-112983836D01*
X122720000Y-112976301D01*
X122639735Y-112984114D01*
X122570171Y-113007551D01*
X122511310Y-113046614D01*
X122463151Y-113101301D01*
X122425694Y-113171614D01*
X122398938Y-113257551D01*
X122382885Y-113359114D01*
X122377534Y-113476301D01*
X121636198Y-113476301D01*
X121638548Y-113428460D01*
X121647589Y-113367512D01*
X121662560Y-113307744D01*
X121683318Y-113249731D01*
X121709661Y-113194032D01*
X121741338Y-113141183D01*
X121778041Y-113091694D01*
X121819419Y-113046040D01*
X121865073Y-113004662D01*
X121914562Y-112967959D01*
X121967411Y-112936282D01*
X122023110Y-112909939D01*
X122081123Y-112889181D01*
X122140891Y-112874210D01*
X122201839Y-112865169D01*
X122263379Y-112862146D01*
X122377534Y-112862146D01*
X124862466Y-112862146D01*
X124976621Y-112862146D01*
X125038161Y-112865169D01*
G37*
D15*
%TO.C,SW1*%
X117460000Y-115980000D02*
X117460000Y-122801001D01*
X118580000Y-115980000D02*
X117460000Y-115980000D01*
X118580000Y-122801000D02*
X117460000Y-122801001D01*
X118935000Y-117580001D02*
X118935000Y-121200000D01*
X118935000Y-121200000D02*
X120205000Y-121200001D01*
X119005000Y-117580000D02*
X119004999Y-118786667D01*
X119125000Y-117580000D02*
X119125000Y-118786667D01*
X119245001Y-117580000D02*
X119245000Y-118786667D01*
X119364999Y-117580000D02*
X119365000Y-118786667D01*
X119485000Y-117580000D02*
X119485000Y-118786667D01*
X119605000Y-117580000D02*
X119605000Y-118786666D01*
X119725000Y-117580000D02*
X119725000Y-118786667D01*
X119845001Y-117580000D02*
X119845000Y-118786667D01*
X119965000Y-117580001D02*
X119965000Y-118786667D01*
X120085000Y-117580000D02*
X120085000Y-118786667D01*
X120205000Y-117580000D02*
X118935000Y-117580001D01*
X120205000Y-121200001D02*
X120205000Y-117580000D01*
X120205001Y-118786667D02*
X118935000Y-118786667D01*
X121070000Y-115980000D02*
X120559000Y-115980000D01*
X121120000Y-122801000D02*
X120558999Y-122801000D01*
X121475000Y-117580000D02*
X121475000Y-121200000D01*
X121475000Y-121200000D02*
X122745000Y-121200000D01*
X121545000Y-117580000D02*
X121545000Y-118786667D01*
X121665000Y-117580000D02*
X121665000Y-118786666D01*
X121785000Y-117580000D02*
X121785000Y-118786667D01*
X121905001Y-117580000D02*
X121905000Y-118786667D01*
X122024999Y-117580000D02*
X122025000Y-118786667D01*
X122145000Y-117580000D02*
X122145000Y-118786667D01*
X122265000Y-117580000D02*
X122265001Y-118786667D01*
X122385000Y-117580000D02*
X122384999Y-118786667D01*
X122505000Y-117580000D02*
X122505000Y-118786667D01*
X122625000Y-117580001D02*
X122625000Y-118786667D01*
X122745000Y-117580000D02*
X121475000Y-117580000D01*
X122745000Y-118786667D02*
X121475000Y-118786667D01*
X122745000Y-121200000D02*
X122745000Y-117580000D01*
X124220000Y-115980000D02*
X123150000Y-115980000D01*
X124220000Y-115980000D02*
X124220000Y-122801000D01*
X124220000Y-122801000D02*
X123100000Y-122801000D01*
X124460000Y-115740000D02*
X123150000Y-115740000D01*
X124460000Y-115740000D02*
X124460000Y-117123000D01*
%TO.C,R11*%
X90804891Y-126502500D02*
X90497609Y-126502500D01*
X90804891Y-127262500D02*
X90497609Y-127262500D01*
%TO.C,R8*%
X104777500Y-122062742D02*
X104777500Y-122537258D01*
X105822500Y-122062742D02*
X105822500Y-122537258D01*
%TO.C,R2*%
X113077500Y-122537258D02*
X113077500Y-122062742D01*
X114122500Y-122537258D02*
X114122500Y-122062742D01*
%TO.C,R12*%
X90497609Y-127602500D02*
X90804891Y-127602500D01*
X90497609Y-128362500D02*
X90804891Y-128362500D01*
%TO.C,R3*%
X111477500Y-122537258D02*
X111477500Y-122062742D01*
X112522500Y-122537258D02*
X112522500Y-122062742D01*
%TO.C,R17*%
X94356358Y-130870000D02*
X94663640Y-130870000D01*
X94356358Y-131630000D02*
X94663640Y-131630000D01*
%TO.C,J4*%
X87890000Y-112490000D02*
X87890000Y-113740000D01*
X88180000Y-112780000D02*
X88180000Y-118750000D01*
X88180000Y-118750000D02*
X103300000Y-118750000D01*
X88190000Y-112790000D02*
X88190000Y-113540000D01*
X88190000Y-113540000D02*
X89989999Y-113540000D01*
X88190000Y-115040000D02*
X88940000Y-115040000D01*
X88940000Y-115040000D02*
X88940000Y-117990000D01*
X88940000Y-117990000D02*
X95740000Y-117990000D01*
X89140000Y-112490000D02*
X87890000Y-112490000D01*
X89989999Y-113540000D02*
X89990000Y-112789999D01*
X89990000Y-112789999D02*
X88190000Y-112790000D01*
X91490000Y-112789999D02*
X91490001Y-113540000D01*
X91490001Y-113540000D02*
X99990000Y-113540000D01*
X99990000Y-112790000D02*
X91490000Y-112789999D01*
X99990000Y-113540000D02*
X99990000Y-112790000D01*
X101489999Y-113540000D02*
X103290001Y-113540000D01*
X101490000Y-112789999D02*
X101489999Y-113540000D01*
X102540000Y-115040001D02*
X102540000Y-117990000D01*
X102540000Y-117990000D02*
X95740000Y-117990000D01*
X103290000Y-112789999D02*
X101490000Y-112789999D01*
X103290000Y-115040001D02*
X102540000Y-115040001D01*
X103290001Y-113540000D02*
X103290000Y-112789999D01*
X103300000Y-112780000D02*
X88180000Y-112780000D01*
X103300000Y-118750000D02*
X103300000Y-112780000D01*
%TO.C,J5*%
X123490000Y-134080001D02*
X123490000Y-148390001D01*
X123490000Y-148390001D02*
X139210000Y-148390002D01*
X128900000Y-129970001D02*
X132640000Y-129970001D01*
X139209999Y-134080001D02*
X139210000Y-148390002D01*
X123490000Y-134080001D02*
G75*
G02*
X126398352Y-130149588I4110000J0D01*
G01*
X137216806Y-130557043D02*
G75*
G02*
X139209999Y-134080001I-2116802J-3522955D01*
G01*
%TO.C,Y1*%
X100021250Y-125050001D02*
X103321250Y-125050001D01*
X103321250Y-125050001D02*
X103321250Y-121050001D01*
D14*
%TO.C,kibuzzard-674E4620*%
G36*
X97181142Y-110339575D02*
G01*
X97282511Y-110433639D01*
X97316301Y-110590412D01*
X97294384Y-110734590D01*
X97228630Y-110832878D01*
X97116301Y-110889385D01*
X96954658Y-110908220D01*
X96875205Y-110908220D01*
X96875205Y-110330138D01*
X97012192Y-110308220D01*
X97181142Y-110339575D01*
G37*
G36*
X97158767Y-111163700D02*
G01*
X97275205Y-111231508D01*
X97343014Y-111348631D01*
X97365616Y-111519179D01*
X97344726Y-111687330D01*
X97282055Y-111802741D01*
X97176918Y-111869522D01*
X97028630Y-111891782D01*
X96875205Y-111869864D01*
X96875205Y-111141097D01*
X96990274Y-111141097D01*
X97158767Y-111163700D01*
G37*
G36*
X98015638Y-109850340D02*
G01*
X98137533Y-109868421D01*
X98257070Y-109898364D01*
X98373096Y-109939878D01*
X98484494Y-109992566D01*
X98590191Y-110055918D01*
X98689170Y-110129326D01*
X98780477Y-110212082D01*
X98863232Y-110303388D01*
X98936640Y-110402367D01*
X98999992Y-110508064D01*
X99052680Y-110619462D01*
X99094194Y-110735488D01*
X99124137Y-110855025D01*
X99142218Y-110976920D01*
X99148265Y-111100001D01*
X99142218Y-111223082D01*
X99124137Y-111344977D01*
X99094194Y-111464514D01*
X99052680Y-111580540D01*
X98999992Y-111691938D01*
X98936640Y-111797635D01*
X98863232Y-111896614D01*
X98780477Y-111987920D01*
X98689170Y-112070676D01*
X98590191Y-112144084D01*
X98484494Y-112207436D01*
X98373096Y-112260124D01*
X98257070Y-112301638D01*
X98137533Y-112331581D01*
X98015638Y-112349662D01*
X97892557Y-112355709D01*
X97664247Y-112355709D01*
X97028630Y-112355709D01*
X95672466Y-112355709D01*
X94343699Y-112355709D01*
X93795753Y-112355709D01*
X93567443Y-112355709D01*
X93444362Y-112349662D01*
X93322466Y-112331581D01*
X93202930Y-112301638D01*
X93086904Y-112260124D01*
X92975506Y-112207436D01*
X92869809Y-112144084D01*
X92770830Y-112070676D01*
X92679523Y-111987920D01*
X92596768Y-111896614D01*
X92523360Y-111797635D01*
X92460008Y-111691938D01*
X92407320Y-111580540D01*
X92406931Y-111579453D01*
X93795753Y-111579453D01*
X93809909Y-111757840D01*
X93852374Y-111898479D01*
X93923151Y-112001371D01*
X94026499Y-112071386D01*
X94166682Y-112113395D01*
X94343699Y-112127398D01*
X94520715Y-112113395D01*
X94660898Y-112071386D01*
X94764247Y-112001371D01*
X94835023Y-111898479D01*
X94877489Y-111757840D01*
X94891644Y-111579453D01*
X94891644Y-110593152D01*
X95193014Y-110593152D01*
X95221438Y-110787672D01*
X95306712Y-110949316D01*
X95400928Y-111044293D01*
X95531979Y-111135617D01*
X95699863Y-111223289D01*
X95817329Y-111293837D01*
X95895753Y-111373974D01*
X95939931Y-111471234D01*
X95954658Y-111593152D01*
X95935479Y-111720891D01*
X95877945Y-111813700D01*
X95786164Y-111870206D01*
X95664247Y-111889042D01*
X95503820Y-111869255D01*
X95351309Y-111809894D01*
X95206712Y-111710960D01*
X95206712Y-111995891D01*
X95347352Y-112068951D01*
X95502603Y-112112786D01*
X95672466Y-112127398D01*
X95884521Y-112105480D01*
X96049452Y-112039727D01*
X96167260Y-111930138D01*
X96237945Y-111776713D01*
X96261507Y-111579453D01*
X96232055Y-111367809D01*
X96143699Y-111198631D01*
X96043546Y-111100914D01*
X95900167Y-111005024D01*
X95713562Y-110910960D01*
X95591796Y-110829073D01*
X95518737Y-110718570D01*
X95494384Y-110579453D01*
X95513562Y-110467124D01*
X95571096Y-110382193D01*
X95662192Y-110328768D01*
X95782055Y-110310960D01*
X95995068Y-110340412D01*
X96206712Y-110428768D01*
X96206712Y-110154796D01*
X96118310Y-110127398D01*
X96568356Y-110127398D01*
X96568356Y-112072604D01*
X96719345Y-112103045D01*
X96872770Y-112121310D01*
X97028630Y-112127398D01*
X97222846Y-112110655D01*
X97381750Y-112060427D01*
X97505342Y-111976713D01*
X97593623Y-111859514D01*
X97646591Y-111708829D01*
X97664247Y-111524659D01*
X97637877Y-111341097D01*
X97558767Y-111184933D01*
X97439931Y-111070549D01*
X97294384Y-111012330D01*
X97294384Y-111009590D01*
X97422808Y-110953426D01*
X97523151Y-110856165D01*
X97587877Y-110726028D01*
X97609452Y-110571234D01*
X97585562Y-110391727D01*
X97513890Y-110252111D01*
X97394438Y-110152385D01*
X97227205Y-110092549D01*
X97012192Y-110072604D01*
X96786164Y-110086302D01*
X96568356Y-110127398D01*
X96118310Y-110127398D01*
X96059376Y-110109133D01*
X95905951Y-110081736D01*
X95746438Y-110072604D01*
X95582816Y-110087824D01*
X95446286Y-110133487D01*
X95336849Y-110209590D01*
X95228973Y-110373974D01*
X95193014Y-110593152D01*
X94891644Y-110593152D01*
X94891644Y-110100001D01*
X94593014Y-110100001D01*
X94593014Y-111524659D01*
X94579315Y-111703768D01*
X94538219Y-111813700D01*
X94349178Y-111889042D01*
X94234795Y-111869864D01*
X94160137Y-111812330D01*
X94119041Y-111702056D01*
X94105342Y-111524659D01*
X94105342Y-110100001D01*
X93795753Y-110100001D01*
X93795753Y-111579453D01*
X92406931Y-111579453D01*
X92365806Y-111464514D01*
X92335863Y-111344977D01*
X92317782Y-111223082D01*
X92311735Y-111100001D01*
X92317782Y-110976920D01*
X92335863Y-110855025D01*
X92365806Y-110735488D01*
X92407320Y-110619462D01*
X92460008Y-110508064D01*
X92523360Y-110402367D01*
X92596768Y-110303388D01*
X92679523Y-110212082D01*
X92770830Y-110129326D01*
X92869809Y-110055918D01*
X92975506Y-109992566D01*
X93086904Y-109939878D01*
X93202930Y-109898364D01*
X93322466Y-109868421D01*
X93444362Y-109850340D01*
X93567443Y-109844293D01*
X93795753Y-109844293D01*
X97664247Y-109844293D01*
X97892557Y-109844293D01*
X98015638Y-109850340D01*
G37*
D15*
%TO.C,R9*%
X90497609Y-124502500D02*
X90804891Y-124502500D01*
X90497609Y-125262500D02*
X90804891Y-125262500D01*
%TO.C,R6*%
X106327501Y-122062742D02*
X106327501Y-122537258D01*
X107372501Y-122062742D02*
X107372501Y-122537258D01*
%TO.C,C6*%
X98671250Y-120719419D02*
X98671250Y-121000581D01*
X99691250Y-120719419D02*
X99691250Y-121000581D01*
%TO.C,R1*%
X107446359Y-131480000D02*
X107753641Y-131480000D01*
X107446359Y-130720000D02*
X107753641Y-130720000D01*
%TO.C,C3*%
X92571250Y-120619419D02*
X92571250Y-120900581D01*
X93591250Y-120619419D02*
X93591250Y-120900581D01*
%TO.C,C4*%
X93921250Y-121252164D02*
X93921250Y-121467836D01*
X94641250Y-121252164D02*
X94641250Y-121467836D01*
D14*
%TO.C,kibuzzard-675D9C7D*%
G36*
X119245069Y-113580548D02*
G01*
X119057397Y-113580548D01*
X119150548Y-113110685D01*
X119151918Y-113110685D01*
X119245069Y-113580548D01*
G37*
G36*
X120946792Y-112835169D02*
G01*
X121007739Y-112844210D01*
X121067508Y-112859181D01*
X121125520Y-112879939D01*
X121181219Y-112906282D01*
X121234068Y-112937959D01*
X121283557Y-112974662D01*
X121329211Y-113016040D01*
X121370589Y-113061694D01*
X121407293Y-113111183D01*
X121438969Y-113164032D01*
X121465312Y-113219731D01*
X121486070Y-113277744D01*
X121501041Y-113337512D01*
X121510082Y-113398460D01*
X121513105Y-113460000D01*
X121510082Y-113521540D01*
X121501041Y-113582488D01*
X121486070Y-113642256D01*
X121465312Y-113700269D01*
X121438969Y-113755968D01*
X121407293Y-113808817D01*
X121370589Y-113858306D01*
X121329211Y-113903960D01*
X121283557Y-113945338D01*
X121234068Y-113982041D01*
X121181219Y-114013718D01*
X121125520Y-114040061D01*
X121067508Y-114060819D01*
X121007739Y-114075790D01*
X120946792Y-114084831D01*
X120885251Y-114087854D01*
X120771096Y-114087854D01*
X119579315Y-114087854D01*
X118828630Y-114087854D01*
X118535479Y-114087854D01*
X118188904Y-114087854D01*
X118074749Y-114087854D01*
X118013208Y-114084831D01*
X117952261Y-114075790D01*
X117892493Y-114060819D01*
X117834480Y-114040061D01*
X117778781Y-114013718D01*
X117725932Y-113982041D01*
X117676443Y-113945338D01*
X117630789Y-113903960D01*
X117589411Y-113858306D01*
X117552707Y-113808817D01*
X117521031Y-113755968D01*
X117494688Y-113700269D01*
X117473930Y-113642256D01*
X117458959Y-113582488D01*
X117449918Y-113521540D01*
X117446895Y-113460000D01*
X117447568Y-113446301D01*
X118188904Y-113446301D01*
X118194319Y-113569910D01*
X118210565Y-113677038D01*
X118237641Y-113767684D01*
X118275548Y-113841849D01*
X118324285Y-113899533D01*
X118383853Y-113940736D01*
X118454251Y-113965458D01*
X118535479Y-113973699D01*
X118626918Y-113965137D01*
X118643425Y-113960000D01*
X118828630Y-113960000D01*
X118982055Y-113960000D01*
X119034110Y-113696986D01*
X119268356Y-113696986D01*
X119320411Y-113960000D01*
X119479315Y-113960000D01*
X119579315Y-113960000D01*
X119730000Y-113960000D01*
X119730000Y-113233973D01*
X119732740Y-113233973D01*
X119946438Y-113960000D01*
X120099863Y-113960000D01*
X120099863Y-113017534D01*
X120277945Y-113017534D01*
X120277945Y-113146301D01*
X120355114Y-113101400D01*
X120425890Y-113074460D01*
X120490274Y-113065479D01*
X120580000Y-113102466D01*
X120602089Y-113150411D01*
X120609452Y-113220274D01*
X120602687Y-113295337D01*
X120582390Y-113374929D01*
X120548563Y-113459049D01*
X120501205Y-113547699D01*
X120440316Y-113640878D01*
X120365896Y-113738585D01*
X120277945Y-113840822D01*
X120277945Y-113960000D01*
X120771096Y-113960000D01*
X120771096Y-113840822D01*
X120436849Y-113840822D01*
X120436849Y-113838082D01*
X120517200Y-113742363D01*
X120585651Y-113652466D01*
X120642200Y-113568390D01*
X120686849Y-113490137D01*
X120729848Y-113392420D01*
X120755647Y-113300183D01*
X120764247Y-113213425D01*
X120748664Y-113097842D01*
X120701918Y-113014110D01*
X120625719Y-112963253D01*
X120521781Y-112946301D01*
X120435023Y-112954216D01*
X120353744Y-112977960D01*
X120277945Y-113017534D01*
X120099863Y-113017534D01*
X120099863Y-112960000D01*
X119956027Y-112960000D01*
X119956027Y-113686027D01*
X119951918Y-113686027D01*
X119738219Y-112960000D01*
X119579315Y-112960000D01*
X119579315Y-113960000D01*
X119479315Y-113960000D01*
X119242329Y-112960000D01*
X119064247Y-112960000D01*
X118828630Y-113960000D01*
X118643425Y-113960000D01*
X118709452Y-113939452D01*
X118709452Y-113813425D01*
X118631370Y-113845274D01*
X118558767Y-113855890D01*
X118491796Y-113844513D01*
X118437002Y-113810381D01*
X118394384Y-113753493D01*
X118363942Y-113673851D01*
X118345677Y-113571454D01*
X118339589Y-113446301D01*
X118345107Y-113330358D01*
X118361659Y-113235495D01*
X118389247Y-113161712D01*
X118427869Y-113109011D01*
X118477527Y-113077390D01*
X118538219Y-113066849D01*
X118569726Y-113072329D01*
X118569726Y-113286027D01*
X118716301Y-113286027D01*
X118716301Y-112976438D01*
X118628973Y-112953836D01*
X118531370Y-112946301D01*
X118451104Y-112954114D01*
X118381541Y-112977551D01*
X118322680Y-113016614D01*
X118274521Y-113071301D01*
X118237063Y-113141614D01*
X118210308Y-113227551D01*
X118194255Y-113329114D01*
X118188904Y-113446301D01*
X117447568Y-113446301D01*
X117449918Y-113398460D01*
X117458959Y-113337512D01*
X117473930Y-113277744D01*
X117494688Y-113219731D01*
X117521031Y-113164032D01*
X117552707Y-113111183D01*
X117589411Y-113061694D01*
X117630789Y-113016040D01*
X117676443Y-112974662D01*
X117725932Y-112937959D01*
X117778781Y-112906282D01*
X117834480Y-112879939D01*
X117892493Y-112859181D01*
X117952261Y-112844210D01*
X118013208Y-112835169D01*
X118074749Y-112832146D01*
X118188904Y-112832146D01*
X120771096Y-112832146D01*
X120885251Y-112832146D01*
X120946792Y-112835169D01*
G37*
D15*
%TO.C,C7*%
X96121250Y-121252164D02*
X96121250Y-121467836D01*
X96841250Y-121252164D02*
X96841250Y-121467836D01*
D14*
%TO.C,kibuzzard-674E462A*%
G36*
X110321370Y-111301096D02*
G01*
X109946027Y-111301096D01*
X110132329Y-110361370D01*
X110135069Y-110361370D01*
X110321370Y-111301096D01*
G37*
G36*
X112382350Y-109810339D02*
G01*
X112504246Y-109828420D01*
X112623782Y-109858363D01*
X112739808Y-109899877D01*
X112851206Y-109952565D01*
X112956903Y-110015917D01*
X113055882Y-110089325D01*
X113147189Y-110172081D01*
X113229945Y-110263387D01*
X113303352Y-110362366D01*
X113366705Y-110468063D01*
X113419392Y-110579461D01*
X113460907Y-110695487D01*
X113490849Y-110815024D01*
X113508931Y-110936919D01*
X113514977Y-111060000D01*
X113508931Y-111183081D01*
X113490849Y-111304976D01*
X113460907Y-111424513D01*
X113419392Y-111540539D01*
X113366705Y-111651937D01*
X113303352Y-111757634D01*
X113229945Y-111856613D01*
X113147189Y-111947919D01*
X113055882Y-112030675D01*
X112956903Y-112104083D01*
X112851206Y-112167435D01*
X112739808Y-112220123D01*
X112623782Y-112261637D01*
X112504246Y-112291580D01*
X112382350Y-112309661D01*
X112259269Y-112315708D01*
X112030959Y-112315708D01*
X110989863Y-112315708D01*
X109488493Y-112315708D01*
X108902192Y-112315708D01*
X108209041Y-112315708D01*
X107980731Y-112315708D01*
X107857650Y-112309661D01*
X107735754Y-112291580D01*
X107616218Y-112261637D01*
X107500192Y-112220123D01*
X107388794Y-112167435D01*
X107283097Y-112104083D01*
X107184118Y-112030675D01*
X107092811Y-111947919D01*
X107010055Y-111856613D01*
X106936648Y-111757634D01*
X106873295Y-111651937D01*
X106820608Y-111540539D01*
X106779093Y-111424513D01*
X106749151Y-111304976D01*
X106731069Y-111183081D01*
X106725023Y-111060000D01*
X106726369Y-111032603D01*
X108209041Y-111032603D01*
X108219872Y-111279820D01*
X108252363Y-111494075D01*
X108306515Y-111675368D01*
X108382329Y-111823699D01*
X108479803Y-111939067D01*
X108598938Y-112021473D01*
X108739735Y-112070916D01*
X108902192Y-112087397D01*
X109085069Y-112070274D01*
X109118083Y-112060000D01*
X109488493Y-112060000D01*
X109795342Y-112060000D01*
X109899452Y-111533973D01*
X110367945Y-111533973D01*
X110472055Y-112060000D01*
X110789863Y-112060000D01*
X110989863Y-112060000D01*
X111291233Y-112060000D01*
X111291233Y-110607945D01*
X111296712Y-110607945D01*
X111724110Y-112060000D01*
X112030959Y-112060000D01*
X112030959Y-110060000D01*
X111743288Y-110060000D01*
X111743288Y-111512055D01*
X111735069Y-111512055D01*
X111307671Y-110060000D01*
X110989863Y-110060000D01*
X110989863Y-112060000D01*
X110789863Y-112060000D01*
X110315890Y-110060000D01*
X109959726Y-110060000D01*
X109488493Y-112060000D01*
X109118083Y-112060000D01*
X109250137Y-112018904D01*
X109250137Y-111766849D01*
X109093973Y-111830548D01*
X108948767Y-111851781D01*
X108814825Y-111829026D01*
X108705236Y-111760761D01*
X108620000Y-111646986D01*
X108559117Y-111487702D01*
X108522588Y-111282907D01*
X108510411Y-111032603D01*
X108521446Y-110800715D01*
X108554551Y-110610989D01*
X108609726Y-110463425D01*
X108686971Y-110358021D01*
X108786286Y-110294779D01*
X108907671Y-110273699D01*
X108970685Y-110284658D01*
X108970685Y-110712055D01*
X109263836Y-110712055D01*
X109263836Y-110092877D01*
X109089178Y-110047671D01*
X108893973Y-110032603D01*
X108733442Y-110048228D01*
X108594315Y-110095103D01*
X108476592Y-110173228D01*
X108380274Y-110282603D01*
X108305360Y-110423228D01*
X108251849Y-110595103D01*
X108219743Y-110798228D01*
X108209041Y-111032603D01*
X106726369Y-111032603D01*
X106731069Y-110936919D01*
X106749151Y-110815024D01*
X106779093Y-110695487D01*
X106820608Y-110579461D01*
X106873295Y-110468063D01*
X106936648Y-110362366D01*
X107010055Y-110263387D01*
X107092811Y-110172081D01*
X107184118Y-110089325D01*
X107283097Y-110015917D01*
X107388794Y-109952565D01*
X107500192Y-109899877D01*
X107616218Y-109858363D01*
X107735754Y-109828420D01*
X107857650Y-109810339D01*
X107980731Y-109804292D01*
X108209041Y-109804292D01*
X112030959Y-109804292D01*
X112259269Y-109804292D01*
X112382350Y-109810339D01*
G37*
D15*
%TO.C,R7*%
X108347501Y-122507258D02*
X108347501Y-122032742D01*
X109392501Y-122507258D02*
X109392501Y-122032742D01*
D14*
%TO.C,kibuzzard-675D9CCD*%
G36*
X125604932Y-120041644D02*
G01*
X125708356Y-120053973D01*
X125780274Y-120074521D01*
X125843459Y-120122808D01*
X125864521Y-120193699D01*
X125843459Y-120264589D01*
X125780274Y-120312877D01*
X125708356Y-120333425D01*
X125604932Y-120345753D01*
X125470000Y-120349863D01*
X125335068Y-120345753D01*
X125231644Y-120333425D01*
X125159726Y-120312877D01*
X125096541Y-120264589D01*
X125075479Y-120193699D01*
X125096541Y-120122808D01*
X125159726Y-120074521D01*
X125231644Y-120053973D01*
X125335068Y-120041644D01*
X125470000Y-120037534D01*
X125604932Y-120041644D01*
G37*
G36*
X126097854Y-119029315D02*
G01*
X126097854Y-119769041D01*
X126097854Y-120193699D01*
X126097854Y-120495068D01*
X126097854Y-120609224D01*
X126094831Y-120670764D01*
X126085790Y-120731712D01*
X126070819Y-120791480D01*
X126050061Y-120849493D01*
X126023718Y-120905192D01*
X125992041Y-120958041D01*
X125955338Y-121007530D01*
X125913960Y-121053183D01*
X125868306Y-121094561D01*
X125818817Y-121131265D01*
X125765968Y-121162941D01*
X125710269Y-121189285D01*
X125652256Y-121210042D01*
X125592488Y-121225014D01*
X125531540Y-121234054D01*
X125470000Y-121237078D01*
X125408460Y-121234054D01*
X125347512Y-121225014D01*
X125287744Y-121210042D01*
X125229731Y-121189285D01*
X125174032Y-121162941D01*
X125121183Y-121131265D01*
X125071694Y-121094561D01*
X125026040Y-121053183D01*
X124984662Y-121007530D01*
X124947959Y-120958041D01*
X124916282Y-120905192D01*
X124889939Y-120849493D01*
X124869181Y-120791480D01*
X124854210Y-120731712D01*
X124845169Y-120670764D01*
X124842146Y-120609224D01*
X124842146Y-120495068D01*
X124842146Y-120193699D01*
X124956301Y-120193699D01*
X124967945Y-120288904D01*
X125002877Y-120363562D01*
X125066233Y-120420240D01*
X125163151Y-120461507D01*
X125247778Y-120480152D01*
X125350061Y-120491339D01*
X125470000Y-120495068D01*
X125589939Y-120491339D01*
X125692222Y-120480152D01*
X125776849Y-120461507D01*
X125873767Y-120420240D01*
X125937123Y-120363562D01*
X125972055Y-120288904D01*
X125983699Y-120193699D01*
X125972055Y-120098493D01*
X125937123Y-120023836D01*
X125873767Y-119967158D01*
X125776849Y-119925890D01*
X125692222Y-119907245D01*
X125589939Y-119896058D01*
X125470000Y-119892329D01*
X125350061Y-119896058D01*
X125247778Y-119907245D01*
X125163151Y-119925890D01*
X125066233Y-119967158D01*
X125002877Y-120023836D01*
X124967945Y-120098493D01*
X124956301Y-120193699D01*
X124842146Y-120193699D01*
X124842146Y-119248493D01*
X124970000Y-119248493D01*
X124970000Y-119392329D01*
X125696027Y-119392329D01*
X125696027Y-119396438D01*
X124970000Y-119610137D01*
X124970000Y-119769041D01*
X125970000Y-119769041D01*
X125970000Y-119618356D01*
X125243973Y-119618356D01*
X125243973Y-119615616D01*
X125970000Y-119401918D01*
X125970000Y-119248493D01*
X124970000Y-119248493D01*
X124842146Y-119248493D01*
X124842146Y-118618356D01*
X125508356Y-118618356D01*
X125508356Y-119029315D01*
X125622055Y-119029315D01*
X125622055Y-118618356D01*
X125508356Y-118618356D01*
X124842146Y-118618356D01*
X124842146Y-118399178D01*
X125161781Y-118399178D01*
X125298767Y-118399178D01*
X125557671Y-117953973D01*
X125560411Y-117953973D01*
X125819315Y-118399178D01*
X125956301Y-118399178D01*
X125634384Y-117864931D01*
X125483699Y-117864931D01*
X125161781Y-118399178D01*
X124842146Y-118399178D01*
X124842146Y-117864931D01*
X124842146Y-117750776D01*
X124845169Y-117689236D01*
X124854210Y-117628288D01*
X124869181Y-117568520D01*
X124889939Y-117510507D01*
X124916282Y-117454808D01*
X124947959Y-117401959D01*
X124984662Y-117352470D01*
X125026040Y-117306817D01*
X125071694Y-117265439D01*
X125121183Y-117228735D01*
X125174032Y-117197059D01*
X125229731Y-117170715D01*
X125287744Y-117149958D01*
X125347512Y-117134986D01*
X125408460Y-117125946D01*
X125470000Y-117122922D01*
X125531540Y-117125946D01*
X125592488Y-117134986D01*
X125652256Y-117149958D01*
X125710269Y-117170715D01*
X125765968Y-117197059D01*
X125818817Y-117228735D01*
X125868306Y-117265439D01*
X125913960Y-117306817D01*
X125955338Y-117352470D01*
X125992041Y-117401959D01*
X126023718Y-117454808D01*
X126050061Y-117510507D01*
X126070819Y-117568520D01*
X126085790Y-117628288D01*
X126094831Y-117689236D01*
X126097854Y-117750776D01*
X126097854Y-117864931D01*
X126097854Y-118399178D01*
X126097854Y-119029315D01*
G37*
D15*
%TO.C,R4*%
X90553641Y-130800001D02*
X90246359Y-130800001D01*
X90553641Y-131560001D02*
X90246359Y-131560001D01*
D14*
%TO.C,kibuzzard-675D9C67*%
G36*
X117988219Y-112100548D02*
G01*
X117800548Y-112100548D01*
X117893699Y-111630685D01*
X117895069Y-111630685D01*
X117988219Y-112100548D01*
G37*
G36*
X124152603Y-112100548D02*
G01*
X123964932Y-112100548D01*
X124058082Y-111630685D01*
X124059452Y-111630685D01*
X124152603Y-112100548D01*
G37*
G36*
X121363904Y-111596267D02*
G01*
X121415616Y-111628630D01*
X121446438Y-111684281D01*
X121456712Y-111764932D01*
X121445753Y-111849178D01*
X121412877Y-111904658D01*
X121353973Y-111935479D01*
X121264932Y-111945753D01*
X121211507Y-111945753D01*
X121211507Y-111596438D01*
X121290959Y-111585479D01*
X121363904Y-111596267D01*
G37*
G36*
X126158425Y-111596267D02*
G01*
X126210137Y-111628630D01*
X126240959Y-111684281D01*
X126251233Y-111764932D01*
X126240274Y-111849178D01*
X126207397Y-111904658D01*
X126148493Y-111935479D01*
X126059452Y-111945753D01*
X126006027Y-111945753D01*
X126006027Y-111596438D01*
X126085480Y-111585479D01*
X126158425Y-111596267D01*
G37*
G36*
X125502945Y-111606541D02*
G01*
X125551233Y-111669726D01*
X125571781Y-111741644D01*
X125584110Y-111845068D01*
X125588219Y-111980000D01*
X125584110Y-112114932D01*
X125571781Y-112218356D01*
X125551233Y-112290274D01*
X125502945Y-112353459D01*
X125432055Y-112374521D01*
X125361164Y-112353459D01*
X125312877Y-112290274D01*
X125292329Y-112218356D01*
X125280000Y-112114932D01*
X125275890Y-111980000D01*
X125280000Y-111845068D01*
X125292329Y-111741644D01*
X125312877Y-111669726D01*
X125361164Y-111606541D01*
X125432055Y-111585479D01*
X125502945Y-111606541D01*
G37*
G36*
X126603641Y-111355169D02*
G01*
X126664589Y-111364210D01*
X126724357Y-111379181D01*
X126782370Y-111399939D01*
X126838069Y-111426282D01*
X126890917Y-111457959D01*
X126940407Y-111494662D01*
X126986060Y-111536040D01*
X127027438Y-111581694D01*
X127064142Y-111631183D01*
X127095818Y-111684032D01*
X127122162Y-111739731D01*
X127142919Y-111797744D01*
X127157890Y-111857512D01*
X127166931Y-111918460D01*
X127169954Y-111980000D01*
X127166931Y-112041540D01*
X127157890Y-112102488D01*
X127142919Y-112162256D01*
X127122162Y-112220269D01*
X127095818Y-112275968D01*
X127064142Y-112328817D01*
X127027438Y-112378306D01*
X126986060Y-112423960D01*
X126940407Y-112465338D01*
X126890917Y-112502041D01*
X126838069Y-112533718D01*
X126782370Y-112560061D01*
X126724357Y-112580819D01*
X126664589Y-112595790D01*
X126603641Y-112604831D01*
X126542101Y-112607854D01*
X126427945Y-112607854D01*
X125432055Y-112607854D01*
X124823836Y-112607854D01*
X123736164Y-112607854D01*
X123116986Y-112607854D01*
X122925206Y-112607854D01*
X121829315Y-112607854D01*
X121633425Y-112607854D01*
X120880000Y-112607854D01*
X120029315Y-112607854D01*
X118322466Y-112607854D01*
X117571781Y-112607854D01*
X117278630Y-112607854D01*
X116932055Y-112607854D01*
X116817900Y-112607854D01*
X116756359Y-112604831D01*
X116695411Y-112595790D01*
X116635643Y-112580819D01*
X116577630Y-112560061D01*
X116521931Y-112533718D01*
X116469083Y-112502041D01*
X116419593Y-112465338D01*
X116373940Y-112423960D01*
X116332562Y-112378306D01*
X116295858Y-112328817D01*
X116264182Y-112275968D01*
X116237838Y-112220269D01*
X116217081Y-112162256D01*
X116202110Y-112102488D01*
X116193069Y-112041540D01*
X116190046Y-111980000D01*
X116190719Y-111966301D01*
X116932055Y-111966301D01*
X116937470Y-112089910D01*
X116953716Y-112197038D01*
X116980792Y-112287684D01*
X117018699Y-112361849D01*
X117067436Y-112419533D01*
X117127003Y-112460736D01*
X117197402Y-112485458D01*
X117278630Y-112493699D01*
X117370069Y-112485137D01*
X117386576Y-112480000D01*
X117571781Y-112480000D01*
X117725206Y-112480000D01*
X117777260Y-112216986D01*
X118011507Y-112216986D01*
X118063562Y-112480000D01*
X118222466Y-112480000D01*
X118322466Y-112480000D01*
X118473151Y-112480000D01*
X118473151Y-111753973D01*
X118475890Y-111753973D01*
X118689589Y-112480000D01*
X118843014Y-112480000D01*
X118843014Y-111599178D01*
X119671781Y-111599178D01*
X119875890Y-111599178D01*
X119875890Y-112480000D01*
X120029315Y-112480000D01*
X120400548Y-112480000D01*
X120880000Y-112480000D01*
X120880000Y-112360822D01*
X120553973Y-112360822D01*
X120553973Y-112000548D01*
X120866301Y-112000548D01*
X120866301Y-111884110D01*
X120553973Y-111884110D01*
X120553973Y-111599178D01*
X120880000Y-111599178D01*
X120880000Y-111493699D01*
X121058082Y-111493699D01*
X121058082Y-112480000D01*
X121211507Y-112480000D01*
X121211507Y-112064932D01*
X121264932Y-112064932D01*
X121347808Y-112091644D01*
X121374007Y-112130171D01*
X121396438Y-112192329D01*
X121475890Y-112480000D01*
X121633425Y-112480000D01*
X121695069Y-112480000D01*
X121829315Y-112480000D01*
X121852603Y-111630685D01*
X121856712Y-111630685D01*
X121934795Y-112247123D01*
X122064932Y-112247123D01*
X122149863Y-111630685D01*
X122151233Y-111630685D01*
X122171781Y-112480000D01*
X122318356Y-112480000D01*
X122273712Y-111599178D01*
X122459452Y-111599178D01*
X122612877Y-111599178D01*
X122612877Y-112360822D01*
X122459452Y-112360822D01*
X122459452Y-112480000D01*
X122925206Y-112480000D01*
X123116986Y-112480000D01*
X123267671Y-112480000D01*
X123267671Y-111753973D01*
X123270411Y-111753973D01*
X123484110Y-112480000D01*
X123637534Y-112480000D01*
X123736164Y-112480000D01*
X123889589Y-112480000D01*
X123941644Y-112216986D01*
X124175890Y-112216986D01*
X124227945Y-112480000D01*
X124386849Y-112480000D01*
X124178107Y-111599178D01*
X124466301Y-111599178D01*
X124670411Y-111599178D01*
X124670411Y-112480000D01*
X124823836Y-112480000D01*
X124823836Y-111980000D01*
X125130685Y-111980000D01*
X125134414Y-112099939D01*
X125145601Y-112202222D01*
X125164247Y-112286849D01*
X125205514Y-112383767D01*
X125262192Y-112447123D01*
X125336849Y-112482055D01*
X125432055Y-112493699D01*
X125527260Y-112482055D01*
X125601918Y-112447123D01*
X125658596Y-112383767D01*
X125699863Y-112286849D01*
X125718508Y-112202222D01*
X125729696Y-112099939D01*
X125733425Y-111980000D01*
X125729696Y-111860061D01*
X125718508Y-111757778D01*
X125699863Y-111673151D01*
X125658596Y-111576233D01*
X125601918Y-111512877D01*
X125560930Y-111493699D01*
X125852603Y-111493699D01*
X125852603Y-112480000D01*
X126006027Y-112480000D01*
X126006027Y-112064932D01*
X126059452Y-112064932D01*
X126142329Y-112091644D01*
X126168527Y-112130171D01*
X126190959Y-112192329D01*
X126270411Y-112480000D01*
X126427945Y-112480000D01*
X126343014Y-112200548D01*
X126299178Y-112093014D01*
X126247123Y-112025205D01*
X126247123Y-112022466D01*
X126314247Y-111983253D01*
X126362192Y-111927260D01*
X126390959Y-111854486D01*
X126400548Y-111764932D01*
X126392101Y-111670944D01*
X126366758Y-111595373D01*
X126324521Y-111538219D01*
X126264171Y-111498265D01*
X126184490Y-111474292D01*
X126085480Y-111466301D01*
X126006636Y-111469346D01*
X125929011Y-111478478D01*
X125852603Y-111493699D01*
X125560930Y-111493699D01*
X125527260Y-111477945D01*
X125432055Y-111466301D01*
X125336849Y-111477945D01*
X125262192Y-111512877D01*
X125205514Y-111576233D01*
X125164247Y-111673151D01*
X125145601Y-111757778D01*
X125134414Y-111860061D01*
X125130685Y-111980000D01*
X124823836Y-111980000D01*
X124823836Y-111599178D01*
X125027945Y-111599178D01*
X125027945Y-111480000D01*
X124466301Y-111480000D01*
X124466301Y-111599178D01*
X124178107Y-111599178D01*
X124149863Y-111480000D01*
X123971781Y-111480000D01*
X123736164Y-112480000D01*
X123637534Y-112480000D01*
X123637534Y-111480000D01*
X123493699Y-111480000D01*
X123493699Y-112206027D01*
X123489589Y-112206027D01*
X123275890Y-111480000D01*
X123116986Y-111480000D01*
X123116986Y-112480000D01*
X122925206Y-112480000D01*
X122925206Y-112360822D01*
X122771781Y-112360822D01*
X122771781Y-111599178D01*
X122925206Y-111599178D01*
X122925206Y-111480000D01*
X122459452Y-111480000D01*
X122459452Y-111599178D01*
X122273712Y-111599178D01*
X122267671Y-111480000D01*
X122095069Y-111480000D01*
X122012877Y-112116986D01*
X122010137Y-112116986D01*
X121926575Y-111480000D01*
X121747123Y-111480000D01*
X121695069Y-112480000D01*
X121633425Y-112480000D01*
X121548493Y-112200548D01*
X121504658Y-112093014D01*
X121452603Y-112025205D01*
X121452603Y-112022466D01*
X121519726Y-111983253D01*
X121567671Y-111927260D01*
X121596438Y-111854486D01*
X121606027Y-111764932D01*
X121597580Y-111670944D01*
X121572237Y-111595373D01*
X121530000Y-111538219D01*
X121469650Y-111498265D01*
X121389970Y-111474292D01*
X121290959Y-111466301D01*
X121212116Y-111469346D01*
X121134490Y-111478478D01*
X121058082Y-111493699D01*
X120880000Y-111493699D01*
X120880000Y-111480000D01*
X120400548Y-111480000D01*
X120400548Y-112480000D01*
X120029315Y-112480000D01*
X120029315Y-111599178D01*
X120233425Y-111599178D01*
X120233425Y-111480000D01*
X119671781Y-111480000D01*
X119671781Y-111599178D01*
X118843014Y-111599178D01*
X118843014Y-111480000D01*
X118699178Y-111480000D01*
X118699178Y-112206027D01*
X118695069Y-112206027D01*
X118481370Y-111480000D01*
X118322466Y-111480000D01*
X118322466Y-112480000D01*
X118222466Y-112480000D01*
X117985480Y-111480000D01*
X117807397Y-111480000D01*
X117571781Y-112480000D01*
X117386576Y-112480000D01*
X117452603Y-112459452D01*
X117452603Y-112333425D01*
X117374521Y-112365274D01*
X117301918Y-112375890D01*
X117234947Y-112364513D01*
X117180152Y-112330381D01*
X117137534Y-112273493D01*
X117107093Y-112193851D01*
X117088828Y-112091454D01*
X117082740Y-111966301D01*
X117088257Y-111850358D01*
X117104810Y-111755495D01*
X117132397Y-111681712D01*
X117171020Y-111629011D01*
X117220677Y-111597390D01*
X117281370Y-111586849D01*
X117312877Y-111592329D01*
X117312877Y-111806027D01*
X117459452Y-111806027D01*
X117459452Y-111496438D01*
X117372123Y-111473836D01*
X117274521Y-111466301D01*
X117194255Y-111474114D01*
X117124692Y-111497551D01*
X117065831Y-111536614D01*
X117017671Y-111591301D01*
X116980214Y-111661614D01*
X116953459Y-111747551D01*
X116937406Y-111849114D01*
X116932055Y-111966301D01*
X116190719Y-111966301D01*
X116193069Y-111918460D01*
X116202110Y-111857512D01*
X116217081Y-111797744D01*
X116237838Y-111739731D01*
X116264182Y-111684032D01*
X116295858Y-111631183D01*
X116332562Y-111581694D01*
X116373940Y-111536040D01*
X116419593Y-111494662D01*
X116469083Y-111457959D01*
X116521931Y-111426282D01*
X116577630Y-111399939D01*
X116635643Y-111379181D01*
X116695411Y-111364210D01*
X116756359Y-111355169D01*
X116817900Y-111352146D01*
X116932055Y-111352146D01*
X126427945Y-111352146D01*
X126542101Y-111352146D01*
X126603641Y-111355169D01*
G37*
D15*
%TO.C,R5*%
X109887500Y-122507258D02*
X109887500Y-122032742D01*
X110932500Y-122507258D02*
X110932500Y-122032742D01*
%TO.C,R10*%
X90487609Y-125502500D02*
X90794891Y-125502500D01*
X90487609Y-126262500D02*
X90794891Y-126262500D01*
%TO.C,R13*%
X87637742Y-129777500D02*
X88112258Y-129777500D01*
X87637742Y-130822500D02*
X88112258Y-130822500D01*
D14*
%TO.C,kibuzzard-6754762D*%
G36*
X112445153Y-128942730D02*
G01*
X112478756Y-129072940D01*
X112507108Y-129202100D01*
X112532310Y-129336511D01*
X112278191Y-129336511D01*
X112304443Y-129202100D01*
X112333845Y-129072940D01*
X112367447Y-128942730D01*
X112406300Y-128803069D01*
X112445153Y-128942730D01*
G37*
G36*
X110325565Y-128773142D02*
G01*
X110398546Y-128809370D01*
X110445800Y-128871325D01*
X110461551Y-128960582D01*
X110402746Y-129106543D01*
X110325565Y-129145133D01*
X110211632Y-129157997D01*
X110154927Y-129157997D01*
X110154927Y-128767367D01*
X110196931Y-128762116D01*
X110232633Y-128761066D01*
X110325565Y-128773142D01*
G37*
G36*
X107225464Y-128772880D02*
G01*
X107297658Y-128808320D01*
X107344124Y-128872112D01*
X107359612Y-128968982D01*
X107343861Y-129071103D01*
X107296607Y-129138045D01*
X107218376Y-129175061D01*
X107109693Y-129187399D01*
X107004685Y-129187399D01*
X107004685Y-128767367D01*
X107068740Y-128762116D01*
X107132795Y-128761066D01*
X107225464Y-128772880D01*
G37*
G36*
X114053346Y-128002402D02*
G01*
X114170163Y-128019730D01*
X114284720Y-128048425D01*
X114395912Y-128088210D01*
X114502668Y-128138703D01*
X114603962Y-128199416D01*
X114698817Y-128269765D01*
X114786320Y-128349073D01*
X114865628Y-128436576D01*
X114935977Y-128531431D01*
X114996691Y-128632725D01*
X115047183Y-128739482D01*
X115086968Y-128850674D01*
X115115663Y-128965230D01*
X115132991Y-129082047D01*
X115138786Y-129200000D01*
X115132991Y-129317953D01*
X115115663Y-129434770D01*
X115086968Y-129549326D01*
X115047183Y-129660518D01*
X114996691Y-129767275D01*
X114935977Y-129868569D01*
X114865628Y-129963424D01*
X114786320Y-130050927D01*
X114698817Y-130130235D01*
X114603962Y-130200584D01*
X114502668Y-130261297D01*
X114395912Y-130311790D01*
X114284720Y-130351575D01*
X114170163Y-130380270D01*
X114053346Y-130397598D01*
X113935393Y-130403393D01*
X113935218Y-130403393D01*
X112637318Y-130403393D01*
X110965590Y-130403393D01*
X110810178Y-130403393D01*
X109388368Y-130403393D01*
X108170275Y-130403393D01*
X107004685Y-130403393D01*
X106103716Y-130403393D01*
X105664782Y-130403393D01*
X105664607Y-130403393D01*
X105546654Y-130397598D01*
X105429837Y-130380270D01*
X105315280Y-130351575D01*
X105204088Y-130311790D01*
X105097332Y-130261297D01*
X104996038Y-130200584D01*
X104901183Y-130130235D01*
X104813680Y-130050927D01*
X104734372Y-129963424D01*
X104664023Y-129868569D01*
X104603309Y-129767275D01*
X104552817Y-129660518D01*
X104513032Y-129549326D01*
X104484337Y-129434770D01*
X104476304Y-129380614D01*
X105664782Y-129380614D01*
X105670032Y-129488772D01*
X105685784Y-129586430D01*
X105714136Y-129672011D01*
X105757189Y-129743942D01*
X105892649Y-129843700D01*
X105987944Y-129869689D01*
X106103716Y-129878352D01*
X106221325Y-129869689D01*
X106317932Y-129843700D01*
X106395638Y-129801434D01*
X106456543Y-129743942D01*
X106501171Y-129672011D01*
X106530048Y-129586430D01*
X106545800Y-129488772D01*
X106551050Y-129380614D01*
X106551050Y-128567851D01*
X106746365Y-128567851D01*
X106746365Y-129851050D01*
X107004685Y-129851050D01*
X107004685Y-129779645D01*
X107767044Y-129779645D01*
X107911955Y-129843700D01*
X108024838Y-129869689D01*
X108170275Y-129878352D01*
X108317636Y-129867268D01*
X108437695Y-129834015D01*
X108530452Y-129778595D01*
X108619447Y-129658098D01*
X108649111Y-129496123D01*
X108640186Y-129398203D01*
X108613409Y-129318659D01*
X108522052Y-129201050D01*
X108400242Y-129125444D01*
X108273183Y-129073990D01*
X108192326Y-129042488D01*
X108118821Y-129003635D01*
X108065267Y-128953231D01*
X108044265Y-128887076D01*
X108067133Y-128804236D01*
X108135739Y-128754532D01*
X108250081Y-128737964D01*
X108398142Y-128758966D01*
X108514701Y-128809370D01*
X108531414Y-128765267D01*
X108785622Y-128765267D01*
X109127948Y-128765267D01*
X109127948Y-129851050D01*
X109388368Y-129851050D01*
X109388368Y-128765267D01*
X109730695Y-128765267D01*
X109730695Y-128569952D01*
X109896607Y-128569952D01*
X109896607Y-129851050D01*
X110154927Y-129851050D01*
X110154927Y-129372213D01*
X110289338Y-129372213D01*
X110360481Y-129491135D01*
X110426898Y-129608481D01*
X110487015Y-129727403D01*
X110539257Y-129851050D01*
X110810178Y-129851050D01*
X110965590Y-129851050D01*
X111799354Y-129851050D01*
X111902262Y-129851050D01*
X112171082Y-129851050D01*
X112229887Y-129550727D01*
X112576414Y-129550727D01*
X112637318Y-129851050D01*
X112914540Y-129851050D01*
X112981745Y-129851050D01*
X113219063Y-129851050D01*
X113208562Y-128840872D01*
X113361874Y-129391115D01*
X113550889Y-129391115D01*
X113710501Y-128840872D01*
X113697900Y-129851050D01*
X113935218Y-129851050D01*
X113930493Y-129684875D01*
X113924717Y-129522375D01*
X113917629Y-129362237D01*
X113908966Y-129203150D01*
X113898465Y-129043800D01*
X113885864Y-128882876D01*
X113871951Y-128719063D01*
X113857512Y-128551050D01*
X113643296Y-128551050D01*
X113605493Y-128662359D01*
X113559289Y-128806220D01*
X113506785Y-128965832D01*
X113454281Y-129126494D01*
X113405977Y-128975283D01*
X113355574Y-128813570D01*
X113308320Y-128664459D01*
X113271567Y-128551050D01*
X113057351Y-128551050D01*
X113043437Y-128693336D01*
X113031099Y-128847173D01*
X113020335Y-129009410D01*
X113011147Y-129176898D01*
X113003009Y-129347536D01*
X112995396Y-129519225D01*
X112988308Y-129688288D01*
X112981745Y-129851050D01*
X112914540Y-129851050D01*
X112879887Y-129703661D01*
X112844814Y-129560556D01*
X112809321Y-129421735D01*
X112773409Y-129287199D01*
X112737076Y-129156947D01*
X112691332Y-128998975D01*
X112645456Y-128845335D01*
X112599450Y-128696027D01*
X112553312Y-128551050D01*
X112271890Y-128551050D01*
X112227393Y-128694846D01*
X112182108Y-128842710D01*
X112136036Y-128994644D01*
X112089176Y-129150646D01*
X112051457Y-129279806D01*
X112013906Y-129414426D01*
X111976523Y-129554507D01*
X111939309Y-129700048D01*
X111902262Y-129851050D01*
X111799354Y-129851050D01*
X111799354Y-129636834D01*
X111223910Y-129636834D01*
X111223910Y-129271405D01*
X111683845Y-129271405D01*
X111683845Y-129057189D01*
X111223910Y-129057189D01*
X111223910Y-128765267D01*
X111753150Y-128765267D01*
X111753150Y-128551050D01*
X110965590Y-128551050D01*
X110965590Y-129851050D01*
X110810178Y-129851050D01*
X110750323Y-129713489D01*
X110677868Y-129568578D01*
X110600162Y-129429968D01*
X110524556Y-129309208D01*
X110616438Y-129249879D01*
X110677868Y-129168498D01*
X110712520Y-129070840D01*
X110724071Y-128962682D01*
X110715408Y-128860561D01*
X110689418Y-128772617D01*
X110589661Y-128639257D01*
X110518255Y-128593578D01*
X110434249Y-128561551D01*
X110338691Y-128542649D01*
X110232633Y-128536349D01*
X110159128Y-128538449D01*
X110070921Y-128543700D01*
X109979564Y-128554200D01*
X109896607Y-128569952D01*
X109730695Y-128569952D01*
X109730695Y-128551050D01*
X108785622Y-128551050D01*
X108785622Y-128765267D01*
X108531414Y-128765267D01*
X108590307Y-128609855D01*
X108440145Y-128548950D01*
X108343275Y-128528473D01*
X108231179Y-128521648D01*
X108102486Y-128533082D01*
X107993628Y-128567385D01*
X107904604Y-128624556D01*
X107815610Y-128747415D01*
X107785945Y-128910178D01*
X107819548Y-129064540D01*
X107904604Y-129168498D01*
X108019063Y-129237803D01*
X108140872Y-129286107D01*
X108229079Y-129322859D01*
X108308885Y-129366963D01*
X108367690Y-129422617D01*
X108390792Y-129494023D01*
X108381341Y-129555977D01*
X108346688Y-129610582D01*
X108278433Y-129648384D01*
X108170275Y-129662036D01*
X108065529Y-129654685D01*
X107978110Y-129632633D01*
X107842649Y-129569628D01*
X107767044Y-129779645D01*
X107004685Y-129779645D01*
X107004685Y-129412116D01*
X107097092Y-129412116D01*
X107252387Y-129400565D01*
X107382247Y-129365913D01*
X107486672Y-129308158D01*
X107563095Y-129224502D01*
X107608948Y-129112143D01*
X107624233Y-128971082D01*
X107609065Y-128831422D01*
X107563561Y-128720463D01*
X107487722Y-128638207D01*
X107384348Y-128581619D01*
X107256238Y-128547666D01*
X107103393Y-128536349D01*
X107021486Y-128538449D01*
X106926979Y-128543700D01*
X106831422Y-128553150D01*
X106746365Y-128567851D01*
X106551050Y-128567851D01*
X106551050Y-128551050D01*
X106292730Y-128551050D01*
X106292730Y-129361712D01*
X106284330Y-129499273D01*
X106254927Y-129589580D01*
X106198223Y-129638934D01*
X106107916Y-129653635D01*
X106017609Y-129638934D01*
X105961955Y-129590630D01*
X105933603Y-129501373D01*
X105925202Y-129363813D01*
X105925202Y-128551050D01*
X105664782Y-128551050D01*
X105664782Y-129380614D01*
X104476304Y-129380614D01*
X104467009Y-129317953D01*
X104461214Y-129200000D01*
X104467009Y-129082047D01*
X104484337Y-128965230D01*
X104513032Y-128850674D01*
X104552817Y-128739482D01*
X104603309Y-128632725D01*
X104664023Y-128531431D01*
X104734372Y-128436576D01*
X104813680Y-128349073D01*
X104901183Y-128269765D01*
X104996038Y-128199416D01*
X105097332Y-128138703D01*
X105204088Y-128088210D01*
X105315280Y-128048425D01*
X105429837Y-128019730D01*
X105546654Y-128002402D01*
X105664607Y-127996607D01*
X105664782Y-127996607D01*
X113935218Y-127996607D01*
X113935393Y-127996607D01*
X114053346Y-128002402D01*
G37*
D15*
%TO.C,R18*%
X105853641Y-131480000D02*
X105546359Y-131480000D01*
X105853641Y-130720000D02*
X105546359Y-130720000D01*
%TO.C,J1*%
X101819000Y-132120001D02*
X101819000Y-137680001D01*
X101819001Y-148090001D02*
X101819000Y-140480001D01*
X118549000Y-132120001D02*
X101819000Y-132120001D01*
X118549000Y-132120001D02*
X118549000Y-137680000D01*
X118549000Y-148090001D02*
X101819001Y-148090001D01*
X118549000Y-148090001D02*
X118549000Y-140480000D01*
X118744000Y-140680001D02*
X119244000Y-140180001D01*
X119244000Y-140180001D02*
X119244000Y-141180001D01*
X119244000Y-141180001D02*
X118744000Y-140680001D01*
%TO.C,J2*%
X82171000Y-132140000D02*
X82171000Y-137700000D01*
X82171001Y-148110000D02*
X82171000Y-140500000D01*
X98901000Y-132140000D02*
X82171000Y-132140000D01*
X98901000Y-132140000D02*
X98901000Y-137699999D01*
X98901000Y-148110000D02*
X82171001Y-148110000D01*
X98901000Y-148110000D02*
X98901000Y-140499999D01*
X99096000Y-140700000D02*
X99596000Y-140200000D01*
X99596000Y-140200000D02*
X99596000Y-141200000D01*
X99596000Y-141200000D02*
X99096000Y-140700000D01*
%TO.C,R14*%
X87637742Y-128250000D02*
X88112258Y-128250000D01*
X87637742Y-129295000D02*
X88112258Y-129295000D01*
%TD*%
%LPC*%
D16*
%TO.C,H10*%
X98000000Y-105300000D03*
X97121320Y-107421320D03*
X97121320Y-103178680D03*
X95000000Y-108300000D03*
D17*
X95000000Y-105300000D03*
D16*
X95000000Y-102300000D03*
X92878680Y-107421320D03*
X92878680Y-103178680D03*
X92000000Y-105300000D03*
%TD*%
D18*
%TO.C,U1*%
X93003750Y-122860000D03*
X93003750Y-123495000D03*
X93003750Y-124130000D03*
X93003750Y-124765000D03*
X93003750Y-125400000D03*
X93003750Y-126035000D03*
X93003750Y-126670000D03*
X93003750Y-127305000D03*
X98278750Y-127305000D03*
X98278750Y-126670000D03*
X98278750Y-126035000D03*
X98278750Y-125400000D03*
X98278750Y-124765000D03*
X98278750Y-124130000D03*
X98278750Y-123495000D03*
X98278750Y-122860000D03*
%TD*%
D19*
%TO.C,J3*%
X106660000Y-115245000D03*
D20*
X109160000Y-115245000D03*
X111660000Y-115245000D03*
X114160000Y-115245000D03*
%TD*%
D21*
%TO.C,C5*%
X97681250Y-120085000D03*
X97681250Y-121635000D03*
%TD*%
D22*
%TO.C,SW1*%
X122110000Y-115580000D03*
D23*
X119570000Y-115580000D03*
X119570000Y-123200000D03*
X122110000Y-123200000D03*
%TD*%
D24*
%TO.C,R11*%
X91161249Y-126882500D03*
X90141251Y-126882500D03*
%TD*%
D25*
%TO.C,R8*%
X105300000Y-121475000D03*
X105300000Y-123125000D03*
%TD*%
D26*
%TO.C,R2*%
X113600000Y-123125000D03*
X113600000Y-121475000D03*
%TD*%
D27*
%TO.C,R12*%
X90141250Y-127982500D03*
X91161250Y-127982500D03*
%TD*%
D26*
%TO.C,R3*%
X112000000Y-123125000D03*
X112000000Y-121475000D03*
%TD*%
D16*
%TO.C,H9*%
X122000000Y-105300000D03*
X122878680Y-103178680D03*
X122878680Y-107421320D03*
X125000000Y-102300000D03*
D17*
X125000000Y-105300000D03*
D16*
X125000000Y-108300000D03*
X127121320Y-103178680D03*
X127121320Y-107421320D03*
X128000000Y-105300000D03*
%TD*%
D27*
%TO.C,R17*%
X94000000Y-131250000D03*
X95019998Y-131250000D03*
%TD*%
D19*
%TO.C,J4*%
X90740000Y-115240000D03*
D20*
X93240000Y-115240000D03*
X95740000Y-115240000D03*
X98240000Y-115240000D03*
X100740000Y-115240000D03*
%TD*%
D28*
%TO.C,J5*%
X138100000Y-137930001D03*
X124600000Y-137930001D03*
D29*
X134950000Y-131930001D03*
D30*
X127750000Y-131930001D03*
%TD*%
D31*
%TO.C,Y1*%
X102521250Y-124150001D03*
X102521250Y-121950001D03*
X100821250Y-121950001D03*
X100821250Y-124150001D03*
%TD*%
D27*
%TO.C,R9*%
X90141250Y-124882500D03*
X91161250Y-124882500D03*
%TD*%
D25*
%TO.C,R6*%
X106850001Y-121475000D03*
X106850001Y-123125000D03*
%TD*%
D21*
%TO.C,C6*%
X99181250Y-120085000D03*
X99181250Y-121635000D03*
%TD*%
D27*
%TO.C,R1*%
X107090000Y-131100000D03*
X108110000Y-131100000D03*
%TD*%
D21*
%TO.C,C3*%
X93081250Y-119985000D03*
X93081250Y-121535000D03*
%TD*%
D32*
%TO.C,C4*%
X94281250Y-120880000D03*
X94281250Y-121840000D03*
%TD*%
%TO.C,C7*%
X96481250Y-120880000D03*
X96481250Y-121840000D03*
%TD*%
D26*
%TO.C,R7*%
X108870001Y-123095000D03*
X108870001Y-121445000D03*
%TD*%
D24*
%TO.C,R4*%
X90909999Y-131180001D03*
X89890001Y-131180001D03*
%TD*%
D26*
%TO.C,R5*%
X110410000Y-123095000D03*
X110410000Y-121445000D03*
%TD*%
D27*
%TO.C,R10*%
X90131250Y-125882500D03*
X91151250Y-125882500D03*
%TD*%
D33*
%TO.C,R13*%
X87050000Y-130300000D03*
X88700000Y-130300000D03*
%TD*%
D24*
%TO.C,R18*%
X106209999Y-131100000D03*
X105190001Y-131100000D03*
%TD*%
D34*
%TO.C,J1*%
X116534000Y-142520001D03*
X103834000Y-142520001D03*
D35*
X113744000Y-139980001D03*
D36*
X112728000Y-138200000D03*
X111712000Y-139980001D03*
X110696000Y-138200000D03*
X109680000Y-139980001D03*
X108664000Y-138200000D03*
X107648000Y-139980001D03*
X106632001Y-138200001D03*
X117044000Y-133380001D03*
X114754000Y-133380001D03*
X105614000Y-133380001D03*
X103324000Y-133380001D03*
D37*
X118314000Y-139090001D03*
X102054000Y-139090001D03*
%TD*%
D34*
%TO.C,J2*%
X96886000Y-142540000D03*
X84186000Y-142540000D03*
D35*
X94096000Y-140000000D03*
D36*
X93080000Y-138219999D03*
X92064000Y-140000000D03*
X91048000Y-138219999D03*
X90032000Y-140000000D03*
X89016000Y-138219999D03*
X88000000Y-140000000D03*
X86984001Y-138220000D03*
X97396000Y-133400000D03*
X95106000Y-133400000D03*
X85966000Y-133400000D03*
X83676000Y-133400000D03*
D37*
X98666000Y-139110000D03*
X82406000Y-139110000D03*
%TD*%
D33*
%TO.C,R14*%
X87050000Y-128772500D03*
X88700000Y-128772500D03*
%TD*%
%LPD*%
M02*
