M48
; DRILL file {KiCad 9.0.4-9.0.4-0~ubuntu24.04.1} date 2025-09-27T21:59:24+0200
; FORMAT={-:-/ absolute / inch / decimal}
; #@! TF.CreationDate,2025-09-27T21:59:24+02:00
; #@! TF.GenerationSoftware,Kicad,Pcbnew,9.0.4-9.0.4-0~ubuntu24.04.1
; #@! TF.FileFunction,Plated,1,2,PTH
FMAT,2
INCH
; #@! TA.AperFunction,Plated,PTH,ViaDrill
T1C0.0118
; #@! TA.AperFunction,Plated,PTH,ViaDrill
T2C0.0138
; #@! TA.AperFunction,Plated,PTH,ComponentDrill
T3C0.0236
; #@! TA.AperFunction,Plated,PTH,ComponentDrill
T4C0.0315
; #@! TA.AperFunction,Plated,PTH,ComponentDrill
T5C0.0350
; #@! TA.AperFunction,Plated,PTH,ComponentDrill
T6C0.0374
; #@! TA.AperFunction,Plated,PTH,ComponentDrill
T7C0.0618
; #@! TA.AperFunction,Plated,PTH,ComponentDrill
T8C0.1063
; #@! TA.AperFunction,Plated,PTH,ComponentDrill
T9C0.1575
%
G90
G05
T1
X3.6292Y-5.0535
X3.641Y-5.1374
X3.7008Y-5.2
X3.702Y-5.1348
X3.7237Y-4.9669
X3.7276Y-5.0811
X3.7512Y-4.8409
X3.7552Y-4.9039
X3.8053Y-4.8694
X3.9693Y-4.8878
X4.0363Y-4.8012
X4.1749Y-5.3193
T2
X3.6151Y-5.1148
X3.6167Y-5.0843
X3.6749Y-5.1168
X3.6912Y-5.0909
X3.9293Y-5.267
X3.9293Y-5.3701
X3.9961Y-5.3701
X4.0039Y-5.2638
X4.1457Y-4.7825
X4.2067Y-4.7825
X4.2583Y-5.8057
X4.2871Y-5.7722
X4.3317Y-5.0503
X4.378Y-5.6443
X4.4362Y-5.725
X4.4657Y-5.6906
X4.4744Y-4.8477
X4.622Y-5.0443
X4.6646Y-5.1228
T3
X3.622Y-4.1457
X3.6566Y-4.0622
X3.6566Y-4.2292
X3.7402Y-4.0276
X3.7402Y-4.2638
X3.8237Y-4.0622
X3.8237Y-4.2292
X3.8583Y-4.1457
X4.8031Y-4.1457
X4.8377Y-4.0622
X4.8377Y-4.2292
X4.9213Y-4.0276
X4.9213Y-4.2638
X5.0048Y-4.0622
X5.0048Y-4.2292
X5.0394Y-4.1457
T4
X4.7075Y-4.5504
X4.7075Y-4.8504
X4.8075Y-4.5504
X4.8075Y-4.8504
T5
X3.2943Y-5.252
X3.3845Y-5.252
X3.4246Y-5.4417
X3.4646Y-5.5118
X3.5046Y-5.4417
X3.5446Y-5.5118
X3.5846Y-5.4417
X3.6246Y-5.5118
X3.6646Y-5.4417
X3.7046Y-5.5118
X3.7443Y-5.252
X3.8345Y-5.252
X4.0679Y-5.2512
X4.158Y-5.2512
X4.1981Y-5.4409
X4.2381Y-5.511
X4.2781Y-5.4409
X4.3181Y-5.511
X4.3581Y-5.4409
X4.3981Y-5.511
X4.4381Y-5.4409
X4.4781Y-5.511
X4.5179Y-5.2512
X4.608Y-5.2512
T6
X3.5724Y-4.537
X3.6709Y-4.537
X3.7693Y-4.537
X3.8677Y-4.537
X3.9661Y-4.537
X4.1992Y-4.5372
X4.2976Y-4.5372
X4.3961Y-4.5372
X4.4945Y-4.5372
T7
X3.2443Y-5.4768
X3.8845Y-5.4768
X4.0179Y-5.476
X4.658Y-5.476
T8
X5.0295Y-5.1941
X5.313Y-5.1941
T9
X3.7402Y-4.1457
X4.9213Y-4.1457
T3
G00X4.9055Y-5.452
M15
G01X4.9055Y-5.4087
M16
G05
G00X5.437Y-5.452
M15
G01X5.437Y-5.4087
M16
G05
M30
