%TF.GenerationSoftware,KiCad,Pcbnew,9.0.4-9.0.4-0~ubuntu24.04.1*%
%TF.CreationDate,2025-09-27T21:59:24+02:00*%
%TF.ProjectId,ModuCard-vesc-to-mms-converter,4d6f6475-4361-4726-942d-766573632d74,rev?*%
%TF.SameCoordinates,Original*%
%TF.FileFunction,Profile,NP*%
%FSLAX46Y46*%
G04 Gerber Fmt 4.6, Leading zero omitted, Abs format (unit mm)*
G04 Created by KiCad (PCBNEW 9.0.4-9.0.4-0~ubuntu24.04.1) date 2025-09-27 21:59:24*
%MOMM*%
%LPD*%
G01*
G04 APERTURE LIST*
%TA.AperFunction,Profile*%
%ADD10C,0.200000*%
%TD*%
%TA.AperFunction,Profile*%
%ADD11C,0.050000*%
%TD*%
G04 APERTURE END LIST*
D10*
X138150000Y-124400000D02*
G75*
G02*
X134850000Y-124400000I-1650000J0D01*
G01*
X134850000Y-124400000D02*
G75*
G02*
X138150000Y-124400000I1650000J0D01*
G01*
X85350000Y-125000000D02*
G75*
G02*
X82050000Y-125000000I-1650000J0D01*
G01*
X82050000Y-125000000D02*
G75*
G02*
X85350000Y-125000000I1650000J0D01*
G01*
X88650000Y-67875000D02*
G75*
G02*
X85350000Y-67875000I-1650000J0D01*
G01*
X85350000Y-67875000D02*
G75*
G02*
X88650000Y-67875000I1650000J0D01*
G01*
X88650000Y-59000000D02*
G75*
G02*
X85350000Y-59000000I-1650000J0D01*
G01*
X85350000Y-59000000D02*
G75*
G02*
X88650000Y-59000000I1650000J0D01*
G01*
X88650000Y-85625000D02*
G75*
G02*
X85350000Y-85625000I-1650000J0D01*
G01*
X85350000Y-85625000D02*
G75*
G02*
X88650000Y-85625000I1650000J0D01*
G01*
X134650000Y-59000000D02*
G75*
G02*
X131350000Y-59000000I-1650000J0D01*
G01*
X131350000Y-59000000D02*
G75*
G02*
X134650000Y-59000000I1650000J0D01*
G01*
X134650000Y-76750000D02*
G75*
G02*
X131350000Y-76750000I-1650000J0D01*
G01*
X131350000Y-76750000D02*
G75*
G02*
X134650000Y-76750000I1650000J0D01*
G01*
X134650000Y-94500000D02*
G75*
G02*
X131350000Y-94500000I-1650000J0D01*
G01*
X131350000Y-94500000D02*
G75*
G02*
X134650000Y-94500000I1650000J0D01*
G01*
X134650000Y-85625000D02*
G75*
G02*
X131350000Y-85625000I-1650000J0D01*
G01*
X131350000Y-85625000D02*
G75*
G02*
X134650000Y-85625000I1650000J0D01*
G01*
X134650000Y-67875000D02*
G75*
G02*
X131350000Y-67875000I-1650000J0D01*
G01*
X131350000Y-67875000D02*
G75*
G02*
X134650000Y-67875000I1650000J0D01*
G01*
X88650000Y-94500000D02*
G75*
G02*
X85350000Y-94500000I-1650000J0D01*
G01*
X85350000Y-94500000D02*
G75*
G02*
X88650000Y-94500000I1650000J0D01*
G01*
X88650000Y-76750000D02*
G75*
G02*
X85350000Y-76750000I-1650000J0D01*
G01*
X85350000Y-76750000D02*
G75*
G02*
X88650000Y-76750000I1650000J0D01*
G01*
D11*
X130000000Y-54000000D02*
X139000000Y-54000002D01*
X130000000Y-100000000D02*
X130000000Y-54000000D01*
X90000000Y-100050000D02*
X130000000Y-100000000D01*
X90000000Y-54000000D02*
X90000000Y-100050000D01*
X140000000Y-55000000D02*
X140000000Y-147480001D01*
X80000000Y-55000002D02*
G75*
G02*
X81000000Y-54000000I1000000J2D01*
G01*
X140000000Y-147480001D02*
G75*
G02*
X139000000Y-148480000I-1000000J1D01*
G01*
X139000000Y-54000002D02*
G75*
G02*
X139999998Y-55000002I0J-999998D01*
G01*
X80000000Y-147480001D02*
X80000000Y-55000002D01*
X139000000Y-148480001D02*
X81000000Y-148480001D01*
X81000000Y-54000000D02*
X90000000Y-54000000D01*
X81000000Y-148480001D02*
G75*
G02*
X79999999Y-147480001I0J1000001D01*
G01*
M02*
